<?xml version="1.0" encoding="utf-8" standalone="no"?>
<!DOCTYPE svg PUBLIC "-//W3C//DTD SVG 1.1//EN"
  "http://www.w3.org/Graphics/SVG/1.1/DTD/svg11.dtd">
<svg xmlns:xlink="http://www.w3.org/1999/xlink" width="444.003196pt" height="312.522666pt" viewBox="0 0 444.003196 312.522666" xmlns="http://www.w3.org/2000/svg" version="1.1">
 <metadata>
  <rdf:RDF xmlns:dc="http://purl.org/dc/elements/1.1/" xmlns:cc="http://creativecommons.org/ns#" xmlns:rdf="http://www.w3.org/1999/02/22-rdf-syntax-ns#">
   <cc:Work>
    <dc:type rdf:resource="http://purl.org/dc/dcmitype/StillImage"/>
    <dc:date>2026-04-13T18:06:24.458876</dc:date>
    <dc:format>image/svg+xml</dc:format>
    <dc:creator>
     <cc:Agent>
      <dc:title>Matplotlib v3.10.0, https://matplotlib.org/</dc:title>
     </cc:Agent>
    </dc:creator>
   </cc:Work>
  </rdf:RDF>
 </metadata>
 <defs>
  <style type="text/css">*{stroke-linejoin: round; stroke-linecap: butt}</style>
 </defs>
 <g id="figure_1">
  <g id="patch_1">
   <path d="M 0 312.522666 
L 444.003196 312.522666 
L 444.003196 0 
L 0 0 
z
" style="fill: #ffffff"/>
  </g>
  <g id="axes_1">
   <g id="patch_2">
    <path d="M 46.203196 255.171779 
L 436.803196 255.171779 
L 436.803196 10.371779 
L 46.203196 10.371779 
z
" style="fill: #ffffff"/>
   </g>
   <g id="FillBetweenPolyCollection_1">
    <defs>
     <path id="mb1b71dcdc7" d="M 63.957741 -103.353905 
L 63.957741 -68.47816 
L 64.397754 -69.596469 
L 64.837768 -70.794071 
L 66.157809 -71.974441 
L 66.597822 -73.089447 
L 67.037836 -74.135593 
L 67.477849 -75.224694 
L 67.917863 -76.298959 
L 69.677917 -77.476745 
L 70.11793 -78.713367 
L 70.557944 -79.904571 
L 70.997957 -81.166631 
L 72.317998 -82.527888 
L 72.758011 -83.938494 
L 73.198025 -85.410767 
L 73.638038 -87.000051 
L 74.078052 -88.426387 
L 75.398092 -89.936132 
L 75.838106 -91.549593 
L 76.278119 -93.33722 
L 76.718133 -95.358077 
L 77.158147 -96.317662 
L 78.478187 -97.378181 
L 78.918201 -98.420139 
L 79.358214 -99.340527 
L 79.798228 -100.166358 
L 80.238241 -100.970845 
L 81.558282 -101.690171 
L 81.998295 -102.491057 
L 82.438309 -103.185599 
L 82.878322 -103.685898 
L 83.318336 -104.153618 
L 84.638376 -104.592545 
L 85.07839 -104.976702 
L 85.518403 -105.308506 
L 85.958417 -105.647622 
L 86.39843 -105.965909 
L 87.718471 -105.993772 
L 88.158484 -106.024655 
L 88.598498 -106.226692 
L 89.038512 -106.163853 
L 89.478525 -106.097038 
L 90.798566 -106.11146 
L 91.238579 -106.259842 
L 91.678593 -106.630988 
L 92.118606 -107.023158 
L 93.87866 -107.464169 
L 94.318674 -107.874587 
L 94.758687 -108.325181 
L 95.198701 -108.84232 
L 95.638714 -109.253043 
L 96.958755 -109.680304 
L 97.398768 -110.195346 
L 97.838782 -110.623433 
L 98.278795 -111.212496 
L 98.718809 -111.655367 
L 100.038849 -112.196016 
L 100.478863 -112.785167 
L 100.918876 -113.370857 
L 101.35889 -113.743596 
L 101.798904 -114.035593 
L 103.118944 -114.17689 
L 103.558958 -114.406313 
L 103.998971 -114.55172 
L 104.438985 -114.559823 
L 104.878998 -114.466548 
L 106.199039 -114.685693 
L 106.639052 -114.85242 
L 107.079066 -115.088873 
L 107.519079 -115.454225 
L 107.959093 -115.849231 
L 109.279133 -116.301132 
L 109.719147 -116.527711 
L 110.15916 -116.97993 
L 110.599174 -117.337598 
L 111.039187 -117.53791 
L 112.799241 -117.712984 
L 113.239255 -117.805183 
L 113.679269 -117.695869 
L 114.119282 -117.791804 
L 115.439323 -117.948535 
L 115.879336 -118.155057 
L 116.31935 -118.13844 
L 116.759363 -118.187635 
L 117.199377 -118.325752 
L 118.519417 -118.522286 
L 118.959431 -118.593805 
L 119.399444 -118.568359 
L 119.839458 -118.517598 
L 120.279471 -118.470757 
L 121.599512 -118.461876 
L 122.039525 -118.493242 
L 122.479539 -118.520607 
L 122.919552 -118.51396 
L 123.359566 -118.490527 
L 124.679606 -118.401965 
L 125.11962 -118.362093 
L 125.559634 -118.279563 
L 125.999647 -118.251311 
L 126.439661 -118.201506 
L 127.759701 -118.064929 
L 128.639728 -117.882162 
L 129.079742 -117.674385 
L 129.519755 -117.673118 
L 130.839796 -117.626886 
L 131.279809 -117.499133 
L 131.719823 -117.310343 
L 132.159836 -117.178078 
L 132.59985 -117.150877 
L 133.91989 -117.134786 
L 134.359904 -117.292279 
L 134.799917 -117.638226 
L 135.239931 -117.930359 
L 135.679944 -118.371126 
L 136.999985 -118.903587 
L 137.439998 -119.627201 
L 137.880012 -119.999257 
L 138.320026 -120.510419 
L 138.760039 -120.97803 
L 140.08008 -121.511165 
L 140.520093 -122.070478 
L 140.960107 -122.702737 
L 141.40012 -123.570889 
L 141.840134 -124.259903 
L 143.160174 -125.204928 
L 143.600188 -126.157281 
L 144.040201 -127.203973 
L 144.480215 -128.2059 
L 144.920228 -129.452027 
L 146.240269 -130.554232 
L 146.680282 -131.599288 
L 147.120296 -132.546871 
L 147.560309 -133.360745 
L 148.000323 -133.83172 
L 149.320363 -134.046181 
L 149.760377 -134.423691 
L 150.200391 -134.828525 
L 150.640404 -135.076837 
L 151.080418 -135.460993 
L 152.400458 -135.839682 
L 152.840472 -136.08284 
L 153.280485 -136.195273 
L 153.720499 -136.377116 
L 154.160512 -136.847822 
L 155.920566 -137.500849 
L 156.36058 -138.299907 
L 156.800593 -138.989759 
L 157.240607 -138.958147 
L 158.560647 -139.087829 
L 159.000661 -139.260293 
L 159.440674 -139.316071 
L 159.880688 -139.322632 
L 160.320701 -139.153376 
L 161.640742 -139.215896 
L 162.080756 -139.144562 
L 162.520769 -139.051753 
L 162.960783 -138.915796 
L 163.400796 -138.835111 
L 164.720837 -138.873475 
L 165.16085 -138.790808 
L 165.600864 -138.623136 
L 166.040877 -138.545126 
L 166.480891 -138.431582 
L 167.800931 -138.103525 
L 168.240945 -137.726124 
L 168.680958 -137.370358 
L 169.120972 -136.975596 
L 169.560985 -136.681824 
L 170.881026 -136.47022 
L 171.321039 -136.333367 
L 171.761053 -136.362024 
L 172.201066 -136.450481 
L 172.64108 -136.546025 
L 173.96112 -136.794397 
L 174.401134 -136.928793 
L 174.841148 -137.056301 
L 175.281161 -137.224865 
L 175.721175 -137.507117 
L 177.041215 -137.754052 
L 177.481229 -138.109915 
L 177.921242 -138.488298 
L 178.361256 -139.066776 
L 178.801269 -139.888383 
L 180.12131 -140.873269 
L 180.561323 -142.03198 
L 181.001337 -142.957735 
L 181.44135 -143.814276 
L 181.881364 -144.7943 
L 183.201404 -145.757439 
L 183.641418 -146.787779 
L 184.081431 -147.79354 
L 184.521445 -148.951498 
L 184.961458 -149.955495 
L 186.281499 -151.002589 
L 186.721513 -152.054155 
L 187.161526 -153.147757 
L 187.60154 -154.218809 
L 188.041553 -155.408374 
L 189.361594 -156.463295 
L 189.801607 -157.22947 
L 190.241621 -157.972904 
L 191.121648 -158.751173 
L 192.441688 -160.164927 
L 192.881702 -161.634442 
L 193.321715 -163.255197 
L 193.761729 -164.886533 
L 194.201742 -166.847852 
L 195.521783 -168.904571 
L 195.961796 -170.018608 
L 196.40181 -170.606532 
L 196.841823 -170.893766 
L 197.281837 -171.507625 
L 198.601878 -171.862003 
L 199.041891 -171.838948 
L 199.481905 -171.808294 
L 199.921918 -171.81682 
L 200.361932 -171.807302 
L 201.681972 -171.789668 
L 202.121986 -171.633897 
L 202.561999 -171.523012 
L 203.002013 -171.221844 
L 203.442026 -170.98975 
L 205.20208 -170.65876 
L 205.642094 -170.440398 
L 206.082107 -169.180748 
L 206.522121 -167.162932 
L 208.282175 -166.322273 
L 208.722188 -165.057207 
L 209.162202 -163.216412 
L 209.602215 -161.831384 
L 210.922256 -161.385396 
L 211.36227 -160.992878 
L 211.802283 -160.847047 
L 212.242297 -160.976314 
L 212.68231 -161.10298 
L 214.442364 -161.248254 
L 214.882378 -161.353791 
L 215.322391 -161.50071 
L 215.762405 -161.559885 
L 217.082445 -161.632779 
L 217.522459 -161.706309 
L 217.962472 -161.793561 
L 218.402486 -161.825889 
L 218.842499 -161.829252 
L 220.16254 -161.862744 
L 220.602553 -161.901859 
L 221.042567 -161.913916 
L 221.48258 -161.941806 
L 221.922594 -162.105715 
L 223.242635 -162.253819 
L 223.682648 -162.429803 
L 224.122662 -162.728033 
L 224.562675 -162.880108 
L 225.002689 -163.038548 
L 226.322729 -163.130161 
L 226.762743 -163.154286 
L 227.202756 -163.061525 
L 227.64277 -162.842159 
L 228.082783 -162.35073 
L 229.842837 -162.296574 
L 230.282851 -161.997058 
L 230.722864 -161.597307 
L 231.162878 -161.270578 
L 232.482918 -160.888381 
L 232.922932 -160.625172 
L 233.362945 -160.522977 
L 233.802959 -160.461301 
L 234.242972 -160.261024 
L 235.563013 -160.245303 
L 236.003027 -160.323698 
L 236.44304 -160.560769 
L 236.883054 -160.910384 
L 237.323067 -161.248015 
L 238.643108 -161.587429 
L 239.083121 -162.60954 
L 239.523135 -164.213318 
L 239.963148 -164.959943 
L 240.403162 -165.714644 
L 241.723202 -167.157033 
L 242.163216 -168.106394 
L 242.603229 -168.219971 
L 243.043243 -168.206529 
L 243.483256 -167.672882 
L 244.803297 -167.14245 
L 245.24331 -166.961246 
L 245.683324 -167.090354 
L 246.123337 -167.265241 
L 247.883392 -167.261342 
L 248.323405 -167.136924 
L 248.763419 -166.961469 
L 249.203432 -166.751314 
L 249.643446 -166.436467 
L 250.963486 -166.298502 
L 251.4035 -166.197197 
L 251.843513 -166.176776 
L 252.283527 -166.131403 
L 252.72354 -166.211064 
L 254.043581 -166.262944 
L 254.483594 -166.229465 
L 254.923608 -166.195422 
L 255.363621 -166.171644 
L 255.803635 -166.206083 
L 257.123675 -166.244345 
L 257.563689 -166.331313 
L 258.003702 -166.546418 
L 258.443716 -166.788307 
L 258.883729 -167.232126 
L 260.20377 -167.85772 
L 260.643784 -168.840439 
L 261.083797 -169.249703 
L 261.523811 -170.047004 
L 261.963824 -171.089181 
L 263.283865 -172.068626 
L 263.723878 -173.19072 
L 264.163892 -174.212402 
L 264.603905 -174.997751 
L 265.043919 -175.709417 
L 266.363959 -176.82942 
L 266.803973 -177.772689 
L 267.243986 -178.482514 
L 267.684 -179.250846 
L 268.124013 -179.879692 
L 269.444054 -180.3706 
L 269.884067 -180.873892 
L 270.324081 -181.206219 
L 270.764094 -181.614651 
L 271.204108 -182.417243 
L 272.964162 -184.08175 
L 273.404176 -185.778245 
L 273.844189 -187.975496 
L 274.284203 -190.308453 
L 275.604243 -192.800304 
L 276.044257 -195.975656 
L 276.48427 -198.937816 
L 276.924284 -201.568576 
L 277.364297 -202.931 
L 278.684338 -204.390003 
L 279.124351 -204.831321 
L 279.564365 -205.148465 
L 280.004378 -205.393848 
L 280.444392 -205.551037 
L 281.764432 -205.580653 
L 282.204446 -205.62239 
L 282.644459 -205.638038 
L 283.084473 -205.803655 
L 283.524486 -205.895986 
L 284.844527 -206.038738 
L 285.284541 -206.245258 
L 285.724554 -205.891101 
L 286.164568 -205.08331 
L 286.604581 -204.467003 
L 287.924622 -203.995694 
L 288.364635 -203.838004 
L 289.244662 -203.818886 
L 289.684676 -203.824614 
L 291.004716 -204.00735 
L 291.44473 -203.994406 
L 291.884743 -203.936905 
L 292.324757 -203.864323 
L 292.76477 -203.683955 
L 294.084811 -203.378104 
L 294.524824 -203.401466 
L 294.964838 -203.559182 
L 295.404851 -203.73556 
L 295.844865 -204.056125 
L 297.164906 -204.418379 
L 297.604919 -204.923694 
L 298.044933 -205.459143 
L 298.484946 -206.201569 
L 298.92496 -206.911746 
L 300.245 -207.724947 
L 300.685014 -208.69467 
L 301.125027 -210.112562 
L 301.565041 -211.530106 
L 302.005054 -213.0915 
L 303.325095 -214.624757 
L 303.765108 -216.217176 
L 304.205122 -217.725176 
L 304.645135 -219.574418 
L 305.085149 -221.409638 
L 306.405189 -223.067007 
L 306.845203 -224.531259 
L 307.285216 -226.07296 
L 307.72523 -227.948131 
L 308.165244 -229.536248 
L 309.485284 -231.186771 
L 309.925298 -232.958864 
L 310.365311 -234.735844 
L 310.805325 -236.730078 
L 311.245338 -238.645122 
L 312.565379 -240.70417 
L 313.005392 -242.833958 
L 313.445406 -244.857783 
L 313.885419 -246.836161 
L 314.325433 -249.001721 
L 316.085487 -251.776481 
L 316.5255 -254.98059 
L 316.965514 -258.191217 
L 317.405527 -259.61186 
L 318.725568 -260.665266 
L 319.165581 -261.508352 
L 319.605595 -262.442729 
L 320.045609 -263.630262 
L 320.485622 -264.591648 
L 321.805663 -265.571717 
L 322.245676 -266.74536 
L 322.68569 -267.862857 
L 323.125703 -268.465515 
L 323.565717 -269.369237 
L 324.885757 -269.666321 
L 325.325771 -269.142283 
L 325.765784 -268.924434 
L 326.205798 -269.222494 
L 326.645811 -269.683629 
L 327.965852 -268.666895 
L 328.405865 -266.666626 
L 328.845879 -265.092301 
L 329.285892 -264.324435 
L 329.725906 -263.392153 
L 331.045946 -261.98546 
L 331.48596 -259.097353 
L 331.925973 -256.150579 
L 332.365987 -252.533885 
L 332.806001 -249.976752 
L 334.126041 -247.889638 
L 334.566055 -244.929072 
L 335.006068 -240.683543 
L 335.446082 -236.785381 
L 335.886095 -232.428801 
L 337.206136 -228.723232 
L 337.646149 -225.27137 
L 338.086163 -222.789798 
L 338.526176 -220.246084 
L 338.96619 -217.666133 
L 340.28623 -215.847068 
L 340.726244 -213.228509 
L 341.166257 -210.491914 
L 341.606271 -207.180144 
L 342.046284 -204.132608 
L 343.366325 -201.123278 
L 343.806338 -198.3206 
L 344.246352 -195.876013 
L 344.686366 -193.066229 
L 345.126379 -190.170885 
L 346.44642 -187.593396 
L 346.886433 -184.603667 
L 347.326447 -181.388495 
L 347.76646 -177.508864 
L 348.206474 -173.348787 
L 349.526514 -170.603522 
L 349.966528 -167.836284 
L 350.406541 -165.295681 
L 351.286568 -163.03153 
L 352.606609 -160.824502 
L 353.046622 -157.196506 
L 353.486636 -154.477608 
L 353.926649 -151.988311 
L 354.366663 -149.732693 
L 355.686703 -148.019838 
L 356.126717 -146.402986 
L 357.006744 -144.685123 
L 357.446758 -142.958746 
L 358.766798 -141.940567 
L 359.206812 -141.551146 
L 359.646825 -140.675137 
L 360.086839 -139.791371 
L 360.526852 -138.854379 
L 361.846893 -138.484493 
L 362.286906 -138.249061 
L 362.72692 -138.3751 
L 363.166933 -137.995172 
L 363.606947 -137.545236 
L 364.926987 -137.532558 
L 365.807014 -137.848705 
L 366.247028 -138.443305 
L 366.687041 -138.760082 
L 368.007082 -138.794198 
L 368.887109 -138.825872 
L 369.327123 -138.822275 
L 369.767136 -138.831943 
L 371.087177 -138.834654 
L 371.52719 -139.008949 
L 371.967204 -139.15226 
L 372.407217 -139.277998 
L 372.847231 -139.744197 
L 374.167271 -139.8449 
L 374.607285 -139.882074 
L 375.047298 -139.875327 
L 375.487312 -139.841076 
L 375.927325 -139.791254 
L 377.687379 -139.7446 
L 378.127393 -139.688725 
L 378.567406 -139.731822 
L 379.00742 -139.802664 
L 380.32746 -139.816517 
L 380.767474 -140.040228 
L 381.207488 -140.531364 
L 381.647501 -141.539889 
L 382.087515 -142.988442 
L 383.407555 -143.496337 
L 383.847569 -144.080321 
L 384.287582 -144.698505 
L 384.727596 -145.212501 
L 385.167609 -145.707331 
L 386.48765 -147.832046 
L 386.927663 -149.406083 
L 387.367677 -151.081791 
L 387.80769 -152.262122 
L 388.247704 -153.499861 
L 390.007758 -154.860116 
L 390.447771 -156.509607 
L 390.887785 -158.495995 
L 391.327798 -160.224712 
L 392.647839 -161.816024 
L 393.087853 -163.372838 
L 393.527866 -164.849084 
L 393.96788 -166.81602 
L 394.407893 -168.83252 
L 395.727934 -171.116872 
L 396.167947 -172.774239 
L 396.607961 -174.787554 
L 397.047974 -177.141883 
L 397.487988 -178.387518 
L 398.808028 -179.604501 
L 399.248042 -180.891 
L 399.688055 -181.802193 
L 400.128069 -182.429409 
L 400.568082 -183.109085 
L 401.888123 -184.135153 
L 402.328136 -185.136549 
L 402.76815 -186.350663 
L 403.208163 -187.572053 
L 403.648177 -188.965874 
L 404.968217 -190.372217 
L 405.408231 -191.927199 
L 405.848245 -193.340732 
L 406.288258 -194.783983 
L 406.728272 -196.361067 
L 408.048312 -197.915524 
L 408.488326 -199.453463 
L 408.928339 -201.045569 
L 409.368353 -202.622466 
L 409.808366 -204.405102 
L 411.128407 -205.471338 
L 411.56842 -206.660942 
L 412.008434 -208.058379 
L 412.448447 -209.587501 
L 412.888461 -211.398386 
L 414.208501 -212.739054 
L 414.648515 -213.614665 
L 415.088528 -213.899108 
L 415.528542 -213.740708 
L 417.288596 -213.284117 
L 417.72861 -212.520393 
L 418.168623 -211.516993 
L 418.608637 -210.765821 
L 419.04865 -209.518488 
L 419.04865 -248.278901 
L 419.04865 -248.278901 
L 418.608637 -248.045156 
L 418.168623 -247.909802 
L 417.72861 -247.719254 
L 417.288596 -247.543623 
L 415.528542 -247.419358 
L 415.088528 -247.371829 
L 414.648515 -247.446145 
L 414.208501 -247.634488 
L 412.888461 -248.086533 
L 412.448447 -248.490986 
L 412.008434 -248.690076 
L 411.56842 -248.771097 
L 411.128407 -248.85562 
L 409.808366 -248.985873 
L 409.368353 -248.744781 
L 408.928339 -248.211358 
L 408.488326 -247.471092 
L 408.048312 -246.671757 
L 406.728272 -245.32728 
L 406.288258 -243.58255 
L 405.848245 -241.99543 
L 405.408231 -240.176951 
L 404.968217 -239.262402 
L 403.648177 -237.908592 
L 403.208163 -236.516948 
L 402.76815 -234.930841 
L 402.328136 -233.064783 
L 401.888123 -231.039894 
L 400.568082 -229.264179 
L 400.128069 -227.465018 
L 399.688055 -225.668116 
L 399.248042 -224.23376 
L 398.808028 -222.79186 
L 397.487988 -221.303327 
L 397.047974 -219.740182 
L 396.607961 -218.290181 
L 396.167947 -216.722285 
L 395.727934 -214.868132 
L 394.407893 -213.482723 
L 393.96788 -212.035578 
L 393.527866 -210.51623 
L 393.087853 -208.9009 
L 392.647839 -207.515055 
L 391.327798 -206.194233 
L 390.887785 -204.959222 
L 390.447771 -203.752742 
L 390.007758 -202.532666 
L 388.247704 -200.986897 
L 387.80769 -199.090204 
L 387.367677 -196.598188 
L 386.927663 -194.938063 
L 386.48765 -193.336162 
L 385.167609 -191.669878 
L 384.727596 -189.807481 
L 384.287582 -188.144736 
L 383.847569 -186.628337 
L 383.407555 -185.136549 
L 382.087515 -183.815672 
L 381.647501 -183.083938 
L 381.207488 -182.262675 
L 380.767474 -181.254975 
L 380.32746 -180.227429 
L 379.00742 -179.384975 
L 378.567406 -178.498202 
L 378.127393 -177.85745 
L 377.687379 -177.42196 
L 375.927325 -176.889393 
L 375.487312 -176.323617 
L 375.047298 -175.955126 
L 374.607285 -175.679831 
L 374.167271 -175.875699 
L 372.847231 -176.385037 
L 372.407217 -177.962385 
L 371.967204 -178.661002 
L 371.52719 -179.506656 
L 371.087177 -180.438324 
L 369.767136 -180.772965 
L 369.327123 -181.065445 
L 368.887109 -181.171588 
L 368.007082 -181.409736 
L 366.687041 -181.67146 
L 366.247028 -183.175865 
L 365.807014 -185.966067 
L 364.926987 -188.311986 
L 363.606947 -190.051071 
L 363.166933 -192.65352 
L 362.72692 -195.351979 
L 362.286906 -199.275006 
L 361.846893 -203.574657 
L 360.526852 -207.700025 
L 360.086839 -210.808073 
L 359.646825 -213.506617 
L 359.206812 -216.768073 
L 358.766798 -221.784932 
L 357.446758 -226.052867 
L 357.006744 -229.411761 
L 356.126717 -232.507157 
L 355.686703 -235.909704 
L 354.366663 -239.539598 
L 353.926649 -242.453289 
L 353.486636 -245.981415 
L 353.046622 -249.084624 
L 352.606609 -251.663612 
L 351.286568 -254.118389 
L 350.406541 -256.949474 
L 349.966528 -259.704625 
L 349.526514 -261.851617 
L 348.206474 -264.322445 
L 347.76646 -265.598484 
L 347.326447 -266.992664 
L 346.886433 -269.406815 
L 346.44642 -271.465256 
L 345.126379 -273.556989 
L 344.686366 -275.803734 
L 344.246352 -278.341357 
L 343.806338 -280.573522 
L 343.366325 -282.434344 
L 342.046284 -284.003599 
L 341.606271 -285.3918 
L 341.166257 -286.23904 
L 340.726244 -287.298407 
L 340.28623 -288.20226 
L 338.96619 -288.99118 
L 338.526176 -289.71845 
L 338.086163 -290.268639 
L 337.646149 -290.757443 
L 337.206136 -290.791431 
L 335.886095 -291.023614 
L 335.446082 -291.002374 
L 335.006068 -290.641997 
L 334.566055 -290.143192 
L 334.126041 -289.760354 
L 332.806001 -289.86807 
L 332.365987 -289.823913 
L 331.925973 -289.400331 
L 331.48596 -289.325962 
L 331.045946 -289.093435 
L 329.725906 -289.294431 
L 329.285892 -289.476995 
L 328.845879 -289.498936 
L 328.405865 -289.072458 
L 327.965852 -288.252446 
L 326.645811 -287.88457 
L 326.205798 -287.764892 
L 325.765784 -287.753503 
L 325.325771 -287.710624 
L 324.885757 -287.619157 
L 323.565717 -287.674845 
L 323.125703 -287.80415 
L 322.68569 -287.974242 
L 322.245676 -287.969003 
L 321.805663 -288.07985 
L 320.485622 -288.155888 
L 320.045609 -288.348182 
L 319.605595 -288.336515 
L 319.165581 -288.152147 
L 318.725568 -288.177327 
L 317.405527 -287.979617 
L 316.965514 -288.29419 
L 316.5255 -289.33912 
L 316.085487 -289.495487 
L 314.325433 -289.559995 
L 313.885419 -289.233919 
L 313.445406 -288.470177 
L 313.005392 -287.274465 
L 312.565379 -286.298519 
L 311.245338 -285.40174 
L 310.805325 -284.5196 
L 310.365311 -283.66118 
L 309.925298 -283.03722 
L 309.485284 -282.221404 
L 308.165244 -281.431329 
L 307.72523 -280.808179 
L 307.285216 -280.025825 
L 306.845203 -279.243852 
L 306.405189 -278.413525 
L 305.085149 -277.594795 
L 304.645135 -276.263663 
L 304.205122 -274.618898 
L 303.765108 -273.328615 
L 303.325095 -271.730462 
L 302.005054 -270.551784 
L 301.565041 -269.052486 
L 301.125027 -267.28532 
L 300.685014 -265.030675 
L 300.245 -262.429151 
L 298.92496 -259.773831 
L 298.484946 -257.310051 
L 298.044933 -254.979202 
L 297.604919 -252.953277 
L 297.164906 -251.047861 
L 295.844865 -249.301785 
L 295.404851 -247.560229 
L 294.964838 -245.837666 
L 294.524824 -244.012499 
L 294.084811 -242.056893 
L 292.76477 -239.742415 
L 292.324757 -237.940472 
L 291.884743 -236.441737 
L 291.44473 -234.878298 
L 291.004716 -233.302357 
L 289.684676 -231.758609 
L 289.244662 -230.038488 
L 288.364635 -228.45738 
L 287.924622 -226.803903 
L 286.604581 -224.643871 
L 286.164568 -222.442975 
L 285.724554 -220.002163 
L 285.284541 -218.528381 
L 284.844527 -218.413624 
L 283.524486 -218.320665 
L 283.084473 -218.186971 
L 282.644459 -217.725374 
L 282.204446 -217.202602 
L 281.764432 -216.888352 
L 280.444392 -216.732302 
L 280.004378 -216.502047 
L 279.564365 -216.219127 
L 279.124351 -216.055868 
L 278.684338 -215.825078 
L 277.364297 -216.097496 
L 276.924284 -216.213704 
L 276.48427 -217.021784 
L 276.044257 -218.106751 
L 275.604243 -218.969109 
L 274.284203 -219.282185 
L 273.844189 -219.601219 
L 273.404176 -219.934907 
L 272.964162 -220.072263 
L 271.204108 -219.953073 
L 270.764094 -219.708388 
L 270.324081 -219.443333 
L 269.884067 -219.242514 
L 269.444054 -218.996265 
L 268.124013 -218.832413 
L 267.684 -218.537077 
L 267.243986 -218.200929 
L 266.803973 -217.787454 
L 266.363959 -217.41549 
L 265.043919 -216.839771 
L 264.603905 -216.203063 
L 264.163892 -215.386131 
L 263.723878 -214.554675 
L 263.283865 -213.558585 
L 261.963824 -212.593055 
L 261.523811 -211.547785 
L 261.083797 -210.265125 
L 260.643784 -208.908693 
L 260.20377 -207.550159 
L 258.883729 -206.268389 
L 258.443716 -205.127789 
L 258.003702 -204.376534 
L 257.563689 -203.552465 
L 257.123675 -202.786696 
L 255.803635 -201.967986 
L 255.363621 -201.163278 
L 254.923608 -200.406433 
L 254.483594 -199.87691 
L 254.043581 -199.170093 
L 252.72354 -198.410741 
L 252.283527 -197.470679 
L 251.843513 -196.441408 
L 251.4035 -195.589606 
L 250.963486 -194.469834 
L 249.643446 -193.180582 
L 249.203432 -191.907216 
L 248.763419 -190.975766 
L 248.323405 -190.230991 
L 247.883392 -189.329786 
L 246.123337 -188.414812 
L 245.683324 -188.121701 
L 245.24331 -187.871259 
L 244.803297 -187.957831 
L 243.483256 -188.048986 
L 243.043243 -187.921425 
L 242.603229 -187.917637 
L 242.163216 -187.955625 
L 241.723202 -188.379895 
L 240.403162 -188.960262 
L 239.963148 -189.165918 
L 239.523135 -189.073678 
L 239.083121 -188.90955 
L 238.643108 -188.452733 
L 237.323067 -188.090849 
L 236.883054 -187.786798 
L 236.44304 -187.505333 
L 236.003027 -187.32731 
L 235.563013 -187.209789 
L 234.242972 -187.223433 
L 233.802959 -187.435875 
L 233.362945 -187.65734 
L 232.922932 -187.930781 
L 232.482918 -188.419054 
L 231.162878 -188.989915 
L 230.722864 -189.51498 
L 230.282851 -189.838507 
L 229.842837 -190.184778 
L 228.082783 -190.275225 
L 227.64277 -190.478744 
L 227.202756 -190.643111 
L 226.762743 -190.741093 
L 226.322729 -190.688778 
L 225.002689 -190.541356 
L 224.562675 -190.177973 
L 224.122662 -189.759964 
L 223.682648 -189.262334 
L 223.242635 -188.667591 
L 221.922594 -187.865803 
L 221.48258 -187.217333 
L 221.042567 -187.032877 
L 220.602553 -186.986186 
L 220.16254 -186.781819 
L 218.842499 -186.574975 
L 218.402486 -186.537615 
L 217.962472 -186.430312 
L 217.522459 -185.986897 
L 217.082445 -185.512048 
L 215.762405 -184.944274 
L 215.322391 -184.719502 
L 214.882378 -184.559423 
L 214.442364 -184.468948 
L 212.68231 -184.330664 
L 212.242297 -184.177587 
L 211.802283 -183.994889 
L 211.36227 -184.089131 
L 210.922256 -184.244395 
L 209.602215 -184.287468 
L 209.162202 -184.185606 
L 208.722188 -183.861644 
L 208.282175 -183.832311 
L 206.522121 -183.947086 
L 206.082107 -183.262708 
L 205.642094 -182.762275 
L 205.20208 -182.733713 
L 203.442026 -182.696637 
L 203.002013 -182.633527 
L 202.561999 -182.60305 
L 202.121986 -182.689176 
L 201.681972 -182.818507 
L 200.361932 -182.883365 
L 199.921918 -182.759222 
L 199.481905 -182.542211 
L 199.041891 -182.124409 
L 198.601878 -181.510483 
L 197.281837 -180.936484 
L 196.841823 -180.757664 
L 196.40181 -180.35171 
L 195.961796 -180.206272 
L 195.521783 -180.37337 
L 194.201742 -181.029875 
L 193.761729 -181.509578 
L 193.321715 -181.662305 
L 192.881702 -181.88801 
L 192.441688 -182.032926 
L 191.121648 -182.098131 
L 190.241621 -182.072156 
L 189.801607 -181.91984 
L 189.361594 -181.781627 
L 188.041553 -181.703946 
L 187.60154 -181.326326 
L 187.161526 -180.874079 
L 186.721513 -180.445368 
L 186.281499 -179.95462 
L 184.961458 -179.26575 
L 184.521445 -178.737168 
L 184.081431 -178.350284 
L 183.641418 -177.886994 
L 183.201404 -177.440471 
L 181.881364 -176.873798 
L 181.44135 -176.521268 
L 181.001337 -176.125063 
L 180.561323 -175.735923 
L 180.12131 -175.322601 
L 178.801269 -174.829581 
L 178.361256 -174.192857 
L 177.921242 -173.462804 
L 177.481229 -172.934724 
L 177.041215 -172.09183 
L 175.721175 -171.154875 
L 175.281161 -170.055082 
L 174.841148 -168.951723 
L 174.401134 -168.049627 
L 173.96112 -167.458563 
L 172.64108 -166.738836 
L 172.201066 -166.000077 
L 171.761053 -165.467864 
L 171.321039 -164.708431 
L 170.881026 -163.730063 
L 169.560985 -162.616897 
L 169.120972 -161.323237 
L 168.680958 -159.864749 
L 168.240945 -158.444457 
L 167.800931 -156.918749 
L 166.480891 -155.534951 
L 166.040877 -154.772637 
L 165.600864 -154.127253 
L 165.16085 -153.01556 
L 164.720837 -152.197141 
L 163.400796 -151.82134 
L 162.960783 -152.023147 
L 162.520769 -152.301349 
L 162.080756 -152.427988 
L 161.640742 -152.461193 
L 160.320701 -152.449496 
L 159.880688 -152.635347 
L 159.440674 -152.617472 
L 159.000661 -152.491217 
L 158.560647 -152.336361 
L 157.240607 -152.304168 
L 156.800593 -152.314472 
L 156.36058 -152.43879 
L 155.920566 -152.619262 
L 154.160512 -152.719697 
L 153.720499 -152.765157 
L 153.280485 -152.745089 
L 152.840472 -152.750798 
L 152.400458 -152.755764 
L 151.080418 -152.805057 
L 150.640404 -152.840643 
L 150.200391 -152.861467 
L 149.760377 -152.88829 
L 149.320363 -152.933435 
L 148.000323 -152.980873 
L 147.560309 -153.076946 
L 147.120296 -153.234865 
L 146.680282 -153.295941 
L 146.240269 -153.204861 
L 144.920228 -153.105766 
L 144.480215 -152.938784 
L 144.040201 -152.76338 
L 143.600188 -152.476522 
L 143.160174 -152.040094 
L 141.840134 -151.518248 
L 141.40012 -151.140315 
L 140.960107 -150.564721 
L 140.520093 -149.867498 
L 140.08008 -149.12032 
L 138.760039 -148.138098 
L 138.320026 -147.113413 
L 137.880012 -146.115791 
L 137.439998 -145.119896 
L 136.999985 -144.266955 
L 135.679944 -143.511894 
L 135.239931 -142.781384 
L 134.799917 -141.959249 
L 134.359904 -141.113886 
L 133.91989 -140.568127 
L 132.59985 -140.303361 
L 132.159836 -140.028968 
L 131.719823 -139.329799 
L 131.279809 -138.480899 
L 130.839796 -137.953503 
L 129.519755 -137.516318 
L 129.079742 -137.263082 
L 128.639728 -136.467891 
L 127.759701 -135.770845 
L 126.439661 -135.241598 
L 125.999647 -134.949357 
L 125.559634 -134.780415 
L 125.11962 -134.447505 
L 124.679606 -134.646888 
L 123.359566 -134.86117 
L 122.919552 -134.897353 
L 122.479539 -135.280988 
L 122.039525 -135.486404 
L 121.599512 -135.784846 
L 120.279471 -135.923811 
L 119.839458 -136.064559 
L 119.399444 -136.253614 
L 118.959431 -136.336352 
L 118.519417 -136.270176 
L 117.199377 -136.177983 
L 116.759363 -136.110665 
L 116.31935 -136.090997 
L 115.879336 -136.09325 
L 115.439323 -136.1034 
L 114.119282 -136.112197 
L 113.679269 -136.121446 
L 113.239255 -136.107985 
L 112.799241 -136.117481 
L 111.039187 -136.1483 
L 110.599174 -136.176484 
L 110.15916 -136.249721 
L 109.719147 -136.287773 
L 109.279133 -136.316983 
L 107.959093 -136.343636 
L 107.519079 -136.33621 
L 107.079066 -136.33733 
L 106.639052 -136.31239 
L 106.199039 -136.29954 
L 104.878998 -136.25872 
L 104.438985 -136.257486 
L 103.998971 -136.256445 
L 103.558958 -136.238846 
L 103.118944 -136.188432 
L 101.798904 -136.164265 
L 101.35889 -136.022864 
L 100.918876 -135.459152 
L 100.478863 -134.847042 
L 100.038849 -134.292522 
L 98.718809 -133.753 
L 98.278795 -133.034455 
L 97.838782 -132.517464 
L 97.398768 -132.001128 
L 96.958755 -131.383044 
L 95.638714 -130.73736 
L 95.198701 -130.036262 
L 94.758687 -129.367351 
L 94.318674 -128.611946 
L 93.87866 -127.796515 
L 92.118606 -127.049193 
L 91.678593 -126.319689 
L 91.238579 -125.792347 
L 90.798566 -124.613072 
L 89.478525 -123.316385 
L 89.038512 -121.841756 
L 88.598498 -120.607701 
L 88.158484 -119.521801 
L 87.718471 -118.202202 
L 86.39843 -116.935793 
L 85.958417 -116.270117 
L 85.518403 -115.863541 
L 85.07839 -115.375243 
L 84.638376 -114.826103 
L 83.318336 -114.376063 
L 82.878322 -114.199414 
L 82.438309 -114.005479 
L 81.998295 -113.877544 
L 81.558282 -113.696047 
L 80.238241 -113.527194 
L 79.798228 -113.47675 
L 79.358214 -113.393995 
L 78.918201 -113.447382 
L 78.478187 -113.485809 
L 77.158147 -113.449573 
L 76.718133 -113.391491 
L 76.278119 -113.752049 
L 75.838106 -113.914905 
L 75.398092 -113.80691 
L 74.078052 -113.580952 
L 73.638038 -113.241527 
L 73.198025 -112.88601 
L 72.758011 -112.362774 
L 72.317998 -111.856272 
L 70.997957 -111.286244 
L 70.557944 -110.612202 
L 70.11793 -109.853049 
L 69.677917 -109.088985 
L 67.917863 -108.513782 
L 67.477849 -107.893461 
L 67.037836 -107.215367 
L 66.597822 -106.445287 
L 66.157809 -105.784014 
L 64.837768 -104.957397 
L 64.397754 -104.217881 
L 63.957741 -103.353905 
z
" style="stroke: #000000; stroke-opacity: 0.2; stroke-width: 0.8"/>
    </defs>
    <g clip-path="url(#p4c5d44db02)">
     <use xlink:href="#mb1b71dcdc7" x="0" y="312.522666" style="fill: #bc80bd; fill-opacity: 0.2; stroke: #000000; stroke-opacity: 0.2; stroke-width: 0.8"/>
    </g>
   </g>
   <g id="matplotlib.axis_1">
    <g id="xtick_1">
     <g id="line2d_1">
      <defs>
       <path id="mcac63c323b" d="M 0 0 
L 0 3.5 
" style="stroke: #323034; stroke-width: 0.8"/>
      </defs>
      <g>
       <use xlink:href="#mcac63c323b" x="47.237227" y="255.171779" style="fill: #323034; stroke: #323034; stroke-width: 0.8"/>
      </g>
     </g>
     <g id="text_1">
      <!-- 2017-01 -->
      <g style="fill: #323034" transform="translate(11.297812 289.267211) rotate(-30) scale(0.12 -0.12)">
       <defs>
        <path id="STIXGeneral-Regular-32" d="M 3034 877 
L 2688 0 
L 186 0 
L 186 77 
L 1325 1286 
Q 1773 1754 1965 2144 
Q 2157 2534 2157 2950 
Q 2157 3379 1920 3616 
Q 1683 3853 1267 3853 
Q 922 3853 720 3673 
Q 518 3494 326 3021 
L 192 3053 
Q 301 3648 630 3987 
Q 960 4326 1523 4326 
Q 2054 4326 2380 4006 
Q 2707 3686 2707 3200 
Q 2707 2477 1888 1613 
L 832 486 
L 2330 486 
Q 2541 486 2665 569 
Q 2790 653 2944 915 
L 3034 877 
z
" transform="scale(0.015625)"/>
        <path id="STIXGeneral-Regular-30" d="M 3046 2112 
Q 3046 1683 2963 1302 
Q 2880 922 2717 602 
Q 2554 282 2266 96 
Q 1978 -90 1600 -90 
Q 1210 -90 915 108 
Q 621 307 461 640 
Q 301 973 227 1350 
Q 154 1728 154 2150 
Q 154 2746 301 3222 
Q 448 3699 790 4012 
Q 1133 4326 1626 4326 
Q 2253 4326 2649 3712 
Q 3046 3098 3046 2112 
z
M 2432 2080 
Q 2432 3091 2217 3625 
Q 2003 4160 1587 4160 
Q 1190 4160 979 3622 
Q 768 3085 768 2106 
Q 768 1120 979 598 
Q 1190 77 1600 77 
Q 2003 77 2217 598 
Q 2432 1120 2432 2080 
z
" transform="scale(0.015625)"/>
        <path id="STIXGeneral-Regular-31" d="M 2522 0 
L 755 0 
L 755 96 
Q 1107 115 1235 227 
Q 1363 339 1363 608 
L 1363 3482 
Q 1363 3795 1171 3795 
Q 1082 3795 883 3718 
L 710 3654 
L 710 3744 
L 1856 4326 
L 1914 4307 
L 1914 486 
Q 1914 275 2042 185 
Q 2170 96 2522 96 
L 2522 0 
z
" transform="scale(0.015625)"/>
        <path id="STIXGeneral-Regular-37" d="M 2874 4134 
L 1517 -51 
L 1101 -51 
L 2368 3763 
L 992 3763 
Q 717 3763 582 3667 
Q 448 3571 243 3238 
L 128 3296 
L 512 4237 
L 2874 4237 
L 2874 4134 
z
" transform="scale(0.015625)"/>
        <path id="STIXGeneral-Regular-2d" d="M 1824 1242 
L 250 1242 
L 250 1645 
L 1824 1645 
L 1824 1242 
z
" transform="scale(0.015625)"/>
       </defs>
       <use xlink:href="#STIXGeneral-Regular-32"/>
       <use xlink:href="#STIXGeneral-Regular-30" transform="translate(49.999985 0)"/>
       <use xlink:href="#STIXGeneral-Regular-31" transform="translate(99.999969 0)"/>
       <use xlink:href="#STIXGeneral-Regular-37" transform="translate(149.999954 0)"/>
       <use xlink:href="#STIXGeneral-Regular-2d" transform="translate(199.999939 0)"/>
       <use xlink:href="#STIXGeneral-Regular-30" transform="translate(233.299927 0)"/>
       <use xlink:href="#STIXGeneral-Regular-31" transform="translate(283.299911 0)"/>
      </g>
     </g>
    </g>
    <g id="xtick_2">
     <g id="line2d_2">
      <g>
       <use xlink:href="#mcac63c323b" x="86.838444" y="255.171779" style="fill: #323034; stroke: #323034; stroke-width: 0.8"/>
      </g>
     </g>
     <g id="text_2">
      <!-- 2017-04 -->
      <g style="fill: #323034" transform="translate(50.899029 289.267211) rotate(-30) scale(0.12 -0.12)">
       <defs>
        <path id="STIXGeneral-Regular-34" d="M 3027 1069 
L 2368 1069 
L 2368 0 
L 1869 0 
L 1869 1069 
L 77 1069 
L 77 1478 
L 2086 4326 
L 2368 4326 
L 2368 1478 
L 3027 1478 
L 3027 1069 
z
M 1869 1478 
L 1869 3674 
L 333 1478 
L 1869 1478 
z
" transform="scale(0.015625)"/>
       </defs>
       <use xlink:href="#STIXGeneral-Regular-32"/>
       <use xlink:href="#STIXGeneral-Regular-30" transform="translate(49.999985 0)"/>
       <use xlink:href="#STIXGeneral-Regular-31" transform="translate(99.999969 0)"/>
       <use xlink:href="#STIXGeneral-Regular-37" transform="translate(149.999954 0)"/>
       <use xlink:href="#STIXGeneral-Regular-2d" transform="translate(199.999939 0)"/>
       <use xlink:href="#STIXGeneral-Regular-30" transform="translate(233.299927 0)"/>
       <use xlink:href="#STIXGeneral-Regular-34" transform="translate(283.299911 0)"/>
      </g>
     </g>
    </g>
    <g id="xtick_3">
     <g id="line2d_3">
      <g>
       <use xlink:href="#mcac63c323b" x="126.879674" y="255.171779" style="fill: #323034; stroke: #323034; stroke-width: 0.8"/>
      </g>
     </g>
     <g id="text_3">
      <!-- 2017-07 -->
      <g style="fill: #323034" transform="translate(90.940259 289.267211) rotate(-30) scale(0.12 -0.12)">
       <use xlink:href="#STIXGeneral-Regular-32"/>
       <use xlink:href="#STIXGeneral-Regular-30" transform="translate(49.999985 0)"/>
       <use xlink:href="#STIXGeneral-Regular-31" transform="translate(99.999969 0)"/>
       <use xlink:href="#STIXGeneral-Regular-37" transform="translate(149.999954 0)"/>
       <use xlink:href="#STIXGeneral-Regular-2d" transform="translate(199.999939 0)"/>
       <use xlink:href="#STIXGeneral-Regular-30" transform="translate(233.299927 0)"/>
       <use xlink:href="#STIXGeneral-Regular-37" transform="translate(283.299911 0)"/>
      </g>
     </g>
    </g>
    <g id="xtick_4">
     <g id="line2d_4">
      <g>
       <use xlink:href="#mcac63c323b" x="167.360918" y="255.171779" style="fill: #323034; stroke: #323034; stroke-width: 0.8"/>
      </g>
     </g>
     <g id="text_4">
      <!-- 2017-10 -->
      <g style="fill: #323034" transform="translate(131.421503 289.267211) rotate(-30) scale(0.12 -0.12)">
       <use xlink:href="#STIXGeneral-Regular-32"/>
       <use xlink:href="#STIXGeneral-Regular-30" transform="translate(49.999985 0)"/>
       <use xlink:href="#STIXGeneral-Regular-31" transform="translate(99.999969 0)"/>
       <use xlink:href="#STIXGeneral-Regular-37" transform="translate(149.999954 0)"/>
       <use xlink:href="#STIXGeneral-Regular-2d" transform="translate(199.999939 0)"/>
       <use xlink:href="#STIXGeneral-Regular-31" transform="translate(233.299927 0)"/>
       <use xlink:href="#STIXGeneral-Regular-30" transform="translate(283.299911 0)"/>
      </g>
     </g>
    </g>
    <g id="xtick_5">
     <g id="line2d_5">
      <g>
       <use xlink:href="#mcac63c323b" x="207.842161" y="255.171779" style="fill: #323034; stroke: #323034; stroke-width: 0.8"/>
      </g>
     </g>
     <g id="text_5">
      <!-- 2018-01 -->
      <g style="fill: #323034" transform="translate(171.902747 289.267211) rotate(-30) scale(0.12 -0.12)">
       <defs>
        <path id="STIXGeneral-Regular-38" d="M 2848 992 
Q 2848 499 2505 204 
Q 2163 -90 1587 -90 
Q 1050 -90 704 204 
Q 358 499 358 954 
Q 358 1293 524 1533 
Q 691 1773 1190 2125 
Q 710 2522 553 2765 
Q 397 3008 397 3328 
Q 397 3782 745 4054 
Q 1094 4326 1638 4326 
Q 2106 4326 2410 4060 
Q 2714 3795 2714 3411 
Q 2714 3059 2531 2848 
Q 2349 2637 1856 2374 
Q 2432 1990 2640 1689 
Q 2848 1389 2848 992 
z
M 2272 3411 
Q 2272 3744 2086 3945 
Q 1901 4147 1574 4147 
Q 1248 4147 1059 3977 
Q 870 3808 870 3513 
Q 870 3219 1059 2979 
Q 1248 2739 1670 2490 
Q 1997 2682 2134 2896 
Q 2272 3110 2272 3411 
z
M 1734 1741 
L 1357 1997 
Q 1075 1766 960 1545 
Q 845 1325 845 1011 
Q 845 576 1065 333 
Q 1286 90 1658 90 
Q 1971 90 2166 285 
Q 2362 480 2362 794 
Q 2362 1082 2214 1299 
Q 2067 1517 1734 1741 
z
" transform="scale(0.015625)"/>
       </defs>
       <use xlink:href="#STIXGeneral-Regular-32"/>
       <use xlink:href="#STIXGeneral-Regular-30" transform="translate(49.999985 0)"/>
       <use xlink:href="#STIXGeneral-Regular-31" transform="translate(99.999969 0)"/>
       <use xlink:href="#STIXGeneral-Regular-38" transform="translate(149.999954 0)"/>
       <use xlink:href="#STIXGeneral-Regular-2d" transform="translate(199.999939 0)"/>
       <use xlink:href="#STIXGeneral-Regular-30" transform="translate(233.299927 0)"/>
       <use xlink:href="#STIXGeneral-Regular-31" transform="translate(283.299911 0)"/>
      </g>
     </g>
    </g>
    <g id="xtick_6">
     <g id="line2d_6">
      <g>
       <use xlink:href="#mcac63c323b" x="247.443378" y="255.171779" style="fill: #323034; stroke: #323034; stroke-width: 0.8"/>
      </g>
     </g>
     <g id="text_6">
      <!-- 2018-04 -->
      <g style="fill: #323034" transform="translate(211.503963 289.267211) rotate(-30) scale(0.12 -0.12)">
       <use xlink:href="#STIXGeneral-Regular-32"/>
       <use xlink:href="#STIXGeneral-Regular-30" transform="translate(49.999985 0)"/>
       <use xlink:href="#STIXGeneral-Regular-31" transform="translate(99.999969 0)"/>
       <use xlink:href="#STIXGeneral-Regular-38" transform="translate(149.999954 0)"/>
       <use xlink:href="#STIXGeneral-Regular-2d" transform="translate(199.999939 0)"/>
       <use xlink:href="#STIXGeneral-Regular-30" transform="translate(233.299927 0)"/>
       <use xlink:href="#STIXGeneral-Regular-34" transform="translate(283.299911 0)"/>
      </g>
     </g>
    </g>
    <g id="xtick_7">
     <g id="line2d_7">
      <g>
       <use xlink:href="#mcac63c323b" x="287.484608" y="255.171779" style="fill: #323034; stroke: #323034; stroke-width: 0.8"/>
      </g>
     </g>
     <g id="text_7">
      <!-- 2018-07 -->
      <g style="fill: #323034" transform="translate(251.545193 289.267211) rotate(-30) scale(0.12 -0.12)">
       <use xlink:href="#STIXGeneral-Regular-32"/>
       <use xlink:href="#STIXGeneral-Regular-30" transform="translate(49.999985 0)"/>
       <use xlink:href="#STIXGeneral-Regular-31" transform="translate(99.999969 0)"/>
       <use xlink:href="#STIXGeneral-Regular-38" transform="translate(149.999954 0)"/>
       <use xlink:href="#STIXGeneral-Regular-2d" transform="translate(199.999939 0)"/>
       <use xlink:href="#STIXGeneral-Regular-30" transform="translate(233.299927 0)"/>
       <use xlink:href="#STIXGeneral-Regular-37" transform="translate(283.299911 0)"/>
      </g>
     </g>
    </g>
    <g id="xtick_8">
     <g id="line2d_8">
      <g>
       <use xlink:href="#mcac63c323b" x="327.965852" y="255.171779" style="fill: #323034; stroke: #323034; stroke-width: 0.8"/>
      </g>
     </g>
     <g id="text_8">
      <!-- 2018-10 -->
      <g style="fill: #323034" transform="translate(292.026437 289.267211) rotate(-30) scale(0.12 -0.12)">
       <use xlink:href="#STIXGeneral-Regular-32"/>
       <use xlink:href="#STIXGeneral-Regular-30" transform="translate(49.999985 0)"/>
       <use xlink:href="#STIXGeneral-Regular-31" transform="translate(99.999969 0)"/>
       <use xlink:href="#STIXGeneral-Regular-38" transform="translate(149.999954 0)"/>
       <use xlink:href="#STIXGeneral-Regular-2d" transform="translate(199.999939 0)"/>
       <use xlink:href="#STIXGeneral-Regular-31" transform="translate(233.299927 0)"/>
       <use xlink:href="#STIXGeneral-Regular-30" transform="translate(283.299911 0)"/>
      </g>
     </g>
    </g>
    <g id="xtick_9">
     <g id="line2d_9">
      <g>
       <use xlink:href="#mcac63c323b" x="368.447095" y="255.171779" style="fill: #323034; stroke: #323034; stroke-width: 0.8"/>
      </g>
     </g>
     <g id="text_9">
      <!-- 2019-01 -->
      <g style="fill: #323034" transform="translate(332.507681 289.267211) rotate(-30) scale(0.12 -0.12)">
       <defs>
        <path id="STIXGeneral-Regular-39" d="M 378 -141 
L 358 -13 
Q 1094 115 1603 608 
Q 2112 1101 2304 1882 
Q 1933 1517 1344 1517 
Q 826 1517 509 1875 
Q 192 2234 192 2816 
Q 192 3462 573 3894 
Q 954 4326 1523 4326 
Q 2131 4326 2528 3840 
Q 2938 3328 2938 2522 
Q 2938 1958 2742 1462 
Q 2547 966 2170 621 
Q 1773 262 1395 105 
Q 1018 -51 378 -141 
z
M 2317 2272 
L 2317 2522 
Q 2317 4147 1472 4147 
Q 1171 4147 1005 3930 
Q 909 3802 845 3546 
Q 781 3290 781 3034 
Q 781 2464 995 2128 
Q 1210 1792 1568 1792 
Q 1824 1792 2070 1917 
Q 2317 2042 2317 2272 
z
" transform="scale(0.015625)"/>
       </defs>
       <use xlink:href="#STIXGeneral-Regular-32"/>
       <use xlink:href="#STIXGeneral-Regular-30" transform="translate(49.999985 0)"/>
       <use xlink:href="#STIXGeneral-Regular-31" transform="translate(99.999969 0)"/>
       <use xlink:href="#STIXGeneral-Regular-39" transform="translate(149.999954 0)"/>
       <use xlink:href="#STIXGeneral-Regular-2d" transform="translate(199.999939 0)"/>
       <use xlink:href="#STIXGeneral-Regular-30" transform="translate(233.299927 0)"/>
       <use xlink:href="#STIXGeneral-Regular-31" transform="translate(283.299911 0)"/>
      </g>
     </g>
    </g>
    <g id="xtick_10">
     <g id="line2d_10">
      <g>
       <use xlink:href="#mcac63c323b" x="408.048312" y="255.171779" style="fill: #323034; stroke: #323034; stroke-width: 0.8"/>
      </g>
     </g>
     <g id="text_10">
      <!-- 2019-04 -->
      <g style="fill: #323034" transform="translate(372.108897 289.267211) rotate(-30) scale(0.12 -0.12)">
       <use xlink:href="#STIXGeneral-Regular-32"/>
       <use xlink:href="#STIXGeneral-Regular-30" transform="translate(49.999985 0)"/>
       <use xlink:href="#STIXGeneral-Regular-31" transform="translate(99.999969 0)"/>
       <use xlink:href="#STIXGeneral-Regular-39" transform="translate(149.999954 0)"/>
       <use xlink:href="#STIXGeneral-Regular-2d" transform="translate(199.999939 0)"/>
       <use xlink:href="#STIXGeneral-Regular-30" transform="translate(233.299927 0)"/>
       <use xlink:href="#STIXGeneral-Regular-34" transform="translate(283.299911 0)"/>
      </g>
     </g>
    </g>
    <g id="text_11">
     <!-- Date -->
     <g transform="translate(230.174446 302.718291) scale(0.12 -0.12)">
      <defs>
       <path id="STIXGeneral-Regular-44" d="M 102 4237 
L 1830 4237 
Q 3078 4237 3750 3654 
Q 4384 3110 4384 2138 
Q 4384 966 3514 410 
Q 2880 0 1901 0 
L 102 0 
L 102 122 
Q 474 147 570 252 
Q 666 358 666 736 
L 666 3520 
Q 666 3891 570 3990 
Q 474 4090 102 4115 
L 102 4237 
z
M 1318 3731 
L 1318 538 
Q 1318 365 1379 301 
Q 1440 237 1626 237 
Q 2125 237 2432 307 
Q 2739 378 3021 570 
Q 3686 1018 3686 2099 
Q 3686 3027 3078 3558 
Q 2803 3802 2476 3901 
Q 2150 4000 1658 4000 
Q 1472 4000 1395 3942 
Q 1318 3885 1318 3731 
z
" transform="scale(0.015625)"/>
       <path id="STIXGeneral-Regular-61" d="M 2829 422 
L 2829 243 
Q 2586 -64 2253 -64 
Q 1888 -64 1843 403 
L 1837 403 
Q 1427 -64 909 -64 
Q 608 -64 422 112 
Q 237 288 237 602 
Q 237 1050 685 1350 
Q 992 1555 1837 1869 
L 1837 2214 
Q 1837 2502 1699 2646 
Q 1562 2790 1338 2790 
Q 1146 2790 1018 2697 
Q 890 2605 890 2477 
Q 890 2419 909 2348 
Q 928 2278 928 2208 
Q 928 2112 841 2029 
Q 755 1946 634 1946 
Q 525 1946 441 2029 
Q 358 2112 358 2240 
Q 358 2547 685 2752 
Q 986 2944 1421 2944 
Q 1939 2944 2176 2656 
Q 2291 2522 2323 2384 
Q 2355 2246 2355 1946 
L 2355 723 
Q 2355 301 2554 301 
Q 2682 301 2829 422 
z
M 1837 813 
L 1837 1715 
Q 1248 1510 1018 1293 
Q 800 1094 800 800 
Q 800 557 921 432 
Q 1043 307 1242 307 
Q 1453 307 1613 410 
Q 1747 506 1792 589 
Q 1837 672 1837 813 
z
" transform="scale(0.015625)"/>
       <path id="STIXGeneral-Regular-74" d="M 1702 493 
L 1786 422 
Q 1478 -64 1011 -64 
Q 448 -64 448 749 
L 448 2675 
L 109 2675 
Q 83 2694 83 2720 
Q 83 2771 192 2842 
Q 435 2982 813 3526 
Q 826 3546 874 3606 
Q 922 3667 941 3706 
Q 986 3706 986 3622 
L 986 2880 
L 1632 2880 
L 1632 2675 
L 986 2675 
L 986 845 
Q 986 538 1062 403 
Q 1139 269 1318 269 
Q 1510 269 1702 493 
z
" transform="scale(0.015625)"/>
       <path id="STIXGeneral-Regular-65" d="M 2611 1050 
L 2714 1005 
Q 2330 -64 1376 -64 
Q 813 -64 486 329 
Q 160 723 160 1389 
Q 160 2074 525 2509 
Q 890 2944 1485 2944 
Q 2061 2944 2374 2502 
Q 2560 2246 2592 1773 
L 621 1773 
Q 646 1370 700 1158 
Q 755 947 915 730 
Q 1184 378 1626 378 
Q 1939 378 2153 531 
Q 2368 685 2611 1050 
z
M 634 1978 
L 1939 1978 
Q 1882 2381 1750 2547 
Q 1619 2714 1312 2714 
Q 1043 2714 864 2525 
Q 685 2336 634 1978 
z
" transform="scale(0.015625)"/>
      </defs>
      <use xlink:href="#STIXGeneral-Regular-44"/>
      <use xlink:href="#STIXGeneral-Regular-61" transform="translate(72.199982 0)"/>
      <use xlink:href="#STIXGeneral-Regular-74" transform="translate(116.599976 0)"/>
      <use xlink:href="#STIXGeneral-Regular-65" transform="translate(144.399963 0)"/>
     </g>
    </g>
   </g>
   <g id="matplotlib.axis_2">
    <g id="ytick_1">
     <g id="line2d_11">
      <defs>
       <path id="m3359f173aa" d="M 0 0 
L -3.5 0 
" style="stroke: #323034; stroke-width: 0.8"/>
      </defs>
      <g>
       <use xlink:href="#m3359f173aa" x="46.203196" y="225.227874" style="fill: #323034; stroke: #323034; stroke-width: 0.8"/>
      </g>
     </g>
     <g id="text_12">
      <!-- $\mathdefault{30}$ -->
      <g style="fill: #323034" transform="translate(27.203196 229.325687) scale(0.12 -0.12)">
       <defs>
        <path id="STIXGeneral-Regular-33" d="M 390 3264 
L 288 3290 
Q 435 3770 748 4048 
Q 1062 4326 1542 4326 
Q 1990 4326 2265 4083 
Q 2541 3840 2541 3450 
Q 2541 2925 1946 2566 
Q 2298 2413 2477 2227 
Q 2758 1914 2758 1402 
Q 2758 890 2464 506 
Q 2246 211 1840 60 
Q 1434 -90 979 -90 
Q 262 -90 262 275 
Q 262 378 339 442 
Q 416 506 525 506 
Q 685 506 915 339 
Q 1197 141 1466 141 
Q 1818 141 2058 425 
Q 2298 710 2298 1120 
Q 2298 1856 1632 2048 
Q 1434 2112 979 2112 
L 979 2202 
Q 1338 2323 1517 2432 
Q 2035 2726 2035 3290 
Q 2035 3610 1852 3776 
Q 1670 3942 1344 3942 
Q 768 3942 390 3264 
z
" transform="scale(0.015625)"/>
       </defs>
       <use xlink:href="#STIXGeneral-Regular-33" transform="translate(0 0.40625)"/>
       <use xlink:href="#STIXGeneral-Regular-30" transform="translate(49.999985 0.40625)"/>
      </g>
     </g>
    </g>
    <g id="ytick_2">
     <g id="line2d_12">
      <g>
       <use xlink:href="#m3359f173aa" x="46.203196" y="182.441862" style="fill: #323034; stroke: #323034; stroke-width: 0.8"/>
      </g>
     </g>
     <g id="text_13">
      <!-- $\mathdefault{35}$ -->
      <g style="fill: #323034" transform="translate(27.203196 186.539674) scale(0.12 -0.12)">
       <defs>
        <path id="STIXGeneral-Regular-35" d="M 2803 4358 
L 2573 3814 
Q 2534 3731 2400 3731 
L 1158 3731 
L 902 3187 
Q 1606 3053 1920 2896 
Q 2234 2739 2502 2368 
Q 2726 2061 2726 1555 
Q 2726 1094 2576 780 
Q 2426 467 2099 224 
Q 1664 -90 1011 -90 
Q 646 -90 422 19 
Q 198 128 198 307 
Q 198 550 486 550 
Q 717 550 960 352 
Q 1210 147 1414 147 
Q 1747 147 2012 480 
Q 2278 813 2278 1229 
Q 2278 1843 1850 2189 
Q 1293 2637 486 2637 
Q 410 2637 410 2688 
L 416 2720 
L 1114 4237 
L 2438 4237 
Q 2547 4237 2608 4269 
Q 2669 4301 2746 4403 
L 2803 4358 
z
" transform="scale(0.015625)"/>
       </defs>
       <use xlink:href="#STIXGeneral-Regular-33" transform="translate(0 0.203125)"/>
       <use xlink:href="#STIXGeneral-Regular-35" transform="translate(49.999985 0.203125)"/>
      </g>
     </g>
    </g>
    <g id="ytick_3">
     <g id="line2d_13">
      <g>
       <use xlink:href="#m3359f173aa" x="46.203196" y="139.65585" style="fill: #323034; stroke: #323034; stroke-width: 0.8"/>
      </g>
     </g>
     <g id="text_14">
      <!-- $\mathdefault{40}$ -->
      <g style="fill: #323034" transform="translate(27.203196 143.753662) scale(0.12 -0.12)">
       <use xlink:href="#STIXGeneral-Regular-34" transform="translate(0 0.40625)"/>
       <use xlink:href="#STIXGeneral-Regular-30" transform="translate(49.999985 0.40625)"/>
      </g>
     </g>
    </g>
    <g id="ytick_4">
     <g id="line2d_14">
      <g>
       <use xlink:href="#m3359f173aa" x="46.203196" y="96.869837" style="fill: #323034; stroke: #323034; stroke-width: 0.8"/>
      </g>
     </g>
     <g id="text_15">
      <!-- $\mathdefault{45}$ -->
      <g style="fill: #323034" transform="translate(27.203196 100.96765) scale(0.12 -0.12)">
       <use xlink:href="#STIXGeneral-Regular-34" transform="translate(0 0.203125)"/>
       <use xlink:href="#STIXGeneral-Regular-35" transform="translate(49.999985 0.203125)"/>
      </g>
     </g>
    </g>
    <g id="ytick_5">
     <g id="line2d_15">
      <g>
       <use xlink:href="#m3359f173aa" x="46.203196" y="54.083825" style="fill: #323034; stroke: #323034; stroke-width: 0.8"/>
      </g>
     </g>
     <g id="text_16">
      <!-- $\mathdefault{50}$ -->
      <g style="fill: #323034" transform="translate(27.203196 58.181637) scale(0.12 -0.12)">
       <use xlink:href="#STIXGeneral-Regular-35" transform="translate(0 0.203125)"/>
       <use xlink:href="#STIXGeneral-Regular-30" transform="translate(49.999985 0.203125)"/>
      </g>
     </g>
    </g>
    <g id="ytick_6">
     <g id="line2d_16">
      <g>
       <use xlink:href="#m3359f173aa" x="46.203196" y="11.297812" style="fill: #323034; stroke: #323034; stroke-width: 0.8"/>
      </g>
     </g>
     <g id="text_17">
      <!-- $\mathdefault{55}$ -->
      <g style="fill: #323034" transform="translate(27.203196 15.395625) scale(0.12 -0.12)">
       <use xlink:href="#STIXGeneral-Regular-35" transform="translate(0 0.203125)"/>
       <use xlink:href="#STIXGeneral-Regular-35" transform="translate(49.999985 0.203125)"/>
      </g>
     </g>
    </g>
    <g id="text_18">
     <!-- Close ($) -->
     <g transform="translate(21.598821 154.936154) rotate(-90) scale(0.12 -0.12)">
      <defs>
       <path id="STIXGeneral-Regular-43" d="M 3930 838 
L 4051 723 
Q 3482 -90 2304 -90 
Q 1376 -90 794 480 
Q 179 1082 179 2080 
Q 179 3014 755 3661 
Q 1357 4326 2310 4326 
Q 2720 4326 3072 4230 
Q 3475 4115 3514 4115 
Q 3725 4115 3782 4326 
L 3910 4326 
L 3968 2874 
L 3821 2874 
Q 3718 3334 3488 3584 
Q 3034 4070 2458 4070 
Q 1747 4070 1334 3548 
Q 922 3027 922 2182 
Q 922 1152 1382 653 
Q 1811 192 2522 192 
Q 2944 192 3251 339 
Q 3558 486 3930 838 
z
" transform="scale(0.015625)"/>
       <path id="STIXGeneral-Regular-6c" d="M 1645 0 
L 134 0 
L 134 96 
Q 435 122 531 221 
Q 627 320 627 589 
L 627 3590 
Q 627 3821 569 3910 
Q 512 4000 358 4000 
Q 224 4000 122 3987 
L 122 4090 
Q 730 4237 1133 4371 
L 1165 4346 
L 1165 557 
Q 1165 288 1254 201 
Q 1344 115 1645 96 
L 1645 0 
z
" transform="scale(0.015625)"/>
       <path id="STIXGeneral-Regular-6f" d="M 3008 1478 
Q 3008 806 2608 371 
Q 2208 -64 1568 -64 
Q 979 -64 582 368 
Q 186 800 186 1459 
Q 186 2125 582 2534 
Q 979 2944 1626 2944 
Q 2221 2944 2614 2537 
Q 3008 2131 3008 1478 
z
M 2432 1306 
Q 2432 2035 2112 2445 
Q 1856 2765 1504 2765 
Q 1171 2765 966 2493 
Q 762 2221 762 1747 
Q 762 928 1101 435 
Q 1318 115 1677 115 
Q 2029 115 2230 432 
Q 2432 749 2432 1306 
z
" transform="scale(0.015625)"/>
       <path id="STIXGeneral-Regular-73" d="M 998 1926 
L 1664 1523 
Q 1984 1331 2105 1164 
Q 2227 998 2227 736 
Q 2227 416 1961 176 
Q 1696 -64 1331 -64 
Q 1030 -64 864 -6 
Q 691 51 570 51 
Q 461 51 416 -26 
L 333 -26 
L 333 979 
L 435 979 
Q 538 512 730 294 
Q 922 77 1248 77 
Q 1485 77 1632 211 
Q 1779 346 1779 550 
Q 1779 845 1440 1030 
L 1094 1222 
Q 326 1651 326 2150 
Q 326 2522 566 2730 
Q 806 2938 1210 2938 
Q 1491 2938 1638 2867 
Q 1754 2816 1818 2816 
Q 1862 2816 1920 2880 
L 1990 2880 
L 2022 2010 
L 1926 2010 
Q 1818 2445 1654 2621 
Q 1491 2797 1203 2797 
Q 986 2797 854 2688 
Q 723 2579 723 2362 
Q 723 2253 796 2128 
Q 870 2003 998 1926 
z
" transform="scale(0.015625)"/>
       <path id="STIXGeneral-Regular-20" transform="scale(0.015625)"/>
       <path id="STIXGeneral-Regular-28" d="M 1946 -1030 
L 1869 -1133 
Q 1126 -710 716 32 
Q 307 774 307 1613 
Q 307 3386 1888 4326 
L 1946 4224 
Q 1293 3667 1075 3126 
Q 858 2586 858 1632 
Q 858 685 1082 96 
Q 1306 -493 1946 -1030 
z
" transform="scale(0.015625)"/>
       <path id="STIXGeneral-Regular-24" d="M 1690 4077 
L 1690 2502 
Q 2234 2208 2445 2045 
Q 2656 1882 2797 1664 
Q 2931 1466 2931 1088 
Q 2931 570 2614 326 
Q 2298 83 1690 0 
L 1690 -557 
L 1472 -557 
L 1472 0 
Q 1062 0 806 73 
Q 550 147 282 326 
L 282 1158 
L 378 1158 
Q 480 685 761 432 
Q 1043 179 1472 179 
L 1472 1984 
Q 800 2362 566 2624 
Q 333 2886 333 3283 
Q 333 3731 659 3974 
Q 986 4218 1472 4250 
L 1472 4653 
L 1690 4653 
L 1690 4250 
Q 2426 4205 2720 3910 
L 2720 3200 
L 2624 3200 
Q 2528 3597 2301 3814 
Q 2074 4032 1690 4077 
z
M 1472 2605 
L 1472 4077 
Q 806 3942 806 3405 
Q 806 3194 937 3037 
Q 1069 2880 1472 2605 
z
M 1690 1875 
L 1690 179 
Q 2086 262 2252 432 
Q 2419 602 2419 941 
Q 2419 1235 2272 1427 
Q 2125 1619 1690 1875 
z
" transform="scale(0.015625)"/>
       <path id="STIXGeneral-Regular-29" d="M 186 4224 
L 262 4326 
Q 992 3891 1408 3148 
Q 1824 2406 1824 1581 
Q 1824 -166 243 -1133 
L 186 -1030 
Q 845 -486 1059 54 
Q 1274 595 1274 1562 
Q 1274 2534 1059 3120 
Q 845 3706 186 4224 
z
" transform="scale(0.015625)"/>
      </defs>
      <use xlink:href="#STIXGeneral-Regular-43"/>
      <use xlink:href="#STIXGeneral-Regular-6c" transform="translate(66.699997 0)"/>
      <use xlink:href="#STIXGeneral-Regular-6f" transform="translate(94.499985 0)"/>
      <use xlink:href="#STIXGeneral-Regular-73" transform="translate(144.499969 0)"/>
      <use xlink:href="#STIXGeneral-Regular-65" transform="translate(183.399963 0)"/>
      <use xlink:href="#STIXGeneral-Regular-20" transform="translate(227.799957 0)"/>
      <use xlink:href="#STIXGeneral-Regular-28" transform="translate(252.799942 0)"/>
      <use xlink:href="#STIXGeneral-Regular-24" transform="translate(286.09993 0)"/>
      <use xlink:href="#STIXGeneral-Regular-29" transform="translate(336.099915 0)"/>
     </g>
    </g>
   </g>
   <g id="line2d_17">
    <path d="M 63.957741 226.606633 
L 64.837768 224.646932 
L 66.157809 223.643438 
L 67.917863 220.116295 
L 69.677917 219.2398 
L 70.997957 216.296228 
L 72.317998 215.330586 
L 74.078052 211.518996 
L 75.398092 210.651145 
L 76.718133 208.147882 
L 77.158147 207.639048 
L 78.478187 207.09067 
L 79.798228 205.701112 
L 80.238241 205.273646 
L 81.558282 204.829556 
L 82.438309 203.927126 
L 83.318336 203.257825 
L 84.638376 202.813341 
L 86.39843 201.071814 
L 87.718471 200.424678 
L 89.478525 197.815954 
L 90.798566 197.1604 
L 91.238579 196.496571 
L 92.118606 195.48649 
L 93.87866 194.892323 
L 95.638714 192.527464 
L 96.958755 191.990991 
L 98.718809 189.818482 
L 100.038849 189.278396 
L 101.35889 187.639435 
L 101.798904 187.422737 
L 103.118944 187.340004 
L 103.998971 187.118583 
L 106.199039 187.030049 
L 107.079066 186.809564 
L 107.959093 186.426232 
L 109.719147 186.114924 
L 110.599174 185.765625 
L 111.039187 185.67956 
L 116.759363 185.373515 
L 117.199377 185.270798 
L 119.399444 185.111679 
L 120.279471 185.325381 
L 122.039525 185.532843 
L 125.11962 186.117867 
L 126.439661 185.801114 
L 127.759701 185.604778 
L 128.639728 185.347639 
L 129.079742 185.053932 
L 129.519755 184.927948 
L 130.839796 184.732471 
L 131.279809 184.53265 
L 132.159836 183.919143 
L 132.59985 183.795546 
L 133.91989 183.671209 
L 134.359904 183.319583 
L 135.679944 181.581156 
L 136.999985 180.937395 
L 138.760039 177.964601 
L 140.08008 177.206923 
L 141.840134 174.63359 
L 143.160174 173.900155 
L 144.920228 171.243769 
L 146.240269 170.643119 
L 147.120296 169.631797 
L 147.560309 169.30382 
L 148.000323 169.116369 
L 149.320363 169.032858 
L 151.080418 168.38964 
L 153.720499 167.951529 
L 154.160512 167.738906 
L 155.920566 167.46261 
L 156.800593 166.87055 
L 157.240607 166.891508 
L 158.560647 166.810571 
L 159.440674 166.555894 
L 159.880688 166.543676 
L 160.320701 166.72123 
L 162.080756 166.73639 
L 162.960783 167.053194 
L 163.400796 167.19444 
L 164.720837 166.987358 
L 166.480891 165.539399 
L 167.800931 165.011528 
L 169.560985 162.873305 
L 170.881026 162.422524 
L 172.64108 160.880235 
L 173.96112 160.396186 
L 174.401134 160.033455 
L 175.281161 158.882692 
L 175.721175 158.191669 
L 177.041215 157.599724 
L 178.801269 155.163683 
L 180.12131 154.42473 
L 181.001337 152.981266 
L 181.881364 151.688616 
L 183.201404 150.923711 
L 184.961458 147.912043 
L 186.281499 147.044061 
L 188.041553 143.966506 
L 189.361594 143.400205 
L 190.241621 142.500136 
L 192.441688 141.423739 
L 194.201742 138.583802 
L 195.521783 137.883695 
L 196.40181 137.043545 
L 197.281837 136.300611 
L 198.601878 135.836422 
L 199.481905 135.347413 
L 200.361932 135.177332 
L 201.681972 135.218578 
L 203.442026 135.679472 
L 205.642094 135.921329 
L 206.082107 136.300938 
L 206.522121 136.967657 
L 208.282175 137.445373 
L 209.602215 139.463239 
L 210.922256 139.70777 
L 211.36227 139.981661 
L 211.802283 140.101697 
L 212.68231 139.805844 
L 214.882378 139.566058 
L 215.762405 139.270586 
L 217.082445 138.950252 
L 217.962472 138.410729 
L 218.842499 138.320552 
L 221.042567 138.049269 
L 221.48258 137.943096 
L 221.922594 137.536907 
L 223.242635 137.061961 
L 224.562675 135.993625 
L 225.002689 135.732713 
L 226.762743 135.574976 
L 227.64277 135.862214 
L 228.082783 136.209688 
L 229.842837 136.281989 
L 230.722864 136.966522 
L 231.162878 137.392419 
L 232.482918 137.868948 
L 232.922932 138.244689 
L 234.242972 138.780437 
L 236.003027 138.697162 
L 236.883054 138.174074 
L 237.323067 137.853234 
L 238.643108 137.502584 
L 239.963148 135.459735 
L 240.403162 135.185213 
L 241.723202 134.754201 
L 242.163216 134.491656 
L 243.043243 134.458689 
L 243.483256 134.661732 
L 245.24331 135.106413 
L 246.123337 134.682639 
L 247.883392 134.227101 
L 249.643446 132.714141 
L 250.963486 132.138498 
L 252.72354 130.211763 
L 254.043581 129.806147 
L 255.803635 128.435631 
L 257.123675 128.007145 
L 258.003702 127.061189 
L 258.443716 126.564617 
L 258.883729 125.772408 
L 260.20377 124.818726 
L 261.083797 122.765251 
L 261.963824 120.681547 
L 263.283865 119.70906 
L 264.163892 117.723399 
L 265.043919 116.248072 
L 266.363959 115.40021 
L 267.243986 114.180944 
L 268.124013 113.166613 
L 269.444054 112.839233 
L 270.324081 112.19789 
L 270.764094 111.861146 
L 271.204108 111.337507 
L 272.964162 110.445659 
L 273.844189 108.734308 
L 274.284203 107.727346 
L 275.604243 106.637959 
L 276.48427 104.542866 
L 276.924284 103.631526 
L 277.364297 103.008418 
L 278.684338 102.415125 
L 279.564365 101.83887 
L 280.444392 101.380996 
L 281.764432 101.288163 
L 282.644459 100.84096 
L 283.084473 100.527353 
L 283.524486 100.41434 
L 284.844527 100.296485 
L 285.284541 100.135846 
L 285.724554 99.576034 
L 286.604581 97.967228 
L 287.924622 97.122867 
L 288.364635 96.374973 
L 289.244662 95.593978 
L 289.684676 94.731054 
L 291.004716 93.867812 
L 292.76477 90.80948 
L 294.084811 89.805167 
L 295.844865 85.84371 
L 297.164906 84.789546 
L 298.044933 82.303493 
L 298.92496 79.179877 
L 300.245 77.445616 
L 302.005054 70.701023 
L 303.325095 69.345056 
L 305.085149 63.020449 
L 306.405189 61.782399 
L 308.165244 57.038877 
L 309.485284 55.818578 
L 311.245338 50.499234 
L 312.565379 49.021321 
L 313.885419 44.487626 
L 314.325433 43.241807 
L 316.085487 41.886682 
L 316.5255 40.36281 
L 316.965514 39.279962 
L 317.405527 38.726927 
L 318.725568 38.101369 
L 319.605595 37.133044 
L 320.045609 36.533443 
L 320.485622 36.148897 
L 321.805663 35.696882 
L 322.68569 34.604116 
L 323.125703 34.387833 
L 323.565717 34.000625 
L 324.885757 33.879927 
L 325.325771 34.096212 
L 325.765784 34.183697 
L 326.205798 34.028973 
L 326.645811 33.738566 
L 327.965852 34.062995 
L 328.845879 35.227047 
L 329.285892 35.62195 
L 329.725906 36.179374 
L 331.045946 36.983218 
L 331.925973 39.747211 
L 332.806001 42.600255 
L 334.126041 43.69767 
L 334.566055 44.986534 
L 335.886095 50.796458 
L 337.206136 52.765334 
L 338.526176 57.540398 
L 338.96619 59.194009 
L 340.28623 60.498001 
L 341.606271 66.236694 
L 342.046284 68.454562 
L 343.366325 70.743854 
L 345.126379 80.658729 
L 346.44642 82.99334 
L 348.206474 93.687049 
L 349.526514 96.295096 
L 350.406541 101.400088 
L 351.286568 103.947706 
L 352.606609 106.278608 
L 353.926649 115.301865 
L 354.366663 117.88652 
L 355.686703 120.557894 
L 356.126717 123.067594 
L 357.006744 125.474224 
L 357.446758 128.016859 
L 358.766798 130.659916 
L 359.646825 135.431789 
L 360.526852 139.245463 
L 361.846893 141.493091 
L 362.72692 145.659126 
L 363.606947 148.724512 
L 364.926987 149.600393 
L 365.807014 150.615279 
L 366.247028 151.713081 
L 366.687041 152.306894 
L 369.327123 152.578805 
L 369.767136 152.720211 
L 371.087177 152.886176 
L 372.847231 154.458048 
L 374.607285 154.741713 
L 375.487312 154.440319 
L 375.927325 154.182342 
L 377.687379 153.939386 
L 378.127393 153.749578 
L 379.00742 152.928846 
L 380.32746 152.500692 
L 381.207488 151.125646 
L 382.087515 149.120608 
L 383.407555 148.206222 
L 385.167609 143.834061 
L 386.48765 141.938561 
L 388.247704 135.279286 
L 390.007758 133.826274 
L 391.327798 129.313193 
L 392.647839 127.857126 
L 393.96788 123.096866 
L 394.407893 121.365044 
L 395.727934 119.530164 
L 397.487988 112.677243 
L 398.808028 111.324485 
L 400.128069 107.575452 
L 400.568082 106.336034 
L 401.888123 104.935142 
L 403.648177 99.085433 
L 404.968217 97.705356 
L 405.408231 96.470591 
L 406.728272 91.678492 
L 408.048312 90.229025 
L 409.808366 85.827178 
L 411.128407 85.359187 
L 412.008434 84.148438 
L 412.888461 82.780206 
L 414.208501 82.335894 
L 414.648515 81.99226 
L 415.088528 81.887197 
L 417.288596 82.108796 
L 418.608637 83.117177 
L 419.04865 83.623971 
L 419.04865 83.623971 
" clip-path="url(#p4c5d44db02)" style="fill: none; stroke: #bc80bd; stroke-width: 2; stroke-linecap: square"/>
   </g>
   <g id="patch_3">
    <path d="M 46.203196 255.171779 
L 46.203196 10.371779 
" style="fill: none; stroke: #000000; stroke-width: 0.6; stroke-linejoin: miter; stroke-linecap: square"/>
   </g>
   <g id="patch_4">
    <path d="M 46.203196 255.171779 
L 436.803196 255.171779 
" style="fill: none; stroke: #000000; stroke-width: 0.6; stroke-linejoin: miter; stroke-linecap: square"/>
   </g>
  </g>
 </g>
 <defs>
  <clipPath id="p4c5d44db02">
   <rect x="46.203196" y="10.371779" width="390.6" height="244.8"/>
  </clipPath>
 </defs>
</svg>
