<?xml version="1.0" encoding="utf-8" standalone="no"?>
<!DOCTYPE svg PUBLIC "-//W3C//DTD SVG 1.1//EN"
  "http://www.w3.org/Graphics/SVG/1.1/DTD/svg11.dtd">
<svg xmlns:xlink="http://www.w3.org/1999/xlink" width="437.84875pt" height="309.350887pt" viewBox="0 0 437.84875 309.350887" xmlns="http://www.w3.org/2000/svg" version="1.1">
 <metadata>
  <rdf:RDF xmlns:dc="http://purl.org/dc/elements/1.1/" xmlns:cc="http://creativecommons.org/ns#" xmlns:rdf="http://www.w3.org/1999/02/22-rdf-syntax-ns#">
   <cc:Work>
    <dc:type rdf:resource="http://purl.org/dc/dcmitype/StillImage"/>
    <dc:date>2026-04-13T18:06:24.298531</dc:date>
    <dc:format>image/svg+xml</dc:format>
    <dc:creator>
     <cc:Agent>
      <dc:title>Matplotlib v3.10.0, https://matplotlib.org/</dc:title>
     </cc:Agent>
    </dc:creator>
   </cc:Work>
  </rdf:RDF>
 </metadata>
 <defs>
  <style type="text/css">*{stroke-linejoin: round; stroke-linecap: butt}</style>
 </defs>
 <g id="figure_1">
  <g id="patch_1">
   <path d="M 0 309.350887 
L 437.84875 309.350887 
L 437.84875 0 
L 0 0 
z
" style="fill: #ffffff"/>
  </g>
  <g id="axes_1">
   <g id="patch_2">
    <path d="M 40.04875 252 
L 430.64875 252 
L 430.64875 7.2 
L 40.04875 7.2 
z
" style="fill: #ffffff"/>
   </g>
   <g id="matplotlib.axis_1">
    <g id="xtick_1">
     <g id="line2d_1">
      <defs>
       <path id="mb4ae24d7df" d="M 0 0 
L 0 3.5 
" style="stroke: #323034; stroke-width: 0.8"/>
      </defs>
      <g>
       <use xlink:href="#mb4ae24d7df" x="56.994432" y="252" style="fill: #323034; stroke: #323034; stroke-width: 0.8"/>
      </g>
     </g>
     <g id="text_1">
      <!-- 2017-01 -->
      <g style="fill: #323034" transform="translate(21.055018 286.095432) rotate(-30) scale(0.12 -0.12)">
       <defs>
        <path id="STIXGeneral-Regular-32" d="M 3034 877 
L 2688 0 
L 186 0 
L 186 77 
L 1325 1286 
Q 1773 1754 1965 2144 
Q 2157 2534 2157 2950 
Q 2157 3379 1920 3616 
Q 1683 3853 1267 3853 
Q 922 3853 720 3673 
Q 518 3494 326 3021 
L 192 3053 
Q 301 3648 630 3987 
Q 960 4326 1523 4326 
Q 2054 4326 2380 4006 
Q 2707 3686 2707 3200 
Q 2707 2477 1888 1613 
L 832 486 
L 2330 486 
Q 2541 486 2665 569 
Q 2790 653 2944 915 
L 3034 877 
z
" transform="scale(0.015625)"/>
        <path id="STIXGeneral-Regular-30" d="M 3046 2112 
Q 3046 1683 2963 1302 
Q 2880 922 2717 602 
Q 2554 282 2266 96 
Q 1978 -90 1600 -90 
Q 1210 -90 915 108 
Q 621 307 461 640 
Q 301 973 227 1350 
Q 154 1728 154 2150 
Q 154 2746 301 3222 
Q 448 3699 790 4012 
Q 1133 4326 1626 4326 
Q 2253 4326 2649 3712 
Q 3046 3098 3046 2112 
z
M 2432 2080 
Q 2432 3091 2217 3625 
Q 2003 4160 1587 4160 
Q 1190 4160 979 3622 
Q 768 3085 768 2106 
Q 768 1120 979 598 
Q 1190 77 1600 77 
Q 2003 77 2217 598 
Q 2432 1120 2432 2080 
z
" transform="scale(0.015625)"/>
        <path id="STIXGeneral-Regular-31" d="M 2522 0 
L 755 0 
L 755 96 
Q 1107 115 1235 227 
Q 1363 339 1363 608 
L 1363 3482 
Q 1363 3795 1171 3795 
Q 1082 3795 883 3718 
L 710 3654 
L 710 3744 
L 1856 4326 
L 1914 4307 
L 1914 486 
Q 1914 275 2042 185 
Q 2170 96 2522 96 
L 2522 0 
z
" transform="scale(0.015625)"/>
        <path id="STIXGeneral-Regular-37" d="M 2874 4134 
L 1517 -51 
L 1101 -51 
L 2368 3763 
L 992 3763 
Q 717 3763 582 3667 
Q 448 3571 243 3238 
L 128 3296 
L 512 4237 
L 2874 4237 
L 2874 4134 
z
" transform="scale(0.015625)"/>
        <path id="STIXGeneral-Regular-2d" d="M 1824 1242 
L 250 1242 
L 250 1645 
L 1824 1645 
L 1824 1242 
z
" transform="scale(0.015625)"/>
       </defs>
       <use xlink:href="#STIXGeneral-Regular-32"/>
       <use xlink:href="#STIXGeneral-Regular-30" transform="translate(49.999985 0)"/>
       <use xlink:href="#STIXGeneral-Regular-31" transform="translate(99.999969 0)"/>
       <use xlink:href="#STIXGeneral-Regular-37" transform="translate(149.999954 0)"/>
       <use xlink:href="#STIXGeneral-Regular-2d" transform="translate(199.999939 0)"/>
       <use xlink:href="#STIXGeneral-Regular-30" transform="translate(233.299927 0)"/>
       <use xlink:href="#STIXGeneral-Regular-31" transform="translate(283.299911 0)"/>
      </g>
     </g>
    </g>
    <g id="xtick_2">
     <g id="line2d_2">
      <g>
       <use xlink:href="#mb4ae24d7df" x="93.393273" y="252" style="fill: #323034; stroke: #323034; stroke-width: 0.8"/>
      </g>
     </g>
     <g id="text_2">
      <!-- 2017-04 -->
      <g style="fill: #323034" transform="translate(57.453858 286.095432) rotate(-30) scale(0.12 -0.12)">
       <defs>
        <path id="STIXGeneral-Regular-34" d="M 3027 1069 
L 2368 1069 
L 2368 0 
L 1869 0 
L 1869 1069 
L 77 1069 
L 77 1478 
L 2086 4326 
L 2368 4326 
L 2368 1478 
L 3027 1478 
L 3027 1069 
z
M 1869 1478 
L 1869 3674 
L 333 1478 
L 1869 1478 
z
" transform="scale(0.015625)"/>
       </defs>
       <use xlink:href="#STIXGeneral-Regular-32"/>
       <use xlink:href="#STIXGeneral-Regular-30" transform="translate(49.999985 0)"/>
       <use xlink:href="#STIXGeneral-Regular-31" transform="translate(99.999969 0)"/>
       <use xlink:href="#STIXGeneral-Regular-37" transform="translate(149.999954 0)"/>
       <use xlink:href="#STIXGeneral-Regular-2d" transform="translate(199.999939 0)"/>
       <use xlink:href="#STIXGeneral-Regular-30" transform="translate(233.299927 0)"/>
       <use xlink:href="#STIXGeneral-Regular-34" transform="translate(283.299911 0)"/>
      </g>
     </g>
    </g>
    <g id="xtick_3">
     <g id="line2d_3">
      <g>
       <use xlink:href="#mb4ae24d7df" x="130.196545" y="252" style="fill: #323034; stroke: #323034; stroke-width: 0.8"/>
      </g>
     </g>
     <g id="text_3">
      <!-- 2017-07 -->
      <g style="fill: #323034" transform="translate(94.25713 286.095432) rotate(-30) scale(0.12 -0.12)">
       <use xlink:href="#STIXGeneral-Regular-32"/>
       <use xlink:href="#STIXGeneral-Regular-30" transform="translate(49.999985 0)"/>
       <use xlink:href="#STIXGeneral-Regular-31" transform="translate(99.999969 0)"/>
       <use xlink:href="#STIXGeneral-Regular-37" transform="translate(149.999954 0)"/>
       <use xlink:href="#STIXGeneral-Regular-2d" transform="translate(199.999939 0)"/>
       <use xlink:href="#STIXGeneral-Regular-30" transform="translate(233.299927 0)"/>
       <use xlink:href="#STIXGeneral-Regular-37" transform="translate(283.299911 0)"/>
      </g>
     </g>
    </g>
    <g id="xtick_4">
     <g id="line2d_4">
      <g>
       <use xlink:href="#mb4ae24d7df" x="167.404248" y="252" style="fill: #323034; stroke: #323034; stroke-width: 0.8"/>
      </g>
     </g>
     <g id="text_4">
      <!-- 2017-10 -->
      <g style="fill: #323034" transform="translate(131.464833 286.095432) rotate(-30) scale(0.12 -0.12)">
       <use xlink:href="#STIXGeneral-Regular-32"/>
       <use xlink:href="#STIXGeneral-Regular-30" transform="translate(49.999985 0)"/>
       <use xlink:href="#STIXGeneral-Regular-31" transform="translate(99.999969 0)"/>
       <use xlink:href="#STIXGeneral-Regular-37" transform="translate(149.999954 0)"/>
       <use xlink:href="#STIXGeneral-Regular-2d" transform="translate(199.999939 0)"/>
       <use xlink:href="#STIXGeneral-Regular-31" transform="translate(233.299927 0)"/>
       <use xlink:href="#STIXGeneral-Regular-30" transform="translate(283.299911 0)"/>
      </g>
     </g>
    </g>
    <g id="xtick_5">
     <g id="line2d_5">
      <g>
       <use xlink:href="#mb4ae24d7df" x="204.611951" y="252" style="fill: #323034; stroke: #323034; stroke-width: 0.8"/>
      </g>
     </g>
     <g id="text_5">
      <!-- 2018-01 -->
      <g style="fill: #323034" transform="translate(168.672537 286.095432) rotate(-30) scale(0.12 -0.12)">
       <defs>
        <path id="STIXGeneral-Regular-38" d="M 2848 992 
Q 2848 499 2505 204 
Q 2163 -90 1587 -90 
Q 1050 -90 704 204 
Q 358 499 358 954 
Q 358 1293 524 1533 
Q 691 1773 1190 2125 
Q 710 2522 553 2765 
Q 397 3008 397 3328 
Q 397 3782 745 4054 
Q 1094 4326 1638 4326 
Q 2106 4326 2410 4060 
Q 2714 3795 2714 3411 
Q 2714 3059 2531 2848 
Q 2349 2637 1856 2374 
Q 2432 1990 2640 1689 
Q 2848 1389 2848 992 
z
M 2272 3411 
Q 2272 3744 2086 3945 
Q 1901 4147 1574 4147 
Q 1248 4147 1059 3977 
Q 870 3808 870 3513 
Q 870 3219 1059 2979 
Q 1248 2739 1670 2490 
Q 1997 2682 2134 2896 
Q 2272 3110 2272 3411 
z
M 1734 1741 
L 1357 1997 
Q 1075 1766 960 1545 
Q 845 1325 845 1011 
Q 845 576 1065 333 
Q 1286 90 1658 90 
Q 1971 90 2166 285 
Q 2362 480 2362 794 
Q 2362 1082 2214 1299 
Q 2067 1517 1734 1741 
z
" transform="scale(0.015625)"/>
       </defs>
       <use xlink:href="#STIXGeneral-Regular-32"/>
       <use xlink:href="#STIXGeneral-Regular-30" transform="translate(49.999985 0)"/>
       <use xlink:href="#STIXGeneral-Regular-31" transform="translate(99.999969 0)"/>
       <use xlink:href="#STIXGeneral-Regular-38" transform="translate(149.999954 0)"/>
       <use xlink:href="#STIXGeneral-Regular-2d" transform="translate(199.999939 0)"/>
       <use xlink:href="#STIXGeneral-Regular-30" transform="translate(233.299927 0)"/>
       <use xlink:href="#STIXGeneral-Regular-31" transform="translate(283.299911 0)"/>
      </g>
     </g>
    </g>
    <g id="xtick_6">
     <g id="line2d_6">
      <g>
       <use xlink:href="#mb4ae24d7df" x="241.010792" y="252" style="fill: #323034; stroke: #323034; stroke-width: 0.8"/>
      </g>
     </g>
     <g id="text_6">
      <!-- 2018-04 -->
      <g style="fill: #323034" transform="translate(205.071377 286.095432) rotate(-30) scale(0.12 -0.12)">
       <use xlink:href="#STIXGeneral-Regular-32"/>
       <use xlink:href="#STIXGeneral-Regular-30" transform="translate(49.999985 0)"/>
       <use xlink:href="#STIXGeneral-Regular-31" transform="translate(99.999969 0)"/>
       <use xlink:href="#STIXGeneral-Regular-38" transform="translate(149.999954 0)"/>
       <use xlink:href="#STIXGeneral-Regular-2d" transform="translate(199.999939 0)"/>
       <use xlink:href="#STIXGeneral-Regular-30" transform="translate(233.299927 0)"/>
       <use xlink:href="#STIXGeneral-Regular-34" transform="translate(283.299911 0)"/>
      </g>
     </g>
    </g>
    <g id="xtick_7">
     <g id="line2d_7">
      <g>
       <use xlink:href="#mb4ae24d7df" x="277.814064" y="252" style="fill: #323034; stroke: #323034; stroke-width: 0.8"/>
      </g>
     </g>
     <g id="text_7">
      <!-- 2018-07 -->
      <g style="fill: #323034" transform="translate(241.874649 286.095432) rotate(-30) scale(0.12 -0.12)">
       <use xlink:href="#STIXGeneral-Regular-32"/>
       <use xlink:href="#STIXGeneral-Regular-30" transform="translate(49.999985 0)"/>
       <use xlink:href="#STIXGeneral-Regular-31" transform="translate(99.999969 0)"/>
       <use xlink:href="#STIXGeneral-Regular-38" transform="translate(149.999954 0)"/>
       <use xlink:href="#STIXGeneral-Regular-2d" transform="translate(199.999939 0)"/>
       <use xlink:href="#STIXGeneral-Regular-30" transform="translate(233.299927 0)"/>
       <use xlink:href="#STIXGeneral-Regular-37" transform="translate(283.299911 0)"/>
      </g>
     </g>
    </g>
    <g id="xtick_8">
     <g id="line2d_8">
      <g>
       <use xlink:href="#mb4ae24d7df" x="315.021767" y="252" style="fill: #323034; stroke: #323034; stroke-width: 0.8"/>
      </g>
     </g>
     <g id="text_8">
      <!-- 2018-10 -->
      <g style="fill: #323034" transform="translate(279.082352 286.095432) rotate(-30) scale(0.12 -0.12)">
       <use xlink:href="#STIXGeneral-Regular-32"/>
       <use xlink:href="#STIXGeneral-Regular-30" transform="translate(49.999985 0)"/>
       <use xlink:href="#STIXGeneral-Regular-31" transform="translate(99.999969 0)"/>
       <use xlink:href="#STIXGeneral-Regular-38" transform="translate(149.999954 0)"/>
       <use xlink:href="#STIXGeneral-Regular-2d" transform="translate(199.999939 0)"/>
       <use xlink:href="#STIXGeneral-Regular-31" transform="translate(233.299927 0)"/>
       <use xlink:href="#STIXGeneral-Regular-30" transform="translate(283.299911 0)"/>
      </g>
     </g>
    </g>
    <g id="xtick_9">
     <g id="line2d_9">
      <g>
       <use xlink:href="#mb4ae24d7df" x="352.229471" y="252" style="fill: #323034; stroke: #323034; stroke-width: 0.8"/>
      </g>
     </g>
     <g id="text_9">
      <!-- 2019-01 -->
      <g style="fill: #323034" transform="translate(316.290056 286.095432) rotate(-30) scale(0.12 -0.12)">
       <defs>
        <path id="STIXGeneral-Regular-39" d="M 378 -141 
L 358 -13 
Q 1094 115 1603 608 
Q 2112 1101 2304 1882 
Q 1933 1517 1344 1517 
Q 826 1517 509 1875 
Q 192 2234 192 2816 
Q 192 3462 573 3894 
Q 954 4326 1523 4326 
Q 2131 4326 2528 3840 
Q 2938 3328 2938 2522 
Q 2938 1958 2742 1462 
Q 2547 966 2170 621 
Q 1773 262 1395 105 
Q 1018 -51 378 -141 
z
M 2317 2272 
L 2317 2522 
Q 2317 4147 1472 4147 
Q 1171 4147 1005 3930 
Q 909 3802 845 3546 
Q 781 3290 781 3034 
Q 781 2464 995 2128 
Q 1210 1792 1568 1792 
Q 1824 1792 2070 1917 
Q 2317 2042 2317 2272 
z
" transform="scale(0.015625)"/>
       </defs>
       <use xlink:href="#STIXGeneral-Regular-32"/>
       <use xlink:href="#STIXGeneral-Regular-30" transform="translate(49.999985 0)"/>
       <use xlink:href="#STIXGeneral-Regular-31" transform="translate(99.999969 0)"/>
       <use xlink:href="#STIXGeneral-Regular-39" transform="translate(149.999954 0)"/>
       <use xlink:href="#STIXGeneral-Regular-2d" transform="translate(199.999939 0)"/>
       <use xlink:href="#STIXGeneral-Regular-30" transform="translate(233.299927 0)"/>
       <use xlink:href="#STIXGeneral-Regular-31" transform="translate(283.299911 0)"/>
      </g>
     </g>
    </g>
    <g id="xtick_10">
     <g id="line2d_10">
      <g>
       <use xlink:href="#mb4ae24d7df" x="388.628311" y="252" style="fill: #323034; stroke: #323034; stroke-width: 0.8"/>
      </g>
     </g>
     <g id="text_10">
      <!-- 2019-04 -->
      <g style="fill: #323034" transform="translate(352.688896 286.095432) rotate(-30) scale(0.12 -0.12)">
       <use xlink:href="#STIXGeneral-Regular-32"/>
       <use xlink:href="#STIXGeneral-Regular-30" transform="translate(49.999985 0)"/>
       <use xlink:href="#STIXGeneral-Regular-31" transform="translate(99.999969 0)"/>
       <use xlink:href="#STIXGeneral-Regular-39" transform="translate(149.999954 0)"/>
       <use xlink:href="#STIXGeneral-Regular-2d" transform="translate(199.999939 0)"/>
       <use xlink:href="#STIXGeneral-Regular-30" transform="translate(233.299927 0)"/>
       <use xlink:href="#STIXGeneral-Regular-34" transform="translate(283.299911 0)"/>
      </g>
     </g>
    </g>
    <g id="xtick_11">
     <g id="line2d_11">
      <g>
       <use xlink:href="#mb4ae24d7df" x="425.431583" y="252" style="fill: #323034; stroke: #323034; stroke-width: 0.8"/>
      </g>
     </g>
     <g id="text_11">
      <!-- 2019-07 -->
      <g style="fill: #323034" transform="translate(389.492168 286.095432) rotate(-30) scale(0.12 -0.12)">
       <use xlink:href="#STIXGeneral-Regular-32"/>
       <use xlink:href="#STIXGeneral-Regular-30" transform="translate(49.999985 0)"/>
       <use xlink:href="#STIXGeneral-Regular-31" transform="translate(99.999969 0)"/>
       <use xlink:href="#STIXGeneral-Regular-39" transform="translate(149.999954 0)"/>
       <use xlink:href="#STIXGeneral-Regular-2d" transform="translate(199.999939 0)"/>
       <use xlink:href="#STIXGeneral-Regular-30" transform="translate(233.299927 0)"/>
       <use xlink:href="#STIXGeneral-Regular-37" transform="translate(283.299911 0)"/>
      </g>
     </g>
    </g>
    <g id="text_12">
     <!-- Date -->
     <g transform="translate(224.02 299.546512) scale(0.12 -0.12)">
      <defs>
       <path id="STIXGeneral-Regular-44" d="M 102 4237 
L 1830 4237 
Q 3078 4237 3750 3654 
Q 4384 3110 4384 2138 
Q 4384 966 3514 410 
Q 2880 0 1901 0 
L 102 0 
L 102 122 
Q 474 147 570 252 
Q 666 358 666 736 
L 666 3520 
Q 666 3891 570 3990 
Q 474 4090 102 4115 
L 102 4237 
z
M 1318 3731 
L 1318 538 
Q 1318 365 1379 301 
Q 1440 237 1626 237 
Q 2125 237 2432 307 
Q 2739 378 3021 570 
Q 3686 1018 3686 2099 
Q 3686 3027 3078 3558 
Q 2803 3802 2476 3901 
Q 2150 4000 1658 4000 
Q 1472 4000 1395 3942 
Q 1318 3885 1318 3731 
z
" transform="scale(0.015625)"/>
       <path id="STIXGeneral-Regular-61" d="M 2829 422 
L 2829 243 
Q 2586 -64 2253 -64 
Q 1888 -64 1843 403 
L 1837 403 
Q 1427 -64 909 -64 
Q 608 -64 422 112 
Q 237 288 237 602 
Q 237 1050 685 1350 
Q 992 1555 1837 1869 
L 1837 2214 
Q 1837 2502 1699 2646 
Q 1562 2790 1338 2790 
Q 1146 2790 1018 2697 
Q 890 2605 890 2477 
Q 890 2419 909 2348 
Q 928 2278 928 2208 
Q 928 2112 841 2029 
Q 755 1946 634 1946 
Q 525 1946 441 2029 
Q 358 2112 358 2240 
Q 358 2547 685 2752 
Q 986 2944 1421 2944 
Q 1939 2944 2176 2656 
Q 2291 2522 2323 2384 
Q 2355 2246 2355 1946 
L 2355 723 
Q 2355 301 2554 301 
Q 2682 301 2829 422 
z
M 1837 813 
L 1837 1715 
Q 1248 1510 1018 1293 
Q 800 1094 800 800 
Q 800 557 921 432 
Q 1043 307 1242 307 
Q 1453 307 1613 410 
Q 1747 506 1792 589 
Q 1837 672 1837 813 
z
" transform="scale(0.015625)"/>
       <path id="STIXGeneral-Regular-74" d="M 1702 493 
L 1786 422 
Q 1478 -64 1011 -64 
Q 448 -64 448 749 
L 448 2675 
L 109 2675 
Q 83 2694 83 2720 
Q 83 2771 192 2842 
Q 435 2982 813 3526 
Q 826 3546 874 3606 
Q 922 3667 941 3706 
Q 986 3706 986 3622 
L 986 2880 
L 1632 2880 
L 1632 2675 
L 986 2675 
L 986 845 
Q 986 538 1062 403 
Q 1139 269 1318 269 
Q 1510 269 1702 493 
z
" transform="scale(0.015625)"/>
       <path id="STIXGeneral-Regular-65" d="M 2611 1050 
L 2714 1005 
Q 2330 -64 1376 -64 
Q 813 -64 486 329 
Q 160 723 160 1389 
Q 160 2074 525 2509 
Q 890 2944 1485 2944 
Q 2061 2944 2374 2502 
Q 2560 2246 2592 1773 
L 621 1773 
Q 646 1370 700 1158 
Q 755 947 915 730 
Q 1184 378 1626 378 
Q 1939 378 2153 531 
Q 2368 685 2611 1050 
z
M 634 1978 
L 1939 1978 
Q 1882 2381 1750 2547 
Q 1619 2714 1312 2714 
Q 1043 2714 864 2525 
Q 685 2336 634 1978 
z
" transform="scale(0.015625)"/>
      </defs>
      <use xlink:href="#STIXGeneral-Regular-44"/>
      <use xlink:href="#STIXGeneral-Regular-61" transform="translate(72.199982 0)"/>
      <use xlink:href="#STIXGeneral-Regular-74" transform="translate(116.599976 0)"/>
      <use xlink:href="#STIXGeneral-Regular-65" transform="translate(144.399963 0)"/>
     </g>
    </g>
   </g>
   <g id="matplotlib.axis_2">
    <g id="ytick_1">
     <g id="line2d_12">
      <defs>
       <path id="m404c5ce395" d="M 0 0 
L -3.5 0 
" style="stroke: #323034; stroke-width: 0.8"/>
      </defs>
      <g>
       <use xlink:href="#m404c5ce395" x="40.04875" y="214.961101" style="fill: #323034; stroke: #323034; stroke-width: 0.8"/>
      </g>
     </g>
     <g id="text_13">
      <!-- $\mathdefault{30}$ -->
      <g style="fill: #323034" transform="translate(21.04875 219.058914) scale(0.12 -0.12)">
       <defs>
        <path id="STIXGeneral-Regular-33" d="M 390 3264 
L 288 3290 
Q 435 3770 748 4048 
Q 1062 4326 1542 4326 
Q 1990 4326 2265 4083 
Q 2541 3840 2541 3450 
Q 2541 2925 1946 2566 
Q 2298 2413 2477 2227 
Q 2758 1914 2758 1402 
Q 2758 890 2464 506 
Q 2246 211 1840 60 
Q 1434 -90 979 -90 
Q 262 -90 262 275 
Q 262 378 339 442 
Q 416 506 525 506 
Q 685 506 915 339 
Q 1197 141 1466 141 
Q 1818 141 2058 425 
Q 2298 710 2298 1120 
Q 2298 1856 1632 2048 
Q 1434 2112 979 2112 
L 979 2202 
Q 1338 2323 1517 2432 
Q 2035 2726 2035 3290 
Q 2035 3610 1852 3776 
Q 1670 3942 1344 3942 
Q 768 3942 390 3264 
z
" transform="scale(0.015625)"/>
       </defs>
       <use xlink:href="#STIXGeneral-Regular-33" transform="translate(0 0.40625)"/>
       <use xlink:href="#STIXGeneral-Regular-30" transform="translate(49.999985 0.40625)"/>
      </g>
     </g>
    </g>
    <g id="ytick_2">
     <g id="line2d_13">
      <g>
       <use xlink:href="#m404c5ce395" x="40.04875" y="175.510704" style="fill: #323034; stroke: #323034; stroke-width: 0.8"/>
      </g>
     </g>
     <g id="text_14">
      <!-- $\mathdefault{35}$ -->
      <g style="fill: #323034" transform="translate(21.04875 179.608516) scale(0.12 -0.12)">
       <defs>
        <path id="STIXGeneral-Regular-35" d="M 2803 4358 
L 2573 3814 
Q 2534 3731 2400 3731 
L 1158 3731 
L 902 3187 
Q 1606 3053 1920 2896 
Q 2234 2739 2502 2368 
Q 2726 2061 2726 1555 
Q 2726 1094 2576 780 
Q 2426 467 2099 224 
Q 1664 -90 1011 -90 
Q 646 -90 422 19 
Q 198 128 198 307 
Q 198 550 486 550 
Q 717 550 960 352 
Q 1210 147 1414 147 
Q 1747 147 2012 480 
Q 2278 813 2278 1229 
Q 2278 1843 1850 2189 
Q 1293 2637 486 2637 
Q 410 2637 410 2688 
L 416 2720 
L 1114 4237 
L 2438 4237 
Q 2547 4237 2608 4269 
Q 2669 4301 2746 4403 
L 2803 4358 
z
" transform="scale(0.015625)"/>
       </defs>
       <use xlink:href="#STIXGeneral-Regular-33" transform="translate(0 0.203125)"/>
       <use xlink:href="#STIXGeneral-Regular-35" transform="translate(49.999985 0.203125)"/>
      </g>
     </g>
    </g>
    <g id="ytick_3">
     <g id="line2d_14">
      <g>
       <use xlink:href="#m404c5ce395" x="40.04875" y="136.060307" style="fill: #323034; stroke: #323034; stroke-width: 0.8"/>
      </g>
     </g>
     <g id="text_15">
      <!-- $\mathdefault{40}$ -->
      <g style="fill: #323034" transform="translate(21.04875 140.158119) scale(0.12 -0.12)">
       <use xlink:href="#STIXGeneral-Regular-34" transform="translate(0 0.40625)"/>
       <use xlink:href="#STIXGeneral-Regular-30" transform="translate(49.999985 0.40625)"/>
      </g>
     </g>
    </g>
    <g id="ytick_4">
     <g id="line2d_15">
      <g>
       <use xlink:href="#m404c5ce395" x="40.04875" y="96.609909" style="fill: #323034; stroke: #323034; stroke-width: 0.8"/>
      </g>
     </g>
     <g id="text_16">
      <!-- $\mathdefault{45}$ -->
      <g style="fill: #323034" transform="translate(21.04875 100.707722) scale(0.12 -0.12)">
       <use xlink:href="#STIXGeneral-Regular-34" transform="translate(0 0.203125)"/>
       <use xlink:href="#STIXGeneral-Regular-35" transform="translate(49.999985 0.203125)"/>
      </g>
     </g>
    </g>
    <g id="ytick_5">
     <g id="line2d_16">
      <g>
       <use xlink:href="#m404c5ce395" x="40.04875" y="57.159512" style="fill: #323034; stroke: #323034; stroke-width: 0.8"/>
      </g>
     </g>
     <g id="text_17">
      <!-- $\mathdefault{50}$ -->
      <g style="fill: #323034" transform="translate(21.04875 61.257324) scale(0.12 -0.12)">
       <use xlink:href="#STIXGeneral-Regular-35" transform="translate(0 0.203125)"/>
       <use xlink:href="#STIXGeneral-Regular-30" transform="translate(49.999985 0.203125)"/>
      </g>
     </g>
    </g>
    <g id="ytick_6">
     <g id="line2d_17">
      <g>
       <use xlink:href="#m404c5ce395" x="40.04875" y="17.709115" style="fill: #323034; stroke: #323034; stroke-width: 0.8"/>
      </g>
     </g>
     <g id="text_18">
      <!-- $\mathdefault{55}$ -->
      <g style="fill: #323034" transform="translate(21.04875 21.806927) scale(0.12 -0.12)">
       <use xlink:href="#STIXGeneral-Regular-35" transform="translate(0 0.203125)"/>
       <use xlink:href="#STIXGeneral-Regular-35" transform="translate(49.999985 0.203125)"/>
      </g>
     </g>
    </g>
    <g id="text_19">
     <!-- Close ($) -->
     <g transform="translate(15.444375 151.764375) rotate(-90) scale(0.12 -0.12)">
      <defs>
       <path id="STIXGeneral-Regular-43" d="M 3930 838 
L 4051 723 
Q 3482 -90 2304 -90 
Q 1376 -90 794 480 
Q 179 1082 179 2080 
Q 179 3014 755 3661 
Q 1357 4326 2310 4326 
Q 2720 4326 3072 4230 
Q 3475 4115 3514 4115 
Q 3725 4115 3782 4326 
L 3910 4326 
L 3968 2874 
L 3821 2874 
Q 3718 3334 3488 3584 
Q 3034 4070 2458 4070 
Q 1747 4070 1334 3548 
Q 922 3027 922 2182 
Q 922 1152 1382 653 
Q 1811 192 2522 192 
Q 2944 192 3251 339 
Q 3558 486 3930 838 
z
" transform="scale(0.015625)"/>
       <path id="STIXGeneral-Regular-6c" d="M 1645 0 
L 134 0 
L 134 96 
Q 435 122 531 221 
Q 627 320 627 589 
L 627 3590 
Q 627 3821 569 3910 
Q 512 4000 358 4000 
Q 224 4000 122 3987 
L 122 4090 
Q 730 4237 1133 4371 
L 1165 4346 
L 1165 557 
Q 1165 288 1254 201 
Q 1344 115 1645 96 
L 1645 0 
z
" transform="scale(0.015625)"/>
       <path id="STIXGeneral-Regular-6f" d="M 3008 1478 
Q 3008 806 2608 371 
Q 2208 -64 1568 -64 
Q 979 -64 582 368 
Q 186 800 186 1459 
Q 186 2125 582 2534 
Q 979 2944 1626 2944 
Q 2221 2944 2614 2537 
Q 3008 2131 3008 1478 
z
M 2432 1306 
Q 2432 2035 2112 2445 
Q 1856 2765 1504 2765 
Q 1171 2765 966 2493 
Q 762 2221 762 1747 
Q 762 928 1101 435 
Q 1318 115 1677 115 
Q 2029 115 2230 432 
Q 2432 749 2432 1306 
z
" transform="scale(0.015625)"/>
       <path id="STIXGeneral-Regular-73" d="M 998 1926 
L 1664 1523 
Q 1984 1331 2105 1164 
Q 2227 998 2227 736 
Q 2227 416 1961 176 
Q 1696 -64 1331 -64 
Q 1030 -64 864 -6 
Q 691 51 570 51 
Q 461 51 416 -26 
L 333 -26 
L 333 979 
L 435 979 
Q 538 512 730 294 
Q 922 77 1248 77 
Q 1485 77 1632 211 
Q 1779 346 1779 550 
Q 1779 845 1440 1030 
L 1094 1222 
Q 326 1651 326 2150 
Q 326 2522 566 2730 
Q 806 2938 1210 2938 
Q 1491 2938 1638 2867 
Q 1754 2816 1818 2816 
Q 1862 2816 1920 2880 
L 1990 2880 
L 2022 2010 
L 1926 2010 
Q 1818 2445 1654 2621 
Q 1491 2797 1203 2797 
Q 986 2797 854 2688 
Q 723 2579 723 2362 
Q 723 2253 796 2128 
Q 870 2003 998 1926 
z
" transform="scale(0.015625)"/>
       <path id="STIXGeneral-Regular-20" transform="scale(0.015625)"/>
       <path id="STIXGeneral-Regular-28" d="M 1946 -1030 
L 1869 -1133 
Q 1126 -710 716 32 
Q 307 774 307 1613 
Q 307 3386 1888 4326 
L 1946 4224 
Q 1293 3667 1075 3126 
Q 858 2586 858 1632 
Q 858 685 1082 96 
Q 1306 -493 1946 -1030 
z
" transform="scale(0.015625)"/>
       <path id="STIXGeneral-Regular-24" d="M 1690 4077 
L 1690 2502 
Q 2234 2208 2445 2045 
Q 2656 1882 2797 1664 
Q 2931 1466 2931 1088 
Q 2931 570 2614 326 
Q 2298 83 1690 0 
L 1690 -557 
L 1472 -557 
L 1472 0 
Q 1062 0 806 73 
Q 550 147 282 326 
L 282 1158 
L 378 1158 
Q 480 685 761 432 
Q 1043 179 1472 179 
L 1472 1984 
Q 800 2362 566 2624 
Q 333 2886 333 3283 
Q 333 3731 659 3974 
Q 986 4218 1472 4250 
L 1472 4653 
L 1690 4653 
L 1690 4250 
Q 2426 4205 2720 3910 
L 2720 3200 
L 2624 3200 
Q 2528 3597 2301 3814 
Q 2074 4032 1690 4077 
z
M 1472 2605 
L 1472 4077 
Q 806 3942 806 3405 
Q 806 3194 937 3037 
Q 1069 2880 1472 2605 
z
M 1690 1875 
L 1690 179 
Q 2086 262 2252 432 
Q 2419 602 2419 941 
Q 2419 1235 2272 1427 
Q 2125 1619 1690 1875 
z
" transform="scale(0.015625)"/>
       <path id="STIXGeneral-Regular-29" d="M 186 4224 
L 262 4326 
Q 992 3891 1408 3148 
Q 1824 2406 1824 1581 
Q 1824 -166 243 -1133 
L 186 -1030 
Q 845 -486 1059 54 
Q 1274 595 1274 1562 
Q 1274 2534 1059 3120 
Q 845 3706 186 4224 
z
" transform="scale(0.015625)"/>
      </defs>
      <use xlink:href="#STIXGeneral-Regular-43"/>
      <use xlink:href="#STIXGeneral-Regular-6c" transform="translate(66.699997 0)"/>
      <use xlink:href="#STIXGeneral-Regular-6f" transform="translate(94.499985 0)"/>
      <use xlink:href="#STIXGeneral-Regular-73" transform="translate(144.499969 0)"/>
      <use xlink:href="#STIXGeneral-Regular-65" transform="translate(183.399963 0)"/>
      <use xlink:href="#STIXGeneral-Regular-20" transform="translate(227.799957 0)"/>
      <use xlink:href="#STIXGeneral-Regular-28" transform="translate(252.799942 0)"/>
      <use xlink:href="#STIXGeneral-Regular-24" transform="translate(286.09993 0)"/>
      <use xlink:href="#STIXGeneral-Regular-29" transform="translate(336.099915 0)"/>
     </g>
    </g>
   </g>
   <g id="line2d_18">
    <path d="M 57.803295 240.636531 
L 58.207727 240.872727 
L 58.612159 239.800838 
L 59.01659 237.438922 
L 60.229885 235.476725 
L 60.634316 235.258754 
L 61.038748 234.095937 
L 61.443179 235.004318 
L 61.847611 235.385844 
L 63.465337 233.641725 
L 63.869769 233.659859 
L 64.2742 234.04146 
L 64.678632 233.641725 
L 65.891927 233.49638 
L 66.296358 233.696202 
L 66.70079 230.226008 
L 67.509653 230.098828 
L 68.722948 230.680251 
L 69.127379 231.188942 
L 69.531811 217.744273 
L 69.936242 218.143978 
L 70.340674 217.144745 
L 71.553968 214.946353 
L 71.9584 212.693453 
L 72.362832 211.766818 
L 72.767263 210.033383 
L 73.171695 210.580795 
L 74.384989 208.445835 
L 74.789421 205.289024 
L 75.193853 204.395 
L 75.598284 204.686953 
L 76.002716 204.011684 
L 77.620442 202.223531 
L 78.024873 201.475453 
L 78.429305 202.533663 
L 78.833737 202.296504 
L 80.451463 201.694343 
L 80.855894 196.585148 
L 81.260326 198.099632 
L 81.664757 196.603327 
L 82.878052 197.406258 
L 83.282484 197.077856 
L 83.686915 198.026644 
L 84.091347 198.61055 
L 84.495778 197.7712 
L 85.709073 197.661702 
L 86.113505 198.044883 
L 86.517936 195.362646 
L 86.922368 194.942896 
L 87.326799 196.220236 
L 88.540094 193.537789 
L 88.944526 196.49395 
L 89.348957 193.610897 
L 89.753389 194.523176 
L 90.15782 195.034064 
L 91.371115 194.596164 
L 91.775546 189.268049 
L 92.179978 188.684082 
L 92.988841 189.523433 
L 94.202136 189.450474 
L 94.606567 187.49794 
L 95.010999 188.866628 
L 95.819862 190.107369 
L 97.033157 190.417562 
L 97.437588 193.227686 
L 97.84202 192.917403 
L 98.246451 194.286031 
L 99.864178 192.862684 
L 100.673041 194.961135 
L 101.077472 191.749651 
L 101.481904 192.059813 
L 102.695199 189.559972 
L 103.09963 187.9359 
L 103.504062 189.486923 
L 103.908493 189.286258 
L 104.312925 189.541642 
L 105.930651 182.498257 
L 106.739514 184.286515 
L 107.143946 179.852318 
L 108.761672 170.674003 
L 109.166103 172.006122 
L 109.570535 169.587456 
L 109.974967 165.648105 
L 111.188261 166.380997 
L 111.592693 166.802433 
L 111.997124 176.366819 
L 112.401556 172.17097 
L 112.805988 171.21827 
L 114.019282 169.514166 
L 114.423714 169.862253 
L 114.828145 170.705245 
L 115.232577 169.734094 
L 115.637008 170.21043 
L 117.254735 170.100571 
L 117.659166 171.767894 
L 118.063598 170.998312 
L 118.468029 166.839123 
L 119.681324 169.624145 
L 120.085756 168.671325 
L 120.490187 166.985671 
L 120.894619 167.681935 
L 121.29905 178.693836 
L 122.512345 185.216672 
L 122.916777 183.072923 
L 123.321208 185.693007 
L 123.72564 187.287162 
L 124.130071 190.988285 
L 125.343366 183.530958 
L 125.747797 185.967955 
L 126.152229 184.39219 
L 126.556661 184.831775 
L 126.961092 183.640937 
L 128.174387 184.483659 
L 128.578818 188.313151 
L 128.98325 184.465359 
L 129.387681 188.40474 
L 129.792113 187.781917 
L 131.005408 188.734587 
L 131.814271 187.653578 
L 132.218702 190.145413 
L 132.623134 187.48873 
L 133.836429 185.876245 
L 134.24086 185.015074 
L 134.645292 184.630358 
L 135.049723 180.910874 
L 135.454155 178.583917 
L 136.66745 177.631066 
L 137.071881 176.678336 
L 137.476313 174.955993 
L 137.880744 176.202001 
L 138.285176 176.330219 
L 140.307334 170.485257 
L 140.711765 175.798804 
L 141.116197 177.741015 
L 142.329491 179.151841 
L 142.733923 176.733356 
L 143.138354 163.742644 
L 143.542786 166.619195 
L 145.160512 160.682643 
L 145.969375 156.560114 
L 146.373807 165.959742 
L 146.778239 161.98644 
L 147.991533 157.626977 
L 148.395965 154.407938 
L 148.800396 155.603652 
L 149.204828 161.287618 
L 149.609259 161.94975 
L 150.822554 162.483182 
L 151.226986 157.755798 
L 151.631417 157.387937 
L 152.035849 158.693931 
L 153.653575 154.647129 
L 154.058007 151.998331 
L 154.462438 151.188989 
L 154.86687 149.993275 
L 155.271301 149.901325 
L 156.889027 153.525005 
L 157.293459 153.837786 
L 157.697891 155.03338 
L 158.102322 159.871194 
L 159.315617 154.591898 
L 159.720048 155.769132 
L 160.528912 160.514966 
L 160.933343 157.571837 
L 162.146638 159.797574 
L 162.551069 159.687173 
L 163.359932 169.509953 
L 163.764364 172.269 
L 164.977659 174.733898 
L 165.38209 169.969704 
L 165.786522 167.964798 
L 166.190953 169.712183 
L 166.595385 168.167119 
L 167.80868 168.73733 
L 168.213111 167.504927 
L 168.617543 169.344352 
L 169.021974 165.831012 
L 169.426406 165.996462 
L 170.639701 165.003219 
L 171.044132 164.892819 
L 171.448564 163.697225 
L 171.852995 164.708858 
L 173.470721 157.571837 
L 173.875153 156.486584 
L 174.279585 157.792518 
L 174.684016 164.745698 
L 175.088448 164.248957 
L 176.301742 164.396167 
L 176.706174 162.685472 
L 177.110605 163.954716 
L 177.515037 162.115381 
L 177.919469 151.74072 
L 179.132763 144.98992 
L 179.537195 140.722558 
L 179.941626 144.677259 
L 180.346058 142.433163 
L 180.750489 134.358039 
L 182.368216 130.108766 
L 182.772647 127.478388 
L 183.177079 128.14058 
L 183.58151 129.211386 
L 184.794805 130.503565 
L 185.603668 139.530757 
L 186.0081 135.801853 
L 186.412531 137.555558 
L 187.625826 137.869303 
L 188.030258 132.035747 
L 188.434689 128.675848 
L 189.243552 128.657458 
L 190.456847 130.282012 
L 190.861278 132.165049 
L 191.26571 138.792296 
L 191.670142 134.417272 
L 192.074573 135.893984 
L 193.287868 138.201798 
L 193.692299 138.497002 
L 194.096731 139.660059 
L 194.501163 139.087771 
L 194.905594 138.995489 
L 196.118889 132.90345 
L 196.52332 134.694176 
L 196.927752 133.641851 
L 197.332183 133.734192 
L 197.736615 130.503565 
L 198.94991 125.980759 
L 199.354341 129.45136 
L 199.758773 129.802005 
L 200.163204 128.583687 
L 200.567636 128.583687 
L 202.185362 136.780227 
L 202.589794 136.724786 
L 202.994225 135.838663 
L 203.398657 139.253883 
L 205.016383 133.660331 
L 205.420815 133.715622 
L 205.825246 132.23888 
L 206.229678 128.602077 
L 207.442972 129.802005 
L 208.251836 129.912856 
L 208.656267 128.085199 
L 209.060699 124.743871 
L 210.678425 126.405235 
L 211.082856 121.033146 
L 211.487288 120.737882 
L 211.89172 122.214744 
L 213.105014 124.909893 
L 213.509446 124.836182 
L 214.318309 135.783282 
L 214.72274 135.044851 
L 216.340467 143.425984 
L 217.14933 141.930642 
L 217.553761 155.369999 
L 218.767056 162.772817 
L 219.171488 150.699531 
L 219.980351 165.246534 
L 220.384782 161.743276 
L 222.40694 141.427881 
L 222.811372 131.010691 
L 223.215803 132.048659 
L 224.833529 133.123769 
L 225.237961 134.569479 
L 225.642393 131.918906 
L 226.046824 126.358191 
L 227.260119 119.926132 
L 227.66455 121.001182 
L 228.068982 121.501776 
L 228.473413 127.284947 
L 228.877845 125.042054 
L 230.09114 123.911383 
L 230.495571 124.189491 
L 230.900003 127.229476 
L 231.304434 123.688927 
L 231.708866 118.05408 
L 232.922161 114.82884 
L 233.731024 120.908539 
L 234.135455 120.519339 
L 234.539887 121.687061 
L 235.753182 126.728881 
L 236.157613 126.840064 
L 236.562045 134.198819 
L 236.966476 138.684514 
L 237.370908 145.932086 
L 238.584202 131.418432 
L 238.988634 139.629901 
L 239.393066 143.077506 
L 239.797497 140.667839 
L 241.415223 142.706816 
L 241.819655 139.537168 
L 242.224087 133.568652 
L 242.628518 131.36287 
L 243.03295 139.555678 
L 244.246244 136.460162 
L 244.650676 130.528817 
L 245.055107 132.030119 
L 245.459539 128.878951 
L 245.863971 127.785481 
L 247.077265 125.765015 
L 247.481697 121.27926 
L 247.886128 122.020821 
L 248.29056 131.36287 
L 248.694991 144.486316 
L 249.908286 145.376051 
L 250.312718 149.639409 
L 251.121581 147.266763 
L 251.526012 150.788561 
L 252.739307 145.338879 
L 253.143739 138.221151 
L 253.54817 124.374776 
L 253.952602 123.781659 
L 254.357033 110.917721 
L 255.570328 108.452493 
L 255.97476 106.802747 
L 256.379191 104.374599 
L 256.783623 99.406971 
L 257.188054 100.746645 
L 258.401349 101.565378 
L 258.80578 104.747216 
L 259.210212 101.509666 
L 259.614644 103.723875 
L 260.019075 104.989206 
L 261.23237 102.532977 
L 261.636801 103.407542 
L 262.041233 101.174702 
L 262.445664 101.565378 
L 262.850096 100.765276 
L 264.467822 102.030637 
L 264.872254 102.774877 
L 265.276685 103.947114 
L 265.681117 97.676411 
L 266.894412 94.717872 
L 267.298843 91.963911 
L 267.703275 90.717361 
L 268.107706 91.68475 
L 268.512138 94.959772 
L 269.725433 95.834247 
L 270.129864 93.880599 
L 270.534296 96.820507 
L 270.938727 96.634469 
L 271.343159 100.281536 
L 272.556453 100.467574 
L 272.960885 106.142752 
L 273.365317 104.635642 
L 273.769748 106.570749 
L 274.17418 107.57564 
L 275.387474 112.692646 
L 275.791906 108.487347 
L 276.196337 108.989717 
L 276.600769 106.496286 
L 277.005201 107.222076 
L 278.218495 103.370341 
L 278.622927 109.436345 
L 279.43179 106.682444 
L 279.836222 101.900311 
L 281.049516 97.043866 
L 281.453948 97.471743 
L 281.858379 102.067748 
L 282.262811 96.206562 
L 282.667242 95.64827 
L 283.880537 96.429711 
L 284.284969 95.424971 
L 284.6894 97.378709 
L 285.093832 94.624838 
L 285.498263 95.443632 
L 286.711558 95.127178 
L 287.11599 92.540804 
L 287.520421 89.154268 
L 287.924853 90.289304 
L 288.329284 96.299566 
L 289.542579 98.290506 
L 289.947011 97.583468 
L 290.351442 76.724498 
L 290.755874 65.764786 
L 291.160305 64.648351 
L 292.3736 62.63866 
L 292.778031 66.285878 
L 293.182463 66.025227 
L 293.586895 62.992345 
L 293.991326 64.149984 
L 295.204621 61.647765 
L 295.609052 60.00452 
L 296.013484 59.089653 
L 296.417915 53.338447 
L 296.822347 45.383927 
L 298.035642 49.342601 
L 298.440073 50.126842 
L 298.844505 50.108121 
L 299.248936 49.286558 
L 299.653368 48.035404 
L 300.866663 44.711773 
L 301.271094 41.425373 
L 301.675526 35.300707 
L 302.484389 26.6179 
L 304.102115 25.25487 
L 304.506547 28.037033 
L 304.910978 35.076626 
L 305.31541 38.437729 
L 306.528704 43.983515 
L 306.933136 33.676214 
L 307.337568 38.867171 
L 307.741999 28.896007 
L 308.146431 33.694905 
L 309.359725 44.823768 
L 309.764157 44.151554 
L 310.168588 43.908781 
L 310.57302 40.809141 
L 310.977452 45.23467 
L 312.190746 39.390068 
L 312.595178 36.775854 
L 312.999609 40.080944 
L 313.404041 31.622188 
L 313.808473 30.146982 
L 315.021767 27.308896 
L 315.426199 23.536951 
L 315.83063 18.327273 
L 316.639493 32.854591 
L 317.852788 33.825592 
L 318.25722 28.037033 
L 318.661651 47.662005 
L 319.066083 51.228498 
L 319.470514 36.925321 
L 320.683809 45.794798 
L 321.088241 36.850497 
L 321.492672 38.64312 
L 321.897104 48.296897 
L 322.301535 42.153541 
L 323.51483 39.651472 
L 323.919261 35.767592 
L 324.323693 50.033447 
L 324.728125 41.238583 
L 325.132556 47.77403 
L 326.345851 55.355121 
L 326.750282 53.375829 
L 327.154714 42.993734 
L 327.559146 36.719811 
L 327.963577 64.243379 
L 329.176872 75.241496 
L 329.581303 71.170796 
L 329.985735 59.631181 
L 330.390166 60.999027 
L 330.794598 68.531629 
L 332.007893 87.83166 
L 332.412324 91.466627 
L 332.816756 101.641436 
L 333.221187 93.003204 
L 333.625619 89.030745 
L 334.838914 103.402696 
L 335.243345 120.04189 
L 335.647777 120.416613 
L 336.45664 128.829891 
L 337.669935 124.463987 
L 338.074366 125.176052 
L 338.478798 112.621674 
L 338.883229 115.226288 
L 339.287661 117.043862 
L 340.500955 105.351318 
L 340.905387 120.585163 
L 341.71425 124.276535 
L 342.118682 135.950237 
L 343.331976 133.870297 
L 343.736408 135.687901 
L 344.140839 134.807195 
L 344.545271 131.340718 
L 344.949703 141.590291 
L 346.162997 144.475962 
L 346.567429 140.484782 
L 347.780723 169.228564 
L 348.994018 176.536332 
L 349.802881 157.161447 
L 350.207313 159.072657 
L 350.611744 158.922858 
L 351.825039 156.09338 
L 352.633902 155.756099 
L 353.038334 185.230668 
L 353.442765 173.856804 
L 354.65606 174.475143 
L 355.464923 164.394211 
L 355.869355 163.476154 
L 356.273786 166.305511 
L 357.487081 170.59635 
L 357.891512 164.843909 
L 358.295944 161.339899 
L 359.104807 157.817289 
L 360.722533 164.412962 
L 361.126965 163.251259 
L 361.531397 165.537162 
L 361.935828 156.055968 
L 363.149123 158.791539 
L 363.553554 161.8271 
L 363.957986 142.021298 
L 364.362417 139.791468 
L 364.766849 139.641549 
L 365.980144 130.778693 
L 366.384575 125.288469 
L 366.789007 125.176052 
L 367.193438 131.359499 
L 367.59787 130.983091 
L 368.811165 132.827362 
L 369.215596 130.079872 
L 369.620028 131.415994 
L 370.024459 130.249295 
L 370.428891 130.964399 
L 372.046617 130.004596 
L 372.451049 127.934588 
L 372.85548 129.759957 
L 373.259912 126.165713 
L 374.473206 123.794662 
L 374.877638 123.606427 
L 375.28207 122.59022 
L 375.686501 125.826897 
L 376.090933 122.401985 
L 377.304227 120.746039 
L 377.708659 121.348215 
L 378.11309 123.24883 
L 378.517522 127.05015 
L 378.921954 126.278551 
L 380.53968 111.224061 
L 380.944111 109.718606 
L 381.752974 101.419672 
L 382.966269 97.84439 
L 383.370701 100.648284 
L 383.775132 97.580909 
L 384.179564 84.539903 
L 384.583995 92.142454 
L 385.79729 96.489426 
L 386.201722 100.159157 
L 386.606153 96.997575 
L 387.010585 96.527049 
L 387.415016 94.212342 
L 388.628311 91.784826 
L 389.032743 86.553417 
L 389.437174 84.050656 
L 389.841606 83.410827 
L 390.246037 80.945538 
L 391.459332 75.111953 
L 391.863763 76.241089 
L 392.268195 74.133518 
L 392.672627 77.276138 
L 393.077058 77.42666 
L 394.290353 76.749238 
L 394.694784 76.711465 
L 395.099216 69.410168 
L 395.503647 68.036393 
L 397.121374 66.775637 
L 397.525805 61.224222 
L 397.930237 61.826338 
L 398.334668 65.364299 
L 398.7391 67.208269 
L 399.952395 66.625025 
L 400.356826 74.039281 
L 400.761258 55.503505 
L 401.165689 58.081542 
L 401.570121 53.188859 
L 402.783416 59.342389 
L 403.187847 69.918196 
L 403.592279 69.842951 
L 404.401142 79.177958 
L 405.614436 100.826676 
L 406.4233 91.003505 
L 406.827731 92.590286 
L 407.232163 94.630497 
L 408.445457 105.794906 
L 408.849889 99.164229 
L 409.658752 112.27428 
L 410.063184 113.577806 
L 411.68091 114.97578 
L 412.085341 116.581462 
L 412.489773 114.843498 
L 412.894205 120.945109 
L 412.894205 120.945109 
" clip-path="url(#p9b35ff9110)" style="fill: none; stroke: #bc80bd; stroke-opacity: 0.5; stroke-width: 2; stroke-linecap: square"/>
   </g>
   <g id="line2d_19">
    <path d="M 57.803295 240.636531 
L 58.207727 240.754629 
L 58.612159 240.436699 
L 59.01659 239.687254 
L 60.229885 238.845149 
L 61.038748 237.654348 
L 61.847611 237.107844 
L 63.465337 236.761232 
L 64.2742 236.276137 
L 64.678632 236.07349 
L 66.296358 235.743196 
L 67.509653 234.810545 
L 69.127379 234.42295 
L 70.340674 232.238782 
L 71.553968 231.518264 
L 73.171695 228.625457 
L 74.384989 227.929608 
L 76.002716 225.101251 
L 77.620442 224.428377 
L 78.833737 222.61812 
L 80.047031 222.070379 
L 81.664757 219.801353 
L 82.878052 219.280537 
L 84.091347 217.886481 
L 84.495778 217.458497 
L 85.709073 217.046063 
L 87.326799 215.43811 
L 88.540094 215.024896 
L 90.15782 213.613712 
L 91.371115 213.285823 
L 92.988841 211.727163 
L 94.202136 211.373565 
L 95.41543 210.339736 
L 95.819862 210.03776 
L 97.033157 209.749228 
L 98.246451 209.061671 
L 99.864178 208.836685 
L 101.481904 208.013477 
L 102.695199 207.773821 
L 104.312925 206.849814 
L 105.526219 206.573541 
L 107.143946 205.453335 
L 108.35724 205.074127 
L 109.974967 203.509503 
L 111.188261 203.105932 
L 111.997124 202.435266 
L 112.805988 201.794836 
L 114.019282 201.462046 
L 115.637008 200.221093 
L 117.254735 199.925794 
L 118.468029 199.067013 
L 119.681324 198.78925 
L 121.29905 197.760848 
L 122.916777 197.517704 
L 124.130071 197.269142 
L 125.747797 197.05513 
L 126.961092 196.735959 
L 128.98325 196.468108 
L 129.792113 196.334112 
L 132.623134 196.091366 
L 134.24086 195.928836 
L 137.880744 195.045436 
L 138.285176 194.910794 
L 139.902902 194.591491 
L 141.116197 194.176565 
L 142.733923 193.954182 
L 143.947218 193.374425 
L 145.160512 193.156479 
L 146.778239 192.313857 
L 147.991533 192.090071 
L 149.609259 191.240314 
L 150.822554 191.060582 
L 152.44028 190.250849 
L 153.653575 190.035069 
L 155.271301 189.10573 
L 156.889027 188.896431 
L 158.102322 188.330264 
L 159.315617 188.136366 
L 160.933343 187.458306 
L 162.551069 187.150351 
L 163.764364 186.849303 
L 165.38209 186.692573 
L 166.595385 186.404096 
L 168.213111 186.211644 
L 169.426406 185.913908 
L 171.044132 185.698873 
L 172.257427 185.366536 
L 173.875153 185.083163 
L 175.088448 184.74591 
L 176.706174 184.539031 
L 179.537195 183.78107 
L 180.750489 183.171329 
L 181.963784 182.928187 
L 183.58151 181.933812 
L 184.794805 181.698971 
L 186.412531 180.898303 
L 187.625826 180.706209 
L 188.434689 180.26063 
L 189.243552 180.033304 
L 190.456847 179.815096 
L 192.074573 179.04789 
L 193.287868 178.872585 
L 194.905594 178.200644 
L 196.118889 178.01032 
L 197.736615 177.268719 
L 198.94991 177.057657 
L 200.567636 176.281099 
L 202.185362 176.121821 
L 203.398657 175.657486 
L 205.016383 175.49083 
L 206.229678 174.973513 
L 207.442972 174.797062 
L 209.060699 174.079342 
L 210.678425 173.896682 
L 211.89172 173.299318 
L 213.105014 173.116716 
L 214.72274 172.496789 
L 216.340467 172.2755 
L 217.553761 171.994665 
L 219.575919 171.830877 
L 222.002509 171.605881 
L 223.215803 171.217393 
L 225.237961 170.956059 
L 226.046824 170.66566 
L 227.66455 170.319439 
L 228.877845 169.85142 
L 230.495571 169.540905 
L 231.708866 169.07228 
L 233.326592 168.72147 
L 234.539887 168.249359 
L 236.157613 167.977458 
L 237.370908 167.701105 
L 239.393066 167.415003 
L 239.797497 167.329275 
L 241.819655 167.16235 
L 243.03295 166.856357 
L 244.650676 166.647191 
L 245.863971 166.301704 
L 247.481697 166.037632 
L 248.694991 165.731079 
L 251.121581 165.512593 
L 253.54817 165.204154 
L 254.357033 164.920152 
L 255.570328 164.753088 
L 257.188054 164.028873 
L 258.80578 163.674963 
L 260.019075 163.153919 
L 261.23237 162.979721 
L 262.850096 162.283681 
L 264.467822 162.112993 
L 265.681117 161.601924 
L 266.894412 161.414573 
L 268.512138 160.649109 
L 269.725433 160.470063 
L 271.343159 159.775355 
L 272.960885 159.468452 
L 274.17418 159.0382 
L 275.791906 158.778424 
L 277.005201 158.369841 
L 278.622927 158.094886 
L 281.049516 157.652214 
L 282.667242 157.030878 
L 284.284969 156.715097 
L 285.498263 156.24664 
L 287.11599 155.928209 
L 288.329284 155.442028 
L 289.947011 155.15233 
L 291.160305 154.506531 
L 292.3736 154.277434 
L 293.991326 153.394332 
L 295.204621 153.168356 
L 296.822347 152.20529 
L 298.035642 151.955016 
L 299.653368 150.96643 
L 300.866663 150.71101 
L 302.484389 149.59666 
L 304.102115 149.301311 
L 305.31541 148.484442 
L 306.528704 148.238557 
L 308.146431 147.171378 
L 309.359725 146.93336 
L 310.977452 145.980297 
L 312.190746 145.735262 
L 313.808473 144.723155 
L 315.021767 144.456304 
L 316.639493 143.381618 
L 317.852788 143.135425 
L 319.470514 142.225205 
L 320.683809 142.010915 
L 322.301535 141.125233 
L 323.51483 140.902214 
L 325.132556 140.055165 
L 326.345851 139.871035 
L 327.963577 139.090536 
L 329.581303 138.80777 
L 330.794598 138.323204 
L 332.816756 138.039243 
L 333.625619 137.840837 
L 343.736408 137.340493 
L 346.97186 137.378567 
L 350.611744 137.686849 
L 353.038334 137.853554 
L 353.442765 137.924848 
L 355.869355 138.160284 
L 357.891512 138.330724 
L 359.104807 138.45457 
L 363.149123 138.677217 
L 364.362417 138.730005 
L 367.59787 138.637089 
L 374.473206 138.464223 
L 383.775132 137.742218 
L 384.583995 137.565154 
L 386.606153 137.352945 
L 387.415016 137.203803 
L 389.032743 137.033769 
L 390.246037 136.747335 
L 391.863763 136.533052 
L 393.077058 136.217584 
L 394.694784 136.010672 
L 395.503647 135.77744 
L 397.525805 135.529504 
L 398.7391 135.164917 
L 400.356826 134.942887 
L 401.570121 134.537343 
L 403.187847 134.299967 
L 404.401142 133.996025 
L 406.4233 133.802941 
L 407.232163 133.668293 
L 412.894205 133.340773 
L 412.894205 133.340773 
" clip-path="url(#p9b35ff9110)" style="fill: none; stroke-dasharray: 2,3.3; stroke-dashoffset: 0; stroke: #fb8072; stroke-width: 2"/>
   </g>
   <g id="line2d_20">
    <path d="M 57.803295 240.636531 
L 58.207727 240.756428 
L 58.612159 240.428148 
L 59.01659 239.646359 
L 60.229885 238.760873 
L 61.038748 237.5013 
L 61.847611 236.933562 
L 63.465337 236.557461 
L 64.2742 236.035507 
L 64.678632 235.815875 
L 66.296358 235.458444 
L 67.509653 234.359235 
L 69.127379 233.916086 
L 70.340674 231.09971 
L 71.553968 230.165239 
L 73.171695 226.381577 
L 74.384989 225.464289 
L 76.002716 221.686245 
L 77.620442 220.780991 
L 78.833737 218.369029 
L 80.047031 217.644306 
L 80.855894 216.088239 
L 81.664757 214.55309 
L 82.878052 213.848533 
L 84.091347 212.002999 
L 84.495778 211.442007 
L 85.709073 210.90388 
L 87.326799 208.770399 
L 88.540094 208.199873 
L 90.15782 206.348372 
L 91.371115 205.923129 
L 92.988841 203.653551 
L 94.202136 203.154167 
L 95.41543 201.691649 
L 95.819862 201.292223 
L 97.033157 200.918938 
L 98.246451 200.18566 
L 99.864178 199.93838 
L 101.481904 199.075778 
L 102.695199 198.760053 
L 103.908493 197.818087 
L 104.312925 197.546781 
L 105.526219 197.110329 
L 107.143946 195.298051 
L 108.35724 194.560894 
L 109.974967 191.483618 
L 111.188261 190.681896 
L 111.592693 189.920714 
L 112.401556 188.939467 
L 112.805988 188.377654 
L 114.019282 187.780644 
L 115.637008 185.657872 
L 117.254735 185.169292 
L 118.468029 183.771658 
L 119.681324 183.329728 
L 120.894619 181.919955 
L 121.29905 181.819654 
L 123.321208 182.07643 
L 124.130071 182.508427 
L 125.747797 182.645862 
L 126.961092 182.792408 
L 128.174387 182.844451 
L 128.578818 183.012603 
L 128.98325 183.057239 
L 129.792113 183.361345 
L 131.814271 183.652557 
L 132.623134 183.962681 
L 135.049723 183.972833 
L 135.454155 183.808389 
L 136.66745 183.619984 
L 138.285176 182.73802 
L 139.49847 182.441576 
L 140.711765 181.583092 
L 141.116197 181.466377 
L 142.329491 181.396092 
L 142.733923 181.254552 
L 143.947218 179.835049 
L 145.160512 179.254457 
L 145.969375 177.952775 
L 146.778239 177.117117 
L 147.991533 176.527159 
L 148.800396 175.245042 
L 149.609259 174.433626 
L 150.822554 174.07235 
L 152.44028 172.20055 
L 153.653575 171.670466 
L 155.271301 169.255791 
L 156.889027 168.781191 
L 157.697891 167.929385 
L 158.102322 167.686388 
L 159.315617 167.291583 
L 160.12448 166.674481 
L 160.933343 166.220152 
L 162.146638 166.026645 
L 162.551069 165.835667 
L 162.955501 165.797851 
L 166.190953 166.610998 
L 168.617543 166.822267 
L 171.852995 166.515428 
L 173.470721 166.140684 
L 174.279585 165.608136 
L 177.110605 165.378722 
L 177.515037 165.280642 
L 177.919469 164.873724 
L 179.132763 164.276182 
L 179.941626 163.000741 
L 180.346058 162.382744 
L 180.750489 161.540722 
L 181.963784 160.627318 
L 183.58151 156.963389 
L 184.794805 156.168587 
L 186.0081 154.484075 
L 186.412531 153.975649 
L 187.625826 153.491932 
L 188.434689 152.121671 
L 189.243552 151.417045 
L 190.456847 150.782382 
L 190.861278 150.22334 
L 191.670142 149.415804 
L 192.074573 149.009803 
L 193.287868 148.685294 
L 194.905594 147.58079 
L 196.118889 147.140157 
L 197.736615 145.528141 
L 198.94991 144.941362 
L 200.567636 143.122183 
L 202.185362 142.931824 
L 203.398657 142.439633 
L 205.016383 142.176132 
L 205.825246 141.631576 
L 206.229678 141.240525 
L 207.442972 140.897229 
L 209.060699 139.426432 
L 210.678425 139.035659 
L 211.89172 137.489911 
L 213.105014 137.112393 
L 213.509446 136.743995 
L 213.913877 136.542879 
L 214.72274 136.475815 
L 215.936035 136.629536 
L 217.14933 137.153608 
L 217.553761 137.70023 
L 219.171488 138.820071 
L 219.575919 139.369858 
L 220.384782 140.794362 
L 222.40694 141.257025 
L 223.215803 140.682505 
L 224.833529 140.455704 
L 225.642393 140.028243 
L 226.046824 139.618078 
L 227.260119 139.027231 
L 228.068982 137.97676 
L 228.877845 137.277494 
L 230.09114 136.876459 
L 231.708866 135.308174 
L 232.922161 134.693726 
L 233.731024 133.796403 
L 234.539887 133.046686 
L 235.753182 132.857134 
L 236.157613 132.676606 
L 236.562045 132.722276 
L 236.966476 132.901159 
L 237.370908 133.292119 
L 238.584202 133.235904 
L 239.797497 133.925788 
L 242.224087 134.326254 
L 242.628518 134.237347 
L 243.03295 134.396907 
L 244.246244 134.458808 
L 247.077265 133.675383 
L 247.886128 132.964983 
L 248.29056 132.916917 
L 248.694991 133.264016 
L 249.908286 133.627393 
L 251.526012 135.392437 
L 253.143739 135.766754 
L 253.952602 135.07567 
L 254.357033 134.350907 
L 255.570328 133.573928 
L 256.783623 130.943467 
L 257.188054 130.037536 
L 258.401349 129.183346 
L 260.019075 126.266365 
L 261.23237 125.554346 
L 262.850096 122.817987 
L 264.467822 122.194353 
L 265.681117 120.379631 
L 266.894412 119.609764 
L 268.512138 116.485099 
L 269.725433 115.865563 
L 270.534296 114.654431 
L 271.343159 113.698849 
L 272.960885 113.087128 
L 273.769748 112.645693 
L 274.17418 112.493589 
L 275.387474 112.499561 
L 278.622927 111.632077 
L 279.43179 111.483587 
L 279.836222 111.196086 
L 281.049516 110.771515 
L 282.667242 109.284134 
L 283.880537 108.898499 
L 285.498263 107.385402 
L 286.711558 107.017652 
L 288.329284 105.308696 
L 289.542579 105.098149 
L 289.947011 104.872708 
L 290.351442 104.028257 
L 291.160305 101.733381 
L 292.3736 100.560533 
L 293.991326 96.46169 
L 295.204621 95.417268 
L 296.417915 92.098161 
L 296.822347 90.696729 
L 298.035642 89.4561 
L 299.653368 84.857013 
L 300.866663 83.652652 
L 302.079957 79.488254 
L 302.484389 77.902139 
L 304.102115 76.322716 
L 304.910978 73.680214 
L 305.31541 72.622936 
L 306.528704 71.763752 
L 308.146431 67.40281 
L 309.359725 66.725437 
L 310.977452 64.064422 
L 312.190746 63.32419 
L 313.808473 60.023355 
L 315.021767 59.04192 
L 316.235062 55.862034 
L 316.639493 55.17181 
L 317.852788 54.531423 
L 318.25722 53.73659 
L 319.066083 53.484577 
L 319.470514 52.987798 
L 320.683809 52.772008 
L 321.492672 51.884824 
L 321.897104 51.777187 
L 322.301535 51.488477 
L 323.51483 51.133366 
L 323.919261 50.672393 
L 324.323693 50.653224 
L 324.728125 50.370785 
L 325.132556 50.292882 
L 326.750282 50.532682 
L 327.154714 50.306513 
L 327.559146 49.898912 
L 327.963577 50.329246 
L 329.176872 51.076614 
L 329.581303 51.67944 
L 330.390166 52.190424 
L 330.794598 52.68066 
L 332.007893 53.735191 
L 333.625619 58.322103 
L 334.838914 59.674521 
L 335.647777 63.253476 
L 336.45664 65.220769 
L 337.669935 66.998067 
L 338.478798 70.059756 
L 339.287661 72.783626 
L 340.500955 73.760657 
L 340.905387 75.165393 
L 341.71425 76.638728 
L 342.118682 78.418074 
L 343.331976 80.081641 
L 344.949703 86.48579 
L 346.162997 88.225495 
L 346.97186 91.605204 
L 347.780723 95.860131 
L 349.802881 100.046849 
L 350.611744 103.530781 
L 351.825039 105.107659 
L 352.633902 106.627113 
L 353.442765 110.931368 
L 354.65606 112.837682 
L 355.869355 117.447821 
L 356.273786 118.913552 
L 357.487081 120.464036 
L 358.700376 124.080795 
L 359.104807 125.09289 
L 360.722533 126.272493 
L 361.935828 129.352399 
L 363.149123 130.235573 
L 363.553554 131.183319 
L 364.362417 131.756949 
L 364.766849 131.993487 
L 365.980144 131.957043 
L 366.789007 131.559558 
L 372.046617 131.428782 
L 374.877638 130.684903 
L 376.090933 130.066559 
L 377.304227 129.786944 
L 378.11309 129.345233 
L 378.921954 129.186446 
L 380.135248 128.761046 
L 381.348543 127.026583 
L 381.752974 126.258376 
L 382.966269 125.405956 
L 383.775132 123.850757 
L 384.583995 121.755562 
L 385.79729 120.997577 
L 387.010585 118.976855 
L 387.415016 118.23392 
L 388.628311 117.440447 
L 390.246037 113.567151 
L 391.459332 112.413495 
L 393.077058 108.270457 
L 394.290353 107.32482 
L 395.099216 105.296532 
L 395.503647 104.178728 
L 397.121374 103.056635 
L 398.334668 99.54526 
L 398.7391 98.57515 
L 399.952395 97.616646 
L 400.356826 96.909325 
L 401.570121 93.299061 
L 402.783416 92.28036 
L 403.99671 90.446162 
L 404.401142 90.108116 
L 408.445457 91.218201 
L 408.849889 91.456582 
L 409.658752 92.515397 
L 410.063184 93.147269 
L 411.68091 93.802125 
L 412.894205 95.87171 
L 412.894205 95.87171 
" clip-path="url(#p9b35ff9110)" style="fill: none; stroke-dasharray: 7.4,3.2; stroke-dashoffset: 0; stroke: #b3de69; stroke-width: 2"/>
   </g>
   <g id="line2d_21">
    <path d="M 73.171695 228.625457 
L 74.384989 227.475789 
L 76.002716 222.646984 
L 77.620442 221.467154 
L 78.833737 217.960709 
L 80.047031 216.823645 
L 81.260326 213.074934 
L 81.664757 211.757325 
L 82.878052 210.461255 
L 84.495778 205.831403 
L 85.709073 204.634002 
L 87.326799 201.65512 
L 88.540094 200.970989 
L 90.15782 198.786534 
L 91.371115 198.404646 
L 92.988841 196.30426 
L 94.202136 195.874796 
L 95.41543 194.419578 
L 95.819862 194.005757 
L 97.437588 193.611488 
L 98.246451 193.368412 
L 100.268609 193.074502 
L 101.077472 192.729111 
L 101.481904 192.529043 
L 102.695199 192.226011 
L 103.908493 191.518271 
L 105.526219 190.936317 
L 107.143946 189.228895 
L 108.35724 188.628689 
L 109.570535 186.665449 
L 109.974967 185.815364 
L 111.188261 185.061187 
L 111.592693 184.27318 
L 111.997124 183.803301 
L 112.805988 182.477027 
L 114.019282 181.630115 
L 115.637008 178.288457 
L 117.254735 177.400579 
L 118.468029 175.12329 
L 119.681324 174.469299 
L 120.894619 172.148731 
L 121.29905 171.952247 
L 123.321208 172.090763 
L 123.72564 172.356293 
L 124.130071 173.017937 
L 125.343366 173.477114 
L 126.152229 174.504491 
L 126.961092 175.806048 
L 128.174387 176.437521 
L 128.98325 177.303261 
L 129.792113 178.569483 
L 131.005408 179.243495 
L 131.814271 179.848793 
L 132.623134 181.19485 
L 133.836429 181.758267 
L 135.454155 183.540794 
L 136.66745 183.860785 
L 137.476313 184.466739 
L 137.880744 184.377745 
L 138.285176 184.060372 
L 139.49847 183.700463 
L 141.116197 181.855111 
L 142.329491 181.611678 
L 142.733923 181.338148 
L 143.947218 179.285375 
L 145.160512 178.298571 
L 146.778239 174.494124 
L 147.991533 173.421746 
L 148.800396 171.006654 
L 149.609259 169.304728 
L 150.822554 168.513757 
L 152.035849 166.253464 
L 152.44028 165.572399 
L 153.653575 164.847082 
L 155.271301 161.481002 
L 156.889027 160.875279 
L 158.102322 158.591375 
L 160.528912 157.043477 
L 160.933343 156.932377 
L 162.955501 157.046281 
L 163.359932 157.314978 
L 163.764364 157.837907 
L 164.977659 158.563834 
L 165.38209 159.076907 
L 166.595385 159.795606 
L 167.80868 160.187803 
L 169.426406 161.628491 
L 170.639701 162.092951 
L 172.257427 163.935027 
L 174.279585 164.046048 
L 175.088448 164.711535 
L 176.706174 165.017668 
L 177.110605 165.245628 
L 177.515037 165.328407 
L 177.919469 165.044605 
L 179.132763 164.344952 
L 180.346058 161.177814 
L 180.750489 159.905968 
L 181.963784 158.590757 
L 183.58151 152.90567 
L 184.794805 151.518499 
L 186.412531 147.465763 
L 187.625826 146.543338 
L 188.434689 144.154584 
L 189.243552 143.121928 
L 190.456847 142.18605 
L 192.074573 138.260524 
L 193.287868 137.386107 
L 194.096731 135.674927 
L 194.501163 135.223036 
L 194.905594 135.008949 
L 196.118889 134.729696 
L 196.927752 134.059182 
L 200.567636 133.905598 
L 202.185362 133.956365 
L 202.994225 133.857466 
L 203.398657 133.918121 
L 205.420815 133.827796 
L 205.825246 133.955047 
L 207.847404 133.852855 
L 209.060699 132.911368 
L 210.678425 132.490062 
L 211.89172 130.587953 
L 213.105014 130.084896 
L 213.913877 129.630634 
L 214.72274 129.753923 
L 215.936035 130.150168 
L 216.744898 131.241981 
L 217.14933 131.675146 
L 217.553761 132.6318 
L 219.171488 134.349959 
L 219.575919 135.079157 
L 220.384782 136.932631 
L 221.598077 137.518534 
L 222.40694 138.322734 
L 223.215803 138.488994 
L 224.833529 138.606305 
L 225.642393 138.909531 
L 226.046824 138.967185 
L 227.66455 138.734647 
L 228.068982 138.761929 
L 228.473413 138.943008 
L 230.09114 138.914699 
L 230.900003 138.400184 
L 231.304434 137.994616 
L 231.708866 137.153745 
L 232.922161 136.132419 
L 234.135455 133.261811 
L 234.539887 131.794462 
L 235.753182 130.938368 
L 236.966476 127.92377 
L 238.988634 127.153866 
L 239.797497 127.892651 
L 242.224087 128.47124 
L 242.628518 128.649978 
L 243.03295 129.351034 
L 244.246244 129.90314 
L 244.650676 130.225534 
L 245.863971 130.670397 
L 247.077265 130.726666 
L 247.481697 130.514158 
L 247.886128 130.454583 
L 248.29056 130.929897 
L 248.694991 131.989093 
L 249.908286 132.964215 
L 251.121581 135.896875 
L 251.526012 136.756149 
L 253.143739 137.560476 
L 253.54817 137.049414 
L 254.357033 135.526159 
L 255.570328 134.41268 
L 257.188054 128.889167 
L 258.401349 127.746193 
L 258.80578 126.795634 
L 259.614644 124.267695 
L 260.019075 123.355566 
L 261.23237 122.302096 
L 262.850096 118.845103 
L 264.467822 118.131168 
L 264.872254 117.110168 
L 265.681117 113.958781 
L 266.894412 111.997298 
L 268.512138 104.054739 
L 269.725433 102.540921 
L 270.534296 100.488945 
L 270.938727 99.978828 
L 271.343159 99.687009 
L 272.556453 99.460752 
L 272.960885 99.523901 
L 274.17418 100.133295 
L 275.387474 100.41706 
L 276.196337 100.854329 
L 276.600769 100.908153 
L 277.005201 101.075621 
L 278.218495 101.074292 
L 278.622927 101.369351 
L 279.836222 101.59264 
L 281.049516 101.414541 
L 281.858379 101.158024 
L 282.667242 101.138757 
L 283.880537 101.29825 
L 284.6894 101.669735 
L 287.11599 101.535497 
L 288.329284 100.762624 
L 289.542579 100.482186 
L 289.947011 100.230323 
L 290.351442 99.164385 
L 291.160305 95.955273 
L 292.3736 94.31782 
L 293.991326 88.366928 
L 295.204621 86.660193 
L 296.822347 80.042985 
L 298.035642 78.159944 
L 299.653368 71.511637 
L 300.866663 69.630675 
L 301.675526 65.582733 
L 302.484389 60.954973 
L 304.102115 58.672852 
L 305.31541 52.125423 
L 306.528704 50.211139 
L 306.933136 48.673701 
L 307.337568 47.713072 
L 308.146431 45.402497 
L 309.359725 44.635993 
L 310.57302 42.339633 
L 310.977452 41.753451 
L 312.190746 41.01722 
L 312.595178 40.220299 
L 313.404041 39.255326 
L 313.808473 38.569768 
L 315.021767 37.754841 
L 316.235062 34.911265 
L 316.639493 34.487794 
L 317.852788 34.216373 
L 318.25722 33.956956 
L 318.661651 34.535142 
L 319.066083 35.414092 
L 319.470514 35.830894 
L 320.683809 36.4651 
L 321.897104 36.689837 
L 322.301535 36.992599 
L 323.51483 37.020609 
L 323.919261 37.266023 
L 324.323693 37.849542 
L 324.728125 37.7215 
L 326.345851 38.259672 
L 326.750282 38.708482 
L 327.559146 38.533083 
L 327.963577 39.514066 
L 329.176872 40.7698 
L 329.985735 43.235257 
L 330.390166 44.438476 
L 330.794598 46.045429 
L 332.007893 48.527728 
L 333.625619 57.616267 
L 334.838914 59.607006 
L 335.647777 65.046459 
L 336.45664 68.011998 
L 337.669935 71.141051 
L 338.478798 76.528827 
L 339.287661 81.902581 
L 340.500955 84.387715 
L 340.905387 86.907419 
L 341.71425 89.87306 
L 342.118682 93.02221 
L 343.331976 95.826323 
L 344.949703 108.1868 
L 346.162997 110.65946 
L 346.567429 113.134959 
L 347.780723 123.422678 
L 349.802881 128.936946 
L 350.611744 133.342334 
L 351.825039 135.737428 
L 352.633902 137.607193 
L 353.442765 141.843942 
L 354.65606 143.474129 
L 356.273786 150.112666 
L 357.487081 152.025255 
L 357.891512 154.14999 
L 358.700376 156.867642 
L 359.104807 157.648608 
L 360.722533 158.739418 
L 361.935828 161.70401 
L 363.149123 162.31834 
L 363.553554 162.938023 
L 363.957986 162.992899 
L 364.362417 162.621491 
L 364.766849 161.973028 
L 365.980144 160.599818 
L 366.384575 158.769537 
L 367.59787 155.639597 
L 368.811165 154.808668 
L 369.215596 153.89166 
L 370.024459 150.412296 
L 370.428891 148.858341 
L 372.046617 147.458821 
L 373.259912 143.518978 
L 374.473206 141.847489 
L 375.686501 137.784049 
L 376.090933 136.519217 
L 377.304227 134.959684 
L 378.11309 131.952849 
L 378.921954 129.755749 
L 380.135248 128.083583 
L 381.752974 123.656678 
L 382.966269 122.676533 
L 383.370701 121.800541 
L 383.775132 120.594163 
L 384.583995 117.482445 
L 385.79729 116.282786 
L 387.010585 112.749004 
L 387.415016 111.470709 
L 388.628311 110.179646 
L 390.246037 104.166563 
L 391.459332 102.470911 
L 393.077058 95.854992 
L 394.290353 94.194292 
L 395.503647 88.687966 
L 397.121374 87.100523 
L 397.930237 83.793902 
L 398.7391 81.412062 
L 399.952395 80.196946 
L 400.761258 78.319159 
L 401.570121 75.556249 
L 402.783416 74.098508 
L 403.99671 71.454559 
L 404.401142 71.004314 
L 405.614436 71.514073 
L 406.827731 72.601916 
L 407.232163 73.299006 
L 408.445457 74.3545 
L 409.254321 76.287893 
L 410.063184 78.847757 
L 411.68091 80.21434 
L 412.894205 85.505335 
L 412.894205 85.505335 
" clip-path="url(#p9b35ff9110)" style="fill: none; stroke-dasharray: 12.8,3.2,2,3.2; stroke-dashoffset: 0; stroke: #fdb462; stroke-width: 2"/>
   </g>
   <g id="patch_3">
    <path d="M 40.04875 252 
L 40.04875 7.2 
" style="fill: none; stroke: #000000; stroke-width: 0.6; stroke-linejoin: miter; stroke-linecap: square"/>
   </g>
   <g id="patch_4">
    <path d="M 40.04875 252 
L 430.64875 252 
" style="fill: none; stroke: #000000; stroke-width: 0.6; stroke-linejoin: miter; stroke-linecap: square"/>
   </g>
   <g id="legend_1">
    <g id="patch_5">
     <path d="M 47.04875 64.890625 
L 154.750313 64.890625 
Q 156.750313 64.890625 156.750313 62.890625 
L 156.750313 14.2 
Q 156.750313 12.2 154.750313 12.2 
L 47.04875 12.2 
Q 45.04875 12.2 45.04875 14.2 
L 45.04875 62.890625 
Q 45.04875 64.890625 47.04875 64.890625 
z
" style="fill: #ffffff; opacity: 0.8; stroke: #e6e6e6; stroke-width: 0.8; stroke-linejoin: miter"/>
    </g>
    <g id="line2d_22">
     <path d="M 47.04875 17.7 
L 57.04875 17.7 
L 67.04875 17.7 
" style="fill: none; stroke: #bc80bd; stroke-opacity: 0.5; stroke-width: 2; stroke-linecap: square"/>
    </g>
    <g id="text_20">
     <!-- Raw -->
     <g style="fill: #323034" transform="translate(75.04875 21.2) scale(0.1 -0.1)">
      <defs>
       <path id="STIXGeneral-Regular-52" d="M 4224 0 
L 3187 0 
L 1664 1971 
L 1306 1958 
L 1306 717 
Q 1306 352 1405 249 
Q 1504 147 1875 122 
L 1875 0 
L 109 0 
L 109 122 
Q 474 154 563 262 
Q 653 371 653 794 
L 653 3526 
Q 653 3885 563 3987 
Q 474 4090 109 4115 
L 109 4237 
L 1850 4237 
Q 2726 4237 3187 3859 
Q 3501 3603 3501 3091 
Q 3501 2221 2342 2042 
L 3622 422 
Q 3757 256 3878 198 
Q 4000 141 4224 122 
L 4224 0 
z
M 1306 3731 
L 1306 2195 
Q 1766 2202 1990 2246 
Q 2214 2291 2438 2413 
Q 2803 2618 2803 3142 
Q 2803 4000 1632 4000 
Q 1459 4000 1382 3945 
Q 1306 3891 1306 3731 
z
" transform="scale(0.015625)"/>
       <path id="STIXGeneral-Regular-77" d="M 4442 2880 
L 4442 2784 
Q 4346 2752 4301 2691 
Q 4256 2630 4179 2438 
L 3296 224 
Q 3168 -90 3117 -90 
Q 3085 -90 3062 -48 
Q 3040 -6 2963 186 
L 2381 1696 
L 1664 160 
Q 1549 -90 1504 -90 
Q 1446 -90 1338 192 
L 474 2381 
Q 378 2630 314 2700 
Q 250 2771 134 2784 
L 134 2880 
L 1286 2880 
L 1286 2784 
Q 1120 2765 1056 2720 
Q 992 2675 992 2573 
Q 992 2477 1030 2381 
L 1664 710 
L 2246 1984 
L 2118 2342 
Q 2029 2598 1942 2681 
Q 1856 2765 1677 2784 
L 1677 2880 
L 2976 2880 
L 2976 2784 
Q 2752 2752 2678 2707 
Q 2605 2662 2605 2560 
Q 2605 2458 2714 2176 
L 3251 742 
L 3827 2163 
Q 3936 2432 3936 2592 
Q 3936 2669 3875 2710 
Q 3814 2752 3654 2784 
L 3654 2880 
L 4442 2880 
z
" transform="scale(0.015625)"/>
      </defs>
      <use xlink:href="#STIXGeneral-Regular-52"/>
      <use xlink:href="#STIXGeneral-Regular-61" transform="translate(66.699997 0)"/>
      <use xlink:href="#STIXGeneral-Regular-77" transform="translate(111.099991 0)"/>
     </g>
    </g>
    <g id="line2d_23">
     <path d="M 47.04875 30.870312 
L 57.04875 30.870312 
L 67.04875 30.870312 
" style="fill: none; stroke-dasharray: 2,3.3; stroke-dashoffset: 0; stroke: #fb8072; stroke-width: 2"/>
    </g>
    <g id="text_21">
     <!-- Expanding Average -->
     <g style="fill: #323034" transform="translate(75.04875 34.370312) scale(0.1 -0.1)">
      <defs>
       <path id="STIXGeneral-Regular-45" d="M 3821 1082 
L 3526 0 
L 77 0 
L 77 122 
Q 442 147 538 252 
Q 634 358 634 730 
L 634 3520 
Q 634 3878 534 3987 
Q 435 4096 77 4115 
L 77 4237 
L 3469 4237 
L 3494 3322 
L 3334 3322 
Q 3264 3750 3085 3872 
Q 2906 3994 2349 3994 
L 1510 3994 
Q 1370 3994 1328 3952 
Q 1286 3910 1286 3763 
L 1286 2355 
L 2253 2355 
Q 2656 2355 2787 2470 
Q 2918 2586 2976 2970 
L 3123 2970 
L 3123 1472 
L 2976 1472 
Q 2918 1875 2790 1984 
Q 2662 2093 2253 2093 
L 1286 2093 
L 1286 538 
Q 1286 346 1420 291 
Q 1555 237 1933 237 
L 2163 237 
Q 2848 237 3136 403 
Q 3424 570 3642 1082 
L 3821 1082 
z
" transform="scale(0.015625)"/>
       <path id="STIXGeneral-Regular-78" d="M 3066 0 
L 1779 0 
L 1779 96 
Q 1939 109 1987 137 
Q 2035 166 2035 250 
Q 2035 307 1997 365 
L 1414 1261 
L 909 474 
Q 781 275 781 211 
Q 781 96 1037 96 
L 1037 0 
L 109 0 
L 109 96 
Q 269 109 355 169 
Q 442 230 576 422 
L 1306 1478 
L 704 2400 
Q 557 2624 454 2704 
Q 352 2784 211 2784 
L 154 2784 
L 154 2880 
L 1478 2880 
L 1478 2784 
Q 1203 2778 1203 2643 
Q 1203 2509 1498 2074 
Q 1581 1958 1587 1946 
Q 1619 1990 1779 2227 
Q 1811 2285 1856 2349 
Q 1901 2413 1923 2451 
Q 1946 2490 1971 2528 
Q 1997 2566 2006 2595 
Q 2016 2624 2016 2643 
Q 2016 2765 1760 2784 
L 1760 2880 
L 2771 2880 
L 2771 2784 
Q 2445 2771 2253 2502 
L 1722 1734 
L 2541 480 
Q 2790 96 3066 96 
L 3066 0 
z
" transform="scale(0.015625)"/>
       <path id="STIXGeneral-Regular-70" d="M 1018 2931 
L 1018 2438 
Q 1421 2944 1939 2944 
Q 2406 2944 2707 2560 
Q 3008 2176 3008 1581 
Q 3008 883 2621 409 
Q 2234 -64 1664 -64 
Q 1466 -64 1328 -6 
Q 1190 51 1018 211 
L 1018 -794 
Q 1018 -1094 1120 -1180 
Q 1222 -1267 1581 -1274 
L 1581 -1389 
L 32 -1389 
L 32 -1280 
Q 314 -1254 397 -1171 
Q 480 -1088 480 -838 
L 480 2157 
Q 480 2381 429 2451 
Q 378 2522 218 2522 
Q 115 2522 58 2515 
L 58 2618 
Q 506 2752 979 2944 
L 1018 2931 
z
M 1018 2138 
L 1018 563 
Q 1018 422 1238 281 
Q 1459 141 1683 141 
Q 2029 141 2243 467 
Q 2458 794 2458 1325 
Q 2458 1888 2243 2224 
Q 2029 2560 1670 2560 
Q 1446 2560 1232 2419 
Q 1018 2278 1018 2138 
z
" transform="scale(0.015625)"/>
       <path id="STIXGeneral-Regular-6e" d="M 3104 0 
L 1773 0 
L 1779 96 
Q 2016 115 2096 233 
Q 2176 352 2176 672 
L 2176 1946 
Q 2176 2592 1709 2592 
Q 1549 2592 1408 2515 
Q 1267 2438 1050 2227 
L 1050 461 
Q 1050 269 1136 192 
Q 1222 115 1466 96 
L 1466 0 
L 115 0 
L 115 96 
Q 358 115 435 214 
Q 512 314 512 602 
L 512 2157 
Q 512 2394 467 2483 
Q 422 2573 288 2573 
Q 160 2573 102 2547 
L 102 2656 
Q 550 2784 979 2944 
L 1030 2925 
L 1030 2426 
L 1037 2426 
Q 1491 2944 1958 2944 
Q 2323 2944 2518 2688 
Q 2714 2432 2714 1958 
L 2714 544 
Q 2714 288 2790 205 
Q 2867 122 3104 96 
L 3104 0 
z
" transform="scale(0.015625)"/>
       <path id="STIXGeneral-Regular-64" d="M 3142 269 
L 2202 -64 
L 2176 -45 
L 2176 365 
Q 1869 -64 1357 -64 
Q 826 -64 499 317 
Q 173 698 173 1312 
Q 173 1990 563 2467 
Q 954 2944 1504 2944 
Q 1850 2944 2176 2669 
L 2176 3667 
Q 2176 3866 2118 3930 
Q 2061 3994 1882 3994 
Q 1792 3994 1741 3987 
L 1741 4090 
Q 2323 4243 2682 4371 
L 2714 4358 
L 2714 730 
Q 2714 506 2768 435 
Q 2822 365 2995 365 
Q 3034 365 3142 371 
L 3142 269 
z
M 2176 653 
L 2176 2125 
Q 2176 2381 1981 2573 
Q 1786 2765 1523 2765 
Q 1158 2765 940 2438 
Q 723 2112 723 1568 
Q 723 979 963 624 
Q 1203 269 1606 269 
Q 1907 269 2080 474 
Q 2176 582 2176 653 
z
" transform="scale(0.015625)"/>
       <path id="STIXGeneral-Regular-69" d="M 1152 4045 
Q 1152 3904 1056 3811 
Q 960 3718 819 3718 
Q 685 3718 592 3811 
Q 499 3904 499 4045 
Q 499 4179 595 4275 
Q 691 4371 826 4371 
Q 966 4371 1059 4275 
Q 1152 4179 1152 4045 
z
M 1619 0 
L 102 0 
L 102 96 
Q 435 115 521 211 
Q 608 307 608 666 
L 608 2118 
Q 608 2342 563 2432 
Q 518 2522 397 2522 
Q 243 2522 128 2490 
L 128 2592 
L 1120 2944 
L 1146 2918 
L 1146 672 
Q 1146 314 1226 218 
Q 1306 122 1619 96 
L 1619 0 
z
" transform="scale(0.015625)"/>
       <path id="STIXGeneral-Regular-67" d="M 3008 2483 
L 2477 2483 
Q 2598 2208 2598 1946 
Q 2598 1453 2265 1203 
Q 1933 954 1600 954 
Q 1530 954 1357 973 
L 1235 986 
Q 1107 947 979 812 
Q 851 678 851 582 
Q 851 435 1350 410 
L 2176 371 
Q 2528 358 2739 172 
Q 2950 -13 2950 -314 
Q 2950 -685 2566 -986 
Q 2035 -1395 1286 -1395 
Q 826 -1395 502 -1212 
Q 179 -1030 179 -774 
Q 179 -595 320 -419 
Q 461 -243 806 6 
Q 602 102 534 172 
Q 467 243 467 346 
Q 467 531 762 787 
Q 909 915 1037 1043 
Q 717 1203 579 1401 
Q 442 1600 442 1901 
Q 442 2336 752 2640 
Q 1062 2944 1510 2944 
Q 1766 2944 2022 2848 
L 2163 2797 
Q 2349 2733 2515 2733 
L 3008 2733 
L 3008 2483 
z
M 973 2163 
L 973 2144 
Q 973 1683 1155 1398 
Q 1338 1114 1632 1114 
Q 1850 1114 1978 1270 
Q 2106 1427 2106 1690 
Q 2106 2112 1914 2464 
Q 1754 2765 1446 2765 
Q 1222 2765 1097 2605 
Q 973 2445 973 2163 
z
M 2771 -410 
Q 2771 -230 2595 -163 
Q 2419 -96 1978 -96 
Q 1344 -96 941 -13 
Q 749 -243 688 -348 
Q 627 -454 627 -563 
Q 627 -774 880 -902 
Q 1133 -1030 1555 -1030 
Q 2099 -1030 2435 -860 
Q 2771 -691 2771 -410 
z
" transform="scale(0.015625)"/>
       <path id="STIXGeneral-Regular-41" d="M 4525 0 
L 2893 0 
L 2893 122 
Q 3149 122 3245 179 
Q 3334 224 3334 333 
Q 3334 499 3213 781 
L 2950 1382 
L 1274 1382 
L 979 653 
Q 922 506 922 384 
Q 922 237 1027 179 
Q 1133 122 1370 122 
L 1370 0 
L 96 0 
L 96 122 
Q 365 147 486 316 
Q 608 486 902 1190 
L 2221 4314 
L 2349 4314 
L 3923 710 
Q 4064 378 4176 262 
Q 4288 147 4525 122 
L 4525 0 
z
M 2861 1645 
L 2118 3405 
L 1382 1645 
L 2861 1645 
z
" transform="scale(0.015625)"/>
       <path id="STIXGeneral-Regular-76" d="M 3053 2880 
L 3053 2784 
Q 2906 2771 2835 2688 
Q 2765 2605 2637 2285 
L 1818 230 
Q 1690 -90 1638 -90 
Q 1587 -90 1523 77 
Q 1510 96 1497 141 
Q 1485 186 1472 211 
L 704 2048 
Q 499 2534 403 2652 
Q 307 2771 122 2784 
L 122 2880 
L 1376 2880 
L 1376 2784 
Q 1210 2771 1146 2732 
Q 1082 2694 1082 2611 
Q 1082 2509 1139 2368 
L 1792 730 
L 2426 2387 
Q 2464 2483 2464 2579 
Q 2464 2758 2163 2784 
L 2163 2880 
L 3053 2880 
z
" transform="scale(0.015625)"/>
       <path id="STIXGeneral-Regular-72" d="M 1024 2931 
L 1024 2342 
Q 1267 2688 1430 2816 
Q 1594 2944 1792 2944 
Q 1958 2944 2051 2854 
Q 2144 2765 2144 2605 
Q 2144 2470 2077 2393 
Q 2010 2317 1894 2317 
Q 1773 2317 1638 2445 
Q 1536 2541 1472 2541 
Q 1338 2541 1181 2355 
Q 1024 2170 1024 2016 
L 1024 576 
Q 1024 301 1133 205 
Q 1242 109 1568 96 
L 1568 0 
L 32 0 
L 32 96 
Q 339 154 412 224 
Q 486 294 486 538 
L 486 2138 
Q 486 2349 438 2435 
Q 390 2522 269 2522 
Q 166 2522 45 2496 
L 45 2598 
Q 448 2726 992 2944 
L 1024 2931 
z
" transform="scale(0.015625)"/>
      </defs>
      <use xlink:href="#STIXGeneral-Regular-45"/>
      <use xlink:href="#STIXGeneral-Regular-78" transform="translate(61.099991 0)"/>
      <use xlink:href="#STIXGeneral-Regular-70" transform="translate(111.099976 0)"/>
      <use xlink:href="#STIXGeneral-Regular-61" transform="translate(161.09996 0)"/>
      <use xlink:href="#STIXGeneral-Regular-6e" transform="translate(205.499954 0)"/>
      <use xlink:href="#STIXGeneral-Regular-64" transform="translate(255.499939 0)"/>
      <use xlink:href="#STIXGeneral-Regular-69" transform="translate(305.499924 0)"/>
      <use xlink:href="#STIXGeneral-Regular-6e" transform="translate(333.299911 0)"/>
      <use xlink:href="#STIXGeneral-Regular-67" transform="translate(383.299896 0)"/>
      <use xlink:href="#STIXGeneral-Regular-20" transform="translate(433.299881 0)"/>
      <use xlink:href="#STIXGeneral-Regular-41" transform="translate(458.299866 0)"/>
      <use xlink:href="#STIXGeneral-Regular-76" transform="translate(530.499847 0)"/>
      <use xlink:href="#STIXGeneral-Regular-65" transform="translate(580.499832 0)"/>
      <use xlink:href="#STIXGeneral-Regular-72" transform="translate(624.899826 0)"/>
      <use xlink:href="#STIXGeneral-Regular-61" transform="translate(658.199814 0)"/>
      <use xlink:href="#STIXGeneral-Regular-67" transform="translate(702.599808 0)"/>
      <use xlink:href="#STIXGeneral-Regular-65" transform="translate(752.599792 0)"/>
     </g>
    </g>
    <g id="line2d_24">
     <path d="M 47.04875 44.05 
L 57.04875 44.05 
L 67.04875 44.05 
" style="fill: none; stroke-dasharray: 7.4,3.2; stroke-dashoffset: 0; stroke: #b3de69; stroke-width: 2"/>
    </g>
    <g id="text_22">
     <!-- EWMA ($\alpha=$0.03) -->
     <g style="fill: #323034" transform="translate(75.04875 47.55) scale(0.1 -0.1)">
      <defs>
       <path id="STIXGeneral-Regular-57" d="M 5965 4237 
L 5965 4115 
Q 5709 4064 5616 3990 
Q 5523 3917 5434 3667 
Q 4704 1709 4128 -70 
L 4032 -70 
Q 3642 1011 3008 2637 
L 2022 -70 
L 1926 -70 
Q 1709 576 1277 1753 
Q 845 2931 698 3347 
Q 538 3808 406 3958 
Q 275 4109 32 4115 
L 32 4237 
L 1594 4237 
L 1594 4115 
Q 1357 4109 1270 4064 
Q 1184 4019 1184 3917 
Q 1184 3808 1254 3616 
L 2176 1210 
L 2842 3021 
L 2662 3501 
Q 2509 3917 2400 4013 
Q 2291 4109 2010 4115 
L 2010 4237 
L 3706 4237 
L 3706 4115 
Q 3213 4102 3213 3891 
Q 3213 3808 3322 3520 
L 4237 1190 
L 5043 3360 
Q 5152 3667 5152 3853 
Q 5152 4109 4704 4115 
L 4704 4237 
L 5965 4237 
z
" transform="scale(0.015625)"/>
       <path id="STIXGeneral-Regular-4d" d="M 5530 0 
L 3738 0 
L 3738 122 
Q 4115 147 4214 265 
Q 4314 384 4314 787 
L 4314 3661 
L 2682 0 
L 2592 0 
L 979 3514 
L 979 966 
Q 979 448 1088 294 
Q 1197 141 1574 122 
L 1574 0 
L 77 0 
L 77 122 
Q 358 141 480 205 
Q 602 269 650 432 
Q 698 595 698 966 
L 698 3514 
Q 698 3878 589 3984 
Q 480 4090 90 4115 
L 90 4237 
L 1357 4237 
L 2835 1024 
L 4250 4237 
L 5523 4237 
L 5523 4115 
Q 5178 4109 5072 3993 
Q 4966 3878 4966 3520 
L 4966 717 
Q 4966 378 5072 262 
Q 5178 147 5530 122 
L 5530 0 
z
" transform="scale(0.015625)"/>
       <path id="STIXGeneral-Italic-3b1" d="M 3514 2739 
L 2605 1069 
L 2605 954 
Q 2605 704 2662 512 
Q 2720 320 2822 320 
Q 2970 320 3149 794 
L 3251 749 
Q 3014 -58 2605 -58 
Q 2291 -58 2272 614 
Q 1709 -70 1030 -70 
Q 589 -70 381 198 
Q 173 467 173 902 
Q 173 1293 329 1673 
Q 486 2054 755 2330 
Q 973 2547 1270 2684 
Q 1568 2822 1862 2822 
Q 2246 2822 2457 2595 
Q 2669 2368 2669 2061 
L 2963 2739 
L 3514 2739 
z
M 2298 1741 
Q 2298 2688 1805 2688 
Q 1472 2688 1085 2099 
Q 698 1510 698 800 
Q 698 493 806 278 
Q 915 64 1139 64 
Q 1606 64 2195 1286 
Q 2202 1325 2230 1411 
Q 2259 1498 2278 1581 
Q 2298 1664 2298 1741 
z
" transform="scale(0.015625)"/>
       <path id="STIXGeneral-Regular-3d" d="M 4077 2048 
L 307 2048 
L 307 2470 
L 4077 2470 
L 4077 2048 
z
M 4077 768 
L 307 768 
L 307 1190 
L 4077 1190 
L 4077 768 
z
" transform="scale(0.015625)"/>
       <path id="STIXGeneral-Regular-2e" d="M 1158 275 
Q 1158 134 1052 32 
Q 947 -70 800 -70 
Q 653 -70 550 32 
Q 448 134 448 281 
Q 448 429 553 534 
Q 659 640 806 640 
Q 947 640 1052 531 
Q 1158 422 1158 275 
z
" transform="scale(0.015625)"/>
      </defs>
      <use xlink:href="#STIXGeneral-Regular-45" transform="translate(0 0.40625)"/>
      <use xlink:href="#STIXGeneral-Regular-57" transform="translate(61.099991 0.40625)"/>
      <use xlink:href="#STIXGeneral-Regular-4d" transform="translate(155.499985 0.40625)"/>
      <use xlink:href="#STIXGeneral-Regular-41" transform="translate(244.399979 0.40625)"/>
      <use xlink:href="#STIXGeneral-Regular-20" transform="translate(316.59996 0.40625)"/>
      <use xlink:href="#STIXGeneral-Regular-28" transform="translate(341.599945 0.40625)"/>
      <use xlink:href="#STIXGeneral-Italic-3b1" transform="translate(374.899933 0.40625)"/>
      <use xlink:href="#STIXGeneral-Regular-3d" transform="translate(444.539926 0.40625)"/>
      <use xlink:href="#STIXGeneral-Regular-30" transform="translate(527.479907 0.40625)"/>
      <use xlink:href="#STIXGeneral-Regular-2e" transform="translate(577.479892 0.40625)"/>
      <use xlink:href="#STIXGeneral-Regular-30" transform="translate(602.479877 0.40625)"/>
      <use xlink:href="#STIXGeneral-Regular-33" transform="translate(652.479861 0.40625)"/>
      <use xlink:href="#STIXGeneral-Regular-29" transform="translate(702.479846 0.40625)"/>
     </g>
    </g>
    <g id="line2d_25">
     <path d="M 47.04875 57.220312 
L 57.04875 57.220312 
L 67.04875 57.220312 
" style="fill: none; stroke-dasharray: 12.8,3.2,2,3.2; stroke-dashoffset: 0; stroke: #fdb462; stroke-width: 2"/>
    </g>
    <g id="text_23">
     <!-- 28D MA -->
     <g style="fill: #323034" transform="translate(75.04875 60.720312) scale(0.1 -0.1)">
      <use xlink:href="#STIXGeneral-Regular-32"/>
      <use xlink:href="#STIXGeneral-Regular-38" transform="translate(49.999985 0)"/>
      <use xlink:href="#STIXGeneral-Regular-44" transform="translate(99.999969 0)"/>
      <use xlink:href="#STIXGeneral-Regular-20" transform="translate(172.199951 0)"/>
      <use xlink:href="#STIXGeneral-Regular-4d" transform="translate(197.199936 0)"/>
      <use xlink:href="#STIXGeneral-Regular-41" transform="translate(286.09993 0)"/>
     </g>
    </g>
   </g>
  </g>
 </g>
 <defs>
  <clipPath id="p9b35ff9110">
   <rect x="40.04875" y="7.2" width="390.6" height="244.8"/>
  </clipPath>
 </defs>
</svg>
