<?xml version="1.0" encoding="utf-8" standalone="no"?>
<!DOCTYPE svg PUBLIC "-//W3C//DTD SVG 1.1//EN"
  "http://www.w3.org/Graphics/SVG/1.1/DTD/svg11.dtd">
<svg xmlns:xlink="http://www.w3.org/1999/xlink" width="404.36875pt" height="299.558887pt" viewBox="0 0 404.36875 299.558887" xmlns="http://www.w3.org/2000/svg" version="1.1">
 <metadata>
  <rdf:RDF xmlns:dc="http://purl.org/dc/elements/1.1/" xmlns:cc="http://creativecommons.org/ns#" xmlns:rdf="http://www.w3.org/1999/02/22-rdf-syntax-ns#">
   <cc:Work>
    <dc:type rdf:resource="http://purl.org/dc/dcmitype/StillImage"/>
    <dc:date>2025-01-07T18:15:08.111510</dc:date>
    <dc:format>image/svg+xml</dc:format>
    <dc:creator>
     <cc:Agent>
      <dc:title>Matplotlib v3.10.0, https://matplotlib.org/</dc:title>
     </cc:Agent>
    </dc:creator>
   </cc:Work>
  </rdf:RDF>
 </metadata>
 <defs>
  <style type="text/css">*{stroke-linejoin: round; stroke-linecap: butt}</style>
 </defs>
 <g id="figure_1">
  <g id="patch_1">
   <path d="M 0 299.558887 
L 404.36875 299.558887 
L 404.36875 0 
L 0 0 
z
" style="fill: #ffffff"/>
  </g>
  <g id="axes_1">
   <g id="patch_2">
    <path d="M 40.04875 242.208 
L 397.16875 242.208 
L 397.16875 7.2 
L 40.04875 7.2 
z
" style="fill: #ffffff"/>
   </g>
   <g id="matplotlib.axis_1">
    <g id="xtick_1">
     <g id="line2d_1">
      <defs>
       <path id="m9bbdbdf939" d="M 0 0 
L 0 3.5 
" style="stroke: #323034; stroke-width: 0.8"/>
      </defs>
      <g>
       <use xlink:href="#m9bbdbdf939" x="55.541945" y="242.208" style="fill: #323034; stroke: #323034; stroke-width: 0.8"/>
      </g>
     </g>
     <g id="text_1">
      <!-- 2017-01 -->
      <g style="fill: #323034" transform="translate(19.60253 276.303432) rotate(-30) scale(0.12 -0.12)">
       <defs>
        <path id="STIXGeneral-Regular-32" d="M 3034 877 
L 2688 0 
L 186 0 
L 186 77 
L 1325 1286 
Q 1773 1754 1965 2144 
Q 2157 2534 2157 2950 
Q 2157 3379 1920 3616 
Q 1683 3853 1267 3853 
Q 922 3853 720 3673 
Q 518 3494 326 3021 
L 192 3053 
Q 301 3648 630 3987 
Q 960 4326 1523 4326 
Q 2054 4326 2380 4006 
Q 2707 3686 2707 3200 
Q 2707 2477 1888 1613 
L 832 486 
L 2330 486 
Q 2541 486 2665 569 
Q 2790 653 2944 915 
L 3034 877 
z
" transform="scale(0.015625)"/>
        <path id="STIXGeneral-Regular-30" d="M 3046 2112 
Q 3046 1683 2963 1302 
Q 2880 922 2717 602 
Q 2554 282 2266 96 
Q 1978 -90 1600 -90 
Q 1210 -90 915 108 
Q 621 307 461 640 
Q 301 973 227 1350 
Q 154 1728 154 2150 
Q 154 2746 301 3222 
Q 448 3699 790 4012 
Q 1133 4326 1626 4326 
Q 2253 4326 2649 3712 
Q 3046 3098 3046 2112 
z
M 2432 2080 
Q 2432 3091 2217 3625 
Q 2003 4160 1587 4160 
Q 1190 4160 979 3622 
Q 768 3085 768 2106 
Q 768 1120 979 598 
Q 1190 77 1600 77 
Q 2003 77 2217 598 
Q 2432 1120 2432 2080 
z
" transform="scale(0.015625)"/>
        <path id="STIXGeneral-Regular-31" d="M 2522 0 
L 755 0 
L 755 96 
Q 1107 115 1235 227 
Q 1363 339 1363 608 
L 1363 3482 
Q 1363 3795 1171 3795 
Q 1082 3795 883 3718 
L 710 3654 
L 710 3744 
L 1856 4326 
L 1914 4307 
L 1914 486 
Q 1914 275 2042 185 
Q 2170 96 2522 96 
L 2522 0 
z
" transform="scale(0.015625)"/>
        <path id="STIXGeneral-Regular-37" d="M 2874 4134 
L 1517 -51 
L 1101 -51 
L 2368 3763 
L 992 3763 
Q 717 3763 582 3667 
Q 448 3571 243 3238 
L 128 3296 
L 512 4237 
L 2874 4237 
L 2874 4134 
z
" transform="scale(0.015625)"/>
        <path id="STIXGeneral-Regular-2d" d="M 1824 1242 
L 250 1242 
L 250 1645 
L 1824 1645 
L 1824 1242 
z
" transform="scale(0.015625)"/>
       </defs>
       <use xlink:href="#STIXGeneral-Regular-32"/>
       <use xlink:href="#STIXGeneral-Regular-30" transform="translate(49.999985 0)"/>
       <use xlink:href="#STIXGeneral-Regular-31" transform="translate(99.999969 0)"/>
       <use xlink:href="#STIXGeneral-Regular-37" transform="translate(149.999954 0)"/>
       <use xlink:href="#STIXGeneral-Regular-2d" transform="translate(199.999939 0)"/>
       <use xlink:href="#STIXGeneral-Regular-30" transform="translate(233.299927 0)"/>
       <use xlink:href="#STIXGeneral-Regular-31" transform="translate(283.299911 0)"/>
      </g>
     </g>
    </g>
    <g id="xtick_2">
     <g id="line2d_2">
      <g>
       <use xlink:href="#m9bbdbdf939" x="88.820885" y="242.208" style="fill: #323034; stroke: #323034; stroke-width: 0.8"/>
      </g>
     </g>
     <g id="text_2">
      <!-- 2017-04 -->
      <g style="fill: #323034" transform="translate(52.88147 276.303432) rotate(-30) scale(0.12 -0.12)">
       <defs>
        <path id="STIXGeneral-Regular-34" d="M 3027 1069 
L 2368 1069 
L 2368 0 
L 1869 0 
L 1869 1069 
L 77 1069 
L 77 1478 
L 2086 4326 
L 2368 4326 
L 2368 1478 
L 3027 1478 
L 3027 1069 
z
M 1869 1478 
L 1869 3674 
L 333 1478 
L 1869 1478 
z
" transform="scale(0.015625)"/>
       </defs>
       <use xlink:href="#STIXGeneral-Regular-32"/>
       <use xlink:href="#STIXGeneral-Regular-30" transform="translate(49.999985 0)"/>
       <use xlink:href="#STIXGeneral-Regular-31" transform="translate(99.999969 0)"/>
       <use xlink:href="#STIXGeneral-Regular-37" transform="translate(149.999954 0)"/>
       <use xlink:href="#STIXGeneral-Regular-2d" transform="translate(199.999939 0)"/>
       <use xlink:href="#STIXGeneral-Regular-30" transform="translate(233.299927 0)"/>
       <use xlink:href="#STIXGeneral-Regular-34" transform="translate(283.299911 0)"/>
      </g>
     </g>
    </g>
    <g id="xtick_3">
     <g id="line2d_3">
      <g>
       <use xlink:href="#m9bbdbdf939" x="122.469591" y="242.208" style="fill: #323034; stroke: #323034; stroke-width: 0.8"/>
      </g>
     </g>
     <g id="text_3">
      <!-- 2017-07 -->
      <g style="fill: #323034" transform="translate(86.530176 276.303432) rotate(-30) scale(0.12 -0.12)">
       <use xlink:href="#STIXGeneral-Regular-32"/>
       <use xlink:href="#STIXGeneral-Regular-30" transform="translate(49.999985 0)"/>
       <use xlink:href="#STIXGeneral-Regular-31" transform="translate(99.999969 0)"/>
       <use xlink:href="#STIXGeneral-Regular-37" transform="translate(149.999954 0)"/>
       <use xlink:href="#STIXGeneral-Regular-2d" transform="translate(199.999939 0)"/>
       <use xlink:href="#STIXGeneral-Regular-30" transform="translate(233.299927 0)"/>
       <use xlink:href="#STIXGeneral-Regular-37" transform="translate(283.299911 0)"/>
      </g>
     </g>
    </g>
    <g id="xtick_4">
     <g id="line2d_4">
      <g>
       <use xlink:href="#m9bbdbdf939" x="156.488062" y="242.208" style="fill: #323034; stroke: #323034; stroke-width: 0.8"/>
      </g>
     </g>
     <g id="text_4">
      <!-- 2017-10 -->
      <g style="fill: #323034" transform="translate(120.548648 276.303432) rotate(-30) scale(0.12 -0.12)">
       <use xlink:href="#STIXGeneral-Regular-32"/>
       <use xlink:href="#STIXGeneral-Regular-30" transform="translate(49.999985 0)"/>
       <use xlink:href="#STIXGeneral-Regular-31" transform="translate(99.999969 0)"/>
       <use xlink:href="#STIXGeneral-Regular-37" transform="translate(149.999954 0)"/>
       <use xlink:href="#STIXGeneral-Regular-2d" transform="translate(199.999939 0)"/>
       <use xlink:href="#STIXGeneral-Regular-31" transform="translate(233.299927 0)"/>
       <use xlink:href="#STIXGeneral-Regular-30" transform="translate(283.299911 0)"/>
      </g>
     </g>
    </g>
    <g id="xtick_5">
     <g id="line2d_5">
      <g>
       <use xlink:href="#m9bbdbdf939" x="190.506534" y="242.208" style="fill: #323034; stroke: #323034; stroke-width: 0.8"/>
      </g>
     </g>
     <g id="text_5">
      <!-- 2018-01 -->
      <g style="fill: #323034" transform="translate(154.567119 276.303432) rotate(-30) scale(0.12 -0.12)">
       <defs>
        <path id="STIXGeneral-Regular-38" d="M 2848 992 
Q 2848 499 2505 204 
Q 2163 -90 1587 -90 
Q 1050 -90 704 204 
Q 358 499 358 954 
Q 358 1293 524 1533 
Q 691 1773 1190 2125 
Q 710 2522 553 2765 
Q 397 3008 397 3328 
Q 397 3782 745 4054 
Q 1094 4326 1638 4326 
Q 2106 4326 2410 4060 
Q 2714 3795 2714 3411 
Q 2714 3059 2531 2848 
Q 2349 2637 1856 2374 
Q 2432 1990 2640 1689 
Q 2848 1389 2848 992 
z
M 2272 3411 
Q 2272 3744 2086 3945 
Q 1901 4147 1574 4147 
Q 1248 4147 1059 3977 
Q 870 3808 870 3513 
Q 870 3219 1059 2979 
Q 1248 2739 1670 2490 
Q 1997 2682 2134 2896 
Q 2272 3110 2272 3411 
z
M 1734 1741 
L 1357 1997 
Q 1075 1766 960 1545 
Q 845 1325 845 1011 
Q 845 576 1065 333 
Q 1286 90 1658 90 
Q 1971 90 2166 285 
Q 2362 480 2362 794 
Q 2362 1082 2214 1299 
Q 2067 1517 1734 1741 
z
" transform="scale(0.015625)"/>
       </defs>
       <use xlink:href="#STIXGeneral-Regular-32"/>
       <use xlink:href="#STIXGeneral-Regular-30" transform="translate(49.999985 0)"/>
       <use xlink:href="#STIXGeneral-Regular-31" transform="translate(99.999969 0)"/>
       <use xlink:href="#STIXGeneral-Regular-38" transform="translate(149.999954 0)"/>
       <use xlink:href="#STIXGeneral-Regular-2d" transform="translate(199.999939 0)"/>
       <use xlink:href="#STIXGeneral-Regular-30" transform="translate(233.299927 0)"/>
       <use xlink:href="#STIXGeneral-Regular-31" transform="translate(283.299911 0)"/>
      </g>
     </g>
    </g>
    <g id="xtick_6">
     <g id="line2d_6">
      <g>
       <use xlink:href="#m9bbdbdf939" x="223.785474" y="242.208" style="fill: #323034; stroke: #323034; stroke-width: 0.8"/>
      </g>
     </g>
     <g id="text_6">
      <!-- 2018-04 -->
      <g style="fill: #323034" transform="translate(187.846059 276.303432) rotate(-30) scale(0.12 -0.12)">
       <use xlink:href="#STIXGeneral-Regular-32"/>
       <use xlink:href="#STIXGeneral-Regular-30" transform="translate(49.999985 0)"/>
       <use xlink:href="#STIXGeneral-Regular-31" transform="translate(99.999969 0)"/>
       <use xlink:href="#STIXGeneral-Regular-38" transform="translate(149.999954 0)"/>
       <use xlink:href="#STIXGeneral-Regular-2d" transform="translate(199.999939 0)"/>
       <use xlink:href="#STIXGeneral-Regular-30" transform="translate(233.299927 0)"/>
       <use xlink:href="#STIXGeneral-Regular-34" transform="translate(283.299911 0)"/>
      </g>
     </g>
    </g>
    <g id="xtick_7">
     <g id="line2d_7">
      <g>
       <use xlink:href="#m9bbdbdf939" x="257.43418" y="242.208" style="fill: #323034; stroke: #323034; stroke-width: 0.8"/>
      </g>
     </g>
     <g id="text_7">
      <!-- 2018-07 -->
      <g style="fill: #323034" transform="translate(221.494765 276.303432) rotate(-30) scale(0.12 -0.12)">
       <use xlink:href="#STIXGeneral-Regular-32"/>
       <use xlink:href="#STIXGeneral-Regular-30" transform="translate(49.999985 0)"/>
       <use xlink:href="#STIXGeneral-Regular-31" transform="translate(99.999969 0)"/>
       <use xlink:href="#STIXGeneral-Regular-38" transform="translate(149.999954 0)"/>
       <use xlink:href="#STIXGeneral-Regular-2d" transform="translate(199.999939 0)"/>
       <use xlink:href="#STIXGeneral-Regular-30" transform="translate(233.299927 0)"/>
       <use xlink:href="#STIXGeneral-Regular-37" transform="translate(283.299911 0)"/>
      </g>
     </g>
    </g>
    <g id="xtick_8">
     <g id="line2d_8">
      <g>
       <use xlink:href="#m9bbdbdf939" x="291.452651" y="242.208" style="fill: #323034; stroke: #323034; stroke-width: 0.8"/>
      </g>
     </g>
     <g id="text_8">
      <!-- 2018-10 -->
      <g style="fill: #323034" transform="translate(255.513237 276.303432) rotate(-30) scale(0.12 -0.12)">
       <use xlink:href="#STIXGeneral-Regular-32"/>
       <use xlink:href="#STIXGeneral-Regular-30" transform="translate(49.999985 0)"/>
       <use xlink:href="#STIXGeneral-Regular-31" transform="translate(99.999969 0)"/>
       <use xlink:href="#STIXGeneral-Regular-38" transform="translate(149.999954 0)"/>
       <use xlink:href="#STIXGeneral-Regular-2d" transform="translate(199.999939 0)"/>
       <use xlink:href="#STIXGeneral-Regular-31" transform="translate(233.299927 0)"/>
       <use xlink:href="#STIXGeneral-Regular-30" transform="translate(283.299911 0)"/>
      </g>
     </g>
    </g>
    <g id="xtick_9">
     <g id="line2d_9">
      <g>
       <use xlink:href="#m9bbdbdf939" x="325.471123" y="242.208" style="fill: #323034; stroke: #323034; stroke-width: 0.8"/>
      </g>
     </g>
     <g id="text_9">
      <!-- 2019-01 -->
      <g style="fill: #323034" transform="translate(289.531708 276.303432) rotate(-30) scale(0.12 -0.12)">
       <defs>
        <path id="STIXGeneral-Regular-39" d="M 378 -141 
L 358 -13 
Q 1094 115 1603 608 
Q 2112 1101 2304 1882 
Q 1933 1517 1344 1517 
Q 826 1517 509 1875 
Q 192 2234 192 2816 
Q 192 3462 573 3894 
Q 954 4326 1523 4326 
Q 2131 4326 2528 3840 
Q 2938 3328 2938 2522 
Q 2938 1958 2742 1462 
Q 2547 966 2170 621 
Q 1773 262 1395 105 
Q 1018 -51 378 -141 
z
M 2317 2272 
L 2317 2522 
Q 2317 4147 1472 4147 
Q 1171 4147 1005 3930 
Q 909 3802 845 3546 
Q 781 3290 781 3034 
Q 781 2464 995 2128 
Q 1210 1792 1568 1792 
Q 1824 1792 2070 1917 
Q 2317 2042 2317 2272 
z
" transform="scale(0.015625)"/>
       </defs>
       <use xlink:href="#STIXGeneral-Regular-32"/>
       <use xlink:href="#STIXGeneral-Regular-30" transform="translate(49.999985 0)"/>
       <use xlink:href="#STIXGeneral-Regular-31" transform="translate(99.999969 0)"/>
       <use xlink:href="#STIXGeneral-Regular-39" transform="translate(149.999954 0)"/>
       <use xlink:href="#STIXGeneral-Regular-2d" transform="translate(199.999939 0)"/>
       <use xlink:href="#STIXGeneral-Regular-30" transform="translate(233.299927 0)"/>
       <use xlink:href="#STIXGeneral-Regular-31" transform="translate(283.299911 0)"/>
      </g>
     </g>
    </g>
    <g id="xtick_10">
     <g id="line2d_10">
      <g>
       <use xlink:href="#m9bbdbdf939" x="358.750063" y="242.208" style="fill: #323034; stroke: #323034; stroke-width: 0.8"/>
      </g>
     </g>
     <g id="text_10">
      <!-- 2019-04 -->
      <g style="fill: #323034" transform="translate(322.810648 276.303432) rotate(-30) scale(0.12 -0.12)">
       <use xlink:href="#STIXGeneral-Regular-32"/>
       <use xlink:href="#STIXGeneral-Regular-30" transform="translate(49.999985 0)"/>
       <use xlink:href="#STIXGeneral-Regular-31" transform="translate(99.999969 0)"/>
       <use xlink:href="#STIXGeneral-Regular-39" transform="translate(149.999954 0)"/>
       <use xlink:href="#STIXGeneral-Regular-2d" transform="translate(199.999939 0)"/>
       <use xlink:href="#STIXGeneral-Regular-30" transform="translate(233.299927 0)"/>
       <use xlink:href="#STIXGeneral-Regular-34" transform="translate(283.299911 0)"/>
      </g>
     </g>
    </g>
    <g id="xtick_11">
     <g id="line2d_11">
      <g>
       <use xlink:href="#m9bbdbdf939" x="392.398769" y="242.208" style="fill: #323034; stroke: #323034; stroke-width: 0.8"/>
      </g>
     </g>
     <g id="text_11">
      <!-- 2019-07 -->
      <g style="fill: #323034" transform="translate(356.459354 276.303432) rotate(-30) scale(0.12 -0.12)">
       <use xlink:href="#STIXGeneral-Regular-32"/>
       <use xlink:href="#STIXGeneral-Regular-30" transform="translate(49.999985 0)"/>
       <use xlink:href="#STIXGeneral-Regular-31" transform="translate(99.999969 0)"/>
       <use xlink:href="#STIXGeneral-Regular-39" transform="translate(149.999954 0)"/>
       <use xlink:href="#STIXGeneral-Regular-2d" transform="translate(199.999939 0)"/>
       <use xlink:href="#STIXGeneral-Regular-30" transform="translate(233.299927 0)"/>
       <use xlink:href="#STIXGeneral-Regular-37" transform="translate(283.299911 0)"/>
      </g>
     </g>
    </g>
    <g id="text_12">
     <!-- Date -->
     <g transform="translate(207.28 289.754512) scale(0.12 -0.12)">
      <defs>
       <path id="STIXGeneral-Regular-44" d="M 102 4237 
L 1830 4237 
Q 3078 4237 3750 3654 
Q 4384 3110 4384 2138 
Q 4384 966 3514 410 
Q 2880 0 1901 0 
L 102 0 
L 102 122 
Q 474 147 570 252 
Q 666 358 666 736 
L 666 3520 
Q 666 3891 570 3990 
Q 474 4090 102 4115 
L 102 4237 
z
M 1318 3731 
L 1318 538 
Q 1318 365 1379 301 
Q 1440 237 1626 237 
Q 2125 237 2432 307 
Q 2739 378 3021 570 
Q 3686 1018 3686 2099 
Q 3686 3027 3078 3558 
Q 2803 3802 2476 3901 
Q 2150 4000 1658 4000 
Q 1472 4000 1395 3942 
Q 1318 3885 1318 3731 
z
" transform="scale(0.015625)"/>
       <path id="STIXGeneral-Regular-61" d="M 2829 422 
L 2829 243 
Q 2586 -64 2253 -64 
Q 1888 -64 1843 403 
L 1837 403 
Q 1427 -64 909 -64 
Q 608 -64 422 112 
Q 237 288 237 602 
Q 237 1050 685 1350 
Q 992 1555 1837 1869 
L 1837 2214 
Q 1837 2502 1699 2646 
Q 1562 2790 1338 2790 
Q 1146 2790 1018 2697 
Q 890 2605 890 2477 
Q 890 2419 909 2348 
Q 928 2278 928 2208 
Q 928 2112 841 2029 
Q 755 1946 634 1946 
Q 525 1946 441 2029 
Q 358 2112 358 2240 
Q 358 2547 685 2752 
Q 986 2944 1421 2944 
Q 1939 2944 2176 2656 
Q 2291 2522 2323 2384 
Q 2355 2246 2355 1946 
L 2355 723 
Q 2355 301 2554 301 
Q 2682 301 2829 422 
z
M 1837 813 
L 1837 1715 
Q 1248 1510 1018 1293 
Q 800 1094 800 800 
Q 800 557 921 432 
Q 1043 307 1242 307 
Q 1453 307 1613 410 
Q 1747 506 1792 589 
Q 1837 672 1837 813 
z
" transform="scale(0.015625)"/>
       <path id="STIXGeneral-Regular-74" d="M 1702 493 
L 1786 422 
Q 1478 -64 1011 -64 
Q 448 -64 448 749 
L 448 2675 
L 109 2675 
Q 83 2694 83 2720 
Q 83 2771 192 2842 
Q 435 2982 813 3526 
Q 826 3546 874 3606 
Q 922 3667 941 3706 
Q 986 3706 986 3622 
L 986 2880 
L 1632 2880 
L 1632 2675 
L 986 2675 
L 986 845 
Q 986 538 1062 403 
Q 1139 269 1318 269 
Q 1510 269 1702 493 
z
" transform="scale(0.015625)"/>
       <path id="STIXGeneral-Regular-65" d="M 2611 1050 
L 2714 1005 
Q 2330 -64 1376 -64 
Q 813 -64 486 329 
Q 160 723 160 1389 
Q 160 2074 525 2509 
Q 890 2944 1485 2944 
Q 2061 2944 2374 2502 
Q 2560 2246 2592 1773 
L 621 1773 
Q 646 1370 700 1158 
Q 755 947 915 730 
Q 1184 378 1626 378 
Q 1939 378 2153 531 
Q 2368 685 2611 1050 
z
M 634 1978 
L 1939 1978 
Q 1882 2381 1750 2547 
Q 1619 2714 1312 2714 
Q 1043 2714 864 2525 
Q 685 2336 634 1978 
z
" transform="scale(0.015625)"/>
      </defs>
      <use xlink:href="#STIXGeneral-Regular-44"/>
      <use xlink:href="#STIXGeneral-Regular-61" transform="translate(72.199982 0)"/>
      <use xlink:href="#STIXGeneral-Regular-74" transform="translate(116.599976 0)"/>
      <use xlink:href="#STIXGeneral-Regular-65" transform="translate(144.399963 0)"/>
     </g>
    </g>
   </g>
   <g id="matplotlib.axis_2">
    <g id="ytick_1">
     <g id="line2d_12">
      <defs>
       <path id="md48d51b189" d="M 0 0 
L -3.5 0 
" style="stroke: #323034; stroke-width: 0.8"/>
      </defs>
      <g>
       <use xlink:href="#md48d51b189" x="40.04875" y="208.14734" style="fill: #323034; stroke: #323034; stroke-width: 0.8"/>
      </g>
     </g>
     <g id="text_13">
      <!-- $\mathdefault{30}$ -->
      <g style="fill: #323034" transform="translate(21.04875 212.245152) scale(0.12 -0.12)">
       <defs>
        <path id="STIXGeneral-Regular-33" d="M 390 3264 
L 288 3290 
Q 435 3770 748 4048 
Q 1062 4326 1542 4326 
Q 1990 4326 2265 4083 
Q 2541 3840 2541 3450 
Q 2541 2925 1946 2566 
Q 2298 2413 2477 2227 
Q 2758 1914 2758 1402 
Q 2758 890 2464 506 
Q 2246 211 1840 60 
Q 1434 -90 979 -90 
Q 262 -90 262 275 
Q 262 378 339 442 
Q 416 506 525 506 
Q 685 506 915 339 
Q 1197 141 1466 141 
Q 1818 141 2058 425 
Q 2298 710 2298 1120 
Q 2298 1856 1632 2048 
Q 1434 2112 979 2112 
L 979 2202 
Q 1338 2323 1517 2432 
Q 2035 2726 2035 3290 
Q 2035 3610 1852 3776 
Q 1670 3942 1344 3942 
Q 768 3942 390 3264 
z
" transform="scale(0.015625)"/>
       </defs>
       <use xlink:href="#STIXGeneral-Regular-33" transform="translate(0 0.40625)"/>
       <use xlink:href="#STIXGeneral-Regular-30" transform="translate(49.999985 0.40625)"/>
      </g>
     </g>
    </g>
    <g id="ytick_2">
     <g id="line2d_13">
      <g>
       <use xlink:href="#md48d51b189" x="40.04875" y="170.521438" style="fill: #323034; stroke: #323034; stroke-width: 0.8"/>
      </g>
     </g>
     <g id="text_14">
      <!-- $\mathdefault{35}$ -->
      <g style="fill: #323034" transform="translate(21.04875 174.61925) scale(0.12 -0.12)">
       <defs>
        <path id="STIXGeneral-Regular-35" d="M 2803 4358 
L 2573 3814 
Q 2534 3731 2400 3731 
L 1158 3731 
L 902 3187 
Q 1606 3053 1920 2896 
Q 2234 2739 2502 2368 
Q 2726 2061 2726 1555 
Q 2726 1094 2576 780 
Q 2426 467 2099 224 
Q 1664 -90 1011 -90 
Q 646 -90 422 19 
Q 198 128 198 307 
Q 198 550 486 550 
Q 717 550 960 352 
Q 1210 147 1414 147 
Q 1747 147 2012 480 
Q 2278 813 2278 1229 
Q 2278 1843 1850 2189 
Q 1293 2637 486 2637 
Q 410 2637 410 2688 
L 416 2720 
L 1114 4237 
L 2438 4237 
Q 2547 4237 2608 4269 
Q 2669 4301 2746 4403 
L 2803 4358 
z
" transform="scale(0.015625)"/>
       </defs>
       <use xlink:href="#STIXGeneral-Regular-33" transform="translate(0 0.203125)"/>
       <use xlink:href="#STIXGeneral-Regular-35" transform="translate(49.999985 0.203125)"/>
      </g>
     </g>
    </g>
    <g id="ytick_3">
     <g id="line2d_14">
      <g>
       <use xlink:href="#md48d51b189" x="40.04875" y="132.895535" style="fill: #323034; stroke: #323034; stroke-width: 0.8"/>
      </g>
     </g>
     <g id="text_15">
      <!-- $\mathdefault{40}$ -->
      <g style="fill: #323034" transform="translate(21.04875 136.993348) scale(0.12 -0.12)">
       <use xlink:href="#STIXGeneral-Regular-34" transform="translate(0 0.40625)"/>
       <use xlink:href="#STIXGeneral-Regular-30" transform="translate(49.999985 0.40625)"/>
      </g>
     </g>
    </g>
    <g id="ytick_4">
     <g id="line2d_15">
      <g>
       <use xlink:href="#md48d51b189" x="40.04875" y="95.269633" style="fill: #323034; stroke: #323034; stroke-width: 0.8"/>
      </g>
     </g>
     <g id="text_16">
      <!-- $\mathdefault{45}$ -->
      <g style="fill: #323034" transform="translate(21.04875 99.367445) scale(0.12 -0.12)">
       <use xlink:href="#STIXGeneral-Regular-34" transform="translate(0 0.203125)"/>
       <use xlink:href="#STIXGeneral-Regular-35" transform="translate(49.999985 0.203125)"/>
      </g>
     </g>
    </g>
    <g id="ytick_5">
     <g id="line2d_16">
      <g>
       <use xlink:href="#md48d51b189" x="40.04875" y="57.64373" style="fill: #323034; stroke: #323034; stroke-width: 0.8"/>
      </g>
     </g>
     <g id="text_17">
      <!-- $\mathdefault{50}$ -->
      <g style="fill: #323034" transform="translate(21.04875 61.741543) scale(0.12 -0.12)">
       <use xlink:href="#STIXGeneral-Regular-35" transform="translate(0 0.203125)"/>
       <use xlink:href="#STIXGeneral-Regular-30" transform="translate(49.999985 0.203125)"/>
      </g>
     </g>
    </g>
    <g id="ytick_6">
     <g id="line2d_17">
      <g>
       <use xlink:href="#md48d51b189" x="40.04875" y="20.017828" style="fill: #323034; stroke: #323034; stroke-width: 0.8"/>
      </g>
     </g>
     <g id="text_18">
      <!-- $\mathdefault{55}$ -->
      <g style="fill: #323034" transform="translate(21.04875 24.115641) scale(0.12 -0.12)">
       <use xlink:href="#STIXGeneral-Regular-35" transform="translate(0 0.203125)"/>
       <use xlink:href="#STIXGeneral-Regular-35" transform="translate(49.999985 0.203125)"/>
      </g>
     </g>
    </g>
    <g id="text_19">
     <!-- Close ($) -->
     <g transform="translate(15.444375 146.868375) rotate(-90) scale(0.12 -0.12)">
      <defs>
       <path id="STIXGeneral-Regular-43" d="M 3930 838 
L 4051 723 
Q 3482 -90 2304 -90 
Q 1376 -90 794 480 
Q 179 1082 179 2080 
Q 179 3014 755 3661 
Q 1357 4326 2310 4326 
Q 2720 4326 3072 4230 
Q 3475 4115 3514 4115 
Q 3725 4115 3782 4326 
L 3910 4326 
L 3968 2874 
L 3821 2874 
Q 3718 3334 3488 3584 
Q 3034 4070 2458 4070 
Q 1747 4070 1334 3548 
Q 922 3027 922 2182 
Q 922 1152 1382 653 
Q 1811 192 2522 192 
Q 2944 192 3251 339 
Q 3558 486 3930 838 
z
" transform="scale(0.015625)"/>
       <path id="STIXGeneral-Regular-6c" d="M 1645 0 
L 134 0 
L 134 96 
Q 435 122 531 221 
Q 627 320 627 589 
L 627 3590 
Q 627 3821 569 3910 
Q 512 4000 358 4000 
Q 224 4000 122 3987 
L 122 4090 
Q 730 4237 1133 4371 
L 1165 4346 
L 1165 557 
Q 1165 288 1254 201 
Q 1344 115 1645 96 
L 1645 0 
z
" transform="scale(0.015625)"/>
       <path id="STIXGeneral-Regular-6f" d="M 3008 1478 
Q 3008 806 2608 371 
Q 2208 -64 1568 -64 
Q 979 -64 582 368 
Q 186 800 186 1459 
Q 186 2125 582 2534 
Q 979 2944 1626 2944 
Q 2221 2944 2614 2537 
Q 3008 2131 3008 1478 
z
M 2432 1306 
Q 2432 2035 2112 2445 
Q 1856 2765 1504 2765 
Q 1171 2765 966 2493 
Q 762 2221 762 1747 
Q 762 928 1101 435 
Q 1318 115 1677 115 
Q 2029 115 2230 432 
Q 2432 749 2432 1306 
z
" transform="scale(0.015625)"/>
       <path id="STIXGeneral-Regular-73" d="M 998 1926 
L 1664 1523 
Q 1984 1331 2105 1164 
Q 2227 998 2227 736 
Q 2227 416 1961 176 
Q 1696 -64 1331 -64 
Q 1030 -64 864 -6 
Q 691 51 570 51 
Q 461 51 416 -26 
L 333 -26 
L 333 979 
L 435 979 
Q 538 512 730 294 
Q 922 77 1248 77 
Q 1485 77 1632 211 
Q 1779 346 1779 550 
Q 1779 845 1440 1030 
L 1094 1222 
Q 326 1651 326 2150 
Q 326 2522 566 2730 
Q 806 2938 1210 2938 
Q 1491 2938 1638 2867 
Q 1754 2816 1818 2816 
Q 1862 2816 1920 2880 
L 1990 2880 
L 2022 2010 
L 1926 2010 
Q 1818 2445 1654 2621 
Q 1491 2797 1203 2797 
Q 986 2797 854 2688 
Q 723 2579 723 2362 
Q 723 2253 796 2128 
Q 870 2003 998 1926 
z
" transform="scale(0.015625)"/>
       <path id="STIXGeneral-Regular-20" transform="scale(0.015625)"/>
       <path id="STIXGeneral-Regular-28" d="M 1946 -1030 
L 1869 -1133 
Q 1126 -710 716 32 
Q 307 774 307 1613 
Q 307 3386 1888 4326 
L 1946 4224 
Q 1293 3667 1075 3126 
Q 858 2586 858 1632 
Q 858 685 1082 96 
Q 1306 -493 1946 -1030 
z
" transform="scale(0.015625)"/>
       <path id="STIXGeneral-Regular-24" d="M 1690 4077 
L 1690 2502 
Q 2234 2208 2445 2045 
Q 2656 1882 2797 1664 
Q 2931 1466 2931 1088 
Q 2931 570 2614 326 
Q 2298 83 1690 0 
L 1690 -557 
L 1472 -557 
L 1472 0 
Q 1062 0 806 73 
Q 550 147 282 326 
L 282 1158 
L 378 1158 
Q 480 685 761 432 
Q 1043 179 1472 179 
L 1472 1984 
Q 800 2362 566 2624 
Q 333 2886 333 3283 
Q 333 3731 659 3974 
Q 986 4218 1472 4250 
L 1472 4653 
L 1690 4653 
L 1690 4250 
Q 2426 4205 2720 3910 
L 2720 3200 
L 2624 3200 
Q 2528 3597 2301 3814 
Q 2074 4032 1690 4077 
z
M 1472 2605 
L 1472 4077 
Q 806 3942 806 3405 
Q 806 3194 937 3037 
Q 1069 2880 1472 2605 
z
M 1690 1875 
L 1690 179 
Q 2086 262 2252 432 
Q 2419 602 2419 941 
Q 2419 1235 2272 1427 
Q 2125 1619 1690 1875 
z
" transform="scale(0.015625)"/>
       <path id="STIXGeneral-Regular-29" d="M 186 4224 
L 262 4326 
Q 992 3891 1408 3148 
Q 1824 2406 1824 1581 
Q 1824 -166 243 -1133 
L 186 -1030 
Q 845 -486 1059 54 
Q 1274 595 1274 1562 
Q 1274 2534 1059 3120 
Q 845 3706 186 4224 
z
" transform="scale(0.015625)"/>
      </defs>
      <use xlink:href="#STIXGeneral-Regular-43"/>
      <use xlink:href="#STIXGeneral-Regular-6c" transform="translate(66.699997 0)"/>
      <use xlink:href="#STIXGeneral-Regular-6f" transform="translate(94.499985 0)"/>
      <use xlink:href="#STIXGeneral-Regular-73" transform="translate(144.499969 0)"/>
      <use xlink:href="#STIXGeneral-Regular-65" transform="translate(183.399963 0)"/>
      <use xlink:href="#STIXGeneral-Regular-20" transform="translate(227.799957 0)"/>
      <use xlink:href="#STIXGeneral-Regular-28" transform="translate(252.799942 0)"/>
      <use xlink:href="#STIXGeneral-Regular-24" transform="translate(286.09993 0)"/>
      <use xlink:href="#STIXGeneral-Regular-29" transform="translate(336.099915 0)"/>
     </g>
    </g>
   </g>
   <g id="line2d_18">
    <path d="M 56.281477 231.303073 
L 56.651243 231.525818 
L 57.021009 230.478313 
L 57.390775 228.248602 
L 58.500073 226.367307 
L 58.869839 226.145314 
L 59.239605 225.030082 
L 59.609371 225.877418 
L 59.979137 226.271737 
L 61.458201 224.600395 
L 61.827967 224.614692 
L 62.197733 224.970633 
L 62.567499 224.600395 
L 63.676797 224.435593 
L 64.046563 224.659844 
L 64.416329 221.314148 
L 65.155861 221.196003 
L 66.265159 221.782967 
L 66.634925 222.22921 
L 67.004691 209.347606 
L 67.374457 209.689249 
L 67.744223 208.797516 
L 68.853521 206.605431 
L 69.223287 204.508915 
L 69.593053 203.64653 
L 69.962819 201.899935 
L 70.332585 202.442501 
L 71.441883 200.376839 
L 71.811649 197.390094 
L 72.181415 196.511153 
L 72.551181 196.788833 
L 72.920947 196.133389 
L 74.400011 194.416143 
L 74.769777 193.700499 
L 75.139543 194.779609 
L 75.509309 194.48387 
L 76.988373 193.926254 
L 77.358139 188.998013 
L 77.727905 190.499287 
L 78.097671 189.013064 
L 79.206969 189.815248 
L 79.576735 189.488655 
L 79.946501 190.424035 
L 80.316267 190.989929 
L 80.686033 190.171941 
L 81.795331 190.054549 
L 82.165097 190.44661 
L 82.534863 187.830105 
L 82.904629 187.444816 
L 83.274395 188.678946 
L 84.383693 186.090283 
L 84.753459 188.923514 
L 85.123225 186.165535 
L 85.492991 187.051249 
L 85.862757 187.519315 
L 86.972055 187.126501 
L 87.341821 181.996585 
L 87.711587 181.45402 
L 88.081353 181.774592 
L 88.451119 182.257709 
L 89.560417 182.182457 
L 89.930183 180.294389 
L 90.299949 181.602266 
L 91.039481 182.82887 
L 92.148779 183.126867 
L 92.518545 185.817119 
L 92.888311 185.498052 
L 93.258077 186.812701 
L 94.737141 185.445376 
L 95.476673 187.466639 
L 95.846439 184.36777 
L 96.216205 184.650716 
L 97.325503 182.294582 
L 97.695269 180.710532 
L 98.065035 182.220083 
L 98.434801 182.018408 
L 98.804567 182.272759 
L 100.283631 175.476769 
L 101.023163 177.217343 
L 101.392929 172.952823 
L 102.871993 164.122777 
L 103.241759 165.444198 
L 103.611525 163.12569 
L 103.981291 159.319454 
L 105.090589 160.033594 
L 105.460355 160.420388 
L 105.830121 169.613901 
L 106.199887 165.571374 
L 106.569653 164.672115 
L 107.678951 163.051943 
L 108.048717 163.326613 
L 108.418483 164.15965 
L 108.788249 163.214487 
L 109.158015 163.675781 
L 110.637079 163.565913 
L 111.006845 165.221453 
L 111.376611 164.456142 
L 111.746377 160.442211 
L 112.855675 163.139988 
L 113.225441 162.234709 
L 113.595207 160.591209 
L 113.964973 161.282021 
L 114.334739 171.866187 
L 115.444037 178.123375 
L 115.813803 176.005037 
L 116.183569 178.592194 
L 116.553335 180.072397 
L 116.923101 183.654383 
L 118.032399 176.473855 
L 118.402165 178.838267 
L 118.771931 177.315171 
L 119.141697 177.729808 
L 119.511463 176.585228 
L 120.620761 177.405473 
L 120.990527 181.083028 
L 121.360293 177.390422 
L 121.730059 181.180103 
L 122.099825 180.563038 
L 123.209123 181.498418 
L 123.948655 180.442636 
L 124.318421 182.858971 
L 124.688187 180.271814 
L 125.797485 178.74044 
L 126.167251 177.917185 
L 126.537017 177.543936 
L 126.906783 173.985278 
L 127.276549 171.747289 
L 128.385847 170.811157 
L 128.755613 169.90362 
L 129.125379 168.246576 
L 129.495145 169.458882 
L 129.864911 169.591325 
L 131.713741 163.9354 
L 132.083507 169.071335 
L 132.453273 170.908232 
L 133.562571 172.312431 
L 133.932337 169.963822 
L 134.302103 157.50739 
L 134.671869 160.257844 
L 136.150933 154.526666 
L 136.890465 150.587235 
L 137.260231 159.617451 
L 137.629997 155.791649 
L 138.739295 151.642265 
L 139.109061 148.559198 
L 139.478827 149.679698 
L 139.848593 155.121156 
L 140.218359 155.761549 
L 141.327657 156.296589 
L 141.697423 151.770193 
L 142.067189 151.398449 
L 142.436955 152.653649 
L 143.916019 148.795489 
L 144.285785 146.172211 
L 144.655551 145.4069 
L 145.025317 144.313492 
L 145.395083 144.240497 
L 146.874147 147.702833 
L 147.243913 148.001583 
L 147.613679 149.122834 
L 147.983445 153.730502 
L 149.092743 148.737545 
L 149.462509 149.844499 
L 150.202041 154.362618 
L 150.571807 151.582063 
L 151.681105 153.656003 
L 152.050871 153.583761 
L 152.790403 163.051943 
L 153.160169 165.668449 
L 154.269467 168.024583 
L 154.639233 163.43046 
L 155.008998 161.557443 
L 155.378764 163.214487 
L 155.74853 161.759117 
L 156.857828 162.307703 
L 157.227594 161.134527 
L 157.59736 162.91047 
L 157.967126 159.491028 
L 158.336892 159.662602 
L 159.44619 158.673793 
L 159.815956 158.563173 
L 160.185722 157.469765 
L 160.555488 158.405897 
L 162.034552 151.582063 
L 162.404318 150.513488 
L 162.774084 151.807066 
L 163.14385 158.420947 
L 163.513616 158.019855 
L 164.622914 158.13198 
L 164.99268 156.503531 
L 165.362446 157.721858 
L 165.732212 155.924845 
L 166.101978 145.912592 
L 167.211276 139.497376 
L 167.581042 135.365299 
L 167.950808 139.223459 
L 168.320574 137.023849 
L 168.69034 129.301509 
L 170.169404 125.220604 
L 170.53917 122.671825 
L 170.908936 123.303188 
L 171.278702 124.35897 
L 172.388 125.561494 
L 173.127532 134.265871 
L 173.497298 130.638734 
L 173.867064 132.356732 
L 174.976362 132.674295 
L 175.346128 127.04245 
L 175.715894 123.845753 
L 176.455426 123.82393 
L 177.564724 125.3839 
L 177.93449 127.159843 
L 178.304256 133.53066 
L 178.674022 129.360205 
L 179.043788 130.735808 
L 180.153086 132.958747 
L 180.522852 133.231911 
L 180.892618 134.317794 
L 181.262384 133.827153 
L 181.63215 133.73083 
L 182.741448 127.889033 
L 183.111214 129.635627 
L 183.48098 128.595647 
L 183.850746 128.691217 
L 184.220512 125.561494 
L 185.32981 121.229248 
L 185.699576 124.611064 
L 186.069342 124.909061 
L 186.439108 123.748678 
L 186.808874 123.748678 
L 188.287938 131.619265 
L 188.657704 131.567341 
L 189.02747 130.683132 
L 189.397236 133.990449 
L 190.8763 128.61747 
L 191.246066 128.669394 
L 191.615832 127.226064 
L 191.985598 123.771254 
L 193.094896 124.833809 
L 193.834428 125.026454 
L 194.204194 123.251264 
L 194.57396 120.099718 
L 196.053024 121.638618 
L 196.42279 116.487632 
L 196.792556 116.197912 
L 197.162322 117.609636 
L 198.27162 120.217111 
L 198.641386 120.151642 
L 199.380918 130.623683 
L 199.750684 129.954695 
L 201.229748 137.988577 
L 201.96928 136.570081 
L 202.339046 149.458457 
L 203.448344 156.592329 
L 203.81811 144.968182 
L 204.557642 158.918362 
L 204.927408 155.550844 
L 206.776238 136.063636 
L 207.146004 126.054394 
L 207.51577 127.064273 
L 208.994834 128.104253 
L 209.3646 129.507699 
L 209.734366 126.93785 
L 210.104132 121.579169 
L 211.21343 115.424324 
L 211.583196 116.442481 
L 211.952962 116.903774 
L 212.322728 122.477675 
L 212.692494 120.345039 
L 213.801792 119.289256 
L 214.171558 119.563925 
L 214.541324 122.425752 
L 214.91109 119.066511 
L 215.280856 113.641608 
L 216.390154 110.548007 
L 217.129686 116.361209 
L 217.499452 115.988712 
L 217.869218 117.089646 
L 218.978516 121.95016 
L 219.348282 122.03971 
L 219.718048 129.153263 
L 220.087814 133.418535 
L 220.45758 140.360514 
L 221.566878 126.455486 
L 221.936644 134.362945 
L 222.30641 137.648439 
L 222.676176 135.314128 
L 224.15524 137.298518 
L 224.525006 134.265871 
L 224.894772 128.528673 
L 225.264538 126.402809 
L 225.634304 134.288446 
L 226.743602 131.307722 
L 227.113368 125.583317 
L 227.483134 127.04245 
L 227.8529 124.046675 
L 228.222666 122.953267 
L 229.331964 121.029078 
L 229.70173 116.702852 
L 230.071496 117.423764 
L 230.441262 126.402809 
L 230.811028 139.015012 
L 231.920326 139.839772 
L 232.290092 144.001949 
L 233.029624 141.668391 
L 233.39939 145.042682 
L 234.508688 139.809671 
L 234.878454 132.973797 
L 235.24822 119.734747 
L 235.617986 119.155308 
L 235.987752 106.758326 
L 237.09705 104.417995 
L 237.466816 102.812121 
L 237.836582 100.516189 
L 238.206348 95.750492 
L 238.576114 97.015475 
L 239.685412 97.809381 
L 240.055178 100.879655 
L 240.424944 97.749932 
L 240.79471 99.875796 
L 241.164476 101.09638 
L 242.273774 98.725196 
L 242.64354 99.556728 
L 243.013306 97.423339 
L 243.383072 97.809381 
L 243.752838 97.030525 
L 245.231902 98.270675 
L 245.601668 98.961486 
L 245.971434 100.099294 
L 246.3412 94.064099 
L 247.450498 91.218076 
L 247.820264 88.593293 
L 248.19003 87.382491 
L 248.559796 88.318624 
L 248.929562 91.440821 
L 250.03886 92.302454 
L 250.408626 90.46631 
L 250.778392 93.224289 
L 251.148158 93.045189 
L 251.517924 96.561706 
L 252.627222 96.731775 
L 252.996988 102.202582 
L 253.366754 100.766777 
L 253.73652 102.589376 
L 254.106286 103.563887 
L 255.215584 108.48987 
L 255.58535 104.454116 
L 255.955116 104.953035 
L 256.324882 102.521649 
L 256.694648 103.228264 
L 257.803946 99.519102 
L 258.173712 105.37595 
L 258.913244 102.692471 
L 259.28301 98.137479 
L 260.392308 93.447034 
L 260.762074 93.871454 
L 261.13184 98.308301 
L 261.501606 92.614749 
L 261.871372 92.10981 
L 262.98067 92.837494 
L 263.350436 91.885559 
L 263.720202 93.781905 
L 264.089968 91.128526 
L 264.459734 91.908135 
L 265.569032 91.58982 
L 265.938798 89.150909 
L 266.308564 85.903793 
L 266.67833 86.959576 
L 267.048096 92.711824 
L 268.157394 94.666866 
L 268.52716 93.988847 
L 268.896926 73.930479 
L 269.266692 63.427584 
L 269.636458 62.356751 
L 270.745756 60.417512 
L 271.115522 63.947574 
L 271.485288 63.695481 
L 271.855054 60.765928 
L 272.22482 61.866109 
L 273.334118 59.519005 
L 273.703884 57.891309 
L 274.07365 57.028923 
L 274.443416 51.513718 
L 274.813182 43.888453 
L 275.92248 47.679639 
L 276.292246 48.420869 
L 276.662012 48.405819 
L 277.031778 47.627715 
L 277.401544 46.407131 
L 278.510842 43.24204 
L 278.880608 40.074692 
L 279.250374 34.209566 
L 279.989906 25.857368 
L 281.46897 24.511113 
L 281.838736 27.217921 
L 282.208502 33.988326 
L 282.578267 37.183517 
L 283.687565 42.519623 
L 284.057331 32.605197 
L 284.427097 37.592887 
L 284.796863 28.048701 
L 285.166629 32.627773 
L 286.275927 43.345888 
L 286.645693 42.685177 
L 287.015459 42.445123 
L 287.385225 39.50353 
L 287.754991 43.739454 
L 288.864289 38.11363 
L 289.234055 35.61527 
L 289.603821 38.781866 
L 289.973587 30.651661 
L 290.343353 29.230906 
L 291.452651 26.533882 
L 291.822417 22.898467 
L 292.192183 17.882182 
L 292.931715 31.787963 
L 294.041013 32.754949 
L 294.410779 27.217921 
L 294.780545 46.051942 
L 295.150311 49.498475 
L 295.520077 35.764268 
L 296.629375 44.259444 
L 296.999141 35.689769 
L 297.368907 37.370142 
L 297.738673 46.653204 
L 298.108439 40.75873 
L 299.217737 38.372496 
L 299.587503 34.656562 
L 299.957269 48.332072 
L 300.327035 39.904622 
L 300.696801 46.14676 
L 301.806099 53.416837 
L 302.175865 51.536294 
L 302.545631 41.560915 
L 302.915397 35.555821 
L 303.285163 61.948886 
L 304.394461 72.509724 
L 304.764227 68.638772 
L 305.133993 57.555686 
L 305.503759 58.865067 
L 305.873525 66.071933 
L 306.982823 84.609462 
L 307.352589 88.095878 
L 307.722355 97.884633 
L 308.092121 89.612202 
L 308.461887 85.77737 
L 309.571185 99.556728 
L 309.940951 115.534944 
L 310.310717 115.878845 
L 311.050249 123.994752 
L 312.159547 119.824297 
L 312.529313 120.471462 
L 312.899079 108.415371 
L 313.268845 110.929533 
L 313.638611 112.66785 
L 314.747909 101.436518 
L 315.117675 116.026338 
L 315.857207 119.638425 
L 316.226973 130.810308 
L 317.336271 128.81764 
L 317.706037 130.549184 
L 318.075803 129.710879 
L 318.445569 126.380234 
L 318.815335 136.228438 
L 319.924633 138.999962 
L 320.294399 135.151584 
L 321.403697 162.775769 
L 322.512995 169.762899 
L 323.252527 151.182476 
L 323.622293 153.025393 
L 323.992059 152.876394 
L 325.101357 150.140991 
L 325.840889 149.829449 
L 326.210655 178.123375 
L 326.580421 167.212616 
L 327.689719 167.822908 
L 328.429251 158.13198 
L 328.799017 157.247019 
L 329.168783 159.944044 
L 330.278081 164.047525 
L 330.647847 158.525547 
L 331.017613 155.166307 
L 331.757145 151.822117 
L 333.236209 158.147031 
L 333.605975 157.054375 
L 333.975741 159.216359 
L 334.345507 150.104118 
L 335.454805 152.749971 
L 335.824571 155.641146 
L 336.194337 136.658125 
L 336.564103 134.488616 
L 336.933869 134.362945 
L 338.043167 125.830896 
L 338.412933 120.583587 
L 338.782699 120.471462 
L 339.152465 126.402809 
L 339.522231 126.031818 
L 340.631529 127.821306 
L 341.001295 125.18373 
L 341.371061 126.455486 
L 341.740827 125.341007 
L 342.110593 126.009243 
L 343.589657 125.116004 
L 343.959423 123.103018 
L 344.329189 124.87896 
L 344.698955 121.422645 
L 345.808253 119.155308 
L 346.178019 118.969436 
L 346.547785 117.988905 
L 346.917551 121.081002 
L 347.287317 117.809053 
L 348.396615 116.197912 
L 348.766381 116.777351 
L 349.136147 118.636071 
L 349.505913 122.25493 
L 349.875679 121.526493 
L 351.354743 107.056323 
L 351.724509 105.628044 
L 352.464041 97.661888 
L 353.573339 94.227395 
L 353.943105 96.925173 
L 354.312871 93.966272 
L 354.682637 81.481245 
L 355.052403 88.766372 
L 356.161701 92.896943 
L 356.531467 96.442808 
L 356.901233 93.394358 
L 357.270999 92.933817 
L 357.640765 90.756782 
L 358.750063 88.407421 
L 359.119829 83.376085 
L 359.489595 80.998881 
L 359.859361 80.396866 
L 360.229127 78.001601 
L 361.338425 72.375776 
L 361.708191 73.483483 
L 362.077957 71.475765 
L 362.447723 74.488094 
L 362.817489 74.63634 
L 363.926787 73.967352 
L 364.296553 73.930479 
L 364.666319 66.935823 
L 365.036085 65.626442 
L 366.515149 64.408868 
L 366.884915 59.08706 
L 367.254681 59.666499 
L 367.624447 63.040037 
L 367.994213 64.810712 
L 369.103511 64.261374 
L 369.473277 71.380947 
L 369.843043 53.565083 
L 370.212809 56.055165 
L 370.582575 51.363967 
L 371.691873 57.288542 
L 372.061639 67.410662 
L 372.431405 67.359491 
L 373.170937 76.307683 
L 374.280235 97.089221 
L 375.019767 87.657913 
L 375.759299 91.143576 
L 376.868597 101.868464 
L 377.238363 95.513449 
L 377.977895 108.082005 
L 378.347661 109.34473 
L 379.826725 110.67443 
L 380.196491 112.220854 
L 380.566257 110.548007 
L 380.936023 116.398082 
L 380.936023 116.398082 
" clip-path="url(#pb9417b402a)" style="fill: none; stroke: #bc80bd; stroke-opacity: 0.5; stroke-width: 2; stroke-linecap: square"/>
   </g>
   <g id="line2d_19">
    <path d="M 56.281477 231.303073 
L 56.651243 231.414446 
L 57.021009 231.102401 
L 57.390775 230.388952 
L 58.500073 229.584623 
L 59.239605 228.442644 
L 59.979137 227.916407 
L 61.458201 227.584806 
L 62.197733 227.119449 
L 62.567499 226.925675 
L 64.046563 226.608614 
L 65.155861 225.714289 
L 66.634925 225.343469 
L 67.744223 223.247989 
L 68.853521 222.554549 
L 70.332585 219.778823 
L 71.441883 219.109789 
L 72.920947 216.394162 
L 74.400011 215.74775 
L 75.509309 214.010472 
L 76.618607 213.484713 
L 78.097671 211.306088 
L 79.206969 210.806301 
L 80.316267 209.468991 
L 80.686033 209.058415 
L 81.795331 208.662501 
L 83.274395 207.119241 
L 84.383693 206.722468 
L 85.862757 205.367552 
L 86.972055 205.053051 
L 88.451119 203.557417 
L 89.560417 203.218132 
L 91.039481 201.936202 
L 92.148779 201.659594 
L 93.258077 200.999722 
L 94.737141 200.78369 
L 96.216205 199.992936 
L 97.325503 199.763087 
L 98.804567 198.87629 
L 99.913865 198.610972 
L 101.392929 197.534867 
L 102.502227 197.170878 
L 103.981291 195.668995 
L 105.090589 195.281653 
L 105.830121 194.637728 
L 106.569653 194.022811 
L 107.678951 193.703524 
L 109.158015 192.511073 
L 110.637079 192.227297 
L 111.746377 191.402896 
L 112.855675 191.136265 
L 114.334739 190.149256 
L 115.813803 189.915595 
L 116.923101 189.677092 
L 118.402165 189.471604 
L 119.511463 189.165066 
L 121.360293 188.908023 
L 122.099825 188.77944 
L 124.688187 188.546526 
L 126.167251 188.39053 
L 129.495145 187.542436 
L 129.864911 187.413291 
L 131.343975 187.106797 
L 132.453273 186.708148 
L 133.932337 186.49486 
L 135.041635 185.93825 
L 136.150933 185.728839 
L 137.629997 184.920137 
L 138.739295 184.705442 
L 140.218359 183.889717 
L 141.327657 183.71726 
L 142.806721 182.940266 
L 143.916019 182.733328 
L 145.395083 181.841019 
L 146.874147 181.640206 
L 147.983445 181.096474 
L 149.092743 180.910503 
L 150.571807 180.259719 
L 152.050871 179.963721 
L 153.160169 179.674738 
L 154.639233 179.523957 
L 155.74853 179.247145 
L 157.227594 179.06266 
L 158.336892 178.777044 
L 159.815956 178.57029 
L 160.925254 178.251444 
L 162.404318 177.979407 
L 163.513616 177.655809 
L 164.99268 177.457389 
L 167.581042 176.729461 
L 168.69034 176.144298 
L 169.799638 175.910814 
L 171.278702 174.956278 
L 172.388 174.730731 
L 173.867064 173.962051 
L 174.976362 173.777731 
L 175.715894 173.35 
L 176.455426 173.131823 
L 177.564724 172.922403 
L 179.043788 172.185751 
L 180.522852 171.851645 
L 181.63215 171.371986 
L 182.741448 171.189285 
L 184.220512 170.477412 
L 185.32981 170.274745 
L 186.808874 169.529476 
L 188.287938 169.376612 
L 189.397236 168.930839 
L 190.8763 168.770866 
L 191.985598 168.274215 
L 193.464662 167.93662 
L 194.57396 167.415726 
L 196.053024 167.240335 
L 197.162322 166.666752 
L 198.27162 166.491471 
L 199.750684 165.896369 
L 201.229748 165.683913 
L 202.339046 165.41435 
L 204.187876 165.257501 
L 206.406472 165.04139 
L 207.51577 164.668355 
L 209.3646 164.417569 
L 210.104132 164.138687 
L 211.583196 163.806236 
L 212.692494 163.356775 
L 214.171558 163.058943 
L 215.280856 162.609135 
L 216.75992 162.272423 
L 217.869218 161.819031 
L 219.348282 161.557889 
L 220.45758 161.292495 
L 222.30641 161.017863 
L 222.676176 160.935479 
L 224.525006 160.775267 
L 225.634304 160.481558 
L 227.113368 160.280705 
L 228.222666 159.949029 
L 229.70173 159.69543 
L 230.811028 159.401103 
L 233.029624 159.191455 
L 235.24822 158.895321 
L 235.987752 158.622689 
L 237.466816 158.29816 
L 238.576114 157.76713 
L 240.055178 157.427464 
L 241.164476 156.92729 
L 242.64354 156.596136 
L 243.752838 156.091804 
L 245.231902 155.928004 
L 246.3412 155.437389 
L 247.450498 155.257503 
L 248.929562 154.522614 
L 250.03886 154.350735 
L 251.517924 153.68378 
L 252.996988 153.389125 
L 254.106286 152.976059 
L 255.58535 152.726708 
L 256.694648 152.334481 
L 258.173712 152.070529 
L 260.392308 151.645504 
L 261.871372 151.048939 
L 263.350436 150.745644 
L 264.459734 150.295854 
L 265.938798 149.990111 
L 267.048096 149.523288 
L 268.52716 149.245226 
L 269.636458 148.625174 
L 270.745756 148.405204 
L 272.22482 147.557437 
L 273.334118 147.340594 
L 274.813182 146.416106 
L 275.92248 146.175871 
L 277.401544 145.226854 
L 278.510842 144.981699 
L 279.989906 143.912032 
L 281.46897 143.628419 
L 282.578267 142.844232 
L 283.687565 142.608174 
L 285.166629 141.583563 
L 286.275927 141.355103 
L 287.754991 140.440248 
L 288.864289 140.205015 
L 290.343353 139.233396 
L 291.452651 138.977261 
L 292.931715 137.945387 
L 294.041013 137.709004 
L 295.520077 136.835277 
L 296.629375 136.629553 
L 298.108439 135.779231 
L 299.217737 135.56515 
L 300.696801 134.752033 
L 301.806099 134.575218 
L 303.285163 133.825866 
L 304.764227 133.5544 
L 305.873525 133.089218 
L 307.722355 132.816596 
L 308.461887 132.626208 
L 317.706037 132.145961 
L 320.664165 132.182518 
L 323.992059 132.478595 
L 326.210655 132.638631 
L 326.580421 132.707094 
L 328.799017 132.933278 
L 331.017613 133.139809 
L 331.757145 133.21568 
L 335.454805 133.429513 
L 336.564103 133.480181 
L 339.522231 133.390961 
L 345.808253 133.225056 
L 354.312871 132.531827 
L 355.052403 132.361906 
L 356.901233 132.15807 
L 357.640765 132.014863 
L 359.119829 131.851596 
L 360.229127 131.57667 
L 361.708191 131.370891 
L 362.817489 131.068077 
L 364.296553 130.869402 
L 365.036085 130.645526 
L 366.884915 130.407538 
L 367.994213 130.057528 
L 369.473277 129.84439 
L 370.582575 129.455039 
L 372.061639 129.227177 
L 373.170937 128.935403 
L 375.019767 128.749988 
L 375.759299 128.620766 
L 380.936023 128.306428 
L 380.936023 128.306428 
" clip-path="url(#pb9417b402a)" style="fill: none; stroke-dasharray: 2,3.3; stroke-dashoffset: 0; stroke: #fb8072; stroke-width: 2"/>
   </g>
   <g id="line2d_20">
    <path d="M 56.281477 231.303073 
L 56.651243 231.416142 
L 57.021009 231.093963 
L 57.390775 230.3498 
L 58.500073 229.504057 
L 59.239605 228.296047 
L 59.979137 227.749223 
L 61.458201 227.389461 
L 62.197733 226.888704 
L 62.567499 226.67875 
L 64.046563 226.335618 
L 65.155861 225.281576 
L 66.634925 224.857687 
L 67.744223 222.155628 
L 68.853521 221.25605 
L 70.332585 217.625419 
L 71.441883 216.743275 
L 72.920947 213.11565 
L 74.400011 212.245894 
L 75.509309 209.931358 
L 76.618607 209.235743 
L 77.358139 207.741129 
L 78.097671 206.267546 
L 79.206969 205.591528 
L 80.316267 203.821602 
L 80.686033 203.283556 
L 81.795331 202.766958 
L 83.274395 200.719367 
L 84.383693 200.171446 
L 85.862757 198.393509 
L 86.972055 197.985822 
L 88.451119 195.808341 
L 89.560417 195.329251 
L 90.669715 193.92519 
L 91.039481 193.54259 
L 92.148779 193.185058 
L 93.258077 192.481267 
L 94.737141 192.243682 
L 96.216205 191.414088 
L 97.325503 191.111512 
L 98.434801 190.207322 
L 98.804567 189.947223 
L 99.913865 189.527915 
L 101.392929 187.786083 
L 102.502227 187.078546 
L 103.981291 184.124781 
L 105.090589 183.355362 
L 105.460355 182.624286 
L 106.199887 181.681913 
L 106.569653 181.142653 
L 107.678951 180.5701 
L 109.158015 178.528714 
L 110.637079 178.058805 
L 111.746377 176.717331 
L 112.855675 176.293211 
L 113.964973 174.940206 
L 114.334739 174.844634 
L 116.183569 175.091271 
L 116.923101 175.505591 
L 118.402165 175.637485 
L 119.511463 175.777788 
L 120.620761 175.827875 
L 121.360293 176.032505 
L 122.099825 176.324705 
L 123.948655 176.604647 
L 124.688187 176.902519 
L 126.906783 176.912809 
L 127.276549 176.755183 
L 128.385847 176.573893 
L 129.864911 175.72741 
L 130.974209 175.442586 
L 132.083507 174.618134 
L 132.453273 174.505434 
L 133.562571 174.438839 
L 133.932337 174.302998 
L 135.041635 172.940066 
L 136.150933 172.381876 
L 136.890465 171.133775 
L 137.629997 170.331017 
L 138.739295 169.765317 
L 139.478827 168.535345 
L 140.218359 167.755632 
L 141.327657 167.409212 
L 142.806721 165.61385 
L 143.916019 165.105964 
L 145.395083 162.787003 
L 146.874147 162.331912 
L 147.613679 161.514289 
L 147.983445 161.279567 
L 149.092743 160.901419 
L 149.832275 160.310241 
L 150.571807 159.873389 
L 151.681105 159.686064 
L 152.050871 159.502231 
L 152.420637 159.465626 
L 155.378764 160.244974 
L 157.59736 160.45112 
L 160.555488 160.154641 
L 162.034552 159.796206 
L 162.774084 159.285284 
L 165.732212 158.97243 
L 166.101978 158.579939 
L 167.211276 158.006476 
L 168.69034 155.380629 
L 169.799638 154.503271 
L 171.278702 150.986152 
L 172.388 150.222444 
L 173.497298 148.604848 
L 173.867064 148.116857 
L 174.976362 147.653075 
L 175.715894 146.337739 
L 176.455426 145.661653 
L 177.564724 145.052733 
L 177.93449 144.515445 
L 178.674022 143.740448 
L 179.043788 143.349976 
L 180.153086 143.037981 
L 181.63215 141.975316 
L 182.741448 141.552427 
L 184.220512 140.005449 
L 185.32981 139.441819 
L 186.808874 137.697127 
L 188.287938 137.514695 
L 189.397236 137.042068 
L 190.8763 136.789212 
L 191.615832 136.265803 
L 191.985598 135.890807 
L 193.094896 135.558961 
L 194.57396 134.148815 
L 196.053024 133.773376 
L 197.162322 132.288616 
L 198.27162 131.926357 
L 198.641386 131.573009 
L 199.011152 131.380371 
L 199.750684 131.315563 
L 200.859982 131.462989 
L 201.96928 131.966395 
L 202.339046 132.491281 
L 203.81811 133.567169 
L 204.187876 134.097323 
L 204.927408 135.4635 
L 206.776238 135.907579 
L 207.51577 135.355455 
L 208.994834 135.137882 
L 209.734366 134.727977 
L 210.104132 134.333452 
L 211.21343 133.766093 
L 211.952962 132.755963 
L 212.692494 132.084448 
L 213.801792 131.700543 
L 215.280856 130.19685 
L 216.390154 129.607319 
L 217.129686 128.745682 
L 217.869218 128.024702 
L 218.978516 127.842449 
L 219.348282 127.66835 
L 219.718048 127.712902 
L 220.087814 127.884086 
L 220.45758 128.25841 
L 221.566878 128.204318 
L 222.676176 128.866325 
L 224.894772 129.251364 
L 225.264538 129.165902 
L 225.634304 129.319588 
L 226.743602 129.379236 
L 229.331964 128.626376 
L 230.071496 127.943289 
L 230.441262 127.897072 
L 230.811028 128.230626 
L 231.920326 128.578917 
L 233.39939 130.274707 
L 234.878454 130.633161 
L 235.617986 129.971658 
L 235.987752 129.275234 
L 237.09705 128.529491 
L 238.206348 126.004932 
L 238.576114 125.135222 
L 239.685412 124.315423 
L 241.164476 121.516047 
L 242.273774 120.832305 
L 243.752838 118.204932 
L 245.231902 117.606891 
L 246.3412 115.864799 
L 247.450498 115.125383 
L 248.929562 112.125167 
L 250.03886 111.530476 
L 251.148158 109.848604 
L 251.517924 109.449991 
L 252.996988 108.862461 
L 253.73652 108.438679 
L 254.106286 108.292433 
L 255.215584 108.298356 
L 258.173712 107.466036 
L 258.913244 107.322827 
L 259.28301 107.047264 
L 260.392308 106.639254 
L 261.871372 105.210503 
L 262.98067 104.83931 
L 264.459734 103.385587 
L 265.569032 103.031712 
L 267.048096 101.390877 
L 268.157394 101.189156 
L 268.52716 100.973145 
L 268.896926 100.161861 
L 269.636458 97.958729 
L 270.745756 96.832487 
L 272.22482 92.898188 
L 273.334118 91.896808 
L 274.443416 88.710774 
L 274.813182 87.3661 
L 275.92248 86.175502 
L 277.401544 81.760842 
L 278.510842 80.605274 
L 279.62014 76.60869 
L 279.989906 75.086146 
L 281.46897 73.568891 
L 282.208502 71.032654 
L 282.578267 70.017177 
L 283.687565 69.192249 
L 285.166629 65.004313 
L 286.275927 64.354559 
L 287.754991 61.801187 
L 288.864289 61.090559 
L 290.343353 57.921767 
L 291.452651 56.980129 
L 292.561949 53.926599 
L 292.931715 53.262439 
L 294.041013 52.647213 
L 294.410779 51.884333 
L 295.150311 51.643035 
L 295.520077 51.166671 
L 296.629375 50.959454 
L 297.368907 50.107426 
L 297.738673 50.003799 
L 298.108439 49.726447 
L 299.217737 49.385828 
L 299.587503 48.94395 
L 299.957269 48.925593 
L 300.327035 48.654964 
L 300.696801 48.579718 
L 302.175865 48.809175 
L 302.545631 48.591727 
L 302.915397 48.20065 
L 303.285163 48.613097 
L 304.394461 49.329997 
L 304.764227 49.90926 
L 305.503759 50.400446 
L 305.873525 50.870591 
L 306.982823 51.882757 
L 308.461887 56.287542 
L 309.571185 57.585618 
L 310.310717 61.020742 
L 311.050249 62.909963 
L 312.159547 64.617394 
L 312.899079 67.556688 
L 313.638611 70.172174 
L 314.747909 71.110105 
L 315.117675 72.457592 
L 315.857207 73.873018 
L 316.226973 75.581137 
L 317.336271 77.178233 
L 318.815335 83.325665 
L 319.924633 84.995894 
L 320.664165 88.240552 
L 321.403697 92.326395 
L 323.252527 96.345481 
L 323.992059 99.690795 
L 325.101357 101.204301 
L 325.840889 102.663056 
L 326.580421 106.795439 
L 327.689719 108.626263 
L 328.799017 113.053365 
L 329.168783 114.460086 
L 330.278081 115.947709 
L 331.387379 119.418317 
L 331.757145 120.390431 
L 333.236209 121.523129 
L 334.345507 124.480373 
L 335.454805 125.328461 
L 335.824571 126.237841 
L 336.564103 126.788595 
L 336.933869 127.015825 
L 338.043167 126.980278 
L 338.782699 126.598869 
L 343.589657 126.472779 
L 346.178019 125.759055 
L 347.287317 125.165095 
L 348.396615 124.89608 
L 349.136147 124.472024 
L 349.875679 124.319141 
L 350.984977 123.910703 
L 352.094275 122.245003 
L 352.464041 121.507509 
L 353.573339 120.689106 
L 354.312871 119.19589 
L 355.052403 117.185508 
L 356.161701 116.456851 
L 357.270999 114.515105 
L 357.640765 113.802356 
L 358.750063 113.040507 
L 360.229127 109.322754 
L 361.338425 108.214344 
L 362.817489 104.237613 
L 363.926787 103.329505 
L 364.666319 101.382183 
L 365.036085 100.30951 
L 366.515149 99.232491 
L 367.624447 95.862162 
L 367.994213 94.930619 
L 369.103511 94.010541 
L 369.473277 93.331653 
L 370.582575 89.865386 
L 371.691873 88.888081 
L 372.801171 87.127229 
L 373.170937 86.802643 
L 376.868597 87.868402 
L 377.238363 88.097753 
L 377.977895 89.11487 
L 378.347661 89.721766 
L 379.826725 90.350346 
L 380.936023 92.336869 
L 380.936023 92.336869 
" clip-path="url(#pb9417b402a)" style="fill: none; stroke-dasharray: 7.4,3.2; stroke-dashoffset: 0; stroke: #b3de69; stroke-width: 2"/>
   </g>
   <g id="line2d_21">
    <path d="M 70.332585 219.778823 
L 71.441883 218.674315 
L 72.920947 214.038723 
L 74.400011 212.905538 
L 75.509309 209.540708 
L 76.618607 208.448965 
L 77.727905 204.850317 
L 78.097671 203.585226 
L 79.206969 202.340776 
L 80.686033 197.89662 
L 81.795331 196.747525 
L 83.274395 193.888977 
L 84.383693 193.231169 
L 85.862757 191.134519 
L 86.972055 190.767963 
L 88.451119 188.754869 
L 89.560417 188.343511 
L 90.669715 186.945628 
L 91.039481 186.549293 
L 92.518545 186.172389 
L 93.258077 185.939619 
L 95.106907 185.656941 
L 95.846439 185.323817 
L 96.216205 185.130823 
L 97.325503 184.839679 
L 98.434801 184.160935 
L 99.913865 183.60305 
L 101.392929 181.961486 
L 102.502227 181.38546 
L 103.611525 179.499972 
L 103.981291 178.683436 
L 105.090589 177.959837 
L 105.460355 177.203341 
L 106.199887 176.135437 
L 106.569653 175.476339 
L 107.678951 174.663297 
L 109.158015 171.451442 
L 110.637079 170.597845 
L 111.746377 168.412371 
L 112.855675 167.784852 
L 113.964973 165.556162 
L 114.334739 165.368517 
L 116.183569 165.503325 
L 116.553335 165.757595 
L 116.923101 166.392828 
L 118.032399 166.833938 
L 118.771931 167.819065 
L 119.511463 169.067707 
L 120.620761 169.674317 
L 121.360293 170.506038 
L 122.099825 171.721005 
L 123.209123 172.369998 
L 123.948655 172.951533 
L 124.688187 174.245838 
L 125.797485 174.787785 
L 127.276549 176.49971 
L 128.385847 176.806011 
L 129.125379 177.387332 
L 129.495145 177.301356 
L 129.864911 176.99664 
L 130.974209 176.652417 
L 132.453273 174.87978 
L 133.562571 174.646715 
L 133.932337 174.384166 
L 135.041635 172.413779 
L 136.150933 171.465337 
L 137.629997 167.813313 
L 138.739295 166.784729 
L 139.478827 164.467161 
L 140.218359 162.832343 
L 141.327657 162.073509 
L 142.436955 159.904886 
L 142.806721 159.251889 
L 143.916019 158.557207 
L 145.395083 155.324067 
L 146.874147 154.744332 
L 147.983445 152.550151 
L 150.202041 151.066024 
L 150.571807 150.96086 
L 152.420637 151.06597 
L 152.790403 151.325267 
L 153.160169 151.826202 
L 154.269467 152.521394 
L 154.639233 153.012493 
L 155.74853 153.703627 
L 156.857828 154.079966 
L 158.336892 155.463229 
L 159.44619 155.909714 
L 160.925254 157.676815 
L 162.774084 157.785661 
L 163.513616 158.423474 
L 164.99268 158.718461 
L 165.362446 158.937739 
L 165.732212 159.018769 
L 166.101978 158.744799 
L 167.211276 158.073741 
L 168.69034 153.814408 
L 169.799638 152.550877 
L 171.278702 147.091546 
L 172.388 145.757654 
L 173.867064 141.868964 
L 174.976362 140.983411 
L 175.715894 138.68979 
L 176.455426 137.698428 
L 177.564724 136.800943 
L 179.043788 133.029752 
L 180.153086 132.188867 
L 180.892618 130.542546 
L 181.262384 130.110923 
L 181.63215 129.904975 
L 182.741448 129.637965 
L 183.48098 128.994535 
L 186.808874 128.848224 
L 188.657704 128.800896 
L 193.464662 128.794419 
L 194.57396 127.892661 
L 196.053024 127.488371 
L 197.162322 125.664025 
L 199.380918 124.817415 
L 199.750684 124.862539 
L 200.859982 125.243502 
L 201.599514 126.290335 
L 201.96928 126.7068 
L 202.339046 127.625006 
L 203.81811 129.274741 
L 204.187876 129.977163 
L 204.927408 131.755578 
L 206.036706 132.318811 
L 206.776238 133.090733 
L 207.51577 133.251933 
L 208.994834 133.364488 
L 209.734366 133.656197 
L 210.104132 133.709034 
L 211.583196 133.485482 
L 211.952962 133.510692 
L 212.322728 133.68455 
L 213.801792 133.65832 
L 214.541324 133.165904 
L 214.91109 132.77704 
L 215.280856 131.970368 
L 216.390154 130.990348 
L 217.499452 128.23374 
L 217.869218 126.82293 
L 218.978516 126.000857 
L 220.087814 123.104684 
L 221.936644 122.364744 
L 222.676176 123.073455 
L 224.894772 123.628571 
L 225.264538 123.800844 
L 225.634304 124.474563 
L 226.743602 125.005464 
L 227.113368 125.315448 
L 228.222666 125.741534 
L 229.331964 125.793861 
L 229.70173 125.589472 
L 230.071496 125.530802 
L 230.441262 125.98656 
L 230.811028 127.003238 
L 231.920326 127.938349 
L 233.39939 131.582069 
L 234.878454 132.353158 
L 235.24822 131.864451 
L 235.987752 130.403652 
L 237.09705 129.33419 
L 238.576114 124.033023 
L 239.685412 122.935905 
L 240.055178 122.024364 
L 240.79471 119.596848 
L 241.164476 118.722315 
L 242.273774 117.710984 
L 243.752838 114.392702 
L 245.231902 113.708663 
L 245.601668 112.728616 
L 246.3412 109.703923 
L 247.450498 107.818785 
L 248.929562 100.194272 
L 250.03886 98.741724 
L 250.778392 96.770315 
L 251.148158 96.28056 
L 251.517924 95.999978 
L 252.627222 95.782823 
L 252.996988 95.843052 
L 254.106286 96.426791 
L 255.215584 96.698584 
L 255.955116 97.119349 
L 257.803946 97.329732 
L 258.173712 97.613753 
L 259.28301 97.827684 
L 260.392308 97.655411 
L 261.13184 97.40966 
L 261.871372 97.389745 
L 263.350436 97.702147 
L 263.720202 97.897265 
L 265.938798 97.766676 
L 267.048096 97.025123 
L 268.157394 96.75599 
L 268.52716 96.513921 
L 268.896926 95.490389 
L 269.636458 92.409339 
L 270.745756 90.836603 
L 272.22482 85.124211 
L 273.334118 83.486463 
L 274.813182 77.135534 
L 275.92248 75.327367 
L 277.401544 68.949293 
L 278.510842 67.144298 
L 279.250374 63.260283 
L 279.989906 58.818922 
L 281.46897 56.626326 
L 282.578267 50.342451 
L 283.687565 48.504264 
L 284.057331 47.028361 
L 284.427097 46.105694 
L 285.166629 43.887916 
L 286.275927 43.152141 
L 287.754991 40.38524 
L 288.864289 39.678894 
L 289.234055 38.914121 
L 289.973587 37.986669 
L 290.343353 37.327786 
L 291.452651 36.546108 
L 292.561949 33.814978 
L 292.931715 33.405904 
L 294.041013 33.144484 
L 294.410779 32.894782 
L 294.780545 33.449308 
L 295.150311 34.293633 
L 295.520077 34.695531 
L 296.629375 35.304157 
L 297.738673 35.519216 
L 298.108439 35.810414 
L 299.217737 35.838257 
L 299.587503 36.074252 
L 299.957269 36.63512 
L 300.327035 36.512217 
L 301.806099 37.027692 
L 302.175865 37.457434 
L 302.915397 37.288278 
L 303.285163 38.228765 
L 304.394461 39.433331 
L 305.133993 41.801613 
L 305.503759 42.956298 
L 305.873525 44.498208 
L 306.982823 46.881325 
L 308.461887 55.610642 
L 309.571185 57.521527 
L 310.310717 62.741207 
L 311.050249 65.588897 
L 312.159547 68.593701 
L 312.899079 73.767397 
L 313.638611 78.926903 
L 314.747909 81.311901 
L 315.117675 83.729554 
L 315.857207 86.577189 
L 316.226973 89.600887 
L 317.336271 92.293773 
L 318.815335 104.160445 
L 319.924633 106.535097 
L 320.294399 108.910554 
L 321.403697 118.788778 
L 323.252527 124.083065 
L 323.992059 128.311813 
L 325.101357 130.610514 
L 325.840889 132.405968 
L 326.580421 136.474619 
L 327.689719 138.03991 
L 329.168783 144.412636 
L 330.278081 146.247624 
L 330.647847 148.286518 
L 331.387379 150.894826 
L 331.757145 151.645248 
L 333.236209 152.692726 
L 334.345507 155.540389 
L 335.454805 156.130444 
L 335.824571 156.724772 
L 336.194337 156.778577 
L 336.564103 156.421023 
L 336.933869 155.798019 
L 338.043167 154.478559 
L 338.412933 152.722155 
L 339.522231 149.715792 
L 340.631529 148.91866 
L 341.001295 148.038456 
L 341.740827 144.69776 
L 342.110593 143.204414 
L 343.589657 141.860202 
L 344.698955 138.077401 
L 345.808253 136.474108 
L 346.917551 132.574694 
L 347.287317 131.359942 
L 348.396615 129.861759 
L 349.505913 125.979384 
L 349.875679 124.864259 
L 350.984977 123.25938 
L 352.464041 119.008863 
L 353.573339 118.06757 
L 353.943105 117.226631 
L 354.312871 116.068184 
L 355.052403 113.082273 
L 356.161701 111.929173 
L 357.640765 107.30796 
L 358.750063 106.068831 
L 360.229127 100.295513 
L 361.338425 98.666472 
L 362.817489 92.317128 
L 363.926787 90.721817 
L 365.036085 85.436345 
L 366.515149 83.913222 
L 367.254681 80.739853 
L 367.994213 78.452763 
L 369.103511 77.286198 
L 369.843043 75.482574 
L 370.582575 72.830996 
L 371.691873 71.432629 
L 372.801171 68.89581 
L 373.170937 68.463677 
L 374.280235 68.953432 
L 375.389533 69.99661 
L 375.759299 70.666888 
L 376.868597 71.680638 
L 377.608129 73.537691 
L 378.347661 75.995657 
L 379.826725 77.307941 
L 380.936023 82.386363 
L 380.936023 82.386363 
" clip-path="url(#pb9417b402a)" style="fill: none; stroke-dasharray: 12.8,3.2,2,3.2; stroke-dashoffset: 0; stroke: #fdb462; stroke-width: 2"/>
   </g>
   <g id="patch_3">
    <path d="M 40.04875 242.208 
L 40.04875 7.2 
" style="fill: none; stroke: #000000; stroke-width: 0.6; stroke-linejoin: miter; stroke-linecap: square"/>
   </g>
   <g id="patch_4">
    <path d="M 40.04875 242.208 
L 397.16875 242.208 
" style="fill: none; stroke: #000000; stroke-width: 0.6; stroke-linejoin: miter; stroke-linecap: square"/>
   </g>
   <g id="legend_1">
    <g id="patch_5">
     <path d="M 47.04875 64.890625 
L 154.750313 64.890625 
Q 156.750313 64.890625 156.750313 62.890625 
L 156.750313 14.2 
Q 156.750313 12.2 154.750313 12.2 
L 47.04875 12.2 
Q 45.04875 12.2 45.04875 14.2 
L 45.04875 62.890625 
Q 45.04875 64.890625 47.04875 64.890625 
z
" style="fill: #ffffff; opacity: 0.8; stroke: #e6e6e6; stroke-width: 0.8; stroke-linejoin: miter"/>
    </g>
    <g id="line2d_22">
     <path d="M 47.04875 17.7 
L 57.04875 17.7 
L 67.04875 17.7 
" style="fill: none; stroke: #bc80bd; stroke-opacity: 0.5; stroke-width: 2; stroke-linecap: square"/>
    </g>
    <g id="text_20">
     <!-- Raw -->
     <g style="fill: #323034" transform="translate(75.04875 21.2) scale(0.1 -0.1)">
      <defs>
       <path id="STIXGeneral-Regular-52" d="M 4224 0 
L 3187 0 
L 1664 1971 
L 1306 1958 
L 1306 717 
Q 1306 352 1405 249 
Q 1504 147 1875 122 
L 1875 0 
L 109 0 
L 109 122 
Q 474 154 563 262 
Q 653 371 653 794 
L 653 3526 
Q 653 3885 563 3987 
Q 474 4090 109 4115 
L 109 4237 
L 1850 4237 
Q 2726 4237 3187 3859 
Q 3501 3603 3501 3091 
Q 3501 2221 2342 2042 
L 3622 422 
Q 3757 256 3878 198 
Q 4000 141 4224 122 
L 4224 0 
z
M 1306 3731 
L 1306 2195 
Q 1766 2202 1990 2246 
Q 2214 2291 2438 2413 
Q 2803 2618 2803 3142 
Q 2803 4000 1632 4000 
Q 1459 4000 1382 3945 
Q 1306 3891 1306 3731 
z
" transform="scale(0.015625)"/>
       <path id="STIXGeneral-Regular-77" d="M 4442 2880 
L 4442 2784 
Q 4346 2752 4301 2691 
Q 4256 2630 4179 2438 
L 3296 224 
Q 3168 -90 3117 -90 
Q 3085 -90 3062 -48 
Q 3040 -6 2963 186 
L 2381 1696 
L 1664 160 
Q 1549 -90 1504 -90 
Q 1446 -90 1338 192 
L 474 2381 
Q 378 2630 314 2700 
Q 250 2771 134 2784 
L 134 2880 
L 1286 2880 
L 1286 2784 
Q 1120 2765 1056 2720 
Q 992 2675 992 2573 
Q 992 2477 1030 2381 
L 1664 710 
L 2246 1984 
L 2118 2342 
Q 2029 2598 1942 2681 
Q 1856 2765 1677 2784 
L 1677 2880 
L 2976 2880 
L 2976 2784 
Q 2752 2752 2678 2707 
Q 2605 2662 2605 2560 
Q 2605 2458 2714 2176 
L 3251 742 
L 3827 2163 
Q 3936 2432 3936 2592 
Q 3936 2669 3875 2710 
Q 3814 2752 3654 2784 
L 3654 2880 
L 4442 2880 
z
" transform="scale(0.015625)"/>
      </defs>
      <use xlink:href="#STIXGeneral-Regular-52"/>
      <use xlink:href="#STIXGeneral-Regular-61" transform="translate(66.699997 0)"/>
      <use xlink:href="#STIXGeneral-Regular-77" transform="translate(111.099991 0)"/>
     </g>
    </g>
    <g id="line2d_23">
     <path d="M 47.04875 30.870312 
L 57.04875 30.870312 
L 67.04875 30.870312 
" style="fill: none; stroke-dasharray: 2,3.3; stroke-dashoffset: 0; stroke: #fb8072; stroke-width: 2"/>
    </g>
    <g id="text_21">
     <!-- Expanding Average -->
     <g style="fill: #323034" transform="translate(75.04875 34.370312) scale(0.1 -0.1)">
      <defs>
       <path id="STIXGeneral-Regular-45" d="M 3821 1082 
L 3526 0 
L 77 0 
L 77 122 
Q 442 147 538 252 
Q 634 358 634 730 
L 634 3520 
Q 634 3878 534 3987 
Q 435 4096 77 4115 
L 77 4237 
L 3469 4237 
L 3494 3322 
L 3334 3322 
Q 3264 3750 3085 3872 
Q 2906 3994 2349 3994 
L 1510 3994 
Q 1370 3994 1328 3952 
Q 1286 3910 1286 3763 
L 1286 2355 
L 2253 2355 
Q 2656 2355 2787 2470 
Q 2918 2586 2976 2970 
L 3123 2970 
L 3123 1472 
L 2976 1472 
Q 2918 1875 2790 1984 
Q 2662 2093 2253 2093 
L 1286 2093 
L 1286 538 
Q 1286 346 1420 291 
Q 1555 237 1933 237 
L 2163 237 
Q 2848 237 3136 403 
Q 3424 570 3642 1082 
L 3821 1082 
z
" transform="scale(0.015625)"/>
       <path id="STIXGeneral-Regular-78" d="M 3066 0 
L 1779 0 
L 1779 96 
Q 1939 109 1987 137 
Q 2035 166 2035 250 
Q 2035 307 1997 365 
L 1414 1261 
L 909 474 
Q 781 275 781 211 
Q 781 96 1037 96 
L 1037 0 
L 109 0 
L 109 96 
Q 269 109 355 169 
Q 442 230 576 422 
L 1306 1478 
L 704 2400 
Q 557 2624 454 2704 
Q 352 2784 211 2784 
L 154 2784 
L 154 2880 
L 1478 2880 
L 1478 2784 
Q 1203 2778 1203 2643 
Q 1203 2509 1498 2074 
Q 1581 1958 1587 1946 
Q 1619 1990 1779 2227 
Q 1811 2285 1856 2349 
Q 1901 2413 1923 2451 
Q 1946 2490 1971 2528 
Q 1997 2566 2006 2595 
Q 2016 2624 2016 2643 
Q 2016 2765 1760 2784 
L 1760 2880 
L 2771 2880 
L 2771 2784 
Q 2445 2771 2253 2502 
L 1722 1734 
L 2541 480 
Q 2790 96 3066 96 
L 3066 0 
z
" transform="scale(0.015625)"/>
       <path id="STIXGeneral-Regular-70" d="M 1018 2931 
L 1018 2438 
Q 1421 2944 1939 2944 
Q 2406 2944 2707 2560 
Q 3008 2176 3008 1581 
Q 3008 883 2621 409 
Q 2234 -64 1664 -64 
Q 1466 -64 1328 -6 
Q 1190 51 1018 211 
L 1018 -794 
Q 1018 -1094 1120 -1180 
Q 1222 -1267 1581 -1274 
L 1581 -1389 
L 32 -1389 
L 32 -1280 
Q 314 -1254 397 -1171 
Q 480 -1088 480 -838 
L 480 2157 
Q 480 2381 429 2451 
Q 378 2522 218 2522 
Q 115 2522 58 2515 
L 58 2618 
Q 506 2752 979 2944 
L 1018 2931 
z
M 1018 2138 
L 1018 563 
Q 1018 422 1238 281 
Q 1459 141 1683 141 
Q 2029 141 2243 467 
Q 2458 794 2458 1325 
Q 2458 1888 2243 2224 
Q 2029 2560 1670 2560 
Q 1446 2560 1232 2419 
Q 1018 2278 1018 2138 
z
" transform="scale(0.015625)"/>
       <path id="STIXGeneral-Regular-6e" d="M 3104 0 
L 1773 0 
L 1779 96 
Q 2016 115 2096 233 
Q 2176 352 2176 672 
L 2176 1946 
Q 2176 2592 1709 2592 
Q 1549 2592 1408 2515 
Q 1267 2438 1050 2227 
L 1050 461 
Q 1050 269 1136 192 
Q 1222 115 1466 96 
L 1466 0 
L 115 0 
L 115 96 
Q 358 115 435 214 
Q 512 314 512 602 
L 512 2157 
Q 512 2394 467 2483 
Q 422 2573 288 2573 
Q 160 2573 102 2547 
L 102 2656 
Q 550 2784 979 2944 
L 1030 2925 
L 1030 2426 
L 1037 2426 
Q 1491 2944 1958 2944 
Q 2323 2944 2518 2688 
Q 2714 2432 2714 1958 
L 2714 544 
Q 2714 288 2790 205 
Q 2867 122 3104 96 
L 3104 0 
z
" transform="scale(0.015625)"/>
       <path id="STIXGeneral-Regular-64" d="M 3142 269 
L 2202 -64 
L 2176 -45 
L 2176 365 
Q 1869 -64 1357 -64 
Q 826 -64 499 317 
Q 173 698 173 1312 
Q 173 1990 563 2467 
Q 954 2944 1504 2944 
Q 1850 2944 2176 2669 
L 2176 3667 
Q 2176 3866 2118 3930 
Q 2061 3994 1882 3994 
Q 1792 3994 1741 3987 
L 1741 4090 
Q 2323 4243 2682 4371 
L 2714 4358 
L 2714 730 
Q 2714 506 2768 435 
Q 2822 365 2995 365 
Q 3034 365 3142 371 
L 3142 269 
z
M 2176 653 
L 2176 2125 
Q 2176 2381 1981 2573 
Q 1786 2765 1523 2765 
Q 1158 2765 940 2438 
Q 723 2112 723 1568 
Q 723 979 963 624 
Q 1203 269 1606 269 
Q 1907 269 2080 474 
Q 2176 582 2176 653 
z
" transform="scale(0.015625)"/>
       <path id="STIXGeneral-Regular-69" d="M 1152 4045 
Q 1152 3904 1056 3811 
Q 960 3718 819 3718 
Q 685 3718 592 3811 
Q 499 3904 499 4045 
Q 499 4179 595 4275 
Q 691 4371 826 4371 
Q 966 4371 1059 4275 
Q 1152 4179 1152 4045 
z
M 1619 0 
L 102 0 
L 102 96 
Q 435 115 521 211 
Q 608 307 608 666 
L 608 2118 
Q 608 2342 563 2432 
Q 518 2522 397 2522 
Q 243 2522 128 2490 
L 128 2592 
L 1120 2944 
L 1146 2918 
L 1146 672 
Q 1146 314 1226 218 
Q 1306 122 1619 96 
L 1619 0 
z
" transform="scale(0.015625)"/>
       <path id="STIXGeneral-Regular-67" d="M 3008 2483 
L 2477 2483 
Q 2598 2208 2598 1946 
Q 2598 1453 2265 1203 
Q 1933 954 1600 954 
Q 1530 954 1357 973 
L 1235 986 
Q 1107 947 979 812 
Q 851 678 851 582 
Q 851 435 1350 410 
L 2176 371 
Q 2528 358 2739 172 
Q 2950 -13 2950 -314 
Q 2950 -685 2566 -986 
Q 2035 -1395 1286 -1395 
Q 826 -1395 502 -1212 
Q 179 -1030 179 -774 
Q 179 -595 320 -419 
Q 461 -243 806 6 
Q 602 102 534 172 
Q 467 243 467 346 
Q 467 531 762 787 
Q 909 915 1037 1043 
Q 717 1203 579 1401 
Q 442 1600 442 1901 
Q 442 2336 752 2640 
Q 1062 2944 1510 2944 
Q 1766 2944 2022 2848 
L 2163 2797 
Q 2349 2733 2515 2733 
L 3008 2733 
L 3008 2483 
z
M 973 2163 
L 973 2144 
Q 973 1683 1155 1398 
Q 1338 1114 1632 1114 
Q 1850 1114 1978 1270 
Q 2106 1427 2106 1690 
Q 2106 2112 1914 2464 
Q 1754 2765 1446 2765 
Q 1222 2765 1097 2605 
Q 973 2445 973 2163 
z
M 2771 -410 
Q 2771 -230 2595 -163 
Q 2419 -96 1978 -96 
Q 1344 -96 941 -13 
Q 749 -243 688 -348 
Q 627 -454 627 -563 
Q 627 -774 880 -902 
Q 1133 -1030 1555 -1030 
Q 2099 -1030 2435 -860 
Q 2771 -691 2771 -410 
z
" transform="scale(0.015625)"/>
       <path id="STIXGeneral-Regular-41" d="M 4525 0 
L 2893 0 
L 2893 122 
Q 3149 122 3245 179 
Q 3334 224 3334 333 
Q 3334 499 3213 781 
L 2950 1382 
L 1274 1382 
L 979 653 
Q 922 506 922 384 
Q 922 237 1027 179 
Q 1133 122 1370 122 
L 1370 0 
L 96 0 
L 96 122 
Q 365 147 486 316 
Q 608 486 902 1190 
L 2221 4314 
L 2349 4314 
L 3923 710 
Q 4064 378 4176 262 
Q 4288 147 4525 122 
L 4525 0 
z
M 2861 1645 
L 2118 3405 
L 1382 1645 
L 2861 1645 
z
" transform="scale(0.015625)"/>
       <path id="STIXGeneral-Regular-76" d="M 3053 2880 
L 3053 2784 
Q 2906 2771 2835 2688 
Q 2765 2605 2637 2285 
L 1818 230 
Q 1690 -90 1638 -90 
Q 1587 -90 1523 77 
Q 1510 96 1497 141 
Q 1485 186 1472 211 
L 704 2048 
Q 499 2534 403 2652 
Q 307 2771 122 2784 
L 122 2880 
L 1376 2880 
L 1376 2784 
Q 1210 2771 1146 2732 
Q 1082 2694 1082 2611 
Q 1082 2509 1139 2368 
L 1792 730 
L 2426 2387 
Q 2464 2483 2464 2579 
Q 2464 2758 2163 2784 
L 2163 2880 
L 3053 2880 
z
" transform="scale(0.015625)"/>
       <path id="STIXGeneral-Regular-72" d="M 1024 2931 
L 1024 2342 
Q 1267 2688 1430 2816 
Q 1594 2944 1792 2944 
Q 1958 2944 2051 2854 
Q 2144 2765 2144 2605 
Q 2144 2470 2077 2393 
Q 2010 2317 1894 2317 
Q 1773 2317 1638 2445 
Q 1536 2541 1472 2541 
Q 1338 2541 1181 2355 
Q 1024 2170 1024 2016 
L 1024 576 
Q 1024 301 1133 205 
Q 1242 109 1568 96 
L 1568 0 
L 32 0 
L 32 96 
Q 339 154 412 224 
Q 486 294 486 538 
L 486 2138 
Q 486 2349 438 2435 
Q 390 2522 269 2522 
Q 166 2522 45 2496 
L 45 2598 
Q 448 2726 992 2944 
L 1024 2931 
z
" transform="scale(0.015625)"/>
      </defs>
      <use xlink:href="#STIXGeneral-Regular-45"/>
      <use xlink:href="#STIXGeneral-Regular-78" transform="translate(61.099991 0)"/>
      <use xlink:href="#STIXGeneral-Regular-70" transform="translate(111.099976 0)"/>
      <use xlink:href="#STIXGeneral-Regular-61" transform="translate(161.09996 0)"/>
      <use xlink:href="#STIXGeneral-Regular-6e" transform="translate(205.499954 0)"/>
      <use xlink:href="#STIXGeneral-Regular-64" transform="translate(255.499939 0)"/>
      <use xlink:href="#STIXGeneral-Regular-69" transform="translate(305.499924 0)"/>
      <use xlink:href="#STIXGeneral-Regular-6e" transform="translate(333.299911 0)"/>
      <use xlink:href="#STIXGeneral-Regular-67" transform="translate(383.299896 0)"/>
      <use xlink:href="#STIXGeneral-Regular-20" transform="translate(433.299881 0)"/>
      <use xlink:href="#STIXGeneral-Regular-41" transform="translate(458.299866 0)"/>
      <use xlink:href="#STIXGeneral-Regular-76" transform="translate(530.499847 0)"/>
      <use xlink:href="#STIXGeneral-Regular-65" transform="translate(580.499832 0)"/>
      <use xlink:href="#STIXGeneral-Regular-72" transform="translate(624.899826 0)"/>
      <use xlink:href="#STIXGeneral-Regular-61" transform="translate(658.199814 0)"/>
      <use xlink:href="#STIXGeneral-Regular-67" transform="translate(702.599808 0)"/>
      <use xlink:href="#STIXGeneral-Regular-65" transform="translate(752.599792 0)"/>
     </g>
    </g>
    <g id="line2d_24">
     <path d="M 47.04875 44.05 
L 57.04875 44.05 
L 67.04875 44.05 
" style="fill: none; stroke-dasharray: 7.4,3.2; stroke-dashoffset: 0; stroke: #b3de69; stroke-width: 2"/>
    </g>
    <g id="text_22">
     <!-- EWMA ($\alpha=$0.03) -->
     <g style="fill: #323034" transform="translate(75.04875 47.55) scale(0.1 -0.1)">
      <defs>
       <path id="STIXGeneral-Regular-57" d="M 5965 4237 
L 5965 4115 
Q 5709 4064 5616 3990 
Q 5523 3917 5434 3667 
Q 4704 1709 4128 -70 
L 4032 -70 
Q 3642 1011 3008 2637 
L 2022 -70 
L 1926 -70 
Q 1709 576 1277 1753 
Q 845 2931 698 3347 
Q 538 3808 406 3958 
Q 275 4109 32 4115 
L 32 4237 
L 1594 4237 
L 1594 4115 
Q 1357 4109 1270 4064 
Q 1184 4019 1184 3917 
Q 1184 3808 1254 3616 
L 2176 1210 
L 2842 3021 
L 2662 3501 
Q 2509 3917 2400 4013 
Q 2291 4109 2010 4115 
L 2010 4237 
L 3706 4237 
L 3706 4115 
Q 3213 4102 3213 3891 
Q 3213 3808 3322 3520 
L 4237 1190 
L 5043 3360 
Q 5152 3667 5152 3853 
Q 5152 4109 4704 4115 
L 4704 4237 
L 5965 4237 
z
" transform="scale(0.015625)"/>
       <path id="STIXGeneral-Regular-4d" d="M 5530 0 
L 3738 0 
L 3738 122 
Q 4115 147 4214 265 
Q 4314 384 4314 787 
L 4314 3661 
L 2682 0 
L 2592 0 
L 979 3514 
L 979 966 
Q 979 448 1088 294 
Q 1197 141 1574 122 
L 1574 0 
L 77 0 
L 77 122 
Q 358 141 480 205 
Q 602 269 650 432 
Q 698 595 698 966 
L 698 3514 
Q 698 3878 589 3984 
Q 480 4090 90 4115 
L 90 4237 
L 1357 4237 
L 2835 1024 
L 4250 4237 
L 5523 4237 
L 5523 4115 
Q 5178 4109 5072 3993 
Q 4966 3878 4966 3520 
L 4966 717 
Q 4966 378 5072 262 
Q 5178 147 5530 122 
L 5530 0 
z
" transform="scale(0.015625)"/>
       <path id="STIXGeneral-Italic-3b1" d="M 3514 2739 
L 2605 1069 
L 2605 954 
Q 2605 704 2662 512 
Q 2720 320 2822 320 
Q 2970 320 3149 794 
L 3251 749 
Q 3014 -58 2605 -58 
Q 2291 -58 2272 614 
Q 1709 -70 1030 -70 
Q 589 -70 381 198 
Q 173 467 173 902 
Q 173 1293 329 1673 
Q 486 2054 755 2330 
Q 973 2547 1270 2684 
Q 1568 2822 1862 2822 
Q 2246 2822 2457 2595 
Q 2669 2368 2669 2061 
L 2963 2739 
L 3514 2739 
z
M 2298 1741 
Q 2298 2688 1805 2688 
Q 1472 2688 1085 2099 
Q 698 1510 698 800 
Q 698 493 806 278 
Q 915 64 1139 64 
Q 1606 64 2195 1286 
Q 2202 1325 2230 1411 
Q 2259 1498 2278 1581 
Q 2298 1664 2298 1741 
z
" transform="scale(0.015625)"/>
       <path id="STIXGeneral-Regular-3d" d="M 4077 2048 
L 307 2048 
L 307 2470 
L 4077 2470 
L 4077 2048 
z
M 4077 768 
L 307 768 
L 307 1190 
L 4077 1190 
L 4077 768 
z
" transform="scale(0.015625)"/>
       <path id="STIXGeneral-Regular-2e" d="M 1158 275 
Q 1158 134 1052 32 
Q 947 -70 800 -70 
Q 653 -70 550 32 
Q 448 134 448 281 
Q 448 429 553 534 
Q 659 640 806 640 
Q 947 640 1052 531 
Q 1158 422 1158 275 
z
" transform="scale(0.015625)"/>
      </defs>
      <use xlink:href="#STIXGeneral-Regular-45" transform="translate(0 0.40625)"/>
      <use xlink:href="#STIXGeneral-Regular-57" transform="translate(61.099991 0.40625)"/>
      <use xlink:href="#STIXGeneral-Regular-4d" transform="translate(155.499985 0.40625)"/>
      <use xlink:href="#STIXGeneral-Regular-41" transform="translate(244.399979 0.40625)"/>
      <use xlink:href="#STIXGeneral-Regular-20" transform="translate(316.59996 0.40625)"/>
      <use xlink:href="#STIXGeneral-Regular-28" transform="translate(341.599945 0.40625)"/>
      <use xlink:href="#STIXGeneral-Italic-3b1" transform="translate(374.899933 0.40625)"/>
      <use xlink:href="#STIXGeneral-Regular-3d" transform="translate(444.539926 0.40625)"/>
      <use xlink:href="#STIXGeneral-Regular-30" transform="translate(527.479907 0.40625)"/>
      <use xlink:href="#STIXGeneral-Regular-2e" transform="translate(577.479892 0.40625)"/>
      <use xlink:href="#STIXGeneral-Regular-30" transform="translate(602.479877 0.40625)"/>
      <use xlink:href="#STIXGeneral-Regular-33" transform="translate(652.479861 0.40625)"/>
      <use xlink:href="#STIXGeneral-Regular-29" transform="translate(702.479846 0.40625)"/>
     </g>
    </g>
    <g id="line2d_25">
     <path d="M 47.04875 57.220312 
L 57.04875 57.220312 
L 67.04875 57.220312 
" style="fill: none; stroke-dasharray: 12.8,3.2,2,3.2; stroke-dashoffset: 0; stroke: #fdb462; stroke-width: 2"/>
    </g>
    <g id="text_23">
     <!-- 28D MA -->
     <g style="fill: #323034" transform="translate(75.04875 60.720312) scale(0.1 -0.1)">
      <use xlink:href="#STIXGeneral-Regular-32"/>
      <use xlink:href="#STIXGeneral-Regular-38" transform="translate(49.999985 0)"/>
      <use xlink:href="#STIXGeneral-Regular-44" transform="translate(99.999969 0)"/>
      <use xlink:href="#STIXGeneral-Regular-20" transform="translate(172.199951 0)"/>
      <use xlink:href="#STIXGeneral-Regular-4d" transform="translate(197.199936 0)"/>
      <use xlink:href="#STIXGeneral-Regular-41" transform="translate(286.09993 0)"/>
     </g>
    </g>
   </g>
  </g>
 </g>
 <defs>
  <clipPath id="pb9417b402a">
   <rect x="40.04875" y="7.2" width="357.12" height="235.008"/>
  </clipPath>
 </defs>
</svg>