<?xml version="1.0" encoding="utf-8" standalone="no"?>
<!DOCTYPE svg PUBLIC "-//W3C//DTD SVG 1.1//EN"
  "http://www.w3.org/Graphics/SVG/1.1/DTD/svg11.dtd">
<svg xmlns:xlink="http://www.w3.org/1999/xlink" width="410.611827pt" height="299.818005pt" viewBox="0 0 410.611827 299.818005" xmlns="http://www.w3.org/2000/svg" version="1.1">
 <metadata>
  <rdf:RDF xmlns:dc="http://purl.org/dc/elements/1.1/" xmlns:cc="http://creativecommons.org/ns#" xmlns:rdf="http://www.w3.org/1999/02/22-rdf-syntax-ns#">
   <cc:Work>
    <dc:type rdf:resource="http://purl.org/dc/dcmitype/StillImage"/>
    <dc:date>2025-01-07T18:15:08.332663</dc:date>
    <dc:format>image/svg+xml</dc:format>
    <dc:creator>
     <cc:Agent>
      <dc:title>Matplotlib v3.10.0, https://matplotlib.org/</dc:title>
     </cc:Agent>
    </dc:creator>
   </cc:Work>
  </rdf:RDF>
 </metadata>
 <defs>
  <style type="text/css">*{stroke-linejoin: round; stroke-linecap: butt}</style>
 </defs>
 <g id="figure_1">
  <g id="patch_1">
   <path d="M 0 299.818005 
L 410.611827 299.818005 
L 410.611827 0 
L 0 0 
z
" style="fill: #ffffff"/>
  </g>
  <g id="axes_1">
   <g id="patch_2">
    <path d="M 46.291827 242.467119 
L 403.411827 242.467119 
L 403.411827 7.459119 
L 46.291827 7.459119 
z
" style="fill: #ffffff"/>
   </g>
   <g id="FillBetweenPolyCollection_1">
    <defs>
     <path id="me07b505eba" d="M 62.524554 -101.511045 
L 62.524554 -68.033069 
L 62.926852 -69.106297 
L 63.32915 -70.255423 
L 64.536044 -71.386816 
L 64.938343 -72.457647 
L 65.340641 -73.462536 
L 65.742939 -74.507986 
L 66.145237 -75.539207 
L 67.754429 -76.668344 
L 68.156727 -77.855589 
L 68.559025 -78.999565 
L 68.961323 -80.211261 
L 70.168217 -81.517529 
L 70.570516 -82.872032 
L 70.972814 -84.283832 
L 71.375112 -85.810293 
L 71.77741 -87.179357 
L 72.984304 -88.629107 
L 73.386602 -90.178082 
L 73.7889 -91.896887 
L 74.191198 -93.835975 
L 74.593496 -94.758225 
L 75.800391 -95.774129 
L 76.202689 -96.777645 
L 76.604987 -97.657885 
L 77.007285 -98.452505 
L 77.409583 -99.229052 
L 78.616477 -99.917486 
L 79.018775 -100.685156 
L 79.421073 -101.349594 
L 79.823371 -101.830695 
L 80.225669 -102.279164 
L 81.432564 -102.699383 
L 81.834862 -103.066031 
L 82.23716 -103.38239 
L 82.639458 -103.706912 
L 83.041756 -104.015236 
L 84.24865 -104.040972 
L 84.650948 -104.06937 
L 85.053246 -104.264192 
L 85.455544 -104.203906 
L 85.857842 -104.140639 
L 87.064737 -104.153645 
L 87.467035 -104.29589 
L 87.869333 -104.651836 
L 88.271631 -105.028875 
L 89.880823 -105.453372 
L 90.283121 -105.84819 
L 90.685419 -106.280026 
L 91.087717 -106.77744 
L 91.490015 -107.170589 
L 92.69691 -107.580548 
L 93.099208 -108.075166 
L 93.501506 -108.486052 
L 93.903804 -109.051031 
L 94.306102 -109.475975 
L 95.512996 -109.995514 
L 95.915294 -110.560541 
L 96.317592 -111.12348 
L 96.71989 -111.481436 
L 97.122188 -111.762072 
L 98.329083 -111.897405 
L 98.731381 -112.119568 
L 99.133679 -112.258651 
L 99.535977 -112.267178 
L 99.938275 -112.176977 
L 101.145169 -112.388488 
L 101.547467 -112.549384 
L 101.949765 -112.777635 
L 102.352063 -113.129689 
L 102.754361 -113.50913 
L 103.961256 -113.942862 
L 104.363554 -114.160138 
L 104.765852 -114.594214 
L 105.16815 -114.937309 
L 105.570448 -115.129306 
L 107.17964 -115.295215 
L 107.581938 -115.384811 
L 107.984236 -115.278488 
L 108.386534 -115.372012 
L 109.593429 -115.522692 
L 109.995727 -115.721519 
L 110.398025 -115.705336 
L 110.800323 -115.751547 
L 111.202621 -115.882774 
L 112.409515 -116.071859 
L 112.811813 -116.140531 
L 113.214111 -116.116253 
L 113.616409 -116.067336 
L 114.018708 -116.022174 
L 115.225602 -116.013615 
L 115.6279 -116.043599 
L 116.030198 -116.069649 
L 116.432496 -116.063133 
L 116.834794 -116.041087 
L 118.041688 -115.955319 
L 118.443986 -115.916948 
L 118.846284 -115.838112 
L 119.248582 -115.811275 
L 119.650881 -115.763117 
L 120.857775 -115.631505 
L 121.662371 -115.457987 
L 122.064669 -115.258172 
L 122.466967 -115.257111 
L 123.673861 -115.212521 
L 124.076159 -115.090486 
L 124.478457 -114.910019 
L 124.880756 -114.78303 
L 125.283054 -114.756723 
L 126.489948 -114.741199 
L 126.892246 -114.893001 
L 127.294544 -115.226067 
L 127.696842 -115.5049 
L 128.09914 -115.929187 
L 129.306034 -116.439366 
L 129.708332 -117.134712 
L 130.11063 -117.490273 
L 130.512929 -117.980756 
L 130.915227 -118.429901 
L 132.122121 -118.941755 
L 132.524419 -119.478273 
L 132.926717 -120.085265 
L 133.329015 -120.918681 
L 133.731313 -121.580553 
L 134.938207 -122.488448 
L 135.340505 -123.402197 
L 135.742803 -124.407592 
L 136.145102 -125.369479 
L 136.5474 -126.567086 
L 137.754294 -127.624626 
L 138.156592 -128.628073 
L 138.55889 -129.538273 
L 138.961188 -130.318805 
L 139.363486 -130.772147 
L 140.57038 -130.9795 
L 140.972678 -131.342738 
L 141.374977 -131.730655 
L 141.777275 -131.968861 
L 142.179573 -132.337348 
L 143.386467 -132.701075 
L 143.788765 -132.933004 
L 144.191063 -133.03985 
L 144.593361 -133.213243 
L 144.995659 -133.665221 
L 146.604851 -134.291434 
L 147.00715 -135.061879 
L 147.409448 -135.723688 
L 147.811746 -135.694289 
L 149.01864 -135.818061 
L 149.420938 -135.98245 
L 149.823236 -136.035423 
L 150.225534 -136.042167 
L 150.627832 -135.880906 
L 151.834726 -135.939404 
L 152.237025 -135.870153 
L 152.639323 -135.780601 
L 153.041621 -135.649321 
L 153.443919 -135.572093 
L 154.650813 -135.607702 
L 155.053111 -135.528202 
L 155.455409 -135.366297 
L 155.857707 -135.292585 
L 156.260005 -135.183284 
L 157.466899 -134.869253 
L 157.869198 -134.506497 
L 158.271496 -134.16608 
L 158.673794 -133.78635 
L 159.076092 -133.503549 
L 160.282986 -133.300986 
L 160.685284 -133.169415 
L 161.087582 -133.197286 
L 161.48988 -133.282619 
L 161.892178 -133.373861 
L 163.099073 -133.611031 
L 163.501371 -133.74078 
L 163.903669 -133.863213 
L 164.305967 -134.026403 
L 164.708265 -134.296553 
L 165.915159 -134.534107 
L 166.317457 -134.874008 
L 166.719755 -135.236749 
L 167.122053 -135.791662 
L 167.524351 -136.581429 
L 168.731246 -137.526419 
L 169.133544 -138.6377 
L 169.535842 -139.524706 
L 169.93814 -140.347444 
L 170.340438 -141.287694 
L 171.547332 -142.213239 
L 171.94963 -143.203274 
L 172.351928 -144.170425 
L 172.754226 -145.284459 
L 173.156524 -146.247951 
L 174.363419 -147.253514 
L 174.765717 -148.26131 
L 175.168015 -149.309032 
L 175.570313 -150.338418 
L 175.972611 -151.479337 
L 177.179505 -152.493818 
L 177.581803 -153.229853 
L 177.984101 -153.943087 
L 178.788697 -154.691626 
L 179.995592 -156.045915 
L 180.39789 -157.459864 
L 180.800188 -159.017104 
L 181.202486 -160.585801 
L 181.604784 -162.472507 
L 182.811678 -164.447477 
L 183.213976 -165.511672 
L 183.616274 -166.076756 
L 184.018572 -166.351941 
L 184.42087 -166.944 
L 185.627765 -167.28329 
L 186.030063 -167.261283 
L 186.432361 -167.231199 
L 186.834659 -167.239647 
L 187.236957 -167.230575 
L 188.443851 -167.213405 
L 188.846149 -167.065027 
L 189.248447 -166.957813 
L 189.650745 -166.668987 
L 190.053043 -166.446931 
L 191.662236 -166.128605 
L 192.064534 -165.918055 
L 192.466832 -164.708819 
L 192.86913 -162.767785 
L 194.478322 -161.96107 
L 194.88062 -160.740418 
L 195.282918 -158.975617 
L 195.685216 -157.647698 
L 196.892111 -157.218025 
L 197.294409 -156.84232 
L 197.696707 -156.702088 
L 198.099005 -156.825986 
L 198.501303 -156.946961 
L 200.110495 -157.084717 
L 200.512793 -157.185708 
L 200.915091 -157.326652 
L 201.31739 -157.383552 
L 202.524284 -157.454132 
L 202.926582 -157.524653 
L 203.32888 -157.608437 
L 203.731178 -157.639315 
L 204.133476 -157.642485 
L 205.34037 -157.675085 
L 205.742668 -157.712587 
L 206.144966 -157.724363 
L 206.547264 -157.751221 
L 206.949563 -157.908993 
L 208.156457 -158.051719 
L 208.558755 -158.220166 
L 208.961053 -158.506686 
L 209.363351 -158.652783 
L 209.765649 -158.80505 
L 210.972543 -158.892625 
L 211.374841 -158.916317 
L 211.777139 -158.825397 
L 212.179437 -158.61555 
L 212.581736 -158.145505 
L 214.190928 -158.093488 
L 214.593226 -157.805663 
L 214.995524 -157.422014 
L 215.397822 -157.109202 
L 216.604716 -156.742244 
L 217.007014 -156.489206 
L 217.409312 -156.391035 
L 217.811611 -156.331918 
L 218.213909 -156.139359 
L 219.420803 -156.123486 
L 219.823101 -156.199327 
L 220.225399 -156.426826 
L 220.627697 -156.762198 
L 221.029995 -157.086145 
L 222.236889 -157.412636 
L 222.639187 -158.394045 
L 223.041485 -159.936029 
L 223.443784 -160.652733 
L 223.846082 -161.382611 
L 225.052976 -162.766928 
L 225.455274 -163.673139 
L 225.857572 -163.783183 
L 226.25987 -163.769736 
L 226.662168 -163.258099 
L 227.869062 -162.749345 
L 228.27136 -162.575972 
L 228.673659 -162.699948 
L 229.075957 -162.868405 
L 230.685149 -162.864178 
L 231.087447 -162.744662 
L 231.489745 -162.575825 
L 231.892043 -162.374583 
L 232.294341 -162.072775 
L 233.501235 -161.939939 
L 233.903533 -161.842852 
L 234.305832 -161.82406 
L 234.70813 -161.781129 
L 235.110428 -161.857294 
L 236.317322 -161.907577 
L 236.71962 -161.875428 
L 237.121918 -161.842655 
L 237.524216 -161.819873 
L 237.926514 -161.852882 
L 239.133408 -161.889447 
L 239.535707 -161.972607 
L 239.938005 -162.178859 
L 240.340303 -162.410432 
L 240.742601 -162.837206 
L 241.949495 -163.436881 
L 242.351793 -164.378672 
L 242.754091 -164.771241 
L 243.156389 -165.537468 
L 243.558687 -166.537554 
L 244.765581 -167.476549 
L 245.16788 -168.553946 
L 245.570178 -169.535211 
L 245.972476 -170.289259 
L 246.374774 -170.972283 
L 247.581668 -172.048388 
L 247.983966 -172.954186 
L 248.386264 -173.634395 
L 248.788562 -174.371979 
L 249.19086 -174.976808 
L 250.397754 -175.447109 
L 250.800053 -175.929948 
L 251.202351 -176.247659 
L 251.604649 -176.639396 
L 252.006947 -177.409668 
L 253.616139 -179.008297 
L 254.018437 -180.63491 
L 254.420735 -182.748612 
L 254.823033 -184.989114 
L 256.029928 -187.380824 
L 256.432226 -190.427647 
L 256.834524 -193.268799 
L 257.236822 -195.791231 
L 257.63912 -197.102068 
L 258.846014 -198.505072 
L 259.248312 -198.927328 
L 259.65061 -199.232032 
L 260.052908 -199.466799 
L 260.455206 -199.618407 
L 261.662101 -199.647203 
L 262.064399 -199.687632 
L 262.466697 -199.703561 
L 262.868995 -199.863442 
L 263.271293 -199.952474 
L 264.478187 -200.089509 
L 264.880485 -200.288045 
L 265.282783 -199.947363 
L 265.685081 -199.17233 
L 266.087379 -198.581226 
L 267.294274 -198.129016 
L 267.696572 -197.978633 
L 268.501168 -197.961845 
L 268.903466 -197.967467 
L 270.11036 -198.143197 
L 270.512658 -198.132033 
L 270.914956 -198.076433 
L 271.317254 -198.007218 
L 271.719552 -197.834405 
L 272.926447 -197.541678 
L 273.328745 -197.563911 
L 273.731043 -197.715425 
L 274.133341 -197.886044 
L 274.535639 -198.19337 
L 275.742533 -198.540308 
L 276.144831 -199.025525 
L 276.547129 -199.539069 
L 276.949427 -200.252549 
L 277.351725 -200.935281 
L 278.55862 -201.715163 
L 278.960918 -202.644897 
L 279.363216 -204.006496 
L 279.765514 -205.367944 
L 280.167812 -206.868114 
L 281.374706 -208.33948 
L 281.777004 -209.867918 
L 282.179302 -211.314895 
L 282.5816 -213.091492 
L 282.983898 -214.852178 
L 284.190793 -216.444133 
L 284.593091 -217.849262 
L 284.995389 -219.329479 
L 285.397687 -221.13121 
L 285.799985 -222.653552 
L 287.006879 -224.237554 
L 287.409177 -225.936886 
L 287.811475 -227.641573 
L 288.213773 -229.556036 
L 288.616071 -231.393844 
L 289.822966 -233.369536 
L 290.225264 -235.411973 
L 290.627562 -237.355453 
L 291.02986 -239.255698 
L 291.432158 -241.333655 
L 293.04135 -243.994534 
L 293.443648 -247.071056 
L 293.845946 -250.154051 
L 294.248245 -251.515156 
L 295.455139 -252.525717 
L 295.857437 -253.334697 
L 296.259735 -254.230441 
L 296.662033 -255.371598 
L 297.064331 -256.295577 
L 298.271225 -257.236029 
L 298.673523 -258.360958 
L 299.075821 -259.435971 
L 299.478119 -260.013421 
L 299.880418 -260.880507 
L 301.087312 -261.166907 
L 301.48961 -260.66629 
L 301.891908 -260.457966 
L 302.294206 -260.74448 
L 302.696504 -261.187212 
L 303.903398 -260.213909 
L 304.305696 -258.295409 
L 304.707994 -256.783147 
L 305.110293 -256.045466 
L 305.512591 -255.15024 
L 306.719485 -253.800978 
L 307.121783 -251.02887 
L 307.524081 -248.200856 
L 307.926379 -244.727505 
L 308.328677 -242.270263 
L 309.535571 -240.265812 
L 309.937869 -237.424369 
L 310.340167 -233.348915 
L 310.742466 -229.608116 
L 311.144764 -225.424078 
L 312.351658 -221.863646 
L 312.753956 -218.549958 
L 313.156254 -216.167761 
L 313.558552 -213.72501 
L 313.96085 -211.248163 
L 315.167744 -209.502044 
L 315.570042 -206.990286 
L 315.972341 -204.361198 
L 316.374639 -201.182063 
L 316.776937 -198.256279 
L 317.983831 -195.367983 
L 318.386129 -192.677472 
L 318.788427 -190.330885 
L 319.190725 -187.633406 
L 319.593023 -184.853792 
L 320.799917 -182.380465 
L 321.202215 -179.50945 
L 321.604514 -176.421622 
L 322.006812 -172.69621 
L 322.40911 -168.703432 
L 323.616004 -166.067435 
L 324.018302 -163.410086 
L 324.4206 -160.970415 
L 325.225196 -158.797581 
L 326.43209 -156.678786 
L 326.834388 -153.196 
L 327.236687 -150.585262 
L 327.638985 -148.193758 
L 328.041283 -146.026889 
L 329.248177 -144.381609 
L 329.650475 -142.829279 
L 330.455071 -141.181013 
L 330.857369 -139.525065 
L 332.064263 -138.54909 
L 332.466562 -138.1759 
L 332.86886 -137.335533 
L 333.271158 -136.48693 
L 333.673456 -135.586796 
L 334.88035 -135.230143 
L 335.282648 -135.003962 
L 335.684946 -135.126058 
L 336.087244 -134.761352 
L 336.489542 -134.330418 
L 337.696436 -134.317885 
L 338.501033 -134.620814 
L 338.903331 -135.191257 
L 339.305629 -135.495691 
L 340.512523 -135.528522 
L 341.317119 -135.559147 
L 341.719417 -135.555707 
L 342.121715 -135.564821 
L 343.32861 -135.567383 
L 343.730908 -135.73472 
L 344.133206 -135.872056 
L 344.535504 -135.992637 
L 344.937802 -136.440068 
L 346.144696 -136.537377 
L 346.546994 -136.572534 
L 346.949292 -136.56611 
L 347.35159 -136.533278 
L 347.753888 -136.485569 
L 349.363081 -136.440848 
L 349.765379 -136.387236 
L 350.167677 -136.428518 
L 350.569975 -136.496586 
L 351.776869 -136.509499 
L 352.179167 -136.724506 
L 352.581465 -137.196762 
L 352.983763 -138.165648 
L 353.386061 -139.555441 
L 354.592956 -140.04327 
L 354.995254 -140.60425 
L 355.397552 -141.198145 
L 355.79985 -141.691307 
L 356.202148 -142.166537 
L 357.409042 -144.206272 
L 357.81134 -145.717993 
L 358.213638 -147.328152 
L 358.615936 -148.463819 
L 359.018234 -149.653022 
L 360.627427 -150.959047 
L 361.029725 -152.542054 
L 361.432023 -154.447239 
L 361.834321 -156.105085 
L 363.041215 -157.631804 
L 363.443513 -159.126328 
L 363.845811 -160.544428 
L 364.248109 -162.433718 
L 364.650407 -164.372363 
L 365.857302 -166.565481 
L 366.2596 -168.15541 
L 366.661898 -170.088983 
L 367.064196 -172.348589 
L 367.466494 -173.545654 
L 368.673388 -174.713658 
L 369.075686 -175.949119 
L 369.477984 -176.82312 
L 369.880282 -177.425773 
L 370.28258 -178.078767 
L 371.489475 -179.063943 
L 371.891773 -180.02511 
L 372.294071 -181.191416 
L 372.696369 -182.364321 
L 373.098667 -183.702255 
L 374.305561 -185.052612 
L 374.707859 -186.544631 
L 375.110157 -187.902122 
L 375.512455 -189.287004 
L 375.914753 -190.801796 
L 377.121648 -192.294641 
L 377.523946 -193.771946 
L 377.926244 -195.300959 
L 378.328542 -196.815155 
L 378.73084 -198.525971 
L 379.937734 -199.550069 
L 380.340032 -200.691952 
L 380.74233 -202.032775 
L 381.144628 -203.501374 
L 381.546927 -205.239167 
L 382.753821 -206.526076 
L 383.156119 -207.365991 
L 383.558417 -207.636666 
L 383.960715 -207.484564 
L 385.569907 -207.045512 
L 385.972205 -206.312406 
L 386.374503 -205.34879 
L 386.776801 -204.627867 
L 387.1791 -203.43056 
L 387.1791 -240.638934 
L 387.1791 -240.638934 
L 386.776801 -240.414768 
L 386.374503 -240.284831 
L 385.972205 -240.101811 
L 385.569907 -239.933216 
L 383.960715 -239.813668 
L 383.558417 -239.768025 
L 383.156119 -239.838777 
L 382.753821 -240.019671 
L 381.546927 -240.453772 
L 381.144628 -240.841889 
L 380.74233 -241.033971 
L 380.340032 -241.111531 
L 379.937734 -241.192261 
L 378.73084 -241.317489 
L 378.328542 -241.085944 
L 377.926244 -240.573976 
L 377.523946 -239.864041 
L 377.121648 -239.096553 
L 375.914753 -237.807125 
L 375.512455 -236.132681 
L 375.110157 -234.608885 
L 374.707859 -232.862346 
L 374.305561 -231.984474 
L 373.098667 -230.685067 
L 372.696369 -229.34872 
L 372.294071 -227.8257 
L 371.891773 -226.035306 
L 371.489475 -224.092268 
L 370.28258 -222.388015 
L 369.880282 -220.661716 
L 369.477984 -218.937016 
L 369.075686 -217.559467 
L 368.673388 -216.174839 
L 367.466494 -214.746324 
L 367.064196 -213.246322 
L 366.661898 -211.854655 
L 366.2596 -210.349481 
L 365.857302 -208.567389 
L 364.650407 -207.237239 
L 364.248109 -205.850319 
L 363.845811 -204.392759 
L 363.443513 -202.841525 
L 363.041215 -201.510847 
L 361.834321 -200.243344 
L 361.432023 -199.055682 
L 361.029725 -197.895783 
L 360.627427 -196.723972 
L 359.018234 -195.238354 
L 358.615936 -193.418331 
L 358.213638 -191.028215 
L 357.81134 -189.434317 
L 357.409042 -187.89682 
L 356.202148 -186.29697 
L 355.79985 -184.509061 
L 355.397552 -182.91289 
L 354.995254 -181.457051 
L 354.592956 -180.023796 
L 353.386061 -178.755605 
L 352.983763 -178.052801 
L 352.581465 -177.263807 
L 352.179167 -176.297035 
L 351.776869 -175.30937 
L 350.569975 -174.500032 
L 350.167677 -173.648794 
L 349.765379 -173.032948 
L 349.363081 -172.615303 
L 347.753888 -172.104595 
L 347.35159 -171.562595 
L 346.949292 -171.208953 
L 346.546994 -170.945215 
L 346.144696 -171.130673 
L 344.937802 -171.622311 
L 344.535504 -173.135758 
L 344.133206 -173.806128 
L 343.730908 -174.617013 
L 343.32861 -175.511797 
L 342.121715 -175.83321 
L 341.719417 -176.11162 
L 341.317119 -176.212647 
L 340.512523 -176.44251 
L 339.305629 -176.694361 
L 338.903331 -178.138624 
L 338.501033 -180.816812 
L 337.696436 -183.066575 
L 336.489542 -184.736118 
L 336.087244 -187.23544 
L 335.684946 -189.826815 
L 335.282648 -193.594405 
L 334.88035 -197.721675 
L 333.673456 -201.681486 
L 333.271158 -204.66441 
L 332.86886 -207.256547 
L 332.466562 -210.389209 
L 332.064263 -215.204975 
L 330.857369 -219.303174 
L 330.455071 -222.528201 
L 329.650475 -225.501311 
L 329.248177 -228.768746 
L 328.041283 -232.252418 
L 327.638985 -235.049413 
L 327.236687 -238.434947 
L 326.834388 -241.413567 
L 326.43209 -243.88995 
L 325.225196 -246.247158 
L 324.4206 -248.966563 
L 324.018302 -251.610696 
L 323.616004 -253.671844 
L 322.40911 -256.042933 
L 322.006812 -257.267481 
L 321.604514 -258.605795 
L 321.202215 -260.922908 
L 320.799917 -262.899635 
L 319.593023 -264.910441 
L 319.190725 -267.068215 
L 318.788427 -269.504846 
L 318.386129 -271.647518 
L 317.983831 -273.433043 
L 316.776937 -274.940148 
L 316.374639 -276.273013 
L 315.972341 -277.086267 
L 315.570042 -278.102281 
L 315.167744 -278.970541 
L 313.96085 -279.727443 
L 313.558552 -280.424619 
L 313.156254 -280.952867 
L 312.753956 -281.422185 
L 312.351658 -281.454368 
L 311.144764 -281.676705 
L 310.742466 -281.65501 
L 310.340167 -281.310422 
L 309.937869 -280.832636 
L 309.535571 -280.465583 
L 308.328677 -280.569237 
L 307.926379 -280.525076 
L 307.524081 -280.117397 
L 307.121783 -280.047825 
L 306.719485 -279.824507 
L 305.512591 -280.017336 
L 305.110293 -280.191717 
L 304.707994 -280.212399 
L 304.305696 -279.801901 
L 303.903398 -279.015787 
L 302.696504 -278.663766 
L 302.294206 -278.549038 
L 301.891908 -278.537953 
L 301.48961 -278.496939 
L 301.087312 -278.409683 
L 299.880418 -278.463253 
L 299.478119 -278.587451 
L 299.075821 -278.750201 
L 298.673523 -278.746629 
L 298.271225 -278.852355 
L 297.064331 -278.924852 
L 296.662033 -279.109501 
L 296.259735 -279.097673 
L 295.857437 -278.920675 
L 295.455139 -278.944555 
L 294.248245 -278.755023 
L 293.845946 -279.056216 
L 293.443648 -280.059607 
L 293.04135 -280.210051 
L 291.432158 -280.269874 
L 291.02986 -279.954369 
L 290.627562 -279.220652 
L 290.225264 -278.072343 
L 289.822966 -277.134804 
L 288.616071 -276.274422 
L 288.213773 -275.42698 
L 287.811475 -274.602719 
L 287.409177 -274.003656 
L 287.006879 -273.220567 
L 285.799985 -272.462099 
L 285.397687 -271.864128 
L 284.995389 -271.114784 
L 284.593091 -270.364017 
L 284.190793 -269.56699 
L 282.983898 -268.781969 
L 282.5816 -267.5031 
L 282.179302 -265.925077 
L 281.777004 -264.685564 
L 281.374706 -263.150224 
L 280.167812 -262.018575 
L 279.765514 -260.57876 
L 279.363216 -258.883253 
L 278.960918 -256.719103 
L 278.55862 -254.21936 
L 277.351725 -251.670445 
L 276.949427 -249.30595 
L 276.547129 -247.069748 
L 276.144831 -245.125388 
L 275.742533 -243.297486 
L 274.535639 -241.621166 
L 274.133341 -239.950416 
L 273.731043 -238.296362 
L 273.328745 -236.5442 
L 272.926447 -234.66798 
L 271.719552 -232.447778 
L 271.317254 -230.718901 
L 270.914956 -229.280358 
L 270.512658 -227.778972 
L 270.11036 -226.269169 
L 268.903466 -224.786262 
L 268.501168 -223.13488 
L 267.696572 -221.618147 
L 267.294274 -220.032555 
L 266.087379 -217.958206 
L 265.685081 -215.84584 
L 265.282783 -213.503448 
L 264.880485 -212.087119 
L 264.478187 -211.977315 
L 263.271293 -211.888375 
L 262.868995 -211.758844 
L 262.466697 -211.314842 
L 262.064399 -210.814281 
L 261.662101 -210.513529 
L 260.455206 -210.361827 
L 260.052908 -210.139999 
L 259.65061 -209.867907 
L 259.248312 -209.711195 
L 258.846014 -209.488238 
L 257.63912 -209.74952 
L 257.236822 -209.861928 
L 256.834524 -210.6335 
L 256.432226 -211.674234 
L 256.029928 -212.501141 
L 254.823033 -212.800906 
L 254.420735 -213.108155 
L 254.018437 -213.429765 
L 253.616139 -213.561264 
L 252.006947 -213.446477 
L 251.604649 -213.211388 
L 251.202351 -212.95664 
L 250.800053 -212.764619 
L 250.397754 -212.528401 
L 249.19086 -212.371249 
L 248.788562 -212.087492 
L 248.386264 -211.764249 
L 247.983966 -211.367864 
L 247.581668 -211.011019 
L 246.374774 -210.457836 
L 245.972476 -209.84629 
L 245.570178 -209.06099 
L 245.16788 -208.261784 
L 244.765581 -207.307501 
L 243.558687 -206.380558 
L 243.156389 -205.37606 
L 242.754091 -204.144786 
L 242.351793 -202.842286 
L 241.949495 -201.538305 
L 240.742601 -200.307235 
L 240.340303 -199.211767 
L 239.938005 -198.491518 
L 239.535707 -197.700473 
L 239.133408 -196.967227 
L 237.926514 -196.181345 
L 237.524216 -195.409536 
L 237.121918 -194.682518 
L 236.71962 -194.172921 
L 236.317322 -193.493666 
L 235.110428 -192.764367 
L 234.70813 -191.862267 
L 234.305832 -190.872998 
L 233.903533 -190.055559 
L 233.501235 -188.980828 
L 232.294341 -187.743388 
L 231.892043 -186.523905 
L 231.489745 -185.631747 
L 231.087447 -184.915766 
L 230.685149 -184.051762 
L 229.075957 -183.172105 
L 228.673659 -182.891453 
L 228.27136 -182.652342 
L 227.869062 -182.735337 
L 226.662168 -182.823316 
L 226.25987 -182.701209 
L 225.857572 -182.697425 
L 225.455274 -182.734277 
L 225.052976 -183.139472 
L 223.846082 -183.696119 
L 223.443784 -183.895862 
L 223.041485 -183.807161 
L 222.639187 -183.64993 
L 222.236889 -183.210331 
L 221.029995 -182.86262 
L 220.627697 -182.570117 
L 220.225399 -182.300659 
L 219.823101 -182.12965 
L 219.420803 -182.015852 
L 218.213909 -182.029654 
L 217.811611 -182.233383 
L 217.409312 -182.445455 
L 217.007014 -182.707857 
L 216.604716 -183.177401 
L 215.397822 -183.725833 
L 214.995524 -184.229754 
L 214.593226 -184.540645 
L 214.190928 -184.871589 
L 212.581736 -184.958578 
L 212.179437 -185.153757 
L 211.777139 -185.311175 
L 211.374841 -185.407642 
L 210.972543 -185.356217 
L 209.765649 -185.214912 
L 209.363351 -184.864824 
L 208.961053 -184.463059 
L 208.558755 -183.984785 
L 208.156457 -183.414588 
L 206.949563 -182.645451 
L 206.547264 -182.023314 
L 206.144966 -181.84705 
L 205.742668 -181.801434 
L 205.34037 -181.607053 
L 204.133476 -181.408782 
L 203.731178 -181.373592 
L 203.32888 -181.270688 
L 202.926582 -180.843108 
L 202.524284 -180.386399 
L 201.31739 -179.840462 
L 200.915091 -179.623628 
L 200.512793 -179.469878 
L 200.110495 -179.383481 
L 198.501303 -179.25168 
L 198.099005 -179.105091 
L 197.696707 -178.929463 
L 197.294409 -179.020363 
L 196.892111 -179.16895 
L 195.685216 -179.210292 
L 195.282918 -179.114034 
L 194.88062 -178.804029 
L 194.478322 -178.772534 
L 192.86913 -178.882154 
L 192.466832 -178.223057 
L 192.064534 -177.741953 
L 191.662236 -177.714187 
L 190.053043 -177.678901 
L 189.650745 -177.618344 
L 189.248447 -177.589052 
L 188.846149 -177.672425 
L 188.443851 -177.795823 
L 187.236957 -177.858928 
L 186.834659 -177.740526 
L 186.432361 -177.531912 
L 186.030063 -177.13009 
L 185.627765 -176.539621 
L 184.42087 -175.988006 
L 184.018572 -175.817197 
L 183.616274 -175.43013 
L 183.213976 -175.290423 
L 182.811678 -175.448533 
L 181.604784 -176.079866 
L 181.202486 -176.539819 
L 180.800188 -176.688521 
L 180.39789 -176.904996 
L 179.995592 -177.04566 
L 178.788697 -177.107011 
L 177.984101 -177.082628 
L 177.581803 -176.935579 
L 177.179505 -176.803333 
L 175.972611 -176.729598 
L 175.570313 -176.367013 
L 175.168015 -175.933507 
L 174.765717 -175.521242 
L 174.363419 -175.051325 
L 173.156524 -174.389568 
L 172.754226 -173.881125 
L 172.351928 -173.510655 
L 171.94963 -173.066201 
L 171.547332 -172.638852 
L 170.340438 -172.095041 
L 169.93814 -171.756227 
L 169.535842 -171.375966 
L 169.133544 -171.000004 
L 168.731246 -170.601904 
L 167.524351 -170.127879 
L 167.122053 -169.515703 
L 166.719755 -168.81571 
L 166.317457 -168.308505 
L 165.915159 -167.498947 
L 164.708265 -166.599969 
L 164.305967 -165.545286 
L 163.903669 -164.48651 
L 163.501371 -163.619742 
L 163.099073 -163.052633 
L 161.892178 -162.362564 
L 161.48988 -161.651927 
L 161.087582 -161.141375 
L 160.685284 -160.411928 
L 160.282986 -159.470023 
L 159.076092 -158.401791 
L 158.673794 -157.160083 
L 158.271496 -155.760857 
L 157.869198 -154.397712 
L 157.466899 -152.931265 
L 156.260005 -151.604169 
L 155.857707 -150.871268 
L 155.455409 -150.253252 
L 155.053111 -149.183303 
L 154.650813 -148.398228 
L 153.443919 -148.03435 
L 153.041621 -148.228051 
L 152.639323 -148.494265 
L 152.237025 -148.615606 
L 151.834726 -148.647883 
L 150.627832 -148.637075 
L 150.225534 -148.815656 
L 149.823236 -148.79759 
L 149.420938 -148.676462 
L 149.01864 -148.528398 
L 147.811746 -148.497984 
L 147.409448 -148.507564 
L 147.00715 -148.627354 
L 146.604851 -148.801328 
L 144.995659 -148.896785 
L 144.593361 -148.940592 
L 144.191063 -148.921179 
L 143.788765 -148.92679 
L 143.386467 -148.931733 
L 142.179573 -148.97948 
L 141.777275 -149.013936 
L 141.374977 -149.033838 
L 140.972678 -149.059681 
L 140.57038 -149.102729 
L 139.363486 -149.148583 
L 138.961188 -149.241123 
L 138.55889 -149.392962 
L 138.156592 -149.451563 
L 137.754294 -149.363659 
L 136.5474 -149.266549 
L 136.145102 -149.107298 
L 135.742803 -148.937778 
L 135.340505 -148.664045 
L 134.938207 -148.245159 
L 133.731313 -147.745627 
L 133.329015 -147.381082 
L 132.926717 -146.827996 
L 132.524419 -146.159385 
L 132.122121 -145.442924 
L 130.915227 -144.501941 
L 130.512929 -143.519403 
L 130.11063 -142.559563 
L 129.708332 -141.600574 
L 129.306034 -140.783668 
L 128.09914 -140.059508 
L 127.696842 -139.358525 
L 127.294544 -138.569873 
L 126.892246 -137.759682 
L 126.489948 -137.236042 
L 125.283054 -136.981028 
L 124.880756 -136.717418 
L 124.478457 -136.045767 
L 124.076159 -135.232755 
L 123.673861 -134.728959 
L 122.466967 -134.308485 
L 122.064669 -134.06431 
L 121.662371 -133.301453 
L 120.857775 -132.637855 
L 119.650881 -132.129347 
L 119.248582 -131.848001 
L 118.846284 -131.688033 
L 118.443986 -131.368664 
L 118.041688 -131.559858 
L 116.834794 -131.766531 
L 116.432496 -131.800636 
L 116.030198 -132.169417 
L 115.6279 -132.364735 
L 115.225602 -132.651739 
L 114.018708 -132.783786 
L 113.616409 -132.918535 
L 113.214111 -133.101109 
L 112.811813 -133.180025 
L 112.409515 -133.116416 
L 111.202621 -133.027587 
L 110.800323 -132.963396 
L 110.398025 -132.944903 
L 109.995727 -132.9471 
L 109.593429 -132.956973 
L 108.386534 -132.965448 
L 107.984236 -132.974451 
L 107.581938 -132.961333 
L 107.17964 -132.970587 
L 105.570448 -132.999743 
L 105.16815 -133.026683 
L 104.765852 -133.097055 
L 104.363554 -133.133667 
L 103.961256 -133.161695 
L 102.754361 -133.187322 
L 102.352063 -133.180106 
L 101.949765 -133.181315 
L 101.547467 -133.157442 
L 101.145169 -133.145218 
L 99.938275 -133.105813 
L 99.535977 -133.104637 
L 99.133679 -133.103533 
L 98.731381 -133.086863 
L 98.329083 -133.037772 
L 97.122188 -133.014707 
L 96.71989 -132.879403 
L 96.317592 -132.338717 
L 95.915294 -131.750499 
L 95.512996 -131.218626 
L 94.306102 -130.700845 
L 93.903804 -130.009856 
L 93.501506 -129.513389 
L 93.099208 -129.018941 
L 92.69691 -128.424102 
L 91.490015 -127.80291 
L 91.087717 -127.128182 
L 90.685419 -126.485211 
L 90.283121 -125.757533 
L 89.880823 -124.975828 
L 88.271631 -124.258602 
L 87.869333 -123.55748 
L 87.467035 -123.051217 
L 87.064737 -121.918251 
L 85.857842 -120.674066 
L 85.455544 -119.258152 
L 85.053246 -118.07547 
L 84.650948 -117.03468 
L 84.24865 -115.76557 
L 83.041756 -114.549883 
L 82.639458 -113.911314 
L 82.23716 -113.520762 
L 81.834862 -113.049116 
L 81.432564 -112.519637 
L 80.225669 -112.086591 
L 79.823371 -111.917369 
L 79.421073 -111.731614 
L 79.018775 -111.608374 
L 78.616477 -111.433265 
L 77.409583 -111.271176 
L 77.007285 -111.223645 
L 76.604987 -111.144499 
L 76.202689 -111.194459 
L 75.800391 -111.232931 
L 74.593496 -111.197084 
L 74.191198 -111.141723 
L 73.7889 -111.487335 
L 73.386602 -111.645866 
L 72.984304 -111.543321 
L 71.77741 -111.327676 
L 71.375112 -111.002389 
L 70.972814 -110.660921 
L 70.570516 -110.157783 
L 70.168217 -109.672106 
L 68.961323 -109.125397 
L 68.559025 -108.478598 
L 68.156727 -107.750793 
L 67.754429 -107.017288 
L 66.145237 -106.465328 
L 65.742939 -105.869253 
L 65.340641 -105.21872 
L 64.938343 -104.479571 
L 64.536044 -103.844396 
L 63.32915 -103.050143 
L 62.926852 -102.34048 
L 62.524554 -101.511045 
z
" style="stroke: #000000; stroke-opacity: 0.2; stroke-width: 0.8"/>
    </defs>
    <g clip-path="url(#p2f03c4152b)">
     <use xlink:href="#me07b505eba" x="0" y="299.818005" style="fill: #bc80bd; fill-opacity: 0.2; stroke: #000000; stroke-opacity: 0.2; stroke-width: 0.8"/>
    </g>
   </g>
   <g id="matplotlib.axis_1">
    <g id="xtick_1">
     <g id="line2d_1">
      <defs>
       <path id="m234bfd45aa" d="M 0 0 
L 0 3.5 
" style="stroke: #323034; stroke-width: 0.8"/>
      </defs>
      <g>
       <use xlink:href="#m234bfd45aa" x="47.237227" y="242.467119" style="fill: #323034; stroke: #323034; stroke-width: 0.8"/>
      </g>
     </g>
     <g id="text_1">
      <!-- 2017-01 -->
      <g style="fill: #323034" transform="translate(11.297812 276.562551) rotate(-30) scale(0.12 -0.12)">
       <defs>
        <path id="STIXGeneral-Regular-32" d="M 3034 877 
L 2688 0 
L 186 0 
L 186 77 
L 1325 1286 
Q 1773 1754 1965 2144 
Q 2157 2534 2157 2950 
Q 2157 3379 1920 3616 
Q 1683 3853 1267 3853 
Q 922 3853 720 3673 
Q 518 3494 326 3021 
L 192 3053 
Q 301 3648 630 3987 
Q 960 4326 1523 4326 
Q 2054 4326 2380 4006 
Q 2707 3686 2707 3200 
Q 2707 2477 1888 1613 
L 832 486 
L 2330 486 
Q 2541 486 2665 569 
Q 2790 653 2944 915 
L 3034 877 
z
" transform="scale(0.015625)"/>
        <path id="STIXGeneral-Regular-30" d="M 3046 2112 
Q 3046 1683 2963 1302 
Q 2880 922 2717 602 
Q 2554 282 2266 96 
Q 1978 -90 1600 -90 
Q 1210 -90 915 108 
Q 621 307 461 640 
Q 301 973 227 1350 
Q 154 1728 154 2150 
Q 154 2746 301 3222 
Q 448 3699 790 4012 
Q 1133 4326 1626 4326 
Q 2253 4326 2649 3712 
Q 3046 3098 3046 2112 
z
M 2432 2080 
Q 2432 3091 2217 3625 
Q 2003 4160 1587 4160 
Q 1190 4160 979 3622 
Q 768 3085 768 2106 
Q 768 1120 979 598 
Q 1190 77 1600 77 
Q 2003 77 2217 598 
Q 2432 1120 2432 2080 
z
" transform="scale(0.015625)"/>
        <path id="STIXGeneral-Regular-31" d="M 2522 0 
L 755 0 
L 755 96 
Q 1107 115 1235 227 
Q 1363 339 1363 608 
L 1363 3482 
Q 1363 3795 1171 3795 
Q 1082 3795 883 3718 
L 710 3654 
L 710 3744 
L 1856 4326 
L 1914 4307 
L 1914 486 
Q 1914 275 2042 185 
Q 2170 96 2522 96 
L 2522 0 
z
" transform="scale(0.015625)"/>
        <path id="STIXGeneral-Regular-37" d="M 2874 4134 
L 1517 -51 
L 1101 -51 
L 2368 3763 
L 992 3763 
Q 717 3763 582 3667 
Q 448 3571 243 3238 
L 128 3296 
L 512 4237 
L 2874 4237 
L 2874 4134 
z
" transform="scale(0.015625)"/>
        <path id="STIXGeneral-Regular-2d" d="M 1824 1242 
L 250 1242 
L 250 1645 
L 1824 1645 
L 1824 1242 
z
" transform="scale(0.015625)"/>
       </defs>
       <use xlink:href="#STIXGeneral-Regular-32"/>
       <use xlink:href="#STIXGeneral-Regular-30" transform="translate(49.999985 0)"/>
       <use xlink:href="#STIXGeneral-Regular-31" transform="translate(99.999969 0)"/>
       <use xlink:href="#STIXGeneral-Regular-37" transform="translate(149.999954 0)"/>
       <use xlink:href="#STIXGeneral-Regular-2d" transform="translate(199.999939 0)"/>
       <use xlink:href="#STIXGeneral-Regular-30" transform="translate(233.299927 0)"/>
       <use xlink:href="#STIXGeneral-Regular-31" transform="translate(283.299911 0)"/>
      </g>
     </g>
    </g>
    <g id="xtick_2">
     <g id="line2d_2">
      <g>
       <use xlink:href="#m234bfd45aa" x="83.444054" y="242.467119" style="fill: #323034; stroke: #323034; stroke-width: 0.8"/>
      </g>
     </g>
     <g id="text_2">
      <!-- 2017-04 -->
      <g style="fill: #323034" transform="translate(47.504639 276.562551) rotate(-30) scale(0.12 -0.12)">
       <defs>
        <path id="STIXGeneral-Regular-34" d="M 3027 1069 
L 2368 1069 
L 2368 0 
L 1869 0 
L 1869 1069 
L 77 1069 
L 77 1478 
L 2086 4326 
L 2368 4326 
L 2368 1478 
L 3027 1478 
L 3027 1069 
z
M 1869 1478 
L 1869 3674 
L 333 1478 
L 1869 1478 
z
" transform="scale(0.015625)"/>
       </defs>
       <use xlink:href="#STIXGeneral-Regular-32"/>
       <use xlink:href="#STIXGeneral-Regular-30" transform="translate(49.999985 0)"/>
       <use xlink:href="#STIXGeneral-Regular-31" transform="translate(99.999969 0)"/>
       <use xlink:href="#STIXGeneral-Regular-37" transform="translate(149.999954 0)"/>
       <use xlink:href="#STIXGeneral-Regular-2d" transform="translate(199.999939 0)"/>
       <use xlink:href="#STIXGeneral-Regular-30" transform="translate(233.299927 0)"/>
       <use xlink:href="#STIXGeneral-Regular-34" transform="translate(283.299911 0)"/>
      </g>
     </g>
    </g>
    <g id="xtick_3">
     <g id="line2d_3">
      <g>
       <use xlink:href="#m234bfd45aa" x="120.053179" y="242.467119" style="fill: #323034; stroke: #323034; stroke-width: 0.8"/>
      </g>
     </g>
     <g id="text_3">
      <!-- 2017-07 -->
      <g style="fill: #323034" transform="translate(84.113764 276.562551) rotate(-30) scale(0.12 -0.12)">
       <use xlink:href="#STIXGeneral-Regular-32"/>
       <use xlink:href="#STIXGeneral-Regular-30" transform="translate(49.999985 0)"/>
       <use xlink:href="#STIXGeneral-Regular-31" transform="translate(99.999969 0)"/>
       <use xlink:href="#STIXGeneral-Regular-37" transform="translate(149.999954 0)"/>
       <use xlink:href="#STIXGeneral-Regular-2d" transform="translate(199.999939 0)"/>
       <use xlink:href="#STIXGeneral-Regular-30" transform="translate(233.299927 0)"/>
       <use xlink:href="#STIXGeneral-Regular-37" transform="translate(283.299911 0)"/>
      </g>
     </g>
    </g>
    <g id="xtick_4">
     <g id="line2d_4">
      <g>
       <use xlink:href="#m234bfd45aa" x="157.064601" y="242.467119" style="fill: #323034; stroke: #323034; stroke-width: 0.8"/>
      </g>
     </g>
     <g id="text_4">
      <!-- 2017-10 -->
      <g style="fill: #323034" transform="translate(121.125187 276.562551) rotate(-30) scale(0.12 -0.12)">
       <use xlink:href="#STIXGeneral-Regular-32"/>
       <use xlink:href="#STIXGeneral-Regular-30" transform="translate(49.999985 0)"/>
       <use xlink:href="#STIXGeneral-Regular-31" transform="translate(99.999969 0)"/>
       <use xlink:href="#STIXGeneral-Regular-37" transform="translate(149.999954 0)"/>
       <use xlink:href="#STIXGeneral-Regular-2d" transform="translate(199.999939 0)"/>
       <use xlink:href="#STIXGeneral-Regular-31" transform="translate(233.299927 0)"/>
       <use xlink:href="#STIXGeneral-Regular-30" transform="translate(283.299911 0)"/>
      </g>
     </g>
    </g>
    <g id="xtick_5">
     <g id="line2d_5">
      <g>
       <use xlink:href="#m234bfd45aa" x="194.076024" y="242.467119" style="fill: #323034; stroke: #323034; stroke-width: 0.8"/>
      </g>
     </g>
     <g id="text_5">
      <!-- 2018-01 -->
      <g style="fill: #323034" transform="translate(158.136609 276.562551) rotate(-30) scale(0.12 -0.12)">
       <defs>
        <path id="STIXGeneral-Regular-38" d="M 2848 992 
Q 2848 499 2505 204 
Q 2163 -90 1587 -90 
Q 1050 -90 704 204 
Q 358 499 358 954 
Q 358 1293 524 1533 
Q 691 1773 1190 2125 
Q 710 2522 553 2765 
Q 397 3008 397 3328 
Q 397 3782 745 4054 
Q 1094 4326 1638 4326 
Q 2106 4326 2410 4060 
Q 2714 3795 2714 3411 
Q 2714 3059 2531 2848 
Q 2349 2637 1856 2374 
Q 2432 1990 2640 1689 
Q 2848 1389 2848 992 
z
M 2272 3411 
Q 2272 3744 2086 3945 
Q 1901 4147 1574 4147 
Q 1248 4147 1059 3977 
Q 870 3808 870 3513 
Q 870 3219 1059 2979 
Q 1248 2739 1670 2490 
Q 1997 2682 2134 2896 
Q 2272 3110 2272 3411 
z
M 1734 1741 
L 1357 1997 
Q 1075 1766 960 1545 
Q 845 1325 845 1011 
Q 845 576 1065 333 
Q 1286 90 1658 90 
Q 1971 90 2166 285 
Q 2362 480 2362 794 
Q 2362 1082 2214 1299 
Q 2067 1517 1734 1741 
z
" transform="scale(0.015625)"/>
       </defs>
       <use xlink:href="#STIXGeneral-Regular-32"/>
       <use xlink:href="#STIXGeneral-Regular-30" transform="translate(49.999985 0)"/>
       <use xlink:href="#STIXGeneral-Regular-31" transform="translate(99.999969 0)"/>
       <use xlink:href="#STIXGeneral-Regular-38" transform="translate(149.999954 0)"/>
       <use xlink:href="#STIXGeneral-Regular-2d" transform="translate(199.999939 0)"/>
       <use xlink:href="#STIXGeneral-Regular-30" transform="translate(233.299927 0)"/>
       <use xlink:href="#STIXGeneral-Regular-31" transform="translate(283.299911 0)"/>
      </g>
     </g>
    </g>
    <g id="xtick_6">
     <g id="line2d_6">
      <g>
       <use xlink:href="#m234bfd45aa" x="230.282851" y="242.467119" style="fill: #323034; stroke: #323034; stroke-width: 0.8"/>
      </g>
     </g>
     <g id="text_6">
      <!-- 2018-04 -->
      <g style="fill: #323034" transform="translate(194.343436 276.562551) rotate(-30) scale(0.12 -0.12)">
       <use xlink:href="#STIXGeneral-Regular-32"/>
       <use xlink:href="#STIXGeneral-Regular-30" transform="translate(49.999985 0)"/>
       <use xlink:href="#STIXGeneral-Regular-31" transform="translate(99.999969 0)"/>
       <use xlink:href="#STIXGeneral-Regular-38" transform="translate(149.999954 0)"/>
       <use xlink:href="#STIXGeneral-Regular-2d" transform="translate(199.999939 0)"/>
       <use xlink:href="#STIXGeneral-Regular-30" transform="translate(233.299927 0)"/>
       <use xlink:href="#STIXGeneral-Regular-34" transform="translate(283.299911 0)"/>
      </g>
     </g>
    </g>
    <g id="xtick_7">
     <g id="line2d_7">
      <g>
       <use xlink:href="#m234bfd45aa" x="266.891976" y="242.467119" style="fill: #323034; stroke: #323034; stroke-width: 0.8"/>
      </g>
     </g>
     <g id="text_7">
      <!-- 2018-07 -->
      <g style="fill: #323034" transform="translate(230.952561 276.562551) rotate(-30) scale(0.12 -0.12)">
       <use xlink:href="#STIXGeneral-Regular-32"/>
       <use xlink:href="#STIXGeneral-Regular-30" transform="translate(49.999985 0)"/>
       <use xlink:href="#STIXGeneral-Regular-31" transform="translate(99.999969 0)"/>
       <use xlink:href="#STIXGeneral-Regular-38" transform="translate(149.999954 0)"/>
       <use xlink:href="#STIXGeneral-Regular-2d" transform="translate(199.999939 0)"/>
       <use xlink:href="#STIXGeneral-Regular-30" transform="translate(233.299927 0)"/>
       <use xlink:href="#STIXGeneral-Regular-37" transform="translate(283.299911 0)"/>
      </g>
     </g>
    </g>
    <g id="xtick_8">
     <g id="line2d_8">
      <g>
       <use xlink:href="#m234bfd45aa" x="303.903398" y="242.467119" style="fill: #323034; stroke: #323034; stroke-width: 0.8"/>
      </g>
     </g>
     <g id="text_8">
      <!-- 2018-10 -->
      <g style="fill: #323034" transform="translate(267.963984 276.562551) rotate(-30) scale(0.12 -0.12)">
       <use xlink:href="#STIXGeneral-Regular-32"/>
       <use xlink:href="#STIXGeneral-Regular-30" transform="translate(49.999985 0)"/>
       <use xlink:href="#STIXGeneral-Regular-31" transform="translate(99.999969 0)"/>
       <use xlink:href="#STIXGeneral-Regular-38" transform="translate(149.999954 0)"/>
       <use xlink:href="#STIXGeneral-Regular-2d" transform="translate(199.999939 0)"/>
       <use xlink:href="#STIXGeneral-Regular-31" transform="translate(233.299927 0)"/>
       <use xlink:href="#STIXGeneral-Regular-30" transform="translate(283.299911 0)"/>
      </g>
     </g>
    </g>
    <g id="xtick_9">
     <g id="line2d_9">
      <g>
       <use xlink:href="#m234bfd45aa" x="340.914821" y="242.467119" style="fill: #323034; stroke: #323034; stroke-width: 0.8"/>
      </g>
     </g>
     <g id="text_9">
      <!-- 2019-01 -->
      <g style="fill: #323034" transform="translate(304.975406 276.562551) rotate(-30) scale(0.12 -0.12)">
       <defs>
        <path id="STIXGeneral-Regular-39" d="M 378 -141 
L 358 -13 
Q 1094 115 1603 608 
Q 2112 1101 2304 1882 
Q 1933 1517 1344 1517 
Q 826 1517 509 1875 
Q 192 2234 192 2816 
Q 192 3462 573 3894 
Q 954 4326 1523 4326 
Q 2131 4326 2528 3840 
Q 2938 3328 2938 2522 
Q 2938 1958 2742 1462 
Q 2547 966 2170 621 
Q 1773 262 1395 105 
Q 1018 -51 378 -141 
z
M 2317 2272 
L 2317 2522 
Q 2317 4147 1472 4147 
Q 1171 4147 1005 3930 
Q 909 3802 845 3546 
Q 781 3290 781 3034 
Q 781 2464 995 2128 
Q 1210 1792 1568 1792 
Q 1824 1792 2070 1917 
Q 2317 2042 2317 2272 
z
" transform="scale(0.015625)"/>
       </defs>
       <use xlink:href="#STIXGeneral-Regular-32"/>
       <use xlink:href="#STIXGeneral-Regular-30" transform="translate(49.999985 0)"/>
       <use xlink:href="#STIXGeneral-Regular-31" transform="translate(99.999969 0)"/>
       <use xlink:href="#STIXGeneral-Regular-39" transform="translate(149.999954 0)"/>
       <use xlink:href="#STIXGeneral-Regular-2d" transform="translate(199.999939 0)"/>
       <use xlink:href="#STIXGeneral-Regular-30" transform="translate(233.299927 0)"/>
       <use xlink:href="#STIXGeneral-Regular-31" transform="translate(283.299911 0)"/>
      </g>
     </g>
    </g>
    <g id="xtick_10">
     <g id="line2d_10">
      <g>
       <use xlink:href="#m234bfd45aa" x="377.121648" y="242.467119" style="fill: #323034; stroke: #323034; stroke-width: 0.8"/>
      </g>
     </g>
     <g id="text_10">
      <!-- 2019-04 -->
      <g style="fill: #323034" transform="translate(341.182233 276.562551) rotate(-30) scale(0.12 -0.12)">
       <use xlink:href="#STIXGeneral-Regular-32"/>
       <use xlink:href="#STIXGeneral-Regular-30" transform="translate(49.999985 0)"/>
       <use xlink:href="#STIXGeneral-Regular-31" transform="translate(99.999969 0)"/>
       <use xlink:href="#STIXGeneral-Regular-39" transform="translate(149.999954 0)"/>
       <use xlink:href="#STIXGeneral-Regular-2d" transform="translate(199.999939 0)"/>
       <use xlink:href="#STIXGeneral-Regular-30" transform="translate(233.299927 0)"/>
       <use xlink:href="#STIXGeneral-Regular-34" transform="translate(283.299911 0)"/>
      </g>
     </g>
    </g>
    <g id="text_11">
     <!-- Date -->
     <g transform="translate(213.523077 290.01363) scale(0.12 -0.12)">
      <defs>
       <path id="STIXGeneral-Regular-44" d="M 102 4237 
L 1830 4237 
Q 3078 4237 3750 3654 
Q 4384 3110 4384 2138 
Q 4384 966 3514 410 
Q 2880 0 1901 0 
L 102 0 
L 102 122 
Q 474 147 570 252 
Q 666 358 666 736 
L 666 3520 
Q 666 3891 570 3990 
Q 474 4090 102 4115 
L 102 4237 
z
M 1318 3731 
L 1318 538 
Q 1318 365 1379 301 
Q 1440 237 1626 237 
Q 2125 237 2432 307 
Q 2739 378 3021 570 
Q 3686 1018 3686 2099 
Q 3686 3027 3078 3558 
Q 2803 3802 2476 3901 
Q 2150 4000 1658 4000 
Q 1472 4000 1395 3942 
Q 1318 3885 1318 3731 
z
" transform="scale(0.015625)"/>
       <path id="STIXGeneral-Regular-61" d="M 2829 422 
L 2829 243 
Q 2586 -64 2253 -64 
Q 1888 -64 1843 403 
L 1837 403 
Q 1427 -64 909 -64 
Q 608 -64 422 112 
Q 237 288 237 602 
Q 237 1050 685 1350 
Q 992 1555 1837 1869 
L 1837 2214 
Q 1837 2502 1699 2646 
Q 1562 2790 1338 2790 
Q 1146 2790 1018 2697 
Q 890 2605 890 2477 
Q 890 2419 909 2348 
Q 928 2278 928 2208 
Q 928 2112 841 2029 
Q 755 1946 634 1946 
Q 525 1946 441 2029 
Q 358 2112 358 2240 
Q 358 2547 685 2752 
Q 986 2944 1421 2944 
Q 1939 2944 2176 2656 
Q 2291 2522 2323 2384 
Q 2355 2246 2355 1946 
L 2355 723 
Q 2355 301 2554 301 
Q 2682 301 2829 422 
z
M 1837 813 
L 1837 1715 
Q 1248 1510 1018 1293 
Q 800 1094 800 800 
Q 800 557 921 432 
Q 1043 307 1242 307 
Q 1453 307 1613 410 
Q 1747 506 1792 589 
Q 1837 672 1837 813 
z
" transform="scale(0.015625)"/>
       <path id="STIXGeneral-Regular-74" d="M 1702 493 
L 1786 422 
Q 1478 -64 1011 -64 
Q 448 -64 448 749 
L 448 2675 
L 109 2675 
Q 83 2694 83 2720 
Q 83 2771 192 2842 
Q 435 2982 813 3526 
Q 826 3546 874 3606 
Q 922 3667 941 3706 
Q 986 3706 986 3622 
L 986 2880 
L 1632 2880 
L 1632 2675 
L 986 2675 
L 986 845 
Q 986 538 1062 403 
Q 1139 269 1318 269 
Q 1510 269 1702 493 
z
" transform="scale(0.015625)"/>
       <path id="STIXGeneral-Regular-65" d="M 2611 1050 
L 2714 1005 
Q 2330 -64 1376 -64 
Q 813 -64 486 329 
Q 160 723 160 1389 
Q 160 2074 525 2509 
Q 890 2944 1485 2944 
Q 2061 2944 2374 2502 
Q 2560 2246 2592 1773 
L 621 1773 
Q 646 1370 700 1158 
Q 755 947 915 730 
Q 1184 378 1626 378 
Q 1939 378 2153 531 
Q 2368 685 2611 1050 
z
M 634 1978 
L 1939 1978 
Q 1882 2381 1750 2547 
Q 1619 2714 1312 2714 
Q 1043 2714 864 2525 
Q 685 2336 634 1978 
z
" transform="scale(0.015625)"/>
      </defs>
      <use xlink:href="#STIXGeneral-Regular-44"/>
      <use xlink:href="#STIXGeneral-Regular-61" transform="translate(72.199982 0)"/>
      <use xlink:href="#STIXGeneral-Regular-74" transform="translate(116.599976 0)"/>
      <use xlink:href="#STIXGeneral-Regular-65" transform="translate(144.399963 0)"/>
     </g>
    </g>
   </g>
   <g id="matplotlib.axis_2">
    <g id="ytick_1">
     <g id="line2d_11">
      <defs>
       <path id="m351ff5c753" d="M 0 0 
L -3.5 0 
" style="stroke: #323034; stroke-width: 0.8"/>
      </defs>
      <g>
       <use xlink:href="#m351ff5c753" x="46.291827" y="215.334228" style="fill: #323034; stroke: #323034; stroke-width: 0.8"/>
      </g>
     </g>
     <g id="text_12">
      <!-- $\mathdefault{30}$ -->
      <g style="fill: #323034" transform="translate(27.291827 219.43204) scale(0.12 -0.12)">
       <defs>
        <path id="STIXGeneral-Regular-33" d="M 390 3264 
L 288 3290 
Q 435 3770 748 4048 
Q 1062 4326 1542 4326 
Q 1990 4326 2265 4083 
Q 2541 3840 2541 3450 
Q 2541 2925 1946 2566 
Q 2298 2413 2477 2227 
Q 2758 1914 2758 1402 
Q 2758 890 2464 506 
Q 2246 211 1840 60 
Q 1434 -90 979 -90 
Q 262 -90 262 275 
Q 262 378 339 442 
Q 416 506 525 506 
Q 685 506 915 339 
Q 1197 141 1466 141 
Q 1818 141 2058 425 
Q 2298 710 2298 1120 
Q 2298 1856 1632 2048 
Q 1434 2112 979 2112 
L 979 2202 
Q 1338 2323 1517 2432 
Q 2035 2726 2035 3290 
Q 2035 3610 1852 3776 
Q 1670 3942 1344 3942 
Q 768 3942 390 3264 
z
" transform="scale(0.015625)"/>
       </defs>
       <use xlink:href="#STIXGeneral-Regular-33" transform="translate(0 0.40625)"/>
       <use xlink:href="#STIXGeneral-Regular-30" transform="translate(49.999985 0.40625)"/>
      </g>
     </g>
    </g>
    <g id="ytick_2">
     <g id="line2d_12">
      <g>
       <use xlink:href="#m351ff5c753" x="46.291827" y="174.526945" style="fill: #323034; stroke: #323034; stroke-width: 0.8"/>
      </g>
     </g>
     <g id="text_13">
      <!-- $\mathdefault{35}$ -->
      <g style="fill: #323034" transform="translate(27.291827 178.624757) scale(0.12 -0.12)">
       <defs>
        <path id="STIXGeneral-Regular-35" d="M 2803 4358 
L 2573 3814 
Q 2534 3731 2400 3731 
L 1158 3731 
L 902 3187 
Q 1606 3053 1920 2896 
Q 2234 2739 2502 2368 
Q 2726 2061 2726 1555 
Q 2726 1094 2576 780 
Q 2426 467 2099 224 
Q 1664 -90 1011 -90 
Q 646 -90 422 19 
Q 198 128 198 307 
Q 198 550 486 550 
Q 717 550 960 352 
Q 1210 147 1414 147 
Q 1747 147 2012 480 
Q 2278 813 2278 1229 
Q 2278 1843 1850 2189 
Q 1293 2637 486 2637 
Q 410 2637 410 2688 
L 416 2720 
L 1114 4237 
L 2438 4237 
Q 2547 4237 2608 4269 
Q 2669 4301 2746 4403 
L 2803 4358 
z
" transform="scale(0.015625)"/>
       </defs>
       <use xlink:href="#STIXGeneral-Regular-33" transform="translate(0 0.203125)"/>
       <use xlink:href="#STIXGeneral-Regular-35" transform="translate(49.999985 0.203125)"/>
      </g>
     </g>
    </g>
    <g id="ytick_3">
     <g id="line2d_13">
      <g>
       <use xlink:href="#m351ff5c753" x="46.291827" y="133.719662" style="fill: #323034; stroke: #323034; stroke-width: 0.8"/>
      </g>
     </g>
     <g id="text_14">
      <!-- $\mathdefault{40}$ -->
      <g style="fill: #323034" transform="translate(27.291827 137.817474) scale(0.12 -0.12)">
       <use xlink:href="#STIXGeneral-Regular-34" transform="translate(0 0.40625)"/>
       <use xlink:href="#STIXGeneral-Regular-30" transform="translate(49.999985 0.40625)"/>
      </g>
     </g>
    </g>
    <g id="ytick_4">
     <g id="line2d_14">
      <g>
       <use xlink:href="#m351ff5c753" x="46.291827" y="92.912379" style="fill: #323034; stroke: #323034; stroke-width: 0.8"/>
      </g>
     </g>
     <g id="text_15">
      <!-- $\mathdefault{45}$ -->
      <g style="fill: #323034" transform="translate(27.291827 97.010191) scale(0.12 -0.12)">
       <use xlink:href="#STIXGeneral-Regular-34" transform="translate(0 0.203125)"/>
       <use xlink:href="#STIXGeneral-Regular-35" transform="translate(49.999985 0.203125)"/>
      </g>
     </g>
    </g>
    <g id="ytick_5">
     <g id="line2d_15">
      <g>
       <use xlink:href="#m351ff5c753" x="46.291827" y="52.105096" style="fill: #323034; stroke: #323034; stroke-width: 0.8"/>
      </g>
     </g>
     <g id="text_16">
      <!-- $\mathdefault{50}$ -->
      <g style="fill: #323034" transform="translate(27.291827 56.202908) scale(0.12 -0.12)">
       <use xlink:href="#STIXGeneral-Regular-35" transform="translate(0 0.203125)"/>
       <use xlink:href="#STIXGeneral-Regular-30" transform="translate(49.999985 0.203125)"/>
      </g>
     </g>
    </g>
    <g id="ytick_6">
     <g id="line2d_16">
      <g>
       <use xlink:href="#m351ff5c753" x="46.291827" y="11.297812" style="fill: #323034; stroke: #323034; stroke-width: 0.8"/>
      </g>
     </g>
     <g id="text_17">
      <!-- $\mathdefault{55}$ -->
      <g style="fill: #323034" transform="translate(27.291827 15.395625) scale(0.12 -0.12)">
       <use xlink:href="#STIXGeneral-Regular-35" transform="translate(0 0.203125)"/>
       <use xlink:href="#STIXGeneral-Regular-35" transform="translate(49.999985 0.203125)"/>
      </g>
     </g>
    </g>
    <g id="text_18">
     <!-- Close ($) -->
     <g transform="translate(21.687452 147.127494) rotate(-90) scale(0.12 -0.12)">
      <defs>
       <path id="STIXGeneral-Regular-43" d="M 3930 838 
L 4051 723 
Q 3482 -90 2304 -90 
Q 1376 -90 794 480 
Q 179 1082 179 2080 
Q 179 3014 755 3661 
Q 1357 4326 2310 4326 
Q 2720 4326 3072 4230 
Q 3475 4115 3514 4115 
Q 3725 4115 3782 4326 
L 3910 4326 
L 3968 2874 
L 3821 2874 
Q 3718 3334 3488 3584 
Q 3034 4070 2458 4070 
Q 1747 4070 1334 3548 
Q 922 3027 922 2182 
Q 922 1152 1382 653 
Q 1811 192 2522 192 
Q 2944 192 3251 339 
Q 3558 486 3930 838 
z
" transform="scale(0.015625)"/>
       <path id="STIXGeneral-Regular-6c" d="M 1645 0 
L 134 0 
L 134 96 
Q 435 122 531 221 
Q 627 320 627 589 
L 627 3590 
Q 627 3821 569 3910 
Q 512 4000 358 4000 
Q 224 4000 122 3987 
L 122 4090 
Q 730 4237 1133 4371 
L 1165 4346 
L 1165 557 
Q 1165 288 1254 201 
Q 1344 115 1645 96 
L 1645 0 
z
" transform="scale(0.015625)"/>
       <path id="STIXGeneral-Regular-6f" d="M 3008 1478 
Q 3008 806 2608 371 
Q 2208 -64 1568 -64 
Q 979 -64 582 368 
Q 186 800 186 1459 
Q 186 2125 582 2534 
Q 979 2944 1626 2944 
Q 2221 2944 2614 2537 
Q 3008 2131 3008 1478 
z
M 2432 1306 
Q 2432 2035 2112 2445 
Q 1856 2765 1504 2765 
Q 1171 2765 966 2493 
Q 762 2221 762 1747 
Q 762 928 1101 435 
Q 1318 115 1677 115 
Q 2029 115 2230 432 
Q 2432 749 2432 1306 
z
" transform="scale(0.015625)"/>
       <path id="STIXGeneral-Regular-73" d="M 998 1926 
L 1664 1523 
Q 1984 1331 2105 1164 
Q 2227 998 2227 736 
Q 2227 416 1961 176 
Q 1696 -64 1331 -64 
Q 1030 -64 864 -6 
Q 691 51 570 51 
Q 461 51 416 -26 
L 333 -26 
L 333 979 
L 435 979 
Q 538 512 730 294 
Q 922 77 1248 77 
Q 1485 77 1632 211 
Q 1779 346 1779 550 
Q 1779 845 1440 1030 
L 1094 1222 
Q 326 1651 326 2150 
Q 326 2522 566 2730 
Q 806 2938 1210 2938 
Q 1491 2938 1638 2867 
Q 1754 2816 1818 2816 
Q 1862 2816 1920 2880 
L 1990 2880 
L 2022 2010 
L 1926 2010 
Q 1818 2445 1654 2621 
Q 1491 2797 1203 2797 
Q 986 2797 854 2688 
Q 723 2579 723 2362 
Q 723 2253 796 2128 
Q 870 2003 998 1926 
z
" transform="scale(0.015625)"/>
       <path id="STIXGeneral-Regular-20" transform="scale(0.015625)"/>
       <path id="STIXGeneral-Regular-28" d="M 1946 -1030 
L 1869 -1133 
Q 1126 -710 716 32 
Q 307 774 307 1613 
Q 307 3386 1888 4326 
L 1946 4224 
Q 1293 3667 1075 3126 
Q 858 2586 858 1632 
Q 858 685 1082 96 
Q 1306 -493 1946 -1030 
z
" transform="scale(0.015625)"/>
       <path id="STIXGeneral-Regular-24" d="M 1690 4077 
L 1690 2502 
Q 2234 2208 2445 2045 
Q 2656 1882 2797 1664 
Q 2931 1466 2931 1088 
Q 2931 570 2614 326 
Q 2298 83 1690 0 
L 1690 -557 
L 1472 -557 
L 1472 0 
Q 1062 0 806 73 
Q 550 147 282 326 
L 282 1158 
L 378 1158 
Q 480 685 761 432 
Q 1043 179 1472 179 
L 1472 1984 
Q 800 2362 566 2624 
Q 333 2886 333 3283 
Q 333 3731 659 3974 
Q 986 4218 1472 4250 
L 1472 4653 
L 1690 4653 
L 1690 4250 
Q 2426 4205 2720 3910 
L 2720 3200 
L 2624 3200 
Q 2528 3597 2301 3814 
Q 2074 4032 1690 4077 
z
M 1472 2605 
L 1472 4077 
Q 806 3942 806 3405 
Q 806 3194 937 3037 
Q 1069 2880 1472 2605 
z
M 1690 1875 
L 1690 179 
Q 2086 262 2252 432 
Q 2419 602 2419 941 
Q 2419 1235 2272 1427 
Q 2125 1619 1690 1875 
z
" transform="scale(0.015625)"/>
       <path id="STIXGeneral-Regular-29" d="M 186 4224 
L 262 4326 
Q 992 3891 1408 3148 
Q 1824 2406 1824 1581 
Q 1824 -166 243 -1133 
L 186 -1030 
Q 845 -486 1059 54 
Q 1274 595 1274 1562 
Q 1274 2534 1059 3120 
Q 845 3706 186 4224 
z
" transform="scale(0.015625)"/>
      </defs>
      <use xlink:href="#STIXGeneral-Regular-43"/>
      <use xlink:href="#STIXGeneral-Regular-6c" transform="translate(66.699997 0)"/>
      <use xlink:href="#STIXGeneral-Regular-6f" transform="translate(94.499985 0)"/>
      <use xlink:href="#STIXGeneral-Regular-73" transform="translate(144.499969 0)"/>
      <use xlink:href="#STIXGeneral-Regular-65" transform="translate(183.399963 0)"/>
      <use xlink:href="#STIXGeneral-Regular-20" transform="translate(227.799957 0)"/>
      <use xlink:href="#STIXGeneral-Regular-28" transform="translate(252.799942 0)"/>
      <use xlink:href="#STIXGeneral-Regular-24" transform="translate(286.09993 0)"/>
      <use xlink:href="#STIXGeneral-Regular-29" transform="translate(336.099915 0)"/>
     </g>
    </g>
   </g>
   <g id="line2d_17">
    <path d="M 62.524554 215.045949 
L 63.32915 213.165223 
L 64.536044 212.202399 
L 66.145237 208.815738 
L 67.754429 207.975189 
L 68.961323 205.149677 
L 70.168217 204.223188 
L 71.77741 200.564489 
L 72.984304 199.731792 
L 74.191198 197.329157 
L 74.593496 196.840351 
L 75.800391 196.314475 
L 77.007285 194.97993 
L 77.409583 194.567891 
L 78.616477 194.14263 
L 79.421073 193.277402 
L 80.225669 192.635128 
L 81.432564 192.208496 
L 83.041756 190.535446 
L 84.24865 189.914735 
L 85.857842 187.410653 
L 87.064737 186.782057 
L 87.869333 185.713347 
L 88.271631 185.174267 
L 89.880823 184.603405 
L 91.490015 182.331256 
L 92.69691 181.81568 
L 94.306102 179.729596 
L 95.512996 179.210935 
L 96.71989 177.637586 
L 97.122188 177.429616 
L 98.731381 177.21479 
L 99.535977 177.132098 
L 99.938275 177.176611 
L 101.547467 176.964592 
L 102.352063 176.663108 
L 102.754361 176.469779 
L 104.363554 176.171103 
L 105.16815 175.83601 
L 105.570448 175.753481 
L 110.800323 175.460534 
L 111.202621 175.362825 
L 113.214111 175.209324 
L 114.018708 175.415025 
L 115.6279 175.613839 
L 118.443986 176.1752 
L 119.650881 175.871773 
L 120.857775 175.683325 
L 121.662371 175.438286 
L 122.064669 175.156764 
L 122.466967 175.035208 
L 123.673861 174.847266 
L 124.076159 174.656385 
L 124.880756 174.067781 
L 125.283054 173.94913 
L 126.489948 173.829385 
L 126.892246 173.491664 
L 128.09914 171.823658 
L 129.306034 171.206489 
L 130.915227 168.352085 
L 132.122121 167.625666 
L 133.731313 165.154916 
L 134.938207 164.451202 
L 136.5474 161.901188 
L 137.754294 161.323863 
L 138.55889 160.352388 
L 139.363486 159.857641 
L 140.57038 159.776891 
L 142.179573 159.159591 
L 144.593361 158.741088 
L 144.995659 158.537003 
L 146.604851 158.271625 
L 147.409448 157.702379 
L 147.811746 157.721869 
L 149.01864 157.644776 
L 149.823236 157.401499 
L 150.225534 157.389094 
L 150.627832 157.559015 
L 152.237025 157.575126 
L 153.041621 157.87932 
L 153.443919 158.014784 
L 154.650813 157.81504 
L 156.260005 156.424279 
L 157.466899 155.917746 
L 159.076092 153.865336 
L 160.282986 153.432501 
L 161.892178 151.949793 
L 163.099073 151.486173 
L 163.903669 150.643144 
L 164.708265 149.369744 
L 165.915159 148.801478 
L 167.524351 146.463352 
L 168.731246 145.753844 
L 169.535842 144.367669 
L 170.340438 143.126638 
L 171.547332 142.39196 
L 173.156524 139.499246 
L 174.363419 138.665586 
L 175.972611 135.713538 
L 177.179505 135.16943 
L 177.984101 134.305148 
L 179.995592 133.272218 
L 181.604784 130.541819 
L 182.811678 129.870001 
L 183.616274 129.064563 
L 184.42087 128.352002 
L 185.627765 127.90655 
L 186.432361 127.43645 
L 187.236957 127.273254 
L 188.443851 127.313392 
L 190.053043 127.75509 
L 192.064534 127.988001 
L 192.466832 128.352068 
L 192.86913 128.993036 
L 194.478322 129.451204 
L 195.685216 131.389011 
L 196.892111 131.624518 
L 197.294409 131.886664 
L 197.696707 132.00223 
L 198.501303 131.718685 
L 200.512793 131.490213 
L 201.31739 131.205998 
L 202.524284 130.89774 
L 203.32888 130.378443 
L 204.133476 130.292372 
L 206.144966 130.032299 
L 206.547264 129.930738 
L 206.949563 129.540784 
L 208.156457 129.084852 
L 209.363351 128.059202 
L 209.765649 127.808025 
L 211.374841 127.656026 
L 212.179437 127.933352 
L 212.581736 128.265964 
L 214.190928 128.335467 
L 215.397822 129.400488 
L 216.604716 129.858183 
L 217.007014 130.219474 
L 218.213909 130.733499 
L 219.823101 130.653517 
L 220.627697 130.151848 
L 221.029995 129.843623 
L 222.236889 129.506522 
L 223.443784 127.543708 
L 223.846082 127.27864 
L 225.857572 126.577702 
L 226.25987 126.582533 
L 226.662168 126.777298 
L 228.27136 127.203849 
L 229.075957 126.797751 
L 230.685149 126.360036 
L 232.294341 124.909924 
L 233.501235 124.357622 
L 235.110428 122.507175 
L 236.317322 122.117384 
L 237.926514 120.800892 
L 239.133408 120.389669 
L 240.340303 119.006906 
L 240.742601 118.245785 
L 241.949495 117.330412 
L 242.754091 115.359992 
L 243.558687 113.358949 
L 244.765581 112.425981 
L 245.570178 110.519905 
L 246.374774 109.102946 
L 247.581668 108.288302 
L 248.788562 106.58827 
L 249.19086 106.143977 
L 250.397754 105.830251 
L 252.006947 104.389933 
L 253.616139 103.533225 
L 254.420735 101.889622 
L 254.823033 100.922995 
L 256.029928 99.877023 
L 256.834524 97.866856 
L 257.236822 96.991426 
L 257.63912 96.392212 
L 258.846014 95.82135 
L 259.65061 95.268036 
L 260.455206 94.827889 
L 261.662101 94.737639 
L 262.466697 94.308804 
L 262.868995 94.006863 
L 263.271293 93.897581 
L 264.478187 93.784593 
L 264.880485 93.630424 
L 265.282783 93.0926 
L 266.087379 91.548289 
L 267.294274 90.73722 
L 267.696572 90.019616 
L 268.501168 89.269643 
L 268.903466 88.441141 
L 270.11036 87.611823 
L 271.719552 84.676914 
L 272.926447 83.713176 
L 274.535639 79.910738 
L 275.742533 78.899109 
L 276.547129 76.513596 
L 277.351725 73.515143 
L 278.55862 71.850744 
L 280.167812 65.374661 
L 281.374706 64.073153 
L 282.983898 58.000932 
L 284.190793 56.812444 
L 285.799985 52.26018 
L 287.006879 51.088945 
L 288.616071 45.983873 
L 289.822966 44.565836 
L 291.432158 39.016241 
L 293.04135 37.715713 
L 293.443648 36.252674 
L 293.845946 35.212872 
L 294.248245 34.682916 
L 295.455139 34.082869 
L 296.259735 33.153948 
L 296.662033 32.577456 
L 297.064331 32.207791 
L 298.271225 31.773814 
L 299.075821 30.724919 
L 299.478119 30.517569 
L 299.880418 30.146125 
L 301.087312 30.02971 
L 301.891908 30.320046 
L 302.294206 30.171246 
L 302.696504 29.892516 
L 303.903398 30.203157 
L 304.707994 31.320232 
L 305.110293 31.699414 
L 305.512591 32.234218 
L 306.719485 33.005263 
L 308.328677 38.398256 
L 309.535571 39.452308 
L 309.937869 40.689503 
L 311.144764 46.267614 
L 312.351658 48.158999 
L 313.558552 52.743191 
L 313.96085 54.330202 
L 315.167744 55.581713 
L 316.374639 61.090468 
L 316.776937 63.219792 
L 317.983831 65.417492 
L 319.593023 74.935889 
L 320.799917 77.177955 
L 322.40911 87.444823 
L 323.616004 89.948366 
L 324.4206 94.849517 
L 325.225196 97.295636 
L 326.43209 99.533638 
L 328.041283 110.678352 
L 329.248177 113.242828 
L 329.650475 115.65271 
L 330.455071 117.963398 
L 330.857369 120.403886 
L 332.064263 122.940973 
L 332.86886 127.521966 
L 333.673456 131.183864 
L 334.88035 133.342096 
L 335.684946 137.341569 
L 336.489542 140.284737 
L 337.696436 141.125775 
L 338.501033 142.099192 
L 338.903331 143.153065 
L 339.305629 143.722979 
L 341.719417 143.984342 
L 342.121715 144.11899 
L 343.32861 144.278416 
L 344.937802 145.786816 
L 346.546994 146.059131 
L 347.35159 145.770069 
L 347.753888 145.522923 
L 349.363081 145.28993 
L 349.765379 145.107913 
L 350.569975 144.319696 
L 351.776869 143.908571 
L 352.581465 142.587721 
L 353.386061 140.662482 
L 354.592956 139.784473 
L 356.202148 135.586252 
L 357.409042 133.766459 
L 359.018234 127.372317 
L 360.627427 125.976496 
L 361.834321 121.643791 
L 363.041215 120.24668 
L 364.248109 115.675987 
L 364.650407 114.013204 
L 365.857302 112.25157 
L 367.466494 105.672016 
L 368.673388 104.373757 
L 369.880282 100.774261 
L 370.28258 99.584614 
L 371.489475 98.2399 
L 373.098667 92.624344 
L 374.305561 91.299463 
L 374.707859 90.114517 
L 375.914753 85.513545 
L 377.121648 84.122408 
L 378.73084 79.896275 
L 379.937734 79.44684 
L 380.74233 78.284633 
L 381.546927 76.971536 
L 382.753821 76.545132 
L 383.156119 76.215622 
L 383.558417 76.11566 
L 385.569907 76.328642 
L 386.776801 77.296688 
L 387.1791 77.783258 
L 387.1791 77.783258 
" clip-path="url(#p2f03c4152b)" style="fill: none; stroke: #bc80bd; stroke-width: 2; stroke-linecap: square"/>
   </g>
   <g id="patch_3">
    <path d="M 46.291827 242.467119 
L 46.291827 7.459119 
" style="fill: none; stroke: #000000; stroke-width: 0.6; stroke-linejoin: miter; stroke-linecap: square"/>
   </g>
   <g id="patch_4">
    <path d="M 46.291827 242.467119 
L 403.411827 242.467119 
" style="fill: none; stroke: #000000; stroke-width: 0.6; stroke-linejoin: miter; stroke-linecap: square"/>
   </g>
  </g>
 </g>
 <defs>
  <clipPath id="p2f03c4152b">
   <rect x="46.291827" y="7.459119" width="357.12" height="235.008"/>
  </clipPath>
 </defs>
</svg>