<?xml version="1.0" encoding="UTF-8" standalone="no"?>
<!DOCTYPE svg PUBLIC "-//W3C//DTD SVG 1.1//EN"
 "http://www.w3.org/Graphics/SVG/1.1/DTD/svg11.dtd">
<!-- Generated by graphviz version 2.43.0 (0)
 -->
<!-- Title: %3 Pages: 1 -->
<svg width="389pt" height="279pt"
 viewBox="0.00 0.00 388.99 279.00" xmlns="http://www.w3.org/2000/svg" xmlns:xlink="http://www.w3.org/1999/xlink">
<g id="graph0" class="graph" transform="scale(1 1) rotate(0) translate(4 275)">
<title>%3</title>
<polygon fill="white" stroke="transparent" points="-4,4 -4,-275 384.99,-275 384.99,4 -4,4"/>
<g id="clust1" class="cluster">
<title>cluster_0</title>
<polygon fill="lightgrey" stroke="lightgrey" points="87.25,-8 87.25,-227 221.25,-227 221.25,-8 87.25,-8"/>
<text text-anchor="middle" x="154.25" y="-211.8" font-family="Times,serif" font-size="14.00">Understand</text>
</g>
<!-- Import -->
<g id="node1" class="node">
<title>Import</title>
<ellipse fill="none" stroke="black" cx="42.25" cy="-253" rx="42.49" ry="18"/>
<text text-anchor="middle" x="42.25" y="-249.3" font-family="Times,serif" font-size="14.00">Import</text>
</g>
<!-- Clean -->
<g id="node2" class="node">
<title>Clean</title>
<ellipse fill="none" stroke="black" cx="42.25" cy="-178" rx="37.09" ry="18"/>
<text text-anchor="middle" x="42.25" y="-174.3" font-family="Times,serif" font-size="14.00">Clean</text>
</g>
<!-- Import&#45;&gt;Clean -->
<g id="edge1" class="edge">
<title>Import&#45;&gt;Clean</title>
<path fill="none" stroke="black" d="M42.25,-234.7C42.25,-226.25 42.25,-215.87 42.25,-206.37"/>
<polygon fill="black" stroke="black" points="45.75,-206.18 42.25,-196.18 38.75,-206.18 45.75,-206.18"/>
</g>
<!-- Analyse -->
<g id="node4" class="node">
<title>Analyse</title>
<ellipse fill="white" stroke="white" cx="144.25" cy="-106" rx="46.59" ry="18"/>
<text text-anchor="middle" x="144.25" y="-102.3" font-family="Times,serif" font-size="14.00">Analyse</text>
</g>
<!-- Clean&#45;&gt;Analyse -->
<g id="edge5" class="edge">
<title>Clean&#45;&gt;Analyse</title>
<path fill="none" stroke="black" d="M62.89,-162.83C67.72,-159.52 73.13,-155.8 78.8,-151.92"/>
<polygon fill="black" stroke="black" points="80.99,-154.66 87.25,-146.11 77.02,-148.89 80.99,-154.66"/>
</g>
<!-- Visualise -->
<g id="node3" class="node">
<title>Visualise</title>
<ellipse fill="white" stroke="white" cx="155.25" cy="-178" rx="51.99" ry="18"/>
<text text-anchor="middle" x="155.25" y="-174.3" font-family="Times,serif" font-size="14.00">Visualise</text>
</g>
<!-- Visualise&#45;&gt;Analyse -->
<g id="edge2" class="edge">
<title>Visualise&#45;&gt;Analyse</title>
<path fill="none" stroke="black" d="M152.53,-159.7C151.31,-151.98 149.86,-142.71 148.51,-134.11"/>
<polygon fill="black" stroke="black" points="151.94,-133.44 146.93,-124.1 145.03,-134.53 151.94,-133.44"/>
</g>
<!-- Transform -->
<g id="node5" class="node">
<title>Transform</title>
<ellipse fill="white" stroke="white" cx="154.25" cy="-34" rx="59.29" ry="18"/>
<text text-anchor="middle" x="154.25" y="-30.3" font-family="Times,serif" font-size="14.00">Transform</text>
</g>
<!-- Analyse&#45;&gt;Transform -->
<g id="edge3" class="edge">
<title>Analyse&#45;&gt;Transform</title>
<path fill="none" stroke="black" d="M146.72,-87.7C147.82,-79.98 149.14,-70.71 150.37,-62.11"/>
<polygon fill="black" stroke="black" points="153.85,-62.5 151.8,-52.1 146.92,-61.51 153.85,-62.5"/>
</g>
<!-- Communicate -->
<g id="node6" class="node">
<title>Communicate</title>
<ellipse fill="none" stroke="black" cx="306.25" cy="-34" rx="74.99" ry="18"/>
<text text-anchor="middle" x="306.25" y="-30.3" font-family="Times,serif" font-size="14.00">Communicate</text>
</g>
<!-- Analyse&#45;&gt;Communicate -->
<g id="edge6" class="edge">
<title>Analyse&#45;&gt;Communicate</title>
<path fill="none" stroke="black" d="M221.25,-71.73C235.24,-65.68 249.39,-59.57 262.02,-54.11"/>
<polygon fill="black" stroke="black" points="263.74,-57.18 271.54,-50 260.97,-50.75 263.74,-57.18"/>
</g>
<!-- Transform&#45;&gt;Visualise -->
<g id="edge4" class="edge">
<title>Transform&#45;&gt;Visualise</title>
<path fill="none" stroke="black" d="M174.11,-51.45C184,-60.97 194.96,-73.85 200.25,-88 205.84,-102.99 205.76,-108.98 200.25,-124 196.23,-134.93 188.85,-145.15 181.22,-153.64"/>
<polygon fill="black" stroke="black" points="178.62,-151.29 174.22,-160.92 183.67,-156.14 178.62,-151.29"/>
</g>
</g>
</svg>