<?xml version="1.0" encoding="utf-8" standalone="no"?>
<!DOCTYPE svg PUBLIC "-//W3C//DTD SVG 1.1//EN"
  "http://www.w3.org/Graphics/SVG/1.1/DTD/svg11.dtd">
<svg xmlns:xlink="http://www.w3.org/1999/xlink" width="402.52pt" height="312.112pt" viewBox="0 0 402.52 312.112" xmlns="http://www.w3.org/2000/svg" version="1.1">
 <metadata>
  <rdf:RDF xmlns:dc="http://purl.org/dc/elements/1.1/" xmlns:cc="http://creativecommons.org/ns#" xmlns:rdf="http://www.w3.org/1999/02/22-rdf-syntax-ns#">
   <cc:Work>
    <dc:type rdf:resource="http://purl.org/dc/dcmitype/StillImage"/>
    <dc:date>2025-01-07T18:15:08.521023</dc:date>
    <dc:format>image/svg+xml</dc:format>
    <dc:creator>
     <cc:Agent>
      <dc:title>Matplotlib v3.10.0, https://matplotlib.org/</dc:title>
     </cc:Agent>
    </dc:creator>
   </cc:Work>
  </rdf:RDF>
 </metadata>
 <defs>
  <style type="text/css">*{stroke-linejoin: round; stroke-linecap: butt}</style>
 </defs>
 <g id="figure_1">
  <g id="patch_1">
   <path d="M 0 312.112 
L 402.52 312.112 
L 402.52 0 
L 0 0 
z
" style="fill: #ffffff"/>
  </g>
  <g id="axes_1">
   <g id="patch_2">
    <path d="M 38.2 273.312 
L 395.32 273.312 
L 395.32 7.2 
L 38.2 7.2 
z
" style="fill: #ffffff"/>
   </g>
   <g id="matplotlib.axis_1">
    <g id="xtick_1">
     <g id="line2d_1">
      <defs>
       <path id="m741804fa25" d="M 0 0 
L 0 3.5 
" style="stroke: #323034; stroke-width: 0.8"/>
      </defs>
      <g>
       <use xlink:href="#m741804fa25" x="69.944" y="273.312" style="fill: #323034; stroke: #323034; stroke-width: 0.8"/>
      </g>
     </g>
     <g id="text_1">
      <!-- 2011 -->
      <g style="fill: #323034" transform="translate(57.944 288.507625) scale(0.12 -0.12)">
       <defs>
        <path id="STIXGeneral-Regular-32" d="M 3034 877 
L 2688 0 
L 186 0 
L 186 77 
L 1325 1286 
Q 1773 1754 1965 2144 
Q 2157 2534 2157 2950 
Q 2157 3379 1920 3616 
Q 1683 3853 1267 3853 
Q 922 3853 720 3673 
Q 518 3494 326 3021 
L 192 3053 
Q 301 3648 630 3987 
Q 960 4326 1523 4326 
Q 2054 4326 2380 4006 
Q 2707 3686 2707 3200 
Q 2707 2477 1888 1613 
L 832 486 
L 2330 486 
Q 2541 486 2665 569 
Q 2790 653 2944 915 
L 3034 877 
z
" transform="scale(0.015625)"/>
        <path id="STIXGeneral-Regular-30" d="M 3046 2112 
Q 3046 1683 2963 1302 
Q 2880 922 2717 602 
Q 2554 282 2266 96 
Q 1978 -90 1600 -90 
Q 1210 -90 915 108 
Q 621 307 461 640 
Q 301 973 227 1350 
Q 154 1728 154 2150 
Q 154 2746 301 3222 
Q 448 3699 790 4012 
Q 1133 4326 1626 4326 
Q 2253 4326 2649 3712 
Q 3046 3098 3046 2112 
z
M 2432 2080 
Q 2432 3091 2217 3625 
Q 2003 4160 1587 4160 
Q 1190 4160 979 3622 
Q 768 3085 768 2106 
Q 768 1120 979 598 
Q 1190 77 1600 77 
Q 2003 77 2217 598 
Q 2432 1120 2432 2080 
z
" transform="scale(0.015625)"/>
        <path id="STIXGeneral-Regular-31" d="M 2522 0 
L 755 0 
L 755 96 
Q 1107 115 1235 227 
Q 1363 339 1363 608 
L 1363 3482 
Q 1363 3795 1171 3795 
Q 1082 3795 883 3718 
L 710 3654 
L 710 3744 
L 1856 4326 
L 1914 4307 
L 1914 486 
Q 1914 275 2042 185 
Q 2170 96 2522 96 
L 2522 0 
z
" transform="scale(0.015625)"/>
       </defs>
       <use xlink:href="#STIXGeneral-Regular-32"/>
       <use xlink:href="#STIXGeneral-Regular-30" transform="translate(49.999985 0)"/>
       <use xlink:href="#STIXGeneral-Regular-31" transform="translate(99.999969 0)"/>
       <use xlink:href="#STIXGeneral-Regular-31" transform="translate(149.999954 0)"/>
      </g>
     </g>
    </g>
    <g id="xtick_2">
     <g id="line2d_2">
      <g>
       <use xlink:href="#m741804fa25" x="117.56" y="273.312" style="fill: #323034; stroke: #323034; stroke-width: 0.8"/>
      </g>
     </g>
     <g id="text_2">
      <!-- 2013 -->
      <g style="fill: #323034" transform="translate(105.56 288.507625) scale(0.12 -0.12)">
       <defs>
        <path id="STIXGeneral-Regular-33" d="M 390 3264 
L 288 3290 
Q 435 3770 748 4048 
Q 1062 4326 1542 4326 
Q 1990 4326 2265 4083 
Q 2541 3840 2541 3450 
Q 2541 2925 1946 2566 
Q 2298 2413 2477 2227 
Q 2758 1914 2758 1402 
Q 2758 890 2464 506 
Q 2246 211 1840 60 
Q 1434 -90 979 -90 
Q 262 -90 262 275 
Q 262 378 339 442 
Q 416 506 525 506 
Q 685 506 915 339 
Q 1197 141 1466 141 
Q 1818 141 2058 425 
Q 2298 710 2298 1120 
Q 2298 1856 1632 2048 
Q 1434 2112 979 2112 
L 979 2202 
Q 1338 2323 1517 2432 
Q 2035 2726 2035 3290 
Q 2035 3610 1852 3776 
Q 1670 3942 1344 3942 
Q 768 3942 390 3264 
z
" transform="scale(0.015625)"/>
       </defs>
       <use xlink:href="#STIXGeneral-Regular-32"/>
       <use xlink:href="#STIXGeneral-Regular-30" transform="translate(49.999985 0)"/>
       <use xlink:href="#STIXGeneral-Regular-31" transform="translate(99.999969 0)"/>
       <use xlink:href="#STIXGeneral-Regular-33" transform="translate(149.999954 0)"/>
      </g>
     </g>
    </g>
    <g id="xtick_3">
     <g id="line2d_3">
      <g>
       <use xlink:href="#m741804fa25" x="165.176" y="273.312" style="fill: #323034; stroke: #323034; stroke-width: 0.8"/>
      </g>
     </g>
     <g id="text_3">
      <!-- 2015 -->
      <g style="fill: #323034" transform="translate(153.176 288.507625) scale(0.12 -0.12)">
       <defs>
        <path id="STIXGeneral-Regular-35" d="M 2803 4358 
L 2573 3814 
Q 2534 3731 2400 3731 
L 1158 3731 
L 902 3187 
Q 1606 3053 1920 2896 
Q 2234 2739 2502 2368 
Q 2726 2061 2726 1555 
Q 2726 1094 2576 780 
Q 2426 467 2099 224 
Q 1664 -90 1011 -90 
Q 646 -90 422 19 
Q 198 128 198 307 
Q 198 550 486 550 
Q 717 550 960 352 
Q 1210 147 1414 147 
Q 1747 147 2012 480 
Q 2278 813 2278 1229 
Q 2278 1843 1850 2189 
Q 1293 2637 486 2637 
Q 410 2637 410 2688 
L 416 2720 
L 1114 4237 
L 2438 4237 
Q 2547 4237 2608 4269 
Q 2669 4301 2746 4403 
L 2803 4358 
z
" transform="scale(0.015625)"/>
       </defs>
       <use xlink:href="#STIXGeneral-Regular-32"/>
       <use xlink:href="#STIXGeneral-Regular-30" transform="translate(49.999985 0)"/>
       <use xlink:href="#STIXGeneral-Regular-31" transform="translate(99.999969 0)"/>
       <use xlink:href="#STIXGeneral-Regular-35" transform="translate(149.999954 0)"/>
      </g>
     </g>
    </g>
    <g id="xtick_4">
     <g id="line2d_4">
      <g>
       <use xlink:href="#m741804fa25" x="212.792" y="273.312" style="fill: #323034; stroke: #323034; stroke-width: 0.8"/>
      </g>
     </g>
     <g id="text_4">
      <!-- 2017 -->
      <g style="fill: #323034" transform="translate(200.792 288.507625) scale(0.12 -0.12)">
       <defs>
        <path id="STIXGeneral-Regular-37" d="M 2874 4134 
L 1517 -51 
L 1101 -51 
L 2368 3763 
L 992 3763 
Q 717 3763 582 3667 
Q 448 3571 243 3238 
L 128 3296 
L 512 4237 
L 2874 4237 
L 2874 4134 
z
" transform="scale(0.015625)"/>
       </defs>
       <use xlink:href="#STIXGeneral-Regular-32"/>
       <use xlink:href="#STIXGeneral-Regular-30" transform="translate(49.999985 0)"/>
       <use xlink:href="#STIXGeneral-Regular-31" transform="translate(99.999969 0)"/>
       <use xlink:href="#STIXGeneral-Regular-37" transform="translate(149.999954 0)"/>
      </g>
     </g>
    </g>
    <g id="xtick_5">
     <g id="line2d_5">
      <g>
       <use xlink:href="#m741804fa25" x="260.408" y="273.312" style="fill: #323034; stroke: #323034; stroke-width: 0.8"/>
      </g>
     </g>
     <g id="text_5">
      <!-- 2019 -->
      <g style="fill: #323034" transform="translate(248.408 288.507625) scale(0.12 -0.12)">
       <defs>
        <path id="STIXGeneral-Regular-39" d="M 378 -141 
L 358 -13 
Q 1094 115 1603 608 
Q 2112 1101 2304 1882 
Q 1933 1517 1344 1517 
Q 826 1517 509 1875 
Q 192 2234 192 2816 
Q 192 3462 573 3894 
Q 954 4326 1523 4326 
Q 2131 4326 2528 3840 
Q 2938 3328 2938 2522 
Q 2938 1958 2742 1462 
Q 2547 966 2170 621 
Q 1773 262 1395 105 
Q 1018 -51 378 -141 
z
M 2317 2272 
L 2317 2522 
Q 2317 4147 1472 4147 
Q 1171 4147 1005 3930 
Q 909 3802 845 3546 
Q 781 3290 781 3034 
Q 781 2464 995 2128 
Q 1210 1792 1568 1792 
Q 1824 1792 2070 1917 
Q 2317 2042 2317 2272 
z
" transform="scale(0.015625)"/>
       </defs>
       <use xlink:href="#STIXGeneral-Regular-32"/>
       <use xlink:href="#STIXGeneral-Regular-30" transform="translate(49.999985 0)"/>
       <use xlink:href="#STIXGeneral-Regular-31" transform="translate(99.999969 0)"/>
       <use xlink:href="#STIXGeneral-Regular-39" transform="translate(149.999954 0)"/>
      </g>
     </g>
    </g>
    <g id="xtick_6">
     <g id="line2d_6">
      <g>
       <use xlink:href="#m741804fa25" x="308.024" y="273.312" style="fill: #323034; stroke: #323034; stroke-width: 0.8"/>
      </g>
     </g>
     <g id="text_6">
      <!-- 2021 -->
      <g style="fill: #323034" transform="translate(296.024 288.507625) scale(0.12 -0.12)">
       <use xlink:href="#STIXGeneral-Regular-32"/>
       <use xlink:href="#STIXGeneral-Regular-30" transform="translate(49.999985 0)"/>
       <use xlink:href="#STIXGeneral-Regular-32" transform="translate(99.999969 0)"/>
       <use xlink:href="#STIXGeneral-Regular-31" transform="translate(149.999954 0)"/>
      </g>
     </g>
    </g>
    <g id="xtick_7">
     <g id="line2d_7">
      <g>
       <use xlink:href="#m741804fa25" x="355.64" y="273.312" style="fill: #323034; stroke: #323034; stroke-width: 0.8"/>
      </g>
     </g>
     <g id="text_7">
      <!-- 2023 -->
      <g style="fill: #323034" transform="translate(343.64 288.507625) scale(0.12 -0.12)">
       <use xlink:href="#STIXGeneral-Regular-32"/>
       <use xlink:href="#STIXGeneral-Regular-30" transform="translate(49.999985 0)"/>
       <use xlink:href="#STIXGeneral-Regular-32" transform="translate(99.999969 0)"/>
       <use xlink:href="#STIXGeneral-Regular-33" transform="translate(149.999954 0)"/>
      </g>
     </g>
    </g>
    <g id="xtick_8">
     <g id="line2d_8">
      <defs>
       <path id="ma7e2a38f1e" d="M 0 0 
L 0 2 
" style="stroke: #323034; stroke-width: 0.6"/>
      </defs>
      <g>
       <use xlink:href="#ma7e2a38f1e" x="46.136" y="273.312" style="fill: #323034; stroke: #323034; stroke-width: 0.6"/>
      </g>
     </g>
    </g>
    <g id="xtick_9">
     <g id="line2d_9">
      <g>
       <use xlink:href="#ma7e2a38f1e" x="93.752" y="273.312" style="fill: #323034; stroke: #323034; stroke-width: 0.6"/>
      </g>
     </g>
    </g>
    <g id="xtick_10">
     <g id="line2d_10">
      <g>
       <use xlink:href="#ma7e2a38f1e" x="141.368" y="273.312" style="fill: #323034; stroke: #323034; stroke-width: 0.6"/>
      </g>
     </g>
    </g>
    <g id="xtick_11">
     <g id="line2d_11">
      <g>
       <use xlink:href="#ma7e2a38f1e" x="188.984" y="273.312" style="fill: #323034; stroke: #323034; stroke-width: 0.6"/>
      </g>
     </g>
    </g>
    <g id="xtick_12">
     <g id="line2d_12">
      <g>
       <use xlink:href="#ma7e2a38f1e" x="236.6" y="273.312" style="fill: #323034; stroke: #323034; stroke-width: 0.6"/>
      </g>
     </g>
    </g>
    <g id="xtick_13">
     <g id="line2d_13">
      <g>
       <use xlink:href="#ma7e2a38f1e" x="284.216" y="273.312" style="fill: #323034; stroke: #323034; stroke-width: 0.6"/>
      </g>
     </g>
    </g>
    <g id="xtick_14">
     <g id="line2d_14">
      <g>
       <use xlink:href="#ma7e2a38f1e" x="331.832" y="273.312" style="fill: #323034; stroke: #323034; stroke-width: 0.6"/>
      </g>
     </g>
    </g>
    <g id="xtick_15">
     <g id="line2d_15">
      <g>
       <use xlink:href="#ma7e2a38f1e" x="379.448" y="273.312" style="fill: #323034; stroke: #323034; stroke-width: 0.6"/>
      </g>
     </g>
    </g>
    <g id="text_8">
     <!-- date -->
     <g transform="translate(206.763438 302.307625) scale(0.12 -0.12)">
      <defs>
       <path id="STIXGeneral-Regular-64" d="M 3142 269 
L 2202 -64 
L 2176 -45 
L 2176 365 
Q 1869 -64 1357 -64 
Q 826 -64 499 317 
Q 173 698 173 1312 
Q 173 1990 563 2467 
Q 954 2944 1504 2944 
Q 1850 2944 2176 2669 
L 2176 3667 
Q 2176 3866 2118 3930 
Q 2061 3994 1882 3994 
Q 1792 3994 1741 3987 
L 1741 4090 
Q 2323 4243 2682 4371 
L 2714 4358 
L 2714 730 
Q 2714 506 2768 435 
Q 2822 365 2995 365 
Q 3034 365 3142 371 
L 3142 269 
z
M 2176 653 
L 2176 2125 
Q 2176 2381 1981 2573 
Q 1786 2765 1523 2765 
Q 1158 2765 940 2438 
Q 723 2112 723 1568 
Q 723 979 963 624 
Q 1203 269 1606 269 
Q 1907 269 2080 474 
Q 2176 582 2176 653 
z
" transform="scale(0.015625)"/>
       <path id="STIXGeneral-Regular-61" d="M 2829 422 
L 2829 243 
Q 2586 -64 2253 -64 
Q 1888 -64 1843 403 
L 1837 403 
Q 1427 -64 909 -64 
Q 608 -64 422 112 
Q 237 288 237 602 
Q 237 1050 685 1350 
Q 992 1555 1837 1869 
L 1837 2214 
Q 1837 2502 1699 2646 
Q 1562 2790 1338 2790 
Q 1146 2790 1018 2697 
Q 890 2605 890 2477 
Q 890 2419 909 2348 
Q 928 2278 928 2208 
Q 928 2112 841 2029 
Q 755 1946 634 1946 
Q 525 1946 441 2029 
Q 358 2112 358 2240 
Q 358 2547 685 2752 
Q 986 2944 1421 2944 
Q 1939 2944 2176 2656 
Q 2291 2522 2323 2384 
Q 2355 2246 2355 1946 
L 2355 723 
Q 2355 301 2554 301 
Q 2682 301 2829 422 
z
M 1837 813 
L 1837 1715 
Q 1248 1510 1018 1293 
Q 800 1094 800 800 
Q 800 557 921 432 
Q 1043 307 1242 307 
Q 1453 307 1613 410 
Q 1747 506 1792 589 
Q 1837 672 1837 813 
z
" transform="scale(0.015625)"/>
       <path id="STIXGeneral-Regular-74" d="M 1702 493 
L 1786 422 
Q 1478 -64 1011 -64 
Q 448 -64 448 749 
L 448 2675 
L 109 2675 
Q 83 2694 83 2720 
Q 83 2771 192 2842 
Q 435 2982 813 3526 
Q 826 3546 874 3606 
Q 922 3667 941 3706 
Q 986 3706 986 3622 
L 986 2880 
L 1632 2880 
L 1632 2675 
L 986 2675 
L 986 845 
Q 986 538 1062 403 
Q 1139 269 1318 269 
Q 1510 269 1702 493 
z
" transform="scale(0.015625)"/>
       <path id="STIXGeneral-Regular-65" d="M 2611 1050 
L 2714 1005 
Q 2330 -64 1376 -64 
Q 813 -64 486 329 
Q 160 723 160 1389 
Q 160 2074 525 2509 
Q 890 2944 1485 2944 
Q 2061 2944 2374 2502 
Q 2560 2246 2592 1773 
L 621 1773 
Q 646 1370 700 1158 
Q 755 947 915 730 
Q 1184 378 1626 378 
Q 1939 378 2153 531 
Q 2368 685 2611 1050 
z
M 634 1978 
L 1939 1978 
Q 1882 2381 1750 2547 
Q 1619 2714 1312 2714 
Q 1043 2714 864 2525 
Q 685 2336 634 1978 
z
" transform="scale(0.015625)"/>
      </defs>
      <use xlink:href="#STIXGeneral-Regular-64"/>
      <use xlink:href="#STIXGeneral-Regular-61" transform="translate(49.999985 0)"/>
      <use xlink:href="#STIXGeneral-Regular-74" transform="translate(94.399979 0)"/>
      <use xlink:href="#STIXGeneral-Regular-65" transform="translate(122.199966 0)"/>
     </g>
    </g>
   </g>
   <g id="matplotlib.axis_2">
    <g id="ytick_1">
     <g id="line2d_16">
      <defs>
       <path id="m1692dcec92" d="M 0 0 
L -3.5 0 
" style="stroke: #323034; stroke-width: 0.8"/>
      </defs>
      <g>
       <use xlink:href="#m1692dcec92" x="38.2" y="231.866459" style="fill: #323034; stroke: #323034; stroke-width: 0.8"/>
      </g>
     </g>
     <g id="text_9">
      <!-- $\mathdefault{400}$ -->
      <g style="fill: #323034" transform="translate(13.2 235.964272) scale(0.12 -0.12)">
       <defs>
        <path id="STIXGeneral-Regular-34" d="M 3027 1069 
L 2368 1069 
L 2368 0 
L 1869 0 
L 1869 1069 
L 77 1069 
L 77 1478 
L 2086 4326 
L 2368 4326 
L 2368 1478 
L 3027 1478 
L 3027 1069 
z
M 1869 1478 
L 1869 3674 
L 333 1478 
L 1869 1478 
z
" transform="scale(0.015625)"/>
       </defs>
       <use xlink:href="#STIXGeneral-Regular-34" transform="translate(0 0.40625)"/>
       <use xlink:href="#STIXGeneral-Regular-30" transform="translate(49.999985 0.40625)"/>
       <use xlink:href="#STIXGeneral-Regular-30" transform="translate(99.999969 0.40625)"/>
      </g>
     </g>
    </g>
    <g id="ytick_2">
     <g id="line2d_17">
      <g>
       <use xlink:href="#m1692dcec92" x="38.2" y="174.87706" style="fill: #323034; stroke: #323034; stroke-width: 0.8"/>
      </g>
     </g>
     <g id="text_10">
      <!-- $\mathdefault{600}$ -->
      <g style="fill: #323034" transform="translate(13.2 178.974873) scale(0.12 -0.12)">
       <defs>
        <path id="STIXGeneral-Regular-36" d="M 2854 4378 
L 2867 4275 
Q 2112 4154 1606 3664 
Q 1101 3174 973 2451 
Q 1344 2739 1786 2739 
Q 2349 2739 2672 2380 
Q 2995 2022 2995 1402 
Q 2995 774 2669 378 
Q 2291 -90 1651 -90 
Q 870 -90 518 557 
Q 218 1107 218 1786 
Q 218 2835 915 3552 
Q 1312 3962 1731 4131 
Q 2150 4301 2854 4378 
z
M 2419 1203 
Q 2419 2445 1555 2445 
Q 1235 2445 1024 2275 
Q 813 2106 813 1702 
Q 813 954 1046 522 
Q 1280 90 1722 90 
Q 2061 90 2240 394 
Q 2419 698 2419 1203 
z
" transform="scale(0.015625)"/>
       </defs>
       <use xlink:href="#STIXGeneral-Regular-36" transform="translate(0 0.59375)"/>
       <use xlink:href="#STIXGeneral-Regular-30" transform="translate(49.999985 0.59375)"/>
       <use xlink:href="#STIXGeneral-Regular-30" transform="translate(99.999969 0.59375)"/>
      </g>
     </g>
    </g>
    <g id="ytick_3">
     <g id="line2d_18">
      <g>
       <use xlink:href="#m1692dcec92" x="38.2" y="117.887661" style="fill: #323034; stroke: #323034; stroke-width: 0.8"/>
      </g>
     </g>
     <g id="text_11">
      <!-- $\mathdefault{800}$ -->
      <g style="fill: #323034" transform="translate(13.2 121.985473) scale(0.12 -0.12)">
       <defs>
        <path id="STIXGeneral-Regular-38" d="M 2848 992 
Q 2848 499 2505 204 
Q 2163 -90 1587 -90 
Q 1050 -90 704 204 
Q 358 499 358 954 
Q 358 1293 524 1533 
Q 691 1773 1190 2125 
Q 710 2522 553 2765 
Q 397 3008 397 3328 
Q 397 3782 745 4054 
Q 1094 4326 1638 4326 
Q 2106 4326 2410 4060 
Q 2714 3795 2714 3411 
Q 2714 3059 2531 2848 
Q 2349 2637 1856 2374 
Q 2432 1990 2640 1689 
Q 2848 1389 2848 992 
z
M 2272 3411 
Q 2272 3744 2086 3945 
Q 1901 4147 1574 4147 
Q 1248 4147 1059 3977 
Q 870 3808 870 3513 
Q 870 3219 1059 2979 
Q 1248 2739 1670 2490 
Q 1997 2682 2134 2896 
Q 2272 3110 2272 3411 
z
M 1734 1741 
L 1357 1997 
Q 1075 1766 960 1545 
Q 845 1325 845 1011 
Q 845 576 1065 333 
Q 1286 90 1658 90 
Q 1971 90 2166 285 
Q 2362 480 2362 794 
Q 2362 1082 2214 1299 
Q 2067 1517 1734 1741 
z
" transform="scale(0.015625)"/>
       </defs>
       <use xlink:href="#STIXGeneral-Regular-38" transform="translate(0 0.40625)"/>
       <use xlink:href="#STIXGeneral-Regular-30" transform="translate(49.999985 0.40625)"/>
       <use xlink:href="#STIXGeneral-Regular-30" transform="translate(99.999969 0.40625)"/>
      </g>
     </g>
    </g>
    <g id="ytick_4">
     <g id="line2d_19">
      <g>
       <use xlink:href="#m1692dcec92" x="38.2" y="60.898261" style="fill: #323034; stroke: #323034; stroke-width: 0.8"/>
      </g>
     </g>
     <g id="text_12">
      <!-- $\mathdefault{1000}$ -->
      <g style="fill: #323034" transform="translate(7.2 64.996074) scale(0.12 -0.12)">
       <use xlink:href="#STIXGeneral-Regular-31" transform="translate(0 0.40625)"/>
       <use xlink:href="#STIXGeneral-Regular-30" transform="translate(49.999985 0.40625)"/>
       <use xlink:href="#STIXGeneral-Regular-30" transform="translate(99.999969 0.40625)"/>
       <use xlink:href="#STIXGeneral-Regular-30" transform="translate(149.999954 0.40625)"/>
      </g>
     </g>
    </g>
   </g>
   <g id="line2d_20">
    <path d="M 38.2 234.430982 
L 40.184 233.291194 
L 42.168 228.732042 
L 44.152 226.737413 
L 46.136 224.457837 
L 48.12 225.597625 
L 52.088 222.178261 
L 54.072 221.038473 
L 56.056 223.887943 
L 58.04 228.732042 
L 60.024 230.156777 
L 62.008 230.441724 
L 63.992 225.312678 
L 65.976 223.318049 
L 67.96 220.753527 
L 69.944 221.893314 
L 71.928 224.457837 
L 73.912 228.162148 
L 75.896 230.726671 
L 77.88 229.87183 
L 79.864 230.441724 
L 81.848 229.016989 
L 83.832 228.732042 
L 85.816 227.877201 
L 87.8 229.301936 
L 89.784 228.732042 
L 91.768 227.877201 
L 93.752 227.877201 
L 95.736 229.586883 
L 97.72 230.156777 
L 99.704 228.447095 
L 101.688 227.592254 
L 103.672 225.597625 
L 105.656 224.17289 
L 107.64 223.318049 
L 109.624 223.318049 
L 111.608 221.893314 
L 113.592 219.328792 
L 115.576 219.328792 
L 117.56 217.904057 
L 119.544 218.189004 
L 121.528 215.054587 
L 123.512 213.914799 
L 125.496 210.780382 
L 127.48 209.0707 
L 129.464 209.355647 
L 131.448 206.22123 
L 133.432 205.651336 
L 135.416 201.947025 
L 137.4 201.092184 
L 139.384 198.812608 
L 141.368 194.82335 
L 143.352 190.549145 
L 145.336 185.420099 
L 147.32 181.145894 
L 149.304 178.011477 
L 151.288 177.156636 
L 153.272 174.592113 
L 155.256 174.022219 
L 157.24 168.608226 
L 159.224 167.468438 
L 161.208 166.043703 
L 163.192 166.613597 
L 165.176 164.334021 
L 167.16 161.484551 
L 171.128 160.914657 
L 173.112 160.914657 
L 175.096 158.635081 
L 177.08 158.065187 
L 179.064 157.78024 
L 181.048 157.78024 
L 183.032 157.210346 
L 185.016 156.355505 
L 187 155.215717 
L 190.968 154.645823 
L 192.952 154.645823 
L 194.936 154.360876 
L 196.92 153.790982 
L 198.904 154.645823 
L 200.888 153.506035 
L 202.872 153.790982 
L 204.856 153.221088 
L 206.84 155.215717 
L 208.824 155.500664 
L 210.808 156.640452 
L 212.792 153.221088 
L 214.776 150.656565 
L 216.76 146.667307 
L 218.744 147.807095 
L 220.728 147.807095 
L 222.712 147.237201 
L 224.696 145.242572 
L 228.664 142.393102 
L 230.648 139.258686 
L 232.632 138.688792 
L 234.616 137.549004 
L 236.6 139.258686 
L 238.584 138.973739 
L 240.568 140.398473 
L 242.552 137.833951 
L 244.536 136.124269 
L 246.52 133.844693 
L 248.504 133.559746 
L 250.488 132.989852 
L 252.472 128.4307 
L 254.456 128.715647 
L 256.44 130.140382 
L 258.424 130.425329 
L 260.408 132.419958 
L 264.376 132.419958 
L 266.36 134.12964 
L 268.344 137.264057 
L 270.328 136.409216 
L 272.312 138.118898 
L 274.296 137.264057 
L 276.28 138.688792 
L 278.264 140.68342 
L 280.248 140.113527 
L 282.232 139.82858 
L 284.216 138.403845 
L 286.2 143.817837 
L 288.184 183.42547 
L 290.168 225.312678 
L 292.152 261.216 
L 294.136 252.097696 
L 298.104 224.457837 
L 300.088 215.054587 
L 302.072 208.215859 
L 304.056 197.957767 
L 306.04 194.82335 
L 308.024 195.393244 
L 310.008 194.253456 
L 311.992 183.995364 
L 317.944 102.500523 
L 319.928 81.699392 
L 321.912 66.312254 
L 323.896 49.500382 
L 325.88 42.09176 
L 327.864 35.537979 
L 329.848 29.554092 
L 331.832 27.84441 
L 333.816 23.570205 
L 335.8 21.290629 
L 337.784 19.296 
L 339.768 19.865894 
L 343.736 29.839039 
L 345.72 36.962714 
L 347.704 41.806813 
L 349.688 52.919746 
L 351.672 56.33911 
L 353.656 61.183208 
L 355.64 61.468155 
L 357.624 64.887519 
L 359.608 73.150982 
L 361.592 79.704763 
L 367.544 95.376848 
L 369.528 99.366106 
L 371.512 105.065046 
L 373.496 107.914516 
L 375.48 113.898403 
L 377.464 116.177979 
L 379.448 118.172608 
L 381.432 116.747873 
L 383.416 117.887661 
L 385.4 121.591972 
L 387.384 127.575859 
L 391.352 134.414587 
L 393.336 137.264057 
L 395.32 138.688792 
L 395.32 138.688792 
" clip-path="url(#pe3dad53936)" style="fill: none; stroke: #bc80bd; stroke-width: 2; stroke-linecap: square"/>
   </g>
   <g id="line2d_21">
    <path d="M 38.2 230.441724 
L 40.184 225.312678 
L 42.168 223.318049 
L 44.152 220.753527 
L 46.136 221.893314 
L 48.12 224.457837 
L 50.104 228.162148 
L 52.088 230.726671 
L 54.072 229.87183 
L 56.056 230.441724 
L 58.04 229.016989 
L 60.024 228.732042 
L 62.008 227.877201 
L 63.992 229.301936 
L 65.976 228.732042 
L 67.96 227.877201 
L 69.944 227.877201 
L 71.928 229.586883 
L 73.912 230.156777 
L 75.896 228.447095 
L 77.88 227.592254 
L 79.864 225.597625 
L 81.848 224.17289 
L 83.832 223.318049 
L 85.816 223.318049 
L 87.8 221.893314 
L 89.784 219.328792 
L 91.768 219.328792 
L 93.752 217.904057 
L 95.736 218.189004 
L 97.72 215.054587 
L 99.704 213.914799 
L 101.688 210.780382 
L 103.672 209.0707 
L 105.656 209.355647 
L 107.64 206.22123 
L 109.624 205.651336 
L 111.608 201.947025 
L 113.592 201.092184 
L 115.576 198.812608 
L 117.56 194.82335 
L 119.544 190.549145 
L 121.528 185.420099 
L 123.512 181.145894 
L 125.496 178.011477 
L 127.48 177.156636 
L 129.464 174.592113 
L 131.448 174.022219 
L 133.432 168.608226 
L 135.416 167.468438 
L 137.4 166.043703 
L 139.384 166.613597 
L 141.368 164.334021 
L 143.352 161.484551 
L 147.32 160.914657 
L 149.304 160.914657 
L 151.288 158.635081 
L 153.272 158.065187 
L 155.256 157.78024 
L 157.24 157.78024 
L 159.224 157.210346 
L 161.208 156.355505 
L 163.192 155.215717 
L 167.16 154.645823 
L 169.144 154.645823 
L 171.128 154.360876 
L 173.112 153.790982 
L 175.096 154.645823 
L 177.08 153.506035 
L 179.064 153.790982 
L 181.048 153.221088 
L 183.032 155.215717 
L 185.016 155.500664 
L 187 156.640452 
L 188.984 153.221088 
L 190.968 150.656565 
L 192.952 146.667307 
L 194.936 147.807095 
L 196.92 147.807095 
L 198.904 147.237201 
L 200.888 145.242572 
L 204.856 142.393102 
L 206.84 139.258686 
L 208.824 138.688792 
L 210.808 137.549004 
L 212.792 139.258686 
L 214.776 138.973739 
L 216.76 140.398473 
L 218.744 137.833951 
L 220.728 136.124269 
L 222.712 133.844693 
L 224.696 133.559746 
L 226.68 132.989852 
L 228.664 128.4307 
L 230.648 128.715647 
L 232.632 130.140382 
L 234.616 130.425329 
L 236.6 132.419958 
L 240.568 132.419958 
L 242.552 134.12964 
L 244.536 137.264057 
L 246.52 136.409216 
L 248.504 138.118898 
L 250.488 137.264057 
L 252.472 138.688792 
L 254.456 140.68342 
L 256.44 140.113527 
L 258.424 139.82858 
L 260.408 138.403845 
L 262.392 143.817837 
L 264.376 183.42547 
L 266.36 225.312678 
L 268.344 261.216 
L 270.328 252.097696 
L 274.296 224.457837 
L 276.28 215.054587 
L 278.264 208.215859 
L 280.248 197.957767 
L 282.232 194.82335 
L 284.216 195.393244 
L 286.2 194.253456 
L 288.184 183.995364 
L 294.136 102.500523 
L 296.12 81.699392 
L 298.104 66.312254 
L 300.088 49.500382 
L 302.072 42.09176 
L 304.056 35.537979 
L 306.04 29.554092 
L 308.024 27.84441 
L 310.008 23.570205 
L 311.992 21.290629 
L 313.976 19.296 
L 315.96 19.865894 
L 319.928 29.839039 
L 321.912 36.962714 
L 323.896 41.806813 
L 325.88 52.919746 
L 327.864 56.33911 
L 329.848 61.183208 
L 331.832 61.468155 
L 333.816 64.887519 
L 335.8 73.150982 
L 337.784 79.704763 
L 343.736 95.376848 
L 345.72 99.366106 
L 347.704 105.065046 
L 349.688 107.914516 
L 351.672 113.898403 
L 353.656 116.177979 
L 355.64 118.172608 
L 357.624 116.747873 
L 359.608 117.887661 
L 361.592 121.591972 
L 363.576 127.575859 
L 367.544 134.414587 
L 369.528 137.264057 
L 371.512 138.688792 
L 371.512 138.688792 
" clip-path="url(#pe3dad53936)" style="fill: none; stroke: #fb8072; stroke-width: 2; stroke-linecap: square"/>
   </g>
   <g id="line2d_22">
    <path d="M 38.2 235.57077 
L 40.184 233.006247 
L 42.168 233.861088 
L 44.152 234.430982 
L 46.136 233.291194 
L 48.12 228.732042 
L 50.104 226.737413 
L 52.088 224.457837 
L 54.072 225.597625 
L 58.04 222.178261 
L 60.024 221.038473 
L 62.008 223.887943 
L 63.992 228.732042 
L 65.976 230.156777 
L 67.96 230.441724 
L 69.944 225.312678 
L 71.928 223.318049 
L 73.912 220.753527 
L 75.896 221.893314 
L 77.88 224.457837 
L 79.864 228.162148 
L 81.848 230.726671 
L 83.832 229.87183 
L 85.816 230.441724 
L 87.8 229.016989 
L 89.784 228.732042 
L 91.768 227.877201 
L 93.752 229.301936 
L 95.736 228.732042 
L 97.72 227.877201 
L 99.704 227.877201 
L 101.688 229.586883 
L 103.672 230.156777 
L 105.656 228.447095 
L 107.64 227.592254 
L 109.624 225.597625 
L 111.608 224.17289 
L 113.592 223.318049 
L 115.576 223.318049 
L 117.56 221.893314 
L 119.544 219.328792 
L 121.528 219.328792 
L 123.512 217.904057 
L 125.496 218.189004 
L 127.48 215.054587 
L 129.464 213.914799 
L 131.448 210.780382 
L 133.432 209.0707 
L 135.416 209.355647 
L 137.4 206.22123 
L 139.384 205.651336 
L 141.368 201.947025 
L 143.352 201.092184 
L 145.336 198.812608 
L 147.32 194.82335 
L 149.304 190.549145 
L 151.288 185.420099 
L 153.272 181.145894 
L 155.256 178.011477 
L 157.24 177.156636 
L 159.224 174.592113 
L 161.208 174.022219 
L 163.192 168.608226 
L 165.176 167.468438 
L 167.16 166.043703 
L 169.144 166.613597 
L 171.128 164.334021 
L 173.112 161.484551 
L 177.08 160.914657 
L 179.064 160.914657 
L 181.048 158.635081 
L 183.032 158.065187 
L 185.016 157.78024 
L 187 157.78024 
L 188.984 157.210346 
L 190.968 156.355505 
L 192.952 155.215717 
L 196.92 154.645823 
L 198.904 154.645823 
L 200.888 154.360876 
L 202.872 153.790982 
L 204.856 154.645823 
L 206.84 153.506035 
L 208.824 153.790982 
L 210.808 153.221088 
L 212.792 155.215717 
L 214.776 155.500664 
L 216.76 156.640452 
L 218.744 153.221088 
L 220.728 150.656565 
L 222.712 146.667307 
L 224.696 147.807095 
L 226.68 147.807095 
L 228.664 147.237201 
L 230.648 145.242572 
L 234.616 142.393102 
L 236.6 139.258686 
L 238.584 138.688792 
L 240.568 137.549004 
L 242.552 139.258686 
L 244.536 138.973739 
L 246.52 140.398473 
L 248.504 137.833951 
L 250.488 136.124269 
L 252.472 133.844693 
L 254.456 133.559746 
L 256.44 132.989852 
L 258.424 128.4307 
L 260.408 128.715647 
L 262.392 130.140382 
L 264.376 130.425329 
L 266.36 132.419958 
L 270.328 132.419958 
L 272.312 134.12964 
L 274.296 137.264057 
L 276.28 136.409216 
L 278.264 138.118898 
L 280.248 137.264057 
L 282.232 138.688792 
L 284.216 140.68342 
L 286.2 140.113527 
L 288.184 139.82858 
L 290.168 138.403845 
L 292.152 143.817837 
L 294.136 183.42547 
L 296.12 225.312678 
L 298.104 261.216 
L 300.088 252.097696 
L 304.056 224.457837 
L 306.04 215.054587 
L 308.024 208.215859 
L 310.008 197.957767 
L 311.992 194.82335 
L 313.976 195.393244 
L 315.96 194.253456 
L 317.944 183.995364 
L 323.896 102.500523 
L 325.88 81.699392 
L 327.864 66.312254 
L 329.848 49.500382 
L 331.832 42.09176 
L 333.816 35.537979 
L 335.8 29.554092 
L 337.784 27.84441 
L 339.768 23.570205 
L 341.752 21.290629 
L 343.736 19.296 
L 345.72 19.865894 
L 349.688 29.839039 
L 351.672 36.962714 
L 353.656 41.806813 
L 355.64 52.919746 
L 357.624 56.33911 
L 359.608 61.183208 
L 361.592 61.468155 
L 363.576 64.887519 
L 365.56 73.150982 
L 367.544 79.704763 
L 373.496 95.376848 
L 375.48 99.366106 
L 377.464 105.065046 
L 379.448 107.914516 
L 381.432 113.898403 
L 383.416 116.177979 
L 385.4 118.172608 
L 387.384 116.747873 
L 389.368 117.887661 
L 391.352 121.591972 
L 393.336 127.575859 
L 395.32 130.995223 
L 395.32 130.995223 
" clip-path="url(#pe3dad53936)" style="fill: none; stroke: #b3de69; stroke-width: 2; stroke-linecap: square"/>
   </g>
   <g id="patch_3">
    <path d="M 38.2 273.312 
L 38.2 7.2 
" style="fill: none; stroke: #000000; stroke-width: 0.6; stroke-linejoin: miter; stroke-linecap: square"/>
   </g>
   <g id="patch_4">
    <path d="M 38.2 273.312 
L 395.32 273.312 
" style="fill: none; stroke: #000000; stroke-width: 0.6; stroke-linejoin: miter; stroke-linecap: square"/>
   </g>
   <g id="legend_1">
    <g id="patch_5">
     <path d="M 45.2 51.720312 
L 184.564062 51.720312 
Q 186.564062 51.720312 186.564062 49.720312 
L 186.564062 14.2 
Q 186.564062 12.2 184.564062 12.2 
L 45.2 12.2 
Q 43.2 12.2 43.2 14.2 
L 43.2 49.720312 
Q 43.2 51.720312 45.2 51.720312 
z
" style="fill: #ffffff; opacity: 0.8; stroke: #e6e6e6; stroke-width: 0.8; stroke-linejoin: miter"/>
    </g>
    <g id="line2d_23">
     <path d="M 45.2 17.7 
L 55.2 17.7 
L 65.2 17.7 
" style="fill: none; stroke: #bc80bd; stroke-width: 2; stroke-linecap: square"/>
    </g>
    <g id="text_13">
     <!-- Vacancies (ICT), thousands -->
     <g style="fill: #323034" transform="translate(73.2 21.2) scale(0.1 -0.1)">
      <defs>
       <path id="STIXGeneral-Regular-56" d="M 4461 4237 
L 4461 4115 
Q 4262 4109 4134 3990 
Q 4006 3872 3872 3533 
L 2451 -70 
L 2355 -70 
L 794 3411 
Q 589 3866 467 3987 
Q 346 4109 102 4115 
L 102 4237 
L 1798 4237 
L 1798 4115 
L 1619 4102 
Q 1331 4083 1331 3904 
Q 1331 3776 1581 3219 
L 2554 1030 
L 3494 3392 
Q 3616 3699 3616 3853 
Q 3616 3898 3606 3933 
Q 3597 3968 3584 3993 
Q 3571 4019 3536 4038 
Q 3501 4058 3481 4067 
Q 3462 4077 3411 4086 
Q 3360 4096 3337 4099 
Q 3315 4102 3248 4108 
Q 3181 4115 3155 4115 
L 3155 4237 
L 4461 4237 
z
" transform="scale(0.015625)"/>
       <path id="STIXGeneral-Regular-63" d="M 2547 998 
L 2637 941 
Q 2362 403 2112 205 
Q 1786 -64 1376 -64 
Q 845 -64 502 336 
Q 160 736 160 1357 
Q 160 2170 698 2618 
Q 1094 2944 1562 2944 
Q 1965 2944 2256 2749 
Q 2547 2554 2547 2285 
Q 2547 2176 2457 2096 
Q 2368 2016 2246 2016 
Q 2022 2016 1939 2310 
L 1901 2451 
Q 1850 2630 1773 2694 
Q 1696 2758 1523 2758 
Q 1133 2758 893 2451 
Q 653 2144 653 1645 
Q 653 1094 928 745 
Q 1203 397 1645 397 
Q 1920 397 2118 528 
Q 2317 659 2547 998 
z
" transform="scale(0.015625)"/>
       <path id="STIXGeneral-Regular-6e" d="M 3104 0 
L 1773 0 
L 1779 96 
Q 2016 115 2096 233 
Q 2176 352 2176 672 
L 2176 1946 
Q 2176 2592 1709 2592 
Q 1549 2592 1408 2515 
Q 1267 2438 1050 2227 
L 1050 461 
Q 1050 269 1136 192 
Q 1222 115 1466 96 
L 1466 0 
L 115 0 
L 115 96 
Q 358 115 435 214 
Q 512 314 512 602 
L 512 2157 
Q 512 2394 467 2483 
Q 422 2573 288 2573 
Q 160 2573 102 2547 
L 102 2656 
Q 550 2784 979 2944 
L 1030 2925 
L 1030 2426 
L 1037 2426 
Q 1491 2944 1958 2944 
Q 2323 2944 2518 2688 
Q 2714 2432 2714 1958 
L 2714 544 
Q 2714 288 2790 205 
Q 2867 122 3104 96 
L 3104 0 
z
" transform="scale(0.015625)"/>
       <path id="STIXGeneral-Regular-69" d="M 1152 4045 
Q 1152 3904 1056 3811 
Q 960 3718 819 3718 
Q 685 3718 592 3811 
Q 499 3904 499 4045 
Q 499 4179 595 4275 
Q 691 4371 826 4371 
Q 966 4371 1059 4275 
Q 1152 4179 1152 4045 
z
M 1619 0 
L 102 0 
L 102 96 
Q 435 115 521 211 
Q 608 307 608 666 
L 608 2118 
Q 608 2342 563 2432 
Q 518 2522 397 2522 
Q 243 2522 128 2490 
L 128 2592 
L 1120 2944 
L 1146 2918 
L 1146 672 
Q 1146 314 1226 218 
Q 1306 122 1619 96 
L 1619 0 
z
" transform="scale(0.015625)"/>
       <path id="STIXGeneral-Regular-73" d="M 998 1926 
L 1664 1523 
Q 1984 1331 2105 1164 
Q 2227 998 2227 736 
Q 2227 416 1961 176 
Q 1696 -64 1331 -64 
Q 1030 -64 864 -6 
Q 691 51 570 51 
Q 461 51 416 -26 
L 333 -26 
L 333 979 
L 435 979 
Q 538 512 730 294 
Q 922 77 1248 77 
Q 1485 77 1632 211 
Q 1779 346 1779 550 
Q 1779 845 1440 1030 
L 1094 1222 
Q 326 1651 326 2150 
Q 326 2522 566 2730 
Q 806 2938 1210 2938 
Q 1491 2938 1638 2867 
Q 1754 2816 1818 2816 
Q 1862 2816 1920 2880 
L 1990 2880 
L 2022 2010 
L 1926 2010 
Q 1818 2445 1654 2621 
Q 1491 2797 1203 2797 
Q 986 2797 854 2688 
Q 723 2579 723 2362 
Q 723 2253 796 2128 
Q 870 2003 998 1926 
z
" transform="scale(0.015625)"/>
       <path id="STIXGeneral-Regular-20" transform="scale(0.015625)"/>
       <path id="STIXGeneral-Regular-28" d="M 1946 -1030 
L 1869 -1133 
Q 1126 -710 716 32 
Q 307 774 307 1613 
Q 307 3386 1888 4326 
L 1946 4224 
Q 1293 3667 1075 3126 
Q 858 2586 858 1632 
Q 858 685 1082 96 
Q 1306 -493 1946 -1030 
z
" transform="scale(0.015625)"/>
       <path id="STIXGeneral-Regular-49" d="M 2016 0 
L 115 0 
L 115 122 
Q 518 134 627 240 
Q 736 346 736 717 
L 736 3526 
Q 736 3898 633 3994 
Q 531 4090 115 4115 
L 115 4237 
L 2016 4237 
L 2016 4115 
Q 1613 4096 1501 3993 
Q 1389 3891 1389 3526 
L 1389 717 
Q 1389 358 1504 246 
Q 1619 134 2016 122 
L 2016 0 
z
" transform="scale(0.015625)"/>
       <path id="STIXGeneral-Regular-43" d="M 3930 838 
L 4051 723 
Q 3482 -90 2304 -90 
Q 1376 -90 794 480 
Q 179 1082 179 2080 
Q 179 3014 755 3661 
Q 1357 4326 2310 4326 
Q 2720 4326 3072 4230 
Q 3475 4115 3514 4115 
Q 3725 4115 3782 4326 
L 3910 4326 
L 3968 2874 
L 3821 2874 
Q 3718 3334 3488 3584 
Q 3034 4070 2458 4070 
Q 1747 4070 1334 3548 
Q 922 3027 922 2182 
Q 922 1152 1382 653 
Q 1811 192 2522 192 
Q 2944 192 3251 339 
Q 3558 486 3930 838 
z
" transform="scale(0.015625)"/>
       <path id="STIXGeneral-Regular-54" d="M 3795 3149 
L 3642 3149 
Q 3539 3674 3353 3821 
Q 3168 3968 2656 3968 
L 2278 3968 
L 2278 710 
Q 2278 346 2387 243 
Q 2496 141 2893 122 
L 2893 0 
L 1024 0 
L 1024 122 
Q 1427 147 1526 256 
Q 1626 365 1626 787 
L 1626 3968 
L 1242 3968 
Q 723 3968 540 3817 
Q 358 3667 262 3149 
L 109 3149 
L 154 4237 
L 3750 4237 
L 3795 3149 
z
" transform="scale(0.015625)"/>
       <path id="STIXGeneral-Regular-29" d="M 186 4224 
L 262 4326 
Q 992 3891 1408 3148 
Q 1824 2406 1824 1581 
Q 1824 -166 243 -1133 
L 186 -1030 
Q 845 -486 1059 54 
Q 1274 595 1274 1562 
Q 1274 2534 1059 3120 
Q 845 3706 186 4224 
z
" transform="scale(0.015625)"/>
       <path id="STIXGeneral-Regular-2c" d="M 531 -902 
L 467 -781 
Q 998 -422 998 -96 
Q 998 -13 909 -13 
Q 883 -13 822 -25 
Q 762 -38 723 -38 
Q 352 -38 352 288 
Q 352 454 457 553 
Q 563 653 736 653 
Q 954 653 1101 496 
Q 1248 339 1248 96 
Q 1248 -198 1053 -473 
Q 858 -749 531 -902 
z
" transform="scale(0.015625)"/>
       <path id="STIXGeneral-Regular-68" d="M 3117 0 
L 1760 0 
L 1760 96 
Q 2042 128 2118 224 
Q 2195 320 2195 653 
L 2195 1920 
Q 2195 2598 1722 2598 
Q 1530 2598 1370 2508 
Q 1210 2419 1005 2195 
L 1005 653 
Q 1005 320 1081 224 
Q 1158 128 1440 96 
L 1440 0 
L 58 0 
L 58 96 
Q 333 134 400 224 
Q 467 314 467 653 
L 467 3667 
Q 467 3872 406 3933 
Q 346 3994 141 3994 
Q 83 3994 64 3987 
L 64 4090 
L 237 4141 
Q 730 4288 973 4371 
L 1005 4352 
L 1005 2406 
Q 1229 2694 1446 2819 
Q 1664 2944 1946 2944 
Q 2733 2944 2733 1926 
L 2733 653 
Q 2733 320 2793 233 
Q 2854 147 3117 96 
L 3117 0 
z
" transform="scale(0.015625)"/>
       <path id="STIXGeneral-Regular-6f" d="M 3008 1478 
Q 3008 806 2608 371 
Q 2208 -64 1568 -64 
Q 979 -64 582 368 
Q 186 800 186 1459 
Q 186 2125 582 2534 
Q 979 2944 1626 2944 
Q 2221 2944 2614 2537 
Q 3008 2131 3008 1478 
z
M 2432 1306 
Q 2432 2035 2112 2445 
Q 1856 2765 1504 2765 
Q 1171 2765 966 2493 
Q 762 2221 762 1747 
Q 762 928 1101 435 
Q 1318 115 1677 115 
Q 2029 115 2230 432 
Q 2432 749 2432 1306 
z
" transform="scale(0.015625)"/>
       <path id="STIXGeneral-Regular-75" d="M 3072 320 
L 3072 230 
Q 2573 96 2195 -58 
L 2163 -38 
L 2163 486 
L 2150 486 
Q 1747 -64 1235 -64 
Q 870 -64 662 160 
Q 454 384 454 755 
L 454 2362 
Q 454 2598 371 2688 
Q 288 2778 58 2790 
L 58 2880 
L 992 2880 
L 992 813 
Q 992 595 1123 451 
Q 1254 307 1446 307 
Q 1760 307 1984 506 
Q 2067 582 2099 649 
Q 2131 717 2131 877 
L 2131 2355 
Q 2131 2605 2041 2678 
Q 1952 2752 1658 2771 
L 1658 2880 
L 2669 2880 
L 2669 685 
Q 2669 461 2742 390 
Q 2816 320 3034 320 
L 3072 320 
z
" transform="scale(0.015625)"/>
      </defs>
      <use xlink:href="#STIXGeneral-Regular-56"/>
      <use xlink:href="#STIXGeneral-Regular-61" transform="translate(72.199982 0)"/>
      <use xlink:href="#STIXGeneral-Regular-63" transform="translate(116.599976 0)"/>
      <use xlink:href="#STIXGeneral-Regular-61" transform="translate(160.999969 0)"/>
      <use xlink:href="#STIXGeneral-Regular-6e" transform="translate(205.399963 0)"/>
      <use xlink:href="#STIXGeneral-Regular-63" transform="translate(255.399948 0)"/>
      <use xlink:href="#STIXGeneral-Regular-69" transform="translate(299.799942 0)"/>
      <use xlink:href="#STIXGeneral-Regular-65" transform="translate(327.59993 0)"/>
      <use xlink:href="#STIXGeneral-Regular-73" transform="translate(371.999924 0)"/>
      <use xlink:href="#STIXGeneral-Regular-20" transform="translate(410.899918 0)"/>
      <use xlink:href="#STIXGeneral-Regular-28" transform="translate(435.899902 0)"/>
      <use xlink:href="#STIXGeneral-Regular-49" transform="translate(469.19989 0)"/>
      <use xlink:href="#STIXGeneral-Regular-43" transform="translate(502.499878 0)"/>
      <use xlink:href="#STIXGeneral-Regular-54" transform="translate(569.199875 0)"/>
      <use xlink:href="#STIXGeneral-Regular-29" transform="translate(630.299866 0)"/>
      <use xlink:href="#STIXGeneral-Regular-2c" transform="translate(663.599854 0)"/>
      <use xlink:href="#STIXGeneral-Regular-20" transform="translate(688.599838 0)"/>
      <use xlink:href="#STIXGeneral-Regular-74" transform="translate(713.599823 0)"/>
      <use xlink:href="#STIXGeneral-Regular-68" transform="translate(741.399811 0)"/>
      <use xlink:href="#STIXGeneral-Regular-6f" transform="translate(791.399796 0)"/>
      <use xlink:href="#STIXGeneral-Regular-75" transform="translate(841.39978 0)"/>
      <use xlink:href="#STIXGeneral-Regular-73" transform="translate(891.399765 0)"/>
      <use xlink:href="#STIXGeneral-Regular-61" transform="translate(930.299759 0)"/>
      <use xlink:href="#STIXGeneral-Regular-6e" transform="translate(974.699753 0)"/>
      <use xlink:href="#STIXGeneral-Regular-64" transform="translate(1024.699738 0)"/>
      <use xlink:href="#STIXGeneral-Regular-73" transform="translate(1074.699722 0)"/>
     </g>
    </g>
    <g id="line2d_24">
     <path d="M 45.2 30.870313 
L 55.2 30.870313 
L 65.2 30.870313 
" style="fill: none; stroke: #fb8072; stroke-width: 2; stroke-linecap: square"/>
    </g>
    <g id="text_14">
     <!-- lead (12 months) -->
     <g style="fill: #323034" transform="translate(73.2 34.370313) scale(0.1 -0.1)">
      <defs>
       <path id="STIXGeneral-Regular-6c" d="M 1645 0 
L 134 0 
L 134 96 
Q 435 122 531 221 
Q 627 320 627 589 
L 627 3590 
Q 627 3821 569 3910 
Q 512 4000 358 4000 
Q 224 4000 122 3987 
L 122 4090 
Q 730 4237 1133 4371 
L 1165 4346 
L 1165 557 
Q 1165 288 1254 201 
Q 1344 115 1645 96 
L 1645 0 
z
" transform="scale(0.015625)"/>
       <path id="STIXGeneral-Regular-6d" d="M 4960 0 
L 3565 0 
L 3565 96 
Q 3834 122 3907 208 
Q 3981 294 3981 576 
L 3981 1894 
Q 3981 2278 3869 2444 
Q 3757 2611 3488 2611 
Q 3264 2611 3107 2521 
Q 2950 2432 2803 2221 
L 2803 608 
Q 2803 301 2896 201 
Q 2989 102 3264 96 
L 3264 0 
L 1830 0 
L 1830 96 
Q 2112 115 2189 188 
Q 2266 262 2266 550 
L 2266 1901 
Q 2266 2611 1850 2611 
Q 1670 2611 1468 2531 
Q 1267 2451 1171 2336 
Q 1088 2240 1088 2227 
L 1088 448 
Q 1088 243 1177 176 
Q 1267 109 1523 96 
L 1523 0 
L 102 0 
L 102 96 
Q 371 102 460 195 
Q 550 288 550 563 
L 550 2150 
Q 550 2387 499 2480 
Q 448 2573 326 2573 
Q 230 2573 122 2547 
L 122 2656 
Q 557 2778 1011 2944 
L 1062 2925 
L 1062 2451 
L 1075 2451 
Q 1363 2752 1584 2848 
Q 1805 2944 2054 2944 
Q 2560 2944 2733 2406 
Q 3232 2944 3776 2944 
Q 4518 2944 4518 1792 
L 4518 493 
Q 4518 282 4582 202 
Q 4646 122 4794 109 
L 4960 96 
L 4960 0 
z
" transform="scale(0.015625)"/>
      </defs>
      <use xlink:href="#STIXGeneral-Regular-6c"/>
      <use xlink:href="#STIXGeneral-Regular-65" transform="translate(27.799988 0)"/>
      <use xlink:href="#STIXGeneral-Regular-61" transform="translate(72.199982 0)"/>
      <use xlink:href="#STIXGeneral-Regular-64" transform="translate(116.599976 0)"/>
      <use xlink:href="#STIXGeneral-Regular-20" transform="translate(166.59996 0)"/>
      <use xlink:href="#STIXGeneral-Regular-28" transform="translate(191.599945 0)"/>
      <use xlink:href="#STIXGeneral-Regular-31" transform="translate(224.899933 0)"/>
      <use xlink:href="#STIXGeneral-Regular-32" transform="translate(274.899918 0)"/>
      <use xlink:href="#STIXGeneral-Regular-20" transform="translate(324.899902 0)"/>
      <use xlink:href="#STIXGeneral-Regular-6d" transform="translate(349.899887 0)"/>
      <use xlink:href="#STIXGeneral-Regular-6f" transform="translate(427.699875 0)"/>
      <use xlink:href="#STIXGeneral-Regular-6e" transform="translate(477.69986 0)"/>
      <use xlink:href="#STIXGeneral-Regular-74" transform="translate(527.699844 0)"/>
      <use xlink:href="#STIXGeneral-Regular-68" transform="translate(555.499832 0)"/>
      <use xlink:href="#STIXGeneral-Regular-73" transform="translate(605.499817 0)"/>
      <use xlink:href="#STIXGeneral-Regular-29" transform="translate(644.399811 0)"/>
     </g>
    </g>
    <g id="line2d_25">
     <path d="M 45.2 44.040625 
L 55.2 44.040625 
L 65.2 44.040625 
" style="fill: none; stroke: #b3de69; stroke-width: 2; stroke-linecap: square"/>
    </g>
    <g id="text_15">
     <!-- lag (3 months) -->
     <g style="fill: #323034" transform="translate(73.2 47.540625) scale(0.1 -0.1)">
      <defs>
       <path id="STIXGeneral-Regular-67" d="M 3008 2483 
L 2477 2483 
Q 2598 2208 2598 1946 
Q 2598 1453 2265 1203 
Q 1933 954 1600 954 
Q 1530 954 1357 973 
L 1235 986 
Q 1107 947 979 812 
Q 851 678 851 582 
Q 851 435 1350 410 
L 2176 371 
Q 2528 358 2739 172 
Q 2950 -13 2950 -314 
Q 2950 -685 2566 -986 
Q 2035 -1395 1286 -1395 
Q 826 -1395 502 -1212 
Q 179 -1030 179 -774 
Q 179 -595 320 -419 
Q 461 -243 806 6 
Q 602 102 534 172 
Q 467 243 467 346 
Q 467 531 762 787 
Q 909 915 1037 1043 
Q 717 1203 579 1401 
Q 442 1600 442 1901 
Q 442 2336 752 2640 
Q 1062 2944 1510 2944 
Q 1766 2944 2022 2848 
L 2163 2797 
Q 2349 2733 2515 2733 
L 3008 2733 
L 3008 2483 
z
M 973 2163 
L 973 2144 
Q 973 1683 1155 1398 
Q 1338 1114 1632 1114 
Q 1850 1114 1978 1270 
Q 2106 1427 2106 1690 
Q 2106 2112 1914 2464 
Q 1754 2765 1446 2765 
Q 1222 2765 1097 2605 
Q 973 2445 973 2163 
z
M 2771 -410 
Q 2771 -230 2595 -163 
Q 2419 -96 1978 -96 
Q 1344 -96 941 -13 
Q 749 -243 688 -348 
Q 627 -454 627 -563 
Q 627 -774 880 -902 
Q 1133 -1030 1555 -1030 
Q 2099 -1030 2435 -860 
Q 2771 -691 2771 -410 
z
" transform="scale(0.015625)"/>
      </defs>
      <use xlink:href="#STIXGeneral-Regular-6c"/>
      <use xlink:href="#STIXGeneral-Regular-61" transform="translate(27.799988 0)"/>
      <use xlink:href="#STIXGeneral-Regular-67" transform="translate(72.199982 0)"/>
      <use xlink:href="#STIXGeneral-Regular-20" transform="translate(122.199966 0)"/>
      <use xlink:href="#STIXGeneral-Regular-28" transform="translate(147.199951 0)"/>
      <use xlink:href="#STIXGeneral-Regular-33" transform="translate(180.499939 0)"/>
      <use xlink:href="#STIXGeneral-Regular-20" transform="translate(230.499924 0)"/>
      <use xlink:href="#STIXGeneral-Regular-6d" transform="translate(255.499908 0)"/>
      <use xlink:href="#STIXGeneral-Regular-6f" transform="translate(333.299896 0)"/>
      <use xlink:href="#STIXGeneral-Regular-6e" transform="translate(383.299881 0)"/>
      <use xlink:href="#STIXGeneral-Regular-74" transform="translate(433.299866 0)"/>
      <use xlink:href="#STIXGeneral-Regular-68" transform="translate(461.099854 0)"/>
      <use xlink:href="#STIXGeneral-Regular-73" transform="translate(511.099838 0)"/>
      <use xlink:href="#STIXGeneral-Regular-29" transform="translate(549.999832 0)"/>
     </g>
    </g>
   </g>
  </g>
 </g>
 <defs>
  <clipPath id="pe3dad53936">
   <rect x="38.2" y="7.2" width="357.12" height="266.112"/>
  </clipPath>
 </defs>
</svg>